<?xml version="1.0" encoding="utf-8"?>
<!-- Generator: Adobe Illustrator 16.0.0, SVG Export Plug-In . SVG Version: 6.00 Build 0)  -->
<!DOCTYPE svg PUBLIC "-//W3C//DTD SVG 1.1//EN" "http://www.w3.org/Graphics/SVG/1.1/DTD/svg11.dtd">
<svg version="1.1" id="Layer_1" xmlns="http://www.w3.org/2000/svg" xmlns:xlink="http://www.w3.org/1999/xlink" x="0px" y="0px"
	 width="2048.845px" height="2049px" viewBox="0 0 2048.845 2049" enable-background="new 0 0 2048.845 2049" xml:space="preserve">
<g>
	<path fill-rule="evenodd" clip-rule="evenodd" d="M947,2049c-2.334-15.436-4.144-30.973-7.099-46.288
		c-9.656-50.048-25.731-98.022-48.869-143.447c-6.917-13.58-15.897-26.109-23.951-39.108c-0.317-0.513-0.834-0.902-1.582-1.691
		c-1.201,4.9-2.044,9.418-3.427,13.765c-3.582,11.266-14.42,14.066-23.354,6.131c-7.21-6.402-8.512-14.854-6.044-23.339
		c1.954-6.718,5.668-13.021,9.257-19.124c1.773-3.017,2.081-5.298,0.408-8.188c-6.064-10.476-12.747-20.173-24.453-25.38
		c-8.63-3.838-16.856-8.572-25.341-12.747c-1.988-0.978-4.297-1.307-7.609-2.27c1.285,3.222,2.081,5.296,2.937,7.346
		c4.685,11.216,1.725,19.747-9.17,25.433c-11.956,6.241-24.847,6.914-37.429,3.456c-24.963-6.861-44.43-21.39-56.8-44.547
		c-0.836-1.564-1.034-4.403-0.165-5.802c11.002-17.707,26.129-29.89,46.896-34.449c11.282-2.477,21.105,0.317,28.563,8.8
		c5.89,6.7,11.194,14.118,15.572,21.887c4.82,8.553,11.215,14.636,20.145,18.44c5.648,2.407,11.09,5.296,16.674,7.86
		c2.215,1.018,4.564,1.742,7.725,1.802c-1.489-2.589-2.695-5.398-4.512-7.732c-14.319-18.388-28.568-36.836-43.225-54.954
		c-8.793-10.869-18.284-21.172-27.446-31.741c-5.722-6.602-12.735-8.198-21.188-6.429c-21.95,4.598-43.984,8.791-65.968,13.234
		c-12.288,2.483-23.133,8.04-32.834,15.916c-1.012,0.821-2.117,1.528-4.342,3.122c0.916-2.345,1.082-3.693,1.826-4.522
		c3.991-4.447,7.609-9.444,12.299-13.015c24.169-18.396,50.634-31.831,82.199-35.806c-1.539-1.849-2.544-3.485-3.938-4.661
		c-15.396-13.001-30.443-26.472-46.487-38.624c-6.794-5.146-15.607-7.771-23.754-10.885c-1.971-0.753-6.317,0.302-7.232,1.88
		c-8.008,13.82-20.803,19.543-35.61,22.075c-20.713,3.542-41.453,3.391-62.109-0.38c-5.891-1.075-12.196-2.55-13.665-9.744
		c-1.513-7.414,2.313-12.938,7.841-17.191c11.005-8.469,24.029-12.85,37.019-16.937c14.217-4.473,28.708-8.075,44.779-12.528
		c-2.566-2.02-4.7-3.716-6.853-5.389c-8.805-6.845-17.567-13.745-26.441-20.499c-6.17-4.696-8.008-5.044-14.062-0.274
		c-11.897,9.371-23.229,19.46-35.129,28.829c-8.35,6.573-17.017,12.813-25.981,18.511c-6.771,4.303-14.325,7.047-22.737,5.391
		c-9.504-1.87-13.297-11.472-6.418-18.304c4.31-4.28,10.189-7.438,15.909-9.748c12.777-5.161,26.04-9.116,38.829-14.248
		c10.941-4.39,21.602-9.525,32.19-14.729c7.173-3.525,7.458-5.075,1.681-10.193c-18.692-16.563-37.516-32.983-56.504-49.207
		c-6.207-5.303-7.831-5.108-12.053,1.752c-6.345,10.31-12.034,21.026-17.864,31.646c-1.672,3.047-2.772,6.402-4.301,9.535
		c-6.69,13.721-21.348,16.623-33.108,6.676c-3.519-2.976-4.629-6.764-1.495-9.957c3.619-3.686,7.974-6.991,12.599-9.258
		c5.472-2.68,11.686-3.801,17.356-6.134c3.129-1.287,6.653-3.063,8.531-5.674c6.579-9.151,12.52-18.762,19.665-29.664
		c-2.315-1.852-5.198-4.085-8.003-6.413c-14.86-12.332-29.715-24.671-44.537-37.049c-3.379-2.822-5.919-3.392-9.576,0.38
		c-7.269,7.493-16.372,7.913-25.431,2.204c-9.594-6.045-12.827-14.564-9.354-25.841c1.211-3.933,3.089-7.718,5.091-11.334
		c1.837-3.32,2.112-6.322-0.455-9.173c-7.324-8.133-14.366-16.568-22.22-24.161c-7.846-7.587-15.462-15.112-19.721-25.42
		c-1.579-3.822-0.798-5.756,3.461-6.592c14.805-2.906,26.695,2.847,37.401,12.245c0.806,0.707,1.431,1.928,1.602,2.996
		c0.882,5.51-5.246,16.092-10.45,18.296c1.469,5.781,8.497,14.998,17.07,22.473c4.536-2.872,8.829-6.055,13.522-8.454
		c7.396-3.782,11.026-2.549,15.415,4.483c2.097,3.359,4.068,6.795,6.791,11.36c5.406-19.192,14.964-34.904,25.4-50.137
		c0.596,0.169,1.191,0.339,1.786,0.509c-0.604,3.207-0.701,6.618-1.896,9.587c-6.14,15.252-12.516,30.409-18.908,45.558
		c-2.324,5.511-4.875,10.928-7.407,16.349c-2.267,4.852-1.53,8.945,2.549,12.547c15.483,13.67,30.846,27.478,46.399,41.065
		c5.066,4.426,6.127,3.944,8.66-2.231c11.375-27.742,28.835-51.2,50.582-71.614c1.658-1.556,3.615-2.795,5.433-4.181
		c0.402,0.198,0.804,0.396,1.206,0.595c-1.089,3.301-1.854,6.753-3.321,9.875c-7.169,15.255-18.113,27.845-29.008,40.45
		c-5.883,6.806-11.983,13.432-17.665,20.4c-6.454,7.916-6.383,13.633,1.078,20.55c17.221,15.969,34.807,31.544,52.278,47.241
		c1.353,1.215,2.928,2.204,4.476,3.177c4.424,2.779,6.409,2.171,7.257-2.967c1.921-11.646,3.058-23.429,5.205-35.028
		c3.486-18.837,7.905-37.458,18.06-54.086c1.712-2.802,4.049-5.221,6.097-7.817c0.762,0.266,1.523,0.53,2.284,0.796
		c-0.324,7.353-0.076,14.783-1.078,22.042c-3.375,24.448-10.785,47.566-23.413,68.96c-5.981,10.134-5.208,15.609,3.837,23.194
		c20.798,17.441,41.938,34.476,63.075,51.505c2.008,1.617,4.983,2.032,7.51,3.006c0.454-2.865,1.769-5.911,1.209-8.563
		c-2.022-9.568-4.966-18.94-7.035-28.501c-5.774-26.68-4.155-53.005,5.535-78.529c2.229-5.873,6.296-11.34,10.543-16.073
		c4.382-4.885,7.658-3.845,8.371,2.622c0.757,6.855,0.572,13.964-0.297,20.823c-3.371,26.583-7.188,53.109-10.814,79.66
		c-1.034,7.568-2.301,15.125-2.883,22.73c-0.583,7.613,2.576,13.867,8.375,18.9c17.613,15.285,35.169,30.637,52.713,46.001
		c3.758,3.292,7.522,6.603,11.007,10.175c3.324,3.407,6.308,3.241,9.239-0.184c6.386-7.461,12.832-14.876,18.985-22.525
		c10.543-13.104,20.798-26.441,31.358-39.531c2.905-3.602,6.263-6.916,9.806-9.896c2.017-1.696,4.827-2.449,7.279-3.627
		c0.428,0.389,0.855,0.776,1.283,1.165c-0.917,1.929-1.472,4.168-2.812,5.734c-6.708,7.839-13.601,15.52-20.467,23.221
		c-13.076,14.669-26.306,29.204-39.208,44.023c-5.097,5.854-5.234,8.648-0.647,14.612c7.404,9.627,15.253,18.918,23.102,28.194
		c1.704,2.015,4.196,3.363,7.205,5.703c0.351-5.63,0.263-9.946,0.945-14.137c2.3-14.124,10.229-23.877,24.089-27.656
		c10.154-2.768,20.662-4.24,32.073-6.499c-0.774,3.252-1.445,4.833-1.438,6.411c0.006,1.433,0.356,3.632,1.268,4.098
		c1.109,0.566,3.459,0.191,4.392-0.699c1.758-1.678,2.882-4.018,4.276-6.078c2.349-3.471,5.191-4.671,9.392-2.941
		c12.353,5.083,22.953,11.99,25.732,26.158c3.034,15.461-7.697,32.931-23.887,38.965c-6.337,2.361-13.078,3.693-19.697,5.225
		c-10.641,2.461-13.643,6.266-13.254,17.033c0.731,20.248,11.454,35.483,25.262,49.424c-0.529-3.858-0.745-7.793-1.655-11.56
		c-1.879-7.772,0.17-14.765,4.7-20.737c15.28-20.152,34.649-32.395,61.108-29.959c1.656,0.151,3.324,0.259,4.986,0.253
		c4.043-0.015,6.342-2.116,6.253-6.137c-0.212-9.524-0.985-18.82-6.704-27.168c-3.898-5.689-6.741-12.102-9.962-18.018
		c0.987-0.828,1.208-1.17,1.481-1.221c8.566-1.574,9.03-1.599,8.477-10.557c-1.223-19.768-2.604-39.538-4.574-59.242
		c-2.516-25.165-5.412-50.3-8.639-75.385c-2.927-22.755-6.015-45.517-10.096-68.082c-1.341-7.412-5.232-14.709-9.302-21.218
		c-13.485-21.565-27.583-42.748-41.448-64.076c-1.682-2.587-3.38-5.164-5.473-8.359c-2.8,2.569-5.164,4.387-7.104,6.579
		c-10.6,11.976-23.977,16.794-39.726,15.913c-13.429-0.752-26.498-3.326-38.426-9.538c-5.104-2.657-10.604-6.503-13.401-11.283
		c-9.266-15.831-16.207-32.78-18.219-51.271c-1.775-16.328,5.614-30.543,20.926-36.715c15.357-6.192,31.471-10.507,47.242-15.678
		c2.377-0.779,4.694-1.744,7.04-2.623c-0.123-0.521-0.245-1.041-0.368-1.562c-1.519,0.077-3.125-0.144-4.543,0.275
		c-20.563,6.08-41.877,5.098-62.902,6.924c-18.536,1.608-37.044,3.686-55.487,6.129c-5.479,0.726-10.701,3.39-16.767,5.406
		c0.84-1.726,1.38-3.354,2.339-4.682c1.26-1.743,2.619-3.562,4.329-4.809c24.145-17.612,49.576-31.901,80.842-31.093
		c5.257,0.136,9.854,1.452,13.466,5.399c4.204,4.593,9.219,5.57,14.994,3.585c4.689-1.611,9.405-3.149,14.764-4.939
		c-1.216-3.413-2.093-6.569-3.428-9.518c-14.046-31.024-28.149-62.021-42.292-93.002c-1.1-2.408-2.495-4.705-3.958-6.918
		c-2.467-3.73-5.991-5.675-10.526-5.586c-9.876,0.193-19.468,1.507-28.609,5.72c-34.364,15.837-69.031,14.263-103.746,1.221
		c-3.206-1.204-6.229-3.161-8.985-5.235c-4.844-3.646-6.767-8.665-4.919-14.567c1.844-5.891,6.346-9.472,12.303-9.135
		c5.813,0.329,11.632,2.037,17.255,3.767c4.41,1.355,8.439,3.914,12.809,5.453c2.26,0.796,4.937,0.944,7.346,0.675
		c5.254-0.589,8.04-4.508,7.42-9.774c-1.206-10.239-0.079-11.886,9.663-15.362c17.291-6.171,33.635-3.806,49.47,4.907
		c9.302,5.118,14.194,12.717,14.5,23.344c0.069,2.423,0.561,4.833,0.942,7.928c5.5-1.013,10.332-1.95,15.184-2.777
		c3.24-0.553,3.698-2.478,2.573-5.075c-1.516-3.5-3.038-7.013-4.835-10.371c-15.997-29.901-32.124-59.734-48.049-89.674
		c-3.873-7.281-9.302-12.098-17.167-14.896c-5.713-2.033-11.055-5.273-16.288-8.431c-3.608-2.178-6.475-1.965-9.355,0.885
		c-0.474,0.469-1.009,0.884-1.433,1.393c-12.232,14.696-27.43,15.1-43.943,9.115c-2.027-0.735-4.146-1.352-5.997-2.415
		c-6.651-3.821-13.143-3.566-20.543-1.547c-7.022,1.916-14.729,2.172-22.072,1.819c-6.835-0.327-7.775-3.527-5.089-9.782
		c9.728-22.647,26.509-37.671,48.977-47.214c15.669-6.655,31.313-13.012,49.075-14.121c-0.95-2.61-1.583-4.833-2.545-6.901
		c-3.014-6.478-6.466-12.768-9.165-19.369c-3.838-9.381-10.516-12.829-20.44-12.079c-14.945,1.13-29.933,1.871-44.915,2.337
		c-18.764,0.584-35.434-4.349-48.529-18.896c-8.3-9.221-20.072-10.295-31.476-11.956c-5.875-0.855-11.704-2.03-17.506-3.639
		c7.818-2.693,15.755-3.022,23.554-0.855c20.976,5.829,41.808,12.178,62.806,17.921c15.867,4.34,31.856,8.261,47.886,11.965
		c6.301,1.456,12.841,1.599,19.852-1.255c-1.081-2.769-1.915-5.388-3.093-7.841c-9.996-20.818-20.053-41.606-30.1-62.399
		c-0.579-1.197-1.189-2.383-1.857-3.532c-3.066-5.279-4.353-5.594-9.221-1.89c-24.997,19.021-51.652,18.76-79.01,6.298
		c-13.344-6.078-21.826-17.18-27.313-30.515c-0.707-1.718-0.182-4.643,0.887-6.283c10.813-16.609,26.39-25.988,45.823-28.862
		c11.348-1.678,22.79-2.717,34.19-4.037c1.292-0.15,2.588-0.262,3.87-0.39c-0.351-6.809-3.158-10.861-10.169-11.504
		c-8.875-0.813-17.959-0.899-26.815,0.022c-12.848,1.338-25.649,3.482-38.312,6.064c-4.908,1.001-9.245,4.543-14.095,6.176
		c-4.325,1.457-8.974,2.275-13.531,2.563c-1.809,0.113-3.755-1.963-5.639-3.042c1.399-1.843,2.432-4.607,4.273-5.343
		c4.115-1.644,8.589-2.554,12.996-3.271c16.078-2.617,32.126-5.668,48.313-7.287c9.806-0.98,19.846,0.355,29.778,0.694
		c1.781,0.061,3.556,0.333,6.612,0.632c-1.452-2.94-2.048-5.242-3.454-6.822c-13.162-14.798-26.405-29.524-39.771-44.139
		c-2.785-3.045-5.809-3.738-9.983-1c-16.594,10.885-34.822,16.468-54.832,14.485c-4.002-0.396-8.262-1.642-11.686-3.692
		c-6.514-3.902-6.653-11.321,0.082-14.71c8.093-4.071,16.737-7.357,25.481-9.747c12.503-3.416,25.3-6.219,38.421-3.771
		c3.866,0.722,7.56,2.372,12.001,3.814c7.787-25.452,23.806-45.807,41.964-64.708c4.939,2.995,6.566,6.034,3.973,10.949
		c-3.77,7.141-8.21,14.042-13.183,20.406c-8.096,10.361-16.912,20.156-25.31,30.285c-6.227,7.511-6.059,12.345,0.285,19.811
		c10.464,12.314,20.887,24.664,31.373,36.959c7.897,9.26,11.168,9.771,17.721-0.392c13.236-20.532,25.405-41.753,37.999-62.699
		c0.599-0.994,1.197-2.031,1.547-3.128c4.255-13.367,14.22-17.399,27.741-16.516c-0.85,1.498-1.551,2.899-2.398,4.206
		c-8.499,13.093-17.413,25.937-25.439,39.313c-9.732,16.219-21.692,30.321-36.769,41.679c-6.194,4.666-7.86,10.236-5.801,17.507
		c1.235,4.359,3.455,6.603,8.006,8.272c7.521,2.76,15.161,6.188,21.479,11.004c10.244,7.81,12.126,20.271,5.442,31.247
		c-4.306,7.07-5.15,13.993-1.771,21.321c10.016,21.719,20.13,43.392,30.393,64.994c1.285,2.705,3.688,4.881,5.572,7.302
		c0.69-0.003,1.381-0.005,2.071-0.008c2.625-7.349,5.898-14.539,7.74-22.078c4.063-16.62,7.434-33.409,11.027-50.143
		c2.666-12.415,9.697-21.486,21.152-26.77c15.688-7.235,31.553-14.087,47.358-21.065c1.01-0.445,2.16-0.571,5.083-1.312
		c-2.203,4.871-3.369,8.827-5.571,12.081c-9.14,13.5-18.516,26.843-27.949,40.141c-12.3,17.339-26.31,33.063-43.211,46.158
		c-2.983,2.312-5.347,5.992-6.865,9.527c-5.515,12.843-7.302,25.873-0.333,38.953c2.028,3.807,3.68,7.824,5.354,11.809
		c1.88,4.477,4.879,7.646,9.211,10.022c11.098,6.092,14.118,16.963,14.778,28.336c0.604,10.401,3.873,19.463,9.776,27.799
		c4.032,5.694,5.338,5.957,9.65,0.711c19.999-24.324,39.292-49.179,55.287-76.396c6.781-11.54,15.567-20.541,29.344-22.625
		c4.701-0.711,9.682,0.43,14.534,0.725c0.13,0.543,0.261,1.086,0.391,1.63c-3.244,2.741-6.638,5.328-9.708,8.253
		c-12.169,11.597-24.547,22.997-36.263,35.04c-14.287,14.686-27.985,29.943-41.935,44.958c-0.68,0.731-1.269,1.554-1.984,2.247
		c-9.668,9.362-10.921,19.523-4.509,31.565c15.482,29.074,30.315,58.494,45.644,87.651c2.5,4.755,6.19,8.883,9.834,14.008
		c8.446-8.916,14.366-17.865,17.053-28.752c3.379-13.692,5.709-27.734,10.235-41.033c7.305-21.459,21.231-38.271,40.46-50.448
		c3.441-2.179,7.32-3.668,11.491-4.977c-4.351,14.409-14.192,25.647-21.245,38.95c6.42,0.468,12.321,0.856,18.214,1.338
		c11.361,0.928,21.077,5.266,29.396,13.246c2.528,2.425,6.364,4.138,9.86,4.793c18.213,3.413,35.246,9.25,50.226,20.653
		c22.597,17.203,22.501,49.103,14.141,66.729c-0.908,1.915-1.396,6.082-0.904,6.279c3.259,1.309,7.056,0.998,8.717-2.427
		c1.697-3.501,2.836-7.532,3.127-11.413c1.905-25.409,3.715-50.83,5.15-76.271c1.014-17.959,1.395-35.954,2.033-53.935
		c0.071-1.997,0.021-4.001-0.041-5.999c-0.276-8.81-3.491-10.661-11.332-6.757c-12.025,5.99-24.093,11.896-36.189,17.74
		c-1.706,0.824-3.677,1.101-5.779,1.149c7.508-11.402,19.905-16.624,30.765-24.653c-2.177-0.813-3.806-1.532-5.498-2.034
		c-7.129-2.113-12.786-6.307-17.211-12.186c-5.912-7.854-13.075-14.151-22.052-18.308c-10.506-4.865-14.022-12.766-14.769-24.607
		c-1.114-17.658,5.475-31.361,15.706-44.377c1.749-2.226,3.487-4.464,5.116-6.777c4.221-5.992,3.383-9.451-3.348-12.574
		c-11.139-5.169-22.55-9.779-33.517-15.281c-15.618-7.835-30.87-16.318-43.493-28.799c-13.254-13.104-20.156-28.645-19.14-47.72
		c8.479-3.313,17.233-2.248,25.895-0.81c27.568,4.58,52.753,15.782,77.342,28.47c13.001,6.708,25.843,13.732,38.649,20.808
		c3.808,2.104,6.109,1.509,9.386-1.556c6.169-5.77,7.771-11.583,5.237-19.838c-3.625-11.81-1.491-23.474,4.71-34.155
		c3.374-5.813,4.929-11.849,4.762-18.548c-0.215-8.651,0.26-17.324-0.106-25.965c-0.416-9.789-4.115-13.199-13.884-13.875
		c-21.682-1.502-40.65-10.7-59.085-21.158c-30.853-17.505-55.735-42.024-78.863-68.437c-3.622-4.136-6.375-9.394-8.275-14.591
		c-2.763-7.556,0.766-13.844,8.295-16.693c7.606-2.878,15.489-2.602,23.157-0.838c32.751,7.532,62.417,21.238,85.636,46.183
		c7.638,8.205,13.33,18.221,19.918,27.403c0.559,0.779,1.166,1.522,2.088,2.72c2.826-3.227,5.176-6.452,8.059-9.096
		c7.832-7.184,15.604-14.49,23.974-21.01c4.627-3.604,7.818-7.217,8.505-13.232c1.959-17.187,4.325-34.326,6.351-51.506
		c0.42-3.563,0.062-7.218,0.062-10.952c-6.202,0.347-11.807,1.276-17.308,0.85c-14.749-1.145-26.336-8.53-35.747-19.624
		c-14.934-17.604-21.771-38.399-22.655-61.054c-0.412-10.564,0.412-21.356,2.197-31.784c2.827-16.517,9.493-26.693,22.696-38.535
		c24.205,10.484,44.94,25.636,61.736,46.167c0.627-0.187,1.254-0.373,1.88-0.56c1.046-6.559,2.201-13.103,3.089-19.683
		c0.399-2.959,0.063-6.013,0.408-8.983c1.304-11.2-4.576-18.538-12.82-24.826c-3.401-2.595-6.551-1.123-9.929-0.354
		c-7.567,1.724-15.105,3.91-22.781,4.733c-8.966,0.962-17.665-1.946-23.869-8.229c-21.149-21.419-43.08-42.272-57.674-69.197
		c-10.055-18.55-13.635-38.356-11.619-59.65c18.854-2.526,37.597-1.05,56.079,4.032c30.45,8.372,54.917,25.459,72.015,51.977
		c14.5,22.489,14.426,46.006,1.563,69.516c-0.681,1.245-0.332,3.27,0.052,4.803c0.252,1.01,1.263,2.085,2.22,2.614
		c2.932,1.622,6,2.995,9.016,4.465c1.194-2.929,3.246-5.801,3.448-8.797c1.875-27.738,3.451-55.497,5.045-83.254
		c0.162-2.817-0.053-5.665-0.232-8.49c-0.287-4.516-2.348-7.086-7.189-7.986c-11.549-2.146-19.786-8.772-23.132-20.198
		c-3.575-12.214-1.533-23.521,7.943-32.634c4.307-4.142,8.894-8.102,13.824-11.45c4.442-3.017,7.065-6.27,5.916-11.866
		c-0.345-1.678-0.054-3.486-0.054-5.235c0.456-0.098,0.911-0.195,1.366-0.294c1.021,3.117,2.044,6.235,3.186,9.72
		c5.918-1.414,11.904-3.26,18.029-4.224c12.688-1.996,25.234-1.376,37.213,3.863c1.632,0.713,3.686,1.531,4.482,2.913
		c6.571,11.397,12.321,23.361,8.59,36.864c-4.776,17.286-17.844,26.354-34.396,30.524c-6.688,1.686-13.823,1.808-20.779,2.138
		c-4.552,0.216-7.414,1.878-7.901,6.465c-1.337,12.575-2.729,25.149-3.712,37.754c-1.335,17.106-2.281,34.243-3.452,51.362
		c-1.001,14.626,0.537,15.888,14.063,9.93c28.448-12.532,56.781-25.328,85.173-37.988c19.179-8.552,38.783-11.572,59.208-4.638
		c9.187,3.119,17.041,8.158,24.359,16.15c-7.434,5.232-14.374,10.836-21.967,15.342c-39.333,23.342-81.845,31.627-127.078,25.455
		c-9.338-1.273-18.523-3.855-27.667-6.263c-3.962-1.043-6.301,0.355-7.595,3.584c-1.409,3.519-2.586,7.235-3.138,10.973
		c-1.702,11.525-3.296,23.078-4.412,34.67c-0.371,3.854,0.069,8.15,1.449,11.74c4.472,11.628,9.442,23.07,14.437,34.489
		c2.845,6.502,7.997,10.287,14.926,12.114c4.291,1.131,8.592,2.753,12.429,4.956c6.005,3.45,6.47,8.13,1.612,13.052
		c-3.03,3.071-6.518,5.687-9.673,8.643c-0.875,0.821-2.066,2.526-1.757,3.126c0.576,1.117,2.146,2.404,3.306,2.408
		c3.276,0.012,6.773,0.023,9.795-1.055c14.385-5.133,28.658-10.581,42.938-16.006c17.014-6.465,34.293-11.806,52.635-12.711
		c11.739-0.578,23.366,0.355,34.323,4.799c3.043,1.234,5.254,4.522,7.846,6.868c-2.597,2.112-4.927,5.504-7.837,6.11
		c-11.344,2.361-22.847,4.029-34.343,5.57c-6.093,0.816-12.303,0.718-18.439,1.255c-6.899,0.603-13.136,2.634-18.719,7.228
		c-11.77,9.686-26.289,12.483-40.812,14.493c-20.873,2.89-41.534,1.481-61.649-5.188c-7.913-2.624-9.796-1.164-11.829,6.496
		c-3.023,11.393-4.983,23.072-7.303,34.648c-1.459,7.279-2.749,14.593-4.291,22.834c2.524-0.906,4.074-1.364,5.546-2.004
		c30.863-13.419,63.368-15.731,96.423-14.214c5.818,0.268,11.638,0.763,17.421,1.449c18.078,2.146,29.239,12.374,32.853,30.45
		c4.469,22.357-2.837,41.327-17.569,57.883c-11.623,13.06-26.339,21.091-43.018,25.829c-4.239,1.204-8.39,2.724-12.581,4.098
		c-0.062,0.583-0.124,1.167-0.187,1.75c3.188,1.352,6.311,2.892,9.575,4.018c9.984,3.441,18.854,8.539,25.021,17.329
		c11.396,16.243,15.003,37.412-2.496,56.662c-4.453,4.9-8.292,10.392-12.133,15.811c-9.241,13.038-21.919,22.207-34.803,31.11
		c-5.321,3.677-11.056,6.753-16.583,10.134c-2.234,1.366-4.419,2.814-8.015,6.342c1.871,1.049,3.85,1.945,5.591,3.176
		c4.756,3.362,9.561,6.682,14.08,10.346c15.156,12.288,23.595,28.376,25.034,47.7c1.887,25.335-15.34,47.289-42.683,55.49
		c-15.068,4.52-30.511,4.654-46.033,4.075c-11.581-0.432-11.803-0.382-12.702,10.908c-2.274,28.56-4.395,57.133-6.454,85.709
		c-1.318,18.277-2.574,36.562-3.501,54.861c-0.21,4.144,1.059,8.362,1.646,12.546c4.088-1.433,8.469-2.343,12.197-4.421
		c5.77-3.216,11.094-7.23,15.582-10.223c-1.865-8.819-4.399-16.484-4.834-24.266c-0.329-5.898,0.57-12.773,3.431-17.78
		c10.701-18.729,24.39-35.037,44.067-45.067c20.441-10.42,42.162-11.472,64.286-7.286c25.242,4.775,47.971,14.911,66.077,33.591
		c4.532,4.676,7.573,10.821,11.146,16.391c1.825,2.847,1.143,4.968-1.904,6.976c-5.823,3.838-11.359,8.119-16.938,12.319
		c-13.003,9.792-20.135,23.397-23.731,38.781c-1.807,7.729-5.857,10.709-13.349,11.204c-34.716,2.292-69.265,2.464-102.837-8.417
		c-6.515-2.111-12.599-5.696-18.665-9c-4.334-2.359-10.858-1.136-12.105,3.839c-4.455,17.761-15.954,31.643-24.793,46.993
		c-6.387,11.093-7.937,23.544-9.709,35.892c-5.891,41.024-11.707,82.061-17.547,123.094c-3.146,22.104-6.392,44.206-4.594,66.646
		c0.173,2.163,0.857,4.284,1.304,6.426c0.539,0.084,1.079,0.168,1.618,0.252c1.09-1.88,2.439-3.657,3.23-5.655
		c7.414-18.729,17.776-35.642,30.643-51.131c7.108-8.556,7.165-10.179,0.791-19.246c-11.083-15.765-14.293-32.674-8.415-51.119
		c3.287-10.315,9.306-19.01,18.049-25.173c30.368-21.409,63.877-29.021,99.206-16.232c15.92,5.763,30.564,16.176,44.338,26.429
		c14.319,10.66,18.364,30.261,11.447,48.191c-8.49,22.012-22.309,40.398-41.115,54.803c-9.273,7.103-19.852,10.653-31.617,10.339
		c-19.61-0.525-38.918-2.9-56.434-12.414c-6.496-3.528-12.157-8.662-17.988-13.327c-5.716-4.571-7.918-4.933-13.363,0.021
		c-14.777,13.444-23.508,30.562-30.68,48.979c-8.284,21.274-6.257,42.871-4.457,64.6c2.763,33.359,5.501,66.725,8.685,100.045
		c2.201,23.027,5.034,45.996,7.805,68.965c0.853,7.064,3.679,13.091,11.022,15.999c0.926,0.366,1.959,2.913,1.551,3.83
		c-6.106,13.723-3.1,27.881-2.213,41.917c0.378,5.98,0.596,12.056,1.872,17.872c1.477,6.732,3.616,13.404,6.284,19.759
		c1.605,3.822,2.144,7.181,1.946,11.379c-0.57,12.108-0.555,24.285,0.008,36.398c1.275,27.458,2.889,54.903,4.601,82.338
		c2.056,32.921,4.327,65.828,6.562,98.736c1.422,20.94,2.929,41.875,4.447,62.809c0.143,1.967,0.645,3.908,0.979,5.861
		C959.667,2049,953.333,2049,947,2049z M782.664,1053.376c-10.906,18.708-21.857,37.502-32.816,56.292
		c-4.414,7.567-4.813,15.075-1.138,23.281c9.985,22.291,19.448,44.814,29.29,67.171c4.753,10.796,9.819,21.458,14.892,32.109
		c2.104,4.419,5.394,7.019,10.629,5.52c1.54-8.611,2.678-17.016,4.591-25.239c3.84-16.506,11.456-30.666,27.55-38.247
		c7.781-3.666,15.972-6.583,24.184-9.187c16.459-5.219,33.073-9.943,49.577-15.021c1.483-0.456,2.633-1.997,3.938-3.034
		c-1.289-1.154-2.469-2.478-3.904-3.402c-0.918-0.591-2.23-0.537-3.339-0.867c-7.138-2.123-14.66-3.437-21.331-6.562
		c-26.267-12.306-49.623-29.032-70.357-49.241C803.605,1076.401,793.611,1065.005,782.664,1053.376z M925.319,1164.693
		c-0.37-0.107-0.739-0.214-1.109-0.32c-4.062,3.87-7.792,8.183-12.244,11.535c-19.13,14.404-38.285,28.79-57.798,42.666
		c-14.352,10.205-29.33,19.522-43.873,29.466c-2.107,1.44-3.336,4.165-4.973,6.296c2.325,1.285,4.528,3.284,7,3.704
		c4.896,0.831,9.938,0.805,14.921,1.104c7.833,0.472,15.683,0.863,22.355,5.795c13.105,9.686,23.63,21.619,30.056,36.647
		c6.843,16.001,4.071,28.76-8.712,40.73c-5.556,5.203-11.946,9.53-18.064,14.113c-5.817,4.356-6.395,5.357-2.782,11.853
		c5.334,9.59,10.742,19.184,16.861,28.276c4.905,7.288,10.808,13.923,16.526,20.626c1.106,1.297,3.77,2.525,5.063,2.042
		c1.262-0.471,2.106-3.107,2.403-4.913c1.025-6.234,1.647-12.533,2.575-18.785c4.442-29.94,9.071-59.854,13.37-89.813
		c4.37-30.462,8.546-60.954,12.586-91.462C921.664,1197.765,923.388,1181.215,925.319,1164.693z M894.808,1819.334
		c10.223,46.53,29.919,90.348,47.026,135.243c1.244-1.771,2.134-3.48,2.01-5.114c-3.645-48.177-7.39-96.346-11.076-143.963
		C920.025,1810.144,907.847,1814.582,894.808,1819.334z M1000.596,720.323c-14.691-5.912-28.258-11.44-41.886-16.81
		c-3.789-1.492-6.614,0.186-7.188,5.054c-1.215,10.31-1.804,20.694-2.648,31.048c0.394,0.368,0.786,0.736,1.18,1.104
		C963.34,725.437,979.574,717.441,1000.596,720.323z M801.347,1717.375c-0.248,7.503,14.848,27.963,22.262,30.17
		C823.625,1728.873,816.421,1719.109,801.347,1717.375z M656.636,971.859c-3.88,4.351-7.142,7.814-10.116,11.509
		c-0.576,0.715-0.54,2.829,0.072,3.45c4.501,4.564,9.659,8.049,16.389,8.249c2.84,0.085,4.205-1.276,2.947-4.003
		C663.051,984.829,659.959,978.692,656.636,971.859z M895.947,1845.736c0.433-0.508,0.866-1.015,1.299-1.522
		c-1.492-9.263-5.092-17.678-11.372-24.757c-1.063-1.199-3.834-0.883-5.815-1.267c-0.145,1.823-1.023,4.026-0.31,5.404
		c3.357,6.473,6.979,12.831,10.911,18.97C891.653,1844.114,894.145,1844.705,895.947,1845.736z M637.61,1568.177
		c-0.816,0.6-1.633,1.199-2.449,1.799c1.319,2.568,2.021,6.026,4.115,7.478c2.57,1.783,6.304,1.889,9.534,2.719
		c0.34-0.784,0.68-1.568,1.019-2.353C645.756,1574.605,641.684,1571.391,637.61,1568.177z"/>
	<path fill-rule="evenodd" clip-rule="evenodd" d="M1014,2049c14.317-43.029,28.624-86.063,42.962-129.085
		c2.507-7.523,3.272-15.019,2.43-23.058c-0.898-8.556-0.059-17.297,0.066-25.957c0.265-18.35-0.399-36.623-4.388-54.628
		c-0.322-1.456-0.721-2.906-1.215-4.313c-3.404-9.692-6.078-10.787-16.395-9.745c-9.547,0.964-19.264,1.46-28.819,0.84
		c-13.419-0.871-24.449-7.506-32.943-17.744c-11.033-13.299-20.067-27.878-22.956-45.247c-0.99-5.961-0.028-12.255,0.127-18.396
		c0.238-9.489-0.008-19.032,0.94-28.453c2.555-25.411,17.824-40.135,43.305-40.293c39.854-0.249,73.796,14.193,100.367,44.293
		c17.496,19.819,21.2,43.023,14.931,68.232c-0.539,2.166-0.981,4.356-1.469,6.535c0.503,0.15,1.007,0.301,1.51,0.45
		c1.815-5.592,3.866-11.119,5.406-16.786c8.143-29.969,15.857-60.058,24.365-89.922c3.311-11.618,4.315-22.703-0.107-34.13
		c-3.533-9.124-6.515-18.462-10.07-27.577c-1.804-4.625-5.221-7.005-10.674-7.438c-19.147-1.521-35.274-11.059-51.414-20.386
		c-12.545-7.251-22.279-17.067-29.157-30.003c-6.705-12.611-15.282-24.3-21.22-37.229c-10.322-22.473-10.061-45.438,2.822-66.988
		c8.745-14.629,21.114-25.48,39.049-27.299c5.354-0.542,10.939,0.245,16.294,1.159c1.939,0.33,3.513,2.81,4.263,3.455
		c3.393,0,6.336-0.634,8.891,0.095c40.171,11.455,69.303,36.419,88.222,73.347c5.594,10.919,7.791,22.944,7.954,35.258
		c0.037,2.794,0.006,5.589,0.006,8.672c7.468-5.031,35.056-88.62,33.948-102.263c-7.705-1.442-15.554-2.686-23.283-4.448
		c-4.166-0.95-8.245-2.536-12.146-4.314c-2.816-1.283-3.801-3.682-1.518-6.507c3.339-4.133,2.127-7.678-1.45-10.881
		c-2.604-2.332-5.281-4.586-7.86-6.946c-6.459-5.907-9.438-13.282-8.413-21.959c0.85-7.205-0.525-13.871-3.449-20.378
		c-20.223-45.021,6.783-79.182,37.521-95.49c6.596-3.5,13.674-4.521,21.291-2.728c5.455,1.285,11.464,0.374,16.819,1.884
		c8.422,2.375,16.467,6.061,24.742,8.99c3.38,1.195,7.017,4.854,10.494,1.161c3.504-3.722,4.135-8.71,2.544-13.589
		c-1.945-5.965-5.856-10.512-11.676-12.946c-44.219-18.492-74.641-52.444-101.266-90.538c-5.93-8.484-10.316-17.909-10.342-28.677
		c-0.028-12.104,8.047-18.873,19.968-16.479c19.484,3.913,34.464,15.004,43.519,32.176c6.31,11.967,14.25,19.601,26.759,24.993
		c10.396,4.481,20.027,12.099,28.162,20.176c15.479,15.371,16.896,35.641,5.675,54.429c-0.245,0.411-0.319,0.924-0.469,1.374
		c5.357,3.993,7.708,3.436,10.303-3.101c9.75-24.549,19.393-49.141,28.979-73.754c5.908-15.172,11.661-30.404,17.434-45.629
		c0.821-2.168,1.189-4.514,2.063-6.656c1.554-3.807,0.004-5.661-3.644-6.327c-14.183-2.592-25.382-10.334-35.349-20.287
		c-20.339-20.312-39.074-41.907-53.24-67.091c-5.562-9.886-10.208-20.192-11.376-31.695c-2.008-19.776,12.419-31.594,31.563-25.66
		c11.487,3.56,20.218,11.167,28.286,19.808c4.835,5.178,10.434,9.634,15.449,14.653c5.037,5.041,9.975,10.213,14.575,15.649
		c2.874,3.395,5.045,7.385,7.653,11.291c1.158-0.571,2.082-0.894,2.857-1.43c18.875-13.038,39.999-20.01,62.48-23.549
		c4.529-0.713,8.875-2.588,13.307-3.927c-0.042-0.732-0.084-1.465-0.126-2.198c-1.5-0.622-3.018-1.826-4.497-1.781
		c-26.36,0.803-41.943-27.489-38.97-53.074c2.402-20.667,14.997-34.757,30.48-46.76c17.439-13.52,36.73-23.368,59.699-27.614
		c-2.024-2.04-3.33-3.931-5.116-5.067c-14.51-9.231-24.527-22.351-32.322-37.321c-12.441-23.896-24.438-48.02-30.624-74.468
		c-2.353-10.058-3.602-20.284,0.375-30.269c0.61-0.071,0.978-0.235,1.222-0.126c21.466,9.701,41.909,21.216,59.928,36.449
		c16.785,14.191,23.922,33.308,24.683,54.812c0.315,8.938-0.522,17.954-1.38,26.883c-0.778,8.103-4.396,15.204-8.951,21.94
		c-3.827,5.659-2.584,8.143,4.105,9.707c10.293,2.408,11.871,1.681,16.525-7.569c12.706-25.252,25.494-50.462,38.089-75.769
		c5.646-11.344,5.472-11.432-6.359-14.868c-14.226-4.132-20.333-16.536-15.165-31.101c4.034-11.367,12.328-19.166,22.063-25.68
		c9.98-6.679,21.271-10.088,32.737-13.031c3.92-1.006,7.213-2.729,8.35-6.954c0.987-3.669,0.67-6.652-3.437-8.65
		c-7.153-3.479-14.396-6.947-21.017-11.308c-8.038-5.293-12.48-12.843-10.377-23.013c1.083-5.234,4.17-7.894,9.281-6.33
		c10.447,3.195,20.655,7.175,30.943,10.885c1.69,0.61,3.282,1.492,5.991,2.742c2.175-7.075,4.232-13.77,6.58-21.407
		c-6.073-0.704-11.417-1.687-16.788-1.87c-11.422-0.39-19.746-5.385-26.038-14.948c-5.563-8.456-12.074-16.287-18.093-24.449
		c-2.295-3.112-6.478-6.656-3.421-10.378c3.246-3.95,8.061-0.968,11.207,1.363c11.755,8.706,23.272,17.743,34.666,26.92
		c4.918,3.961,9.207,8.692,13.98,12.847c5.682,4.946,9.841,3.99,12.364-3.204c3.294-9.393,6.006-18.989,8.993-28.49
		c0.437-1.389,1.01-2.735,1.619-4.368c4.172,2.124,4.664,5.89,3.935,9.077c-1.434,6.259-3.626,12.365-5.817,18.421
		c-2.017,5.571-1.993,6.243,3.794,6.238c13.478-0.011,26.954-0.446,40.432-0.693c3.816-0.07,7.697-0.51,11.429,0.039
		c2.157,0.316,4.074,2.267,6.099,3.481c-1.876,1.321-3.614,3.485-5.651,3.815c-8.358,1.355-16.791,2.341-25.229,3.109
		c-12.271,1.117-24.592,1.729-36.838,3.055c-2.278,0.246-4.662,2.523-6.337,4.439c-1.461,1.671-1.962,4.169-2.938,6.277
		c-3.631,7.845-3.917,13.988,3.612,21.042c6.92,6.484,11.02,16.041,16.069,24.42c1.451,2.407,2.729,3.598,5.443,2.423
		c13.326-5.77,25.078-1.597,36.131,5.982c14.014,9.61,13.668,5.08,6.723,21.53c-14.703,34.82-41.492,56.831-78.042,66.086
		c-14.003,3.546-27.826,0.959-40.371-8.514c-1.709,2.335-3.594,4.4-4.905,6.782c-12.353,22.437-24.61,44.925-36.886,67.403
		c-1.991,3.646-4.009,7.278-5.887,10.982c-2.626,5.18-2.202,6.213,3.286,8.406c1.517,0.606,3.115,1.007,5.439,1.744
		c0.599-3.513,1.233-6.677,1.666-9.867c3.393-24.99,19.068-38.551,42.125-45.081c12.689-3.594,25.649-3.78,38.644-2.01
		c16.479,2.245,32.964,4.479,49.396,7.039c4.209,0.656,8.357,2.22,12.313,3.888c11.371,4.797,15.71,14.57,12.532,26.485
		c-3.96,14.85-12.184,25.46-26.728,31.794c-27.995,12.193-56.689,20.948-87.445,21.761c-1.329,0.035-2.66,0.178-3.978,0.366
		c-0.644,0.092-1.257,0.402-2.629,0.866c0.641,5.471,1.155,11.058,1.967,16.601c4.795,32.736-19.055,69.687-50.875,78.546
		c-4.428,1.233-9.013,1.9-14.577,3.046c2.986,2.471,5.289,4.47,7.688,6.345c20.989,16.402,25.213,36.846,11.79,59.843
		c-8.445,14.467-18.54,27.777-32.672,37.243c-21.052,14.1-44.152,15.234-68.048,9.597c-8.234-1.943-16.311-4.553-24.529-6.572
		c-9.192-2.259-11.974-1.329-15.943,7.283c-7.303,15.841-14.116,31.914-20.841,48.013c-9.482,22.703-18.972,45.411-27.916,68.328
		c-4.505,11.543-3.43,12.328,8.712,14.766c4.173,0.837,5.847-0.222,6.436-4.144c0.27-1.798,0.739-3.59,1.336-5.309
		c2.154-6.209,4.121-12.667,13.92-12.043c-5.712-4.782-3.259-9.021-1.109-13.067c8.295-15.613,22.101-23.966,38.515-28.671
		c16.597-4.758,33.265-3.87,49.884-0.083c22.828,5.202,43.894,14.323,62.472,28.751c13.111,10.183,21.305,22.924,19.566,40.284
		c-1.943,19.412-13.908,31.242-33.378,32.569c-6.248,0.425-12.609-0.563-18.896-1.144c-1.531-0.142-3.726-0.832-4.326-1.958
		c-2.556-4.787-6.102-3.745-10.225-2.781c-20.116,4.705-40.057,2.23-59.855-2.151c-16.433-3.638-32.333-8.566-46.767-17.786
		c-8.622-5.507-18.957-5.662-28.898-6.464c-0.942-0.076-2.011,0.255-2.888,0.675c-6.743,3.229-8.708,20.19-2.979,24.913
		c7.056,5.817,14.707,11.096,20.925,17.712c17.822,18.964,23.806,41.533,17.775,66.93c-2.2,9.27-7.176,17.124-14.74,23.163
		c-1.04,0.83-2.04,1.72-2.982,2.658c-3.238,3.226-2.816,5.26,1.666,6.616c3.646,1.104,7.444,1.688,11.155,2.588
		c14.526,3.519,29.021,7.17,43.574,10.574c8.684,2.032,17.293,1.14,25.46-2.312c6.312-2.667,12.125-2.75,18.751-0.438
		c6.988,2.437,14.619,2.979,21.901,4.647c2.871,0.658,5.773,1.766,8.285,3.289c4.887,2.963,5.37,7.907,0.463,10.737
		c-5.801,3.347-12.183,6.152-18.667,7.766c-21.313,5.303-43.149,6.238-64.993,5.863c-27.026-0.465-53.813-3.277-79.938-10.646
		c-5.581-1.574-10.923-3.992-16.498-5.594c-13.638-3.92-20.031-0.742-24.789,12.308c-17.87,49.021-35.749,98.038-53.445,147.121
		c-5.749,15.947-10.953,32.091-16.387,48.151c-0.628,1.855-1.122,3.756-1.673,5.619c5.696,1.553,36.813-12.443,42.381-19.12
		c-3.584-2.635-7.077-5.349-10.717-7.85c-11.441-7.862-12.897-15.987-3.998-26.702c13.183-15.869,30.21-26.582,49.114-34.174
		c31.838-12.785,65.112-16.482,99.003-12.715c36.084,4.011,47.126,40.504,34.395,65.502c-7.225,14.185-18.407,24.228-32.413,31.387
		c-1.921,0.982-3.811,2.027-5.701,3.065c-0.43,0.236-0.806,0.567-1.821,1.296c19.978,19.987,14.474,39.537-1.493,58.811
		c0.318,0.36,0.637,0.721,0.956,1.082c2.191-0.493,4.673-0.484,6.531-1.557c20.888-12.049,41.632-24.348,62.527-36.382
		c6.301-3.629,8.808-8.36,8.599-15.848c-0.811-28.983-1.005-57.984-1.396-86.979c-0.023-1.717,0.224-3.438,0.345-5.155
		c0.578-0.044,1.156-0.088,1.734-0.131c0.643,5.244,1.688,10.476,1.86,15.735c0.828,25.314,1.386,50.639,2.146,75.955
		c0.08,2.668,0.868,5.314,1.467,8.776c27.994-12.985,54.983-25.506,83.401-38.688c-10.312-7.01-11.16-15.75-9.497-25.004
		c2.321-12.915,6.787-24.924,18.342-32.53c9.344-6.152,16.634-4.422,22.219,5.221c2.269,3.916,3.84,8.574,4.42,13.063
		c1.66,12.844-0.186,25.27-6.882,36.598c-5.769,9.757-14.064,12.063-24.982,7.477c1.224,2.33,2.099,4.945,3.729,6.943
		c11.169,13.678,22.522,27.206,33.758,40.83c3.144,3.812,6.092,7.783,9.858,12.617c-9.325-0.647-16.166-4.019-22.262-8.977
		c-10.471-8.518-17.073-19.836-22.539-31.922c-2.053-4.538-4.013-9.118-6.126-13.628c-1.199-2.56-3.099-3.731-6.059-2.648
		c-24.217,8.855-47.916,18.839-70.097,32.13c-0.966,0.578-1.739,1.479-3.022,2.597c2.479,3.1,4.669,6.233,7.252,8.999
		c14.246,15.254,27.516,31.267,38.324,49.179c2.304,3.817,4.097,7.963,5.861,12.071c0.516,1.199,0.582,3.766,0.054,4.017
		c-1.508,0.715-3.892,1.333-5.101,0.606c-3.798-2.28-7.808-4.677-10.679-7.953c-13.301-15.184-25.121-31.445-34.465-49.433
		c-8.093-15.58-6.597-16.173-22.417-7.228c-22.417,12.676-44.435,26.057-66.594,39.184c-1.649,0.978-3.068,2.344-4.4,4.858
		c2.141,0.316,4.273,0.731,6.425,0.933c9.588,0.895,19.414,0.695,28.725,2.794c20.528,4.628,35.063,17.629,45.091,35.818
		c2.402,4.357,4.018,9.146,6.376,13.53c2.264,4.208,4.707,8.396,7.644,12.144c3.754,4.792,3.956,6.213-0.611,10.35
		c-8.783,7.957-19.396,9.399-29.932,5.867c-31.649-10.61-54.624-30.325-63.516-63.829c-0.977-3.682-2.055-7.352-3.366-10.924
		c-1.442-3.93-4.072-4.923-7.795-2.589c-12.106,7.592-24.336,14.99-36.326,22.76c-5.369,3.479-5.839,9.565-1.471,14.503
		c1.738,1.966,3.935,3.588,6.112,5.093c14.813,10.235,27.527,22.725,38.122,37.161c4.338,5.911,6.97,13.106,10.111,19.842
		c0.8,1.715,0.811,3.905,0.798,5.874c-0.049,7.084-4.883,11.029-11.542,8.609c-4.388-1.594-8.761-4.217-12.111-7.447
		c-5.244-5.057-9.599-11.033-14.372-16.584c-1.58-1.838-3.289-3.565-5.996-6.483c-1.2,3.909-2.648,6.566-2.752,9.275
		c-1.049,27.466-20.93,44.898-46.377,49.861c-15.533,3.03-31.082,2.711-46.392-2.128c-14.524-4.591-22.939-14.743-26.914-28.962
		c-0.497-1.778,0.46-3.963,0.936-7.313c-2.502,0.988-4.854,1.378-6.513,2.661c-11.442,8.843-22.594,18.067-34.142,26.768
		c-6.593,4.967-13.944,8.921-20.594,13.821c-4.318,3.184-9.322,6.542-11.71,11.046c-9.092,17.155-18.617,34.29-25.465,52.385
		c-14.105,37.271-26.613,75.146-39.697,112.801c-0.807,2.321-0.916,4.885-1.35,7.336C1024,2049,1019,2049,1014,2049z
		 M1102.976,1847.049c-0.239,8.293,1.372,9.423,6.712,7.213c1.226-0.507,2.535-0.98,3.555-1.787
		c8.979-7.115,18.49-13.695,26.687-21.629c9.155-8.864,11.88-20.207,9.393-33.049c-1.568-8.096-2.537-16.522-2.188-24.733
		c0.94-22.049,12.467-48.043,45.876-53.378c11.275-1.801,22.339-4.93,33.501-7.442c3.428-0.771,4.927-2.18,3.836-6.24
		c-1.849-6.879-3.002-13.954-4.27-20.979c-2.772-15.369-5.502-30.747-8.113-46.145c-1.566-9.238-6.071-12.258-15.083-9.724
		c-1.271,0.357-2.545,0.804-3.717,1.404c-10.632,5.446-21.559,10.419-31.707,16.656c-4.349,2.673-7.463,7.742-10.385,12.216
		c-2.036,3.118-3.026,7.007-4.08,10.668c-14.384,49.96-28.737,99.93-42.992,149.926
		C1107.224,1829.76,1104.896,1839.622,1102.976,1847.049z M1227.92,1634.621c-0.398,0.333-0.797,0.666-1.196,0.998
		c0.56,1.832,1.051,3.688,1.689,5.491c7.469,21.087,12.811,42.679,14.095,65.052c0.375,6.542,3.317,10.093,8.404,13.492
		c6.844,4.572,13.261,9.845,19.504,15.23c3.039,2.621,6.064,4.007,9.359,1.766c11.646-7.925,23.17-16.036,34.56-24.324
		c2.711-1.972,3.451-5.048,1.873-8.5c-6.041-13.216-7.456-27.037-5.694-41.412c0.845-6.896-3.537-11.458-10.542-11.737
		c-3.974-0.158-8.006,0.062-11.956,0.556c-16.979,2.122-32.639-1.629-47.364-10.079
		C1236.52,1638.781,1232.17,1636.788,1227.92,1634.621z M1059.373,1812.301c0.069,1.449,0.08,2.241,0.148,3.027
		c1.22,13.922,2.575,27.834,3.627,41.769c0.789,10.446,1.066,20.932,1.879,31.376c0.146,1.885,1.788,3.652,2.739,5.475
		c1.521-1.313,3.637-2.325,4.472-3.983c13.635-27.064,25.521-54.801,31.412-84.738c0.502-2.554,0.643-5.178,0.95-7.769
		C1091.554,1810.074,1079.592,1822.638,1059.373,1812.301z M1175.393,1575.893c-12.271,5.767-23.685,11.396-35.34,16.471
		c-4.381,1.907-5.453,4.392-3.879,8.488c3.574,9.297,7.098,18.616,10.91,27.815c0.722,1.74,2.716,4.146,4.073,4.115
		c1.548-0.036,3.656-2.173,4.447-3.892c2.911-6.321,5.576-12.775,7.967-19.314
		C1167.652,1598.416,1171.457,1587.155,1175.393,1575.893z M1156.759,1808.178c-2.453,4.244-4.591,7.943-6.729,11.643
		c0.522,0.384,1.044,0.769,1.566,1.152c3.221-2.647,6.442-5.295,10.048-8.258
		C1159.916,1811.109,1158.766,1810.041,1156.759,1808.178z M1574.351,698.659c0.323-0.819,0.646-1.639,0.97-2.458
		c-2.313-0.987-4.626-1.975-6.938-2.962c-0.247,0.881-0.845,2.459-0.689,2.536C1569.852,696.857,1572.113,697.733,1574.351,698.659z
		"/>
</g>
</svg>
