<?xml version="1.0" encoding="utf-8"?>
<!-- Generator: Adobe Illustrator 16.0.0, SVG Export Plug-In . SVG Version: 6.00 Build 0)  -->
<!DOCTYPE svg PUBLIC "-//W3C//DTD SVG 1.1//EN" "http://www.w3.org/Graphics/SVG/1.1/DTD/svg11.dtd">
<svg version="1.1" id="Layer_1" xmlns="http://www.w3.org/2000/svg" xmlns:xlink="http://www.w3.org/1999/xlink" x="0px" y="0px"
	 width="2049px" height="2049px" viewBox="0 0 2049 2049" enable-background="new 0 0 2049 2049" xml:space="preserve">
<g>
	<path fill-rule="evenodd" clip-rule="evenodd" d="M668.022,352.871c0.854-5.473,1.709-10.946,2.563-16.419
		c0.289,0.019,0.579,0.036,0.868,0.055c-0.494,7.209-0.989,14.417-1.484,21.626c0.244,0.034,0.487,0.068,0.731,0.103
		c1.005-5.696,2.239-11.366,2.905-17.102c0.275-2.368-0.59-4.894-1.072-7.32c-1.8-9.05-3.659-18.087-5.469-27.135
		c-0.042-0.21,0.236-0.483,1.006-1.939c1.441,6.421,2.554,11.852,3.903,17.224c0.888,3.532,1.549,7.295,3.283,10.414
		c12.077,21.716,17.858,45.809,26.22,68.91c12.52,34.589,25.079,69.129,42.383,101.721c0.741,1.395,0.815,3.985,0.001,5.237
		c-10.64,16.345-14.361,26.775-16.114,47.385c-12.966-23.656-22.024-47.788-31.548-71.085c5.25-1.921,10.657-3.301,15.463-5.826
		c4.889-2.569,4.824-6.236,0.054-9.11c-4.535-2.731-9.672-4.462-14.229-7.163c-2.242-1.328-4.718-3.549-5.479-5.889
		c-7.189-22.118-14.211-44.296-20.847-66.586c-1.633-5.484-1.681-11.441-2.529-17.713c-2.339,7.699-2.571,15.12-0.616,22.41
		c9.406,35.098,13.643,71.174,20.59,106.731c7.1,36.338,19.84,71.051,32.854,105.617c5.73,15.222,11.44,30.45,17.985,45.73
		c0.488-5.784,0.358-11.702,1.581-17.327c3.458-15.913,0.528-30.874-4.562-46.001c-8.484-25.216-3.764-49.189,10.228-71.103
		c5.051-7.911,4.88-13.52,0.718-21.75c-20.81-41.146-36.577-84.433-52.282-127.706c-6.632-18.275-12.817-36.714-19.224-55.071
		c-2.059-5.899-2.117-11.742-1.683-18.057c0.501-7.291-1.306-14.826-2.714-22.139c-1.521-7.891-3.74-15.647-5.931-24.588
		c59.617,49.311,115.997,100.296,151.273,171.284c26.984-29.963,43.58-65.24,56.395-103.043c0.231,1.353,0.593,2.697,0.674,4.059
		c4.852,80.72-7.658,158.617-38.026,233.604c-2.907,7.178-2.61,8.921,2.668,14.179c15.913,15.849,29.447,33.392,38.899,55.142
		c1.69-5.674,3.122-10.435,4.525-15.202c1.406-4.78,2.886-9.542,4.157-14.357c5.802-21.972,12.372-43.787,16.979-66.009
		c2.61-12.59,2.427-25.846,2.689-38.818c0.648-31.989,0.35-64.004,1.35-95.979c0.775-24.792,2.96-49.541,4.466-74.312
		c0.282-4.654,0.399-9.323,0.442-13.986c0.071-7.666-2.44-14.446-7.783-19.946c-4.756-4.895-9.997-9.321-14.707-14.257
		c-27.597-28.926-32.458-68.721-11.795-105.632c7.516-13.424,17.103-25.776,26.514-38.026
		c10.165-13.231,20.338-26.362,27.406-41.596c0.25-0.536,0.699-0.98,1.581-2.187c14.854,42.9,11.544,86.224,8.334,130.994
		c11.07-11.666,22.088-21.298,22.293-38.006c0.192-15.614,9.023-26.321,22.154-33.847c13.876-7.953,29.152-12.052,44.471-15.959
		c8.028-2.048,16.169-3.652,25.718-5.782c-1.581,2.609-2.382,4.087-3.325,5.466c-15.972,23.361-35.669,43.097-58.891,59.167
		c-5.201,3.6-11.489,6.229-17.659,7.676c-7.84,1.838-14.213,5.354-19.584,11.112c-1.477,1.584-2.987,3.142-4.558,4.633
		c-8.107,7.701-12.946,16.752-14.511,28.144c-1.208,8.794-3.795,17.682-7.389,25.812c-10.175,23.019-13.561,47.177-14.316,71.998
		c-1.289,42.307-2.57,84.615-4.274,126.905c-0.804,19.939-2.579,39.84-3.896,59.465c-0.221,0.204,0.122,0.017,0.275-0.271
		c10.516-19.803,20.363-39.997,31.721-59.303c9.301-15.812,13.847-32.944,18.494-50.319c9.605-35.908,26.765-68.428,46.906-99.348
		c18.08-27.758,37.097-54.905,55.627-82.372c15.384-22.804,28.859-46.665,39.674-73.38c0.391,1.978,0.688,2.796,0.695,3.616
		c0.527,55.282-2.795,110.219-15.298,164.276c-2.208,9.547-4.91,19.004-7.901,28.337c-2.832,8.843-7.016,10.186-15.077,5.389
		c-3.276-1.949-6.277-4.358-9.497-6.411c-0.877-0.559-2.094-0.582-4.349-1.154c0.949,2.646,1.456,4.408,2.196,6.064
		c2.981,6.667,6.174,13.242,9.021,19.965c2.788,6.579,1.405,12.422-2.998,18.13c-15.523,20.123-35.728,33.074-59.984,39.973
		c-5.431,1.544-10.941,2.854-16.474,3.987c-15.15,3.107-26.599,11.426-35.441,23.974c-23.764,33.721-38.857,70.723-46.753,111.381
		c-8.415,43.339-18.732,86.45-34.921,127.67c-8.37,21.311-19.585,41.5-29.452,62.227c-8.011,16.827-16.558,33.498-20.214,51.971
		c-4.559,23.037-3.931,45.729,3.006,68.533c20.162,66.289,39.614,132.795,59.363,199.21c0.458,1.542,1.131,3.02,1.872,4.971
		c3.086-7.996,6.107-15.375,8.79-22.875c5.334-14.912,4.122-29.765-2.769-43.657c-6.78-13.671-14.813-26.731-22.532-39.922
		c-2.969-5.071-7.182-8.618-13.686-8.655c-1.332-0.007-3.414-1.713-3.856-3.061c-2.983-9.092-5.618-18.297-7.531-27.91
		c7.657,9.521,15.315,19.042,22.973,28.563c0.476-0.284,0.951-0.568,1.427-0.854c-0.772-1.563-1.313-3.305-2.354-4.661
		c-6.992-9.11-14.224-18.04-21.083-27.248c-2.424-3.255-4.804-6.909-5.864-10.751c-5.662-20.499-11.854-40.931-15.9-61.767
		c-2.166-11.149-0.385-23.066-0.385-34.637c0.567-0.204,1.134-0.409,1.701-0.614c6.289,10.868,12.978,21.528,18.792,32.645
		c16.768,32.058,26.475,66.332,30.845,102.157c1.335,10.951,5.881,20.697,10.322,30.581c6.271,13.95,12.167,28.069,18.132,42.154
		c0.962,2.272,1.45,4.744,2.171,7.17c0.154-0.008,0.66,0.085,0.734-0.053c6.258-11.729,12.967-23.251,18.59-35.279
		c7.286-15.584,8.446-31.66,3.628-48.604c-5.175-18.196-9.867-36.68-12.725-55.351c-5.365-35.059-1.443-68.841,19.402-98.937
		c4.056-5.856,8.809-11.322,13.84-16.372c2.657-2.668,2.577-4.559,1.404-7.706c-8.535-22.901-24.557-39.251-44.892-51.888
		c-11.147-6.927-22.348-13.77-33.523-20.648c3.855-10.393,7.594-20.468,11.51-31.023c12.94,19.853,25.74,39.49,38.541,59.127
		c0.376-0.233,0.752-0.466,1.129-0.699c-4.309-6.99-8.491-14.063-12.953-20.953c-8.142-12.575-16.482-25.021-24.634-37.591
		c-0.813-1.252-1.586-3.184-1.211-4.457c8.658-29.463,17.478-58.878,26.691-89.721c3.485,10.692,7.115,20.349,9.771,30.267
		c6.672,24.91,6.784,50.395,5.815,75.935c-0.328,8.657-0.464,17.32-0.725,25.98c-0.253,8.376,1.729,16.276,5.897,23.433
		c8.191,14.063,16.727,27.924,25.377,42.295c16.741-14.271,35.246-26.175,56.486-36.809c-1.158,9.014-2.089,16.969-3.221,24.896
		c-1.646,11.531-3.589,23.021-5.089,34.57c-0.554,4.267-1.437,9.116-0.005,12.875c2.515,6.604-0.242,11.504-2.808,16.832
		c-17.759,36.874-34.696,74.097-48.015,112.861c-3.273,9.528-6.715,18.998-10.305,29.131c1.676-0.972,3.945-1.635,5.166-3.146
		c1.949-2.414,3.459-5.278,4.708-8.147c12.14-27.881,23.978-55.896,36.321-83.685c10.98-24.721,20.201-50.045,23.86-76.87
		c3.76-27.568,3.65-55.176-6.291-81.819c-1.79-4.799-4.263-9.342-6.67-14.542c5.824,2.411,11.437,4.734,15.981,6.615
		c3.448-17.996,5.716-35.89,10.422-53.117c9.816-35.94,30.281-65.774,57.152-91.097c14.529-13.691,30.052-26.358,45.465-39.077
		c18.473-15.242,34.308-32.5,44.613-54.391c1.179-2.504,2.891-4.757,4.355-7.125c0.765,0.309,1.53,0.618,2.295,0.928
		c-1.03,4.33-1.577,8.849-3.183,12.954c-4.782,12.227-5.835,24.794-5.107,37.778c0.913,16.296,1.899,32.631,1.72,48.937
		c-0.614,55.597-14.28,108.283-36.715,158.884c-9.933,22.401-21.253,44.037-35.786,63.575
		c24.725,44.296,39.033,91.487,42.903,141.428c39.616-29.609,79.502-59.42,119.696-89.461c-3.167-9.704-7.113-20.604-10.277-31.727
		c-8.212-28.873-12.931-58.454-16.846-88.155c-7.879-59.782-9.813-119.848-7.922-180.061c0.716-22.814,1.902-45.614,2.893-68.419
		c0.018-0.416,0.26-0.822,0.544-1.67c0.641,0.78,1.099,1.197,1.386,1.71c26.046,46.463,51.623,93.158,71.688,142.632
		c12.743,31.423,19.942,63.803,17.385,97.927c-0.249,3.321-0.267,6.691-0.872,9.95c-2.439,13.126,0.839,25.754,2.566,38.616
		c1.923,14.312,2.325,28.827,3.361,43.257c0.104,1.453,0.014,2.92,0.014,5.03c8.111-3.353,15.68-6.481,23.353-9.653
		c0.159,0.784,0.365,1.175,0.251,1.33c-21.531,29.412-37.636,61.959-54.438,94.106c-21.496,41.13-42.947,82.284-64.62,123.32
		c-13.668,25.88-20.471,54.017-27.621,82.045c-5.427,21.273-10.495,42.638-15.733,63.959c-3.197,13.017-9.127,24.598-18.211,34.511
		c-14.798,16.147-31.042,30.636-49.25,42.863c-12.87,8.645-27.26,12.291-42.559,12.029c-5.611-0.096-9.274,2.078-10.753,6.881
		c-2.279,7.399-4.689,14.99-5.271,22.635c-1.451,19.102,2.403,37.851,6.158,56.433c5.863,29.011,5.555,57.879,0.138,86.845
		c-0.872,4.663-1.253,9.418-0.777,14.522c2.845-4.595,5.576-9.263,8.553-13.771c19.904-30.147,40.068-60.125,59.737-90.425
		c17.043-26.254,33.311-52.994,52.957-77.491c18.335-22.861,37.044-45.506,53.965-69.396c18.84-26.6,35.635-54.639,53.761-81.756
		c6.903-10.328,7.943-21.386,7.96-33.249c0.021-14.785,0.081-29.717,2.069-44.32c3.303-24.256,13.344-46.18,26.665-66.652
		c1.508-2.317,2.516-5.502,2.415-8.235c-0.77-20.838-2.611-41.55-9.862-61.354c-3.889-10.624-6.659-13.896-15.473-18.447
		c3.244-6.292,6.488-12.585,10.04-19.475c10.507,31.43,20.793,62.056,20.073,95.675c7.327-8.096,13.484-15.704,20.495-22.421
		c7.075-6.778,14.759-12.993,22.618-18.862c7.804-5.828,16.159-10.919,24.272-16.333c0.516,0.412,1.031,0.824,1.547,1.236
		c-33.613,63.993-67.228,127.986-100.768,191.841c0.744-1.071,1.704-2.347,2.554-3.692c24.45-38.702,45.472-79.313,66.62-119.85
		c17.384-33.322,34.529-66.769,52.166-99.955c8.325-15.665,10.25-32.038,8.438-49.349c-4.653-44.438,5.048-85.68,28.394-123.702
		c6.793-11.064,15.375-20.714,26.613-27.328c12.063-7.1,19.312-17.369,23.447-30.441c6.816-21.54,18.069-40.54,35.105-55.456
		c11.874-10.396,24.57-19.914,37.37-29.173c11.049-7.993,22.724-15.126,34.188-22.535c20.22-13.067,36.3-30.153,49.22-50.344
		c0.97-1.515,2.002-2.989,3.789-4.236c-0.896,4.687-1.766,9.378-2.694,14.059c-0.971,4.895-1.964,9.786-3.003,14.666
		c-13.181,61.896-29.781,122.809-53.073,181.734c-12.672,32.058-26.922,63.389-46.097,92.218
		c-9.545,14.35-20.279,27.677-33.933,38.409c-7.418,5.832-15.607,10.149-24.807,12.375c-12.902,3.121-25.629,6.563-39.115,7.405
		c-6.712,0.419-13.598,4.951-19.562,8.898c-9.643,6.382-16.124,15.989-21.289,26.09c-11.957,23.385-22.976,47.25-35.006,70.596
		c-16.594,32.204-33.664,64.164-50.738,96.117c-8.229,15.401-16.938,30.547-25.418,45.814c-0.38,0.684-0.641,1.434-0.342,2.521
		c0.646-0.912,1.377-1.776,1.923-2.745c7.428-13.195,14.51-26.601,22.399-39.513c3.026-4.952,7.452-9.303,11.968-13.053
		c60.18-49.975,124.557-94.172,189.672-137.34c24.146-16.007,48.379-31.882,72.563-47.83c0.625-0.412,1.147-0.98,1.718-1.476
		c-0.297-0.431-0.594-0.861-0.891-1.292c-45.513,30.191-91.089,60.288-136.521,90.601c-45.543,30.386-89.209,63.294-131.36,98.354
		c5.862-10.172,12.105-20.146,17.516-30.553c17.643-33.935,34.906-68.067,52.575-101.988c1.464-2.811,4.519-5.368,7.445-6.748
		c23.467-11.063,46.831-22.4,70.697-32.547c64.711-27.512,130.98-50.44,199.723-65.784c4.85-1.082,9.717-2.088,15.852-3.403
		c-1.381,2.473-2.244,4.101-3.18,5.686c-19.453,32.99-44.425,61.475-71.805,88.004c-37.899,36.723-79.604,68.803-121.953,100.102
		c-2.397,1.771-4.766,3.582-7.011,5.271c0.607-13.521,1.287-27.001,1.763-40.487c0.11-3.125-0.327-6.299-0.83-9.398
		c-0.147-0.91-1.313-2.191-2.145-2.301c-0.789-0.103-2.177,0.914-2.561,1.771c-1.556,3.475-3.144,6.989-4.147,10.646
		c-5.02,18.282-9.827,36.622-14.814,54.913c-0.445,1.632-1.275,3.598-2.563,4.497c-29.479,20.589-59.623,40.06-91.915,56.088
		c-24.27,12.047-50.003,19.73-75.926,27.007c-1.31,0.368-2.949,1.044-3.589,2.093c-10.452,17.125-20.768,34.333-30.874,51.854
		c21.336-13.104,44.774-15.457,68.808-13.884c7.688,0.504,15.576,2.089,22.798,4.742c21.813,8.016,43.702,16.003,64.88,25.519
		c19.058,8.563,37.753,18.237,55.644,29.021c28.414,17.127,47.755,42.743,61.514,72.465c4.003,8.648,9.106,12.897,18.481,14.982
		c34.723,7.723,69.6,13.954,105.284,12.975c15.596-0.428,31.139-2.776,46.703-4.268c1.64-0.157,3.27-0.415,5.082-0.095
		c-38.082,19.9-76.165,39.801-113.482,59.302c10.975,24.934,21.816,49.396,32.514,73.923c9.688,22.215,25.883,38.448,46.261,50.913
		c1.402,0.857,2.819,1.689,4.015,3.6c-3.195-0.617-6.448-1.021-9.576-1.885c-19.734-5.443-36.548-16.334-51.121-30.128
		c-20.306-19.22-39.622-39.489-59.207-59.46c-2.111-2.153-3.887-3.007-6.854-2.532c-33.021,5.288-65.965,11.218-99.122,15.466
		c-36.819,4.716-72.435,13.555-107.495,25.564c-34.169,11.705-69.085,20.858-105.033,25.387
		c-16.879,2.126-33.871,3.858-50.631-0.611c-4.864-1.297-9.258-4.289-13.974-6.248c-3.577-1.484-7.262-3.391-11.007-3.673
		c-13.949-1.05-27.98-1.965-41.783,1.412c-13.114,3.209-24.591,9.966-35.768,17.225c-21.027,13.657-41.103,28.43-56.439,48.713
		c-8.651,11.443-14.349,24.386-18.89,37.804c-16.899,49.937-33.915,99.839-50.159,149.99c-9.754,30.116-12.563,61.245-9.667,92.824
		c0.042,0.459,0.209,0.907,0.304,1.305c0.403,0,0.909,0.104,0.967-0.015c4.934-9.964,10.612-19.653,14.487-30.018
		c3.102-8.294,4.921-17.325,5.721-26.174c2.626-29.022,15.863-53.284,32.842-75.938c23.256-31.03,52.549-55.571,84.186-77.544
		c33.298-23.127,68.902-42.313,104.59-61.363c9.521-5.082,19.032-10.184,28.548-15.276c0.446,0.323,0.894,0.647,1.34,0.971
		c-7.051,11.604-13.058,24.036-21.432,34.59c-9.469,11.935-20.929,22.316-31.757,33.14c-49.732,49.709-99.584,99.3-149.296,149.029
		c-8.103,8.104-17.267,14.284-27.447,19.6c-7.004,3.656-14.3,8.865-18.505,15.312c-7.663,11.749-14.022,24.572-19.254,37.618
		c-5.089,12.689-2.997,26.484-0.868,39.569c6.598,40.545,13.948,80.966,20.994,121.438c0.514,2.949,1.238,5.912,1.271,8.876
		c0.019,1.68-1.09,4.752-1.83,4.795c-2.058,0.12-4.967-0.386-6.115-1.8c-1.906-2.35-3.271-5.488-3.867-8.492
		c-3.496-17.613-7.356-35.19-9.878-52.952c-5.776-40.698-11.015-81.475-16.136-122.261c-2.263-18.016-10.426-32.872-22.85-45.548
		c-19.774-20.175-41.729-37.761-65.241-53.385c-11.521-7.655-24.351-11.417-38.175-11.55c-11.832-0.114-23.67-0.237-35.496,0.022
		c-28.544,0.628-51.056-10.87-69.078-32.725c-19.899-24.132-36.614-50.397-51.891-77.505
		c-26.864-47.668-52.836-95.84-79.142-143.823c-12.362-22.549-26.437-43.868-43.424-63.278
		c-51.172-58.471-88.264-124.728-109.647-199.59c-1.404-4.917-2.953-9.793-3.738-15.07c3.723,4.588,7.584,9.071,11.146,13.781
		c25.018,33.083,58.125,55.799,94.558,74.415c14.661,7.492,28.937,15.739,43.39,23.639c16.811,9.188,31.603,20.96,44.796,34.812
		c8.621,9.05,17.176,18.172,26.092,26.924c3.884,3.813,4.188,7.318,0.841,11.135c-3.276,3.734-6.724,7.377-10.477,10.619
		c-3.511,3.032-7.659,5.318-11.244,8.276c-1.45,1.196-2.149,3.302-3.191,4.993c1.91,0.767,3.97,2.43,5.702,2.139
		c6.527-1.092,13.18-2.195,19.351-4.472c7.452-2.749,14.408-6.82,21.707-10.029c1.656-0.728,4.282-1.05,5.709-0.236
		c38.506,21.941,75.912,45.578,111.319,72.313c24.242,18.305,43.13,40.947,56.776,68.066c13.041,25.918,25.051,52.21,30.585,80.946
		c4.714,24.476-1.03,46.538-15.609,66.499c-1.767,2.42-3.686,4.729-5.476,7.132c-9.069,12.174-8.975,25.097,1.4,36.284
		c5.951,6.417,13.173,11.682,19.983,17.268c11.075,9.083,22.362,17.908,33.411,27.023c11.019,9.092,21.854,18.406,33.367,28.128
		c-0.612-10.488-0.995-20.688-1.837-30.852c-3.146-38.011-6.318-76.021-9.722-114.01c-3.104-34.662-6.261-69.325-9.908-103.934
		c-1.928-18.291-9.29-35.156-17.813-51.08c-12.31-22.997-25.979-45.286-39.55-67.584c-11.066-18.182-22.445-36.204-34.459-53.768
		c-6.492-9.491-14.813-17.709-26.074-21.775c-2.619-0.945-5.907-1.176-8.609-0.546c-8.887,2.073-17.23-0.004-25.476-2.691
		c-23.106-7.53-41.74-21.745-58.023-39.38c-19.547-21.17-35.138-45.154-49.707-69.866c-8.159-13.84-16.322-27.679-24.039-40.763
		c7.095,1.167,15.193,2.862,23.379,3.681c3.646,0.363,7.718-0.442,11.125-1.855c2.219-0.92,4.723-3.761,4.977-5.983
		c0.202-1.768-2.42-4.742-4.479-5.706c-4.933-2.309-10.233-3.874-15.456-5.515c-9.511-2.987-19.036-5.939-28.634-8.628
		c-2.925-0.818-4.114-2.028-3.989-5.137c0.161-3.983,0.038-8.019-0.413-11.979c-0.906-7.95-3.801-11.102-11.55-13.017
		c-3.227-0.798-6.498-1.428-9.769-2.031c-12.562-2.322-23.358-7.948-31.438-17.896c-10.542-12.98-20.68-26.291-30.674-39.055
		c4.79,1.205,10.49,2.746,16.244,4.045c3.358,0.757,8.091,2.059,9.174-1.966c1.124-4.176-4.088-4.291-6.919-5.461
		c-11.356-4.692-22.82-9.123-34.158-13.855c-2.056-0.858-4.036-2.396-5.498-4.095c-20.025-23.267-35.531-48.929-42.512-79.269
		c-0.904-3.933-3.693-7.869-6.62-10.791c-3.841-3.833-5.877-8.021-5.799-13.234c0.185-12.31-4.763-22.638-12.138-32.021
		c-7.484-9.523-15.105-18.938-23.402-29.32c1.858,0.818,2.738,1.124,3.539,1.57c13.951,7.777,27.931,15.504,41.81,23.407
		c3.745,2.134,7.355,4.595,10.719,7.291c8.842,7.087,11.224,15.427,7.832,26.243c-1.243,3.962-2.881,7.85-3.633,11.902
		c-0.902,4.865,1.465,6.618,6.079,4.794c2.295-0.907,4.507-2.199,6.499-3.666c4.896-3.606,9.914-3.604,14.961-0.684
		c4.023,2.329,7.906,4.916,11.755,7.532c6.113,4.156,10.056,3.521,14.252-2.66c1.584-2.334,3.028-4.797,4.244-7.341
		c3.03-6.339,8.188-9.449,14.921-8.609c9.708,1.211,19.567,2.365,28.917,5.077c22.644,6.567,45.249,13.403,67.464,21.279
		c25.915,9.188,45.268,26.888,59.764,50.05c14.704,23.493,26.96,48.218,36.592,74.189c1.937,5.223,4.646,7.909,9.966,10.152
		c35.364,14.911,58.166,41.324,68.54,78.184c5.61,19.933,4.366,40.254,1.652,60.519c-2.938,21.936-6.105,43.844-8.72,65.817
		c-1.972,16.573,2.348,31.869,10.191,46.54c14.813,27.703,32.812,53.276,51.029,78.755c6.245,8.734,11.623,18.088,18.378,27.084
		c-1.283-9.401-2.087-18.897-3.94-28.185c-5.367-26.898-12.025-53.567-16.532-80.6c-4.376-26.24-7.06-52.783-9.86-79.26
		c-3.678-34.77-5.742-69.741-10.486-104.354c-2.414-17.609-8.829-34.729-14.04-51.885c-11.063-36.424-22.731-72.662-33.76-109.096
		c-12.76-42.152-21.104-85.465-32.618-127.901c-10.107-37.253-23.801-73.563-36.608-110.043
		c-9.91-28.226-20.024-56.44-31.621-83.998c-15.969-37.949-43.306-65.045-82.351-79.457c-24.009-8.862-48.021-17.738-72.221-26.06
		c-44.214-15.204-79.017-42.909-108.617-78.521c-17.938-21.581-27.056-46.382-31.563-73.298c-2.88-17.192-4.577-34.582-6.804-51.884
		c0.436-0.14,0.872-0.279,1.308-0.419c0.798,1.119,1.682,2.188,2.382,3.365c18.409,30.99,42.293,57.292,69.559,80.604
		c4.745,4.058,10.274,7.434,15.903,10.178c18.234,8.89,36.592,17.542,55.07,25.914c32.501,14.725,57.118,38.038,75.483,68.313
		c5.439,8.966,10.968,17.885,16.17,26.987c6.501,11.376,14.185,21.674,24.233,30.243c6.56,5.595,12.567,11.836,19.786,18.704
		c-1.419-5.677-2.555-10.322-3.743-14.954c-7.347-28.648-15.459-57.127-21.814-85.993c-4.749-21.571-6.353-43.832-11.018-65.427
		c-3.629-16.799-9.312-33.225-15.042-49.478c-4.138-11.735-14.045-19.667-22.226-28.597c-1.673-1.827-4.515-2.775-6.987-3.65
		c-46.531-16.477-86.263-44.082-124.138-74.968c-14.422-11.761-29.441-22.955-45.109-32.966
		c-11.405-7.288-24.322-12.208-36.56-18.194c-1.143-0.559-2.246-1.195-3.367-1.796c0.104-0.533,0.21-1.065,0.315-1.598
		c8.869,1.34,17.901,2.015,26.581,4.134c39.908,9.744,76.748,27.092,112.406,46.983c15.385,8.582,30.055,18.457,44.944,27.911
		c11.908,7.561,20.416,18.159,25.55,31.19c4.466,11.338,10.809,21.306,18.99,30.25c3.024,3.307,5.671,6.963,8.444,10.495
		c3.554,4.524,6.606,4.445,8.504-1.073c2.294-6.673,3.483-13.726,5.15-20.613L668.022,352.871z M1571.466,1327.515
		c-25.288,2.916-50.684,5.122-75.842,8.903c-44.572,6.698-89.179,13.416-133.444,21.844
		c-56.296,10.718-111.172,26.781-163.807,49.794c-13.971,6.108-27.568,13.072-41.337,19.643c0.218,0.468,0.435,0.937,0.651,1.404
		c1.699-0.83,3.385-1.69,5.101-2.484c16.301-7.537,32.315-15.788,48.96-22.468c77.063-30.924,157.675-48.056,239.49-60.047
		c36.878-5.405,73.931-9.614,110.894-14.449c3.127-0.408,6.171-1.449,9.295-2.165c8.24-0.46,16.48-0.92,24.721-1.38
		c-0.032-0.4-0.065-0.801-0.098-1.201C1587.855,1325.777,1579.66,1326.646,1571.466,1327.515z M1047.915,1499.122
		c1.826-1.505,2.688-2.196,3.529-2.911c11.801-10.017,22.97-20.926,35.556-29.833c15.847-11.215,32.664-21.11,49.413-30.981
		c13.609-8.021,22.768-18.77,26.707-34.358c3.993-15.802,12.526-29.34,24.055-40.824c22.376-22.288,49.276-37.179,78.931-47.339
		c20.021-6.859,40.497-9.766,61.373-4.625c10.759,2.648,20.429,0.596,29.723-4.671c4.92-2.788,9.791-5.684,14.516-8.786
		c17.771-11.667,36.756-20.083,58.162-22.188c9.868-0.972,19.736-1.948,30.2-2.98c-1.294-1.376-2.276-2.406-3.245-3.449
		c-10.203-10.983-20.378-21.991-30.609-32.948c-17.202-18.42-27.248-40.373-32.038-64.898c-1.949-9.978-7.712-16.304-16.932-20.586
		c-22.731-10.557-46.146-10.434-69.794-4.958c-20.969,4.855-35.449,19.254-47.838,35.694c-33.168,44.013-66.818,87.698-98.7,132.634
		c-30.138,42.479-58.47,86.247-87.186,129.72C1062.148,1458.377,1055.464,1478.301,1047.915,1499.122z M968.084,1698.919
		c0.987-2.354,1.563-3.548,1.999-4.789c13.579-38.729,27.396-77.379,40.648-116.22c15.543-45.551,34.159-90.153,40.993-138.375
		c3.533-24.939,7.851-49.77,5.319-75.002c-2.157-21.504-5.273-42.918-8.249-64.333c-1.359-9.789-6.564-16.896-15.461-21.893
		c-13.939-7.828-15.41-7.983-26.949,3.388c-11.94,11.765-19.903,26.219-27.104,41.068c-17.534,36.163-28.81,74.405-36.199,113.774
		c-3.436,18.304-7.95,36.323-3.478,55.68c4.095,17.718,4.575,36.271,6.64,54.456c4.6,40.516,9.151,81.036,13.821,121.543
		C961.24,1678.408,963.161,1688.458,968.084,1698.919z M913.343,1348.361c0.321-0.046,0.643-0.091,0.964-0.137
		c1.938-5.283,3.732-10.624,5.844-15.837c5.483-13.535,8.238-27.727,9.716-42.128c2.651-25.855,9.244-50.546,19.526-74.428
		c4.701-10.92,9.301-22.246,11.429-33.85c9.143-49.879,17.59-99.891,25.748-149.941c2.35-14.414,3.354-29.101,4.063-43.707
		c0.369-7.586-1.252-15.269-1.985-23.026c-14.177,8.66-27.482,16.837-40.837,24.931c-11.361,6.885-20.758,15.826-26.618,27.75
		c-9.525,19.383-19.057,38.811-27.334,58.738c-4.084,9.833-6.672,20.706-7.669,31.322c-2.677,28.505,1.042,56.896,4.325,85.148
		c4.223,36.342,9.396,72.579,14.572,108.803C907.305,1317.53,910.559,1332.912,913.343,1348.361z M829.96,565.775
		c-4.805,4.173-9.028,8.174-13.592,11.741c-13.338,10.425-28.714,17.211-43.844,24.504c-12.866,6.202-21.854,16.079-25.229,30.396
		c-2.64,11.191-3.514,22.657-0.479,33.655c5.69,20.628,11.897,41.152,18.902,61.369c11.15,32.185,23.14,64.079,34.741,96.107
		c0.985,2.722,1.722,5.532,2.841,9.167c0.942-5.087,1.492-9.157,2.467-13.124c4.921-20.032,14.093-38.297,23.776-56.318
		c17.813-33.151,34.013-66.89,41.979-104.064c3.052-14.24,5.868-28.254-1.966-41.639c-5.944-10.157-12.164-20.248-19.27-29.603
		C844.194,579.944,836.674,573.005,829.96,565.775z M975.749,1192.267c-10.145,6.072-16.252,13.85-20.336,23.136
		c-9.908,22.524-16.087,46.167-19.329,70.486c-2.462,18.463-4.108,36.979-9.715,54.924c-4.354,13.937-5.875,28.442-4.015,42.969
		c1.561,12.184,4.046,24.256,6.362,36.331c1.241,6.473,2.988,12.848,4.507,19.267c3.001-10.441,4.825-20.705,7.269-30.818
		c10.033-41.526,27.372-80.044,48.189-117.179c4.761-8.493,8.384-17.693,11.835-26.831c3-7.942,1.056-15.583-5.788-20.592
		c-5.87-4.295-7.431-9.902-8.977-16.372C982.952,1215.873,979.234,1204.378,975.749,1192.267z M825.248,1632.396
		c0.73-0.405,1.461-0.811,2.191-1.216c-0.939-2.131-1.602-4.445-2.865-6.362c-8.787-13.335-17.865-26.48-26.546-39.884
		c-61.901-95.582-133.411-183.607-210.167-267.513c-28.781-31.463-57.606-62.885-86.415-94.322c-1.563-1.706-3.162-3.38-4.745-5.068
		c-0.495,0.446-0.991,0.893-1.487,1.34C617.728,1347.064,723.749,1487.925,825.248,1632.396z M532.848,923.854
		c-0.257,0.227-0.514,0.453-0.771,0.68c1.668,1.532,3.278,3.132,5.012,4.586c26.789,22.473,54.065,44.391,80.296,67.496
		c53.795,47.386,100.237,101.208,138.713,161.813c26.79,42.198,50.01,86.374,72.904,130.737c1.568,3.039,3.286,6.001,4.935,8.998
		c0.384-0.181,0.767-0.362,1.149-0.543c-0.826-2.09-1.523-4.241-2.498-6.26c-13.51-27.978-26.654-56.14-40.681-83.856
		c-28.196-55.719-63.587-106.474-106.568-151.866c-32.713-34.549-68.659-65.496-105.807-95.101
		C564.055,948.203,548.414,936.075,532.848,923.854z M1024.933,743.683c0.71,1.237,1.359,2.515,2.14,3.706
		c9.125,13.934,15.141,29.167,19.048,45.296c7.308,30.158,8.95,60.899,8.758,91.731c-0.251,40.142-1.187,80.279-1.82,120.419
		c-0.033,2.058-0.005,4.115-0.005,6.631c3.851-1.972,5.831-3.92,5.855-7.939c0.236-38.143,1.182-76.289,0.854-114.425
		c-0.261-30.3-2.869-60.496-9.753-90.147C1045.348,778.874,1038.011,759.949,1024.933,743.683z M1649.262,519.686
		c-0.295-0.218-0.59-0.436-0.884-0.653c-0.957,1.211-1.966,2.385-2.862,3.639c-36.182,50.623-72.599,101.079-108.452,151.934
		c-31.837,45.156-60.694,92.136-83.616,142.555c-2.917,6.416-5.656,12.914-8.478,19.374c0.458,0.251,0.916,0.501,1.374,0.751
		c1.858-3.007,3.999-5.876,5.533-9.04c18.785-38.75,38.658-76.896,61.783-113.284c36.611-57.608,76.546-112.913,116.374-168.294
		C1636.481,537.699,1642.854,528.68,1649.262,519.686z M1005.83,1271.355c0.368,0.206,0.735,0.413,1.103,0.619
		c1.726-2.625,3.75-5.102,5.13-7.896c12.045-24.41,24.658-48.571,35.782-73.397c17.606-39.294,35.421-78.423,57.572-115.439
		c24.793-41.43,53.791-79.72,85.72-115.855c1.404-1.59,2.755-3.227,4.131-4.841c-1.904,0.417-2.992,1.441-3.948,2.578
		c-12.536,14.907-25.392,29.562-37.513,44.8c-40.055,50.354-72.801,105.161-98.884,163.971
		c-11.916,26.868-23.813,53.746-36.003,80.49C1015.028,1254.922,1010.22,1263.043,1005.83,1271.355z M657.402,564.077
		c0.202-0.302,0.403-0.604,0.605-0.906c-1.871-1.371-3.693-2.813-5.62-4.103c-45.459-30.399-90.715-61.11-136.508-90.999
		c-17.07-11.142-31.767-23.97-41.567-41.992c-10.473-19.258-20.967-38.504-31.432-57.766c-1.735-3.192-3.372-6.438-5.055-9.66
		c-0.454,1.454-0.21,2.569,0.29,3.556c10.754,21.188,21.559,42.353,32.308,63.544c10.741,21.174,27.529,36.081,47.517,48.475
		c37.17,23.047,73.778,46.998,110.57,70.651C638.236,551.13,647.777,557.67,657.402,564.077z M1151.556,521.807
		c-0.351-0.241-0.701-0.481-1.052-0.723c-0.373,0.496-0.795,0.963-1.112,1.493c-1.79,2.993-3.621,5.966-5.318,9.012
		c-37.157,66.664-64.974,137.348-89.9,209.265c-0.405,1.17,0.54,2.809,0.855,4.228c0.614-0.023,1.228-0.048,1.841-0.072
		C1084.368,668.883,1111.106,592.433,1151.556,521.807z M1292.594,828.29c4.297-1.005,2.512-4.438,2.071-6.65
		c-4.347-21.811-8.852-43.591-13.417-65.358c-13.118-62.541-26.28-125.073-39.442-187.605c-1.244-5.907-2.615-11.788-3.927-17.681
		c-0.232,0.062-0.464,0.123-0.695,0.185C1255.637,643.468,1274.091,735.756,1292.594,828.29z M856.716,374.736
		c-0.29-0.226-0.58-0.451-0.869-0.677c-1.001,2.228-2.129,4.406-2.982,6.688c-5.985,16.021-11.903,32.066-17.864,48.096
		c-16.346,43.951-34.911,86.868-58.02,127.777c-7.91,14.002-14.493,28.756-21.587,43.213c-1.122,2.285-1.736,4.819-2.585,7.238
		c5.938-10.329,10.901-21.06,16.858-31.205c20.305-34.582,39.124-69.863,52.926-107.628
		C833.981,437.077,845.343,405.904,856.716,374.736z M1201.142,1541.712c-0.248-0.303-0.497-0.604-0.745-0.907
		c-1.254,0.976-2.537,1.917-3.758,2.934c-7.16,5.967-14.372,11.874-21.446,17.94c-34.62,29.691-69.582,58.999-103.672,89.287
		c-25.577,22.725-48.358,48.145-66.109,77.672c-2.479,4.124-4.59,8.471-6.87,12.714c1.224,0.081,1.602-0.259,1.831-0.68
		c14.331-26.246,33.313-48.871,54.266-69.995c33.822-34.1,70.862-64.585,107.299-95.747
		C1174.953,1563.797,1188.07,1552.781,1201.142,1541.712z M1087.585,211.753c-24.29,79.233-71.062,145.669-119.54,211.134
		C1019.128,358.905,1064.293,291.554,1087.585,211.753z M628.945,351.298c0.424-0.526,0.847-1.054,1.271-1.581
		c-51.486-35.618-103.903-69.804-157.884-101.58C524.537,282.523,576.741,316.911,628.945,351.298z M783.699,462.209
		c4.497-2.608,1.665-5.151,0.482-7.279c-27.195-48.977-54.464-97.912-81.734-146.847c-0.532-0.955-1.265-1.798-1.903-2.693
		c-0.165,0.113-0.331,0.227-0.496,0.34C727.913,357.854,755.777,409.979,783.699,462.209z M911.291,275.411
		c0.518-0.124,1.035-0.247,1.554-0.371c-4.666-14.296-6.002-29.08-4.633-43.773c2.111-22.651,5.113-45.242,8.467-67.75
		c2.731-18.334,6.532-36.509,9.858-54.754c-1.218,1.673-1.872,3.511-2.24,5.404c-5.392,27.743-11.024,55.443-16.016,83.259
		c-3.688,20.556-5.411,41.3-1.185,62.05C908.191,264.85,909.877,270.103,911.291,275.411z M1513.625,1258.116
		c0.503-0.517,1.006-1.034,1.51-1.552c-27.404-33.75-59.753-62.096-96.177-87.207c17.093,14.456,34.166,27.764,49.889,42.511
		C1484.479,1226.531,1498.754,1242.641,1513.625,1258.116z M1657.693,1453.039c0.485-0.325,0.971-0.651,1.456-0.977
		c-1.208-1.635-2.354-3.319-3.635-4.896c-4.19-5.166-8.757-10.06-12.588-15.477c-11.325-16.01-22.349-32.234-33.541-48.339
		c-1.534-2.207-3.356-4.214-5.045-6.313c-0.415,0.324-0.829,0.648-1.243,0.972C1620.656,1403.485,1636.53,1430.19,1657.693,1453.039
		z M966.059,187.322c26.949-19.68,53.14-38.806,79.329-57.932c-0.329-0.44-0.659-0.881-0.989-1.321
		C1018.981,148.278,990.26,164.097,966.059,187.322z M1246.256,901.617c-0.081-0.094-0.163-0.188-0.244-0.28
		c7.016-7.529,14.032-15.058,21.049-22.587c0.024,0.02,0.05,0.038,0.074,0.058C1260.176,886.411,1253.216,894.014,1246.256,901.617z
		 M444.074,232.793c-0.131,0.274-0.262,0.549-0.393,0.822c7.541,3.835,15.082,7.67,22.623,11.504
		c0.18-0.371,0.358-0.742,0.537-1.114C459.253,240.268,451.663,236.53,444.074,232.793z M1233.154,913.843
		c0.459,0.459,0.917,0.918,1.375,1.377c-6.099,5.117-12.197,10.233-18.295,15.351c0.174,0.152,0.348,0.305,0.521,0.457
		C1222.222,925.3,1227.688,919.571,1233.154,913.843z M1269.88,876.323c0.264,0.282,0.527,0.564,0.791,0.847
		c4.432-4.148,8.862-8.298,13.294-12.446c-0.279-0.298-0.559-0.596-0.837-0.894C1278.712,867.994,1274.296,872.159,1269.88,876.323z
		 M1045.923,1273.553c0.734,0.088,1.469,0.176,2.203,0.264c0.279-2.722,0.559-5.444,0.838-8.166
		c-0.718-0.084-1.435-0.168-2.151-0.251C1046.516,1268.117,1046.22,1270.835,1045.923,1273.553z"/>
	<path fill-rule="evenodd" clip-rule="evenodd" d="M827.85,967.384c-16.791-4.379-32.407-9.254-47.097-16.811
		c-19.681-10.125-36.105-24.364-50.912-40.559c-36.152-39.542-65.396-83.993-91.868-130.353
		c-32.066-56.158-58.622-114.891-81.254-175.43c-1.27-3.396-2.641-6.754-4.539-11.598c9.59,6.198,18.059,11.49,26.343,17.055
		c49.018,32.929,95.77,68.829,139.011,109.043c18.381,17.094,35.094,35.994,52.297,54.325c2.48,2.644,3.737,6.596,5.073,10.127
		c15.143,40.024,26.782,81.086,36.112,122.824c0.494,2.212,1.165,4.386,1.142,6.906c-42.901-54.94-85.804-109.88-128.705-164.82
		c-0.156,0.076-0.313,0.152-0.47,0.229c0.553,1.004,1.019,2.069,1.671,3.004c40.362,57.761,81.691,114.79,127.368,168.537
		c1.774,2.088,3.269,4.681,4.064,7.291C820.063,940.185,823.762,953.298,827.85,967.384z M567.56,606.693
		c17.738,19.751,36.941,39.841,54.626,61.188c17.613,21.261,33.703,43.783,50.462,65.752
		C641.48,687.592,610.105,641.718,567.56,606.693z"/>
	<path fill-rule="evenodd" clip-rule="evenodd" d="M704.239,271.18c-7.73-5.236-13.116-10.146-13.976-20.671
		c-2.203-26.967-12.08-51.966-23.931-76.129c-4.015-8.188-8.234-16.274-12.963-24.16c16.952,34.058,32.817,68.427,35.771,108.381
		c-2.06-1.616-3.387-2.628-4.682-3.68c-3.874-3.147-7.451-6.774-11.662-9.374c-9.068-5.599-14.119-13.683-16.878-23.727
		c-8.186-29.805-16.406-59.601-24.907-89.315c-4.017-14.041-8.702-27.89-13.081-41.827c-0.229-0.732-0.418-1.478,0.138-2.803
		c4.964,4.369,10.129,8.531,14.86,13.139c33.945,33.059,58.932,71.522,70.448,117.97c4.054,16.352,4.985,32.87,1.544,49.489
		C704.764,269.235,704.543,269.985,704.239,271.18z"/>
	<path fill-rule="evenodd" clip-rule="evenodd" d="M876.541,616.124c-6.929-18.74-19.664-32.412-32.054-46.273
		c-4.546-5.086-5.488-9.501-2.07-15.97c5.314-10.059,9.297-20.822,14.055-31.772c2.315,2.343,4.959,4.563,7.053,7.217
		c8.555,10.84,16.99,21.775,25.317,32.792c0.854,1.129,1.263,3.18,0.906,4.55C885.539,582.861,881.145,599.007,876.541,616.124z"/>
	<path fill-rule="evenodd" clip-rule="evenodd" d="M668.154,352.709c-1.402,4.713-2.732,9.45-4.24,14.13
		c-0.697,2.165-1.74,4.218-2.627,6.321c-0.521,0.042-1.043,0.084-1.563,0.126c-1.21-4.949-2.799-9.842-3.554-14.859
		c-1.905-12.661-3.331-25.394-5.182-38.063c-0.535-3.668-1.857-7.222-3.521-10.654c3.939,21.963,3.273,44.738,11.408,66.461
		c-0.979-1.113-2.162-2.106-2.905-3.359c-5.544-9.362-7.229-19.9-8.869-30.393c-1.594-10.184-2.393-20.508-4.367-30.609
		c-0.919-4.703-3.366-9.282-5.884-13.458c-3.727-6.18-8.134-11.948-12.251-17.893c0.625-0.52,1.25-1.039,1.875-1.559
		c4.906,5.512,9.813,11.022,15.639,17.567c0.917-18.041-0.873-35.925,12.579-49.323c0.511,0.117,1.021,0.234,1.531,0.353
		c-0.615,2.96-1.124,5.946-1.865,8.875c-2.933,11.593-6.008,23.15-8.891,34.756c-1.628,6.556-0.212,12.285,4.425,17.514
		c5.065,5.711,9.486,11.989,14.305,17.926c4.302,5.302,5.212,11.296,4.302,17.847c-0.388,2.791-0.334,5.644-0.479,8.463
		C668.022,352.871,668.154,352.709,668.154,352.709z"/>
	<path fill-rule="evenodd" clip-rule="evenodd" d="M802.687,604.506c-7.181,0-14.361,0-22.022,0
		c11.903-6.694,23.395-13.157,34.965-19.664c8.206,14.137,16.47,28.518,24.877,42.813c7.927,13.48,16.077,26.83,23.937,40.349
		c1.078,1.854,1.936,4.616,1.377,6.511c-2.944,9.969-6.376,19.794-9.798,30.153c-31.363-23.196-56.21-51.131-77.727-82.832
		c8.505-5.194,16.834-10.282,25.164-15.371C803.201,605.813,802.944,605.159,802.687,604.506z"/>
	<path fill-rule="evenodd" clip-rule="evenodd" d="M816.639,583.843c4.245-3.818,8.055-7.245,12.613-11.346
		c4.201,3.982,8.947,7.489,12.425,11.979c7.814,10.09,15.086,20.606,22.417,31.063c8.811,12.564,8.777,26.399,5.473,40.648
		c-0.814,3.511-1.478,7.056-2.512,12.035C849.837,639.405,833.233,611.617,816.639,583.843z"/>
</g>
</svg>
