<?xml version="1.0" encoding="utf-8"?>
<!-- Generator: Adobe Illustrator 16.0.0, SVG Export Plug-In . SVG Version: 6.00 Build 0)  -->
<!DOCTYPE svg PUBLIC "-//W3C//DTD SVG 1.1//EN" "http://www.w3.org/Graphics/SVG/1.1/DTD/svg11.dtd">
<svg version="1.1" id="Layer_1" xmlns="http://www.w3.org/2000/svg" xmlns:xlink="http://www.w3.org/1999/xlink" x="0px" y="0px"
	 width="2048px" height="2048px" viewBox="0 0 2048 2048" enable-background="new 0 0 2048 2048" xml:space="preserve">
<g>
	<path fill-rule="evenodd" clip-rule="evenodd" d="M783,2049c-2.423-10.33-5.267-20.582-7.183-31.006
		c-4.178-22.725-8.658-45.438-11.594-68.338c-3.968-30.942-12.39-59.711-32.309-84.56c-9.659-12.049-18.336-25.039-22.158-40.421
		c-1.317-5.302-2.71-10.793-2.654-16.184c0.104-10.141-4.505-17.758-10.831-24.94c-17.172-19.495-35.358-38.229-51.054-58.854
		c-18.915-24.857-35.661-51.363-53.382-77.13c-5.889-8.562-11.89-17.046-17.839-25.565c-0.357,0.228-0.715,0.456-1.072,0.684
		c1.622,2.596,3.309,5.153,4.856,7.793c13.559,23.115,26.832,46.402,40.704,69.328c15.214,25.142,33.973,47.325,57.223,65.521
		c1.554,1.217,2.946,2.64,4.001,4.642c-1.108-0.507-2.22-1.006-3.323-1.522c-15.344-7.188-30.663-14.426-46.033-21.556
		c-35.658-16.543-63.549-41.063-79.984-77.46c-9.851-21.814-16.359-44.68-20.202-68.192c-4.211-25.771-7.382-51.71-10.961-77.583
		c-0.294-2.12-0.244-4.288-0.373-6.81c0.877,0.155,1.533,0.106,2.004,0.378c38.45,22.156,75.681,46.093,108.565,76.141
		c31.545,28.824,57.019,61.941,71.021,102.925c6.22,18.206,8.79,36.801,6.882,56.053c-1.734,17.489-1.551,35.032,2.787,52.149
		c1.98,7.816,4.797,15.698,8.772,22.674c8.712,15.289,18.405,30.02,27.897,45.298c0.579-0.744,1.074-1.089,1.046-1.385
		c-1.909-20.202-3.222-40.489-6.043-60.565c-1.748-12.436-6.869-24.405-8.534-36.845c-2.093-15.634-1.85-31.565-3.326-47.302
		c-0.643-6.849-1.788-14.195-4.912-20.161c-8.7-16.612-10.458-34.207-9.788-52.358c1.458-39.487,9.583-77.815,20.403-116.356
		c1.341,0.895,2.452,1.449,3.337,2.253c14.438,13.122,23.662,29.624,29.814,47.805c10.587,31.29,12.724,63.314,5.008,95.478
		c-2.361,9.845-7.341,19.192-12,28.319c-5.44,10.655-11.741,20.88-17.87,31.172c-3.125,5.248-4.241,10.501-3.045,16.639
		c4.195,21.535,8.038,43.14,12.179,65.609c12.74-19.24,26.71-36.666,34.351-57.846c3.543-9.82,3.422-19.923,1.299-30.045
		c-2.088-9.954-0.192-19.289,6.681-26.576c8.532-9.048,18.134-17.078,27.068-25.76c1.682-1.633,3.365-4.233,3.42-6.429
		c1.264-50.311,2.139-100.63,3.464-150.938c0.487-18.467-4.921-34.536-16.024-49.21c-9.033-11.937-17.53-24.313-25.695-36.864
		c-15.947-24.512-36.802-44.283-59.546-62.157c-25.791-20.268-52.088-39.89-77.98-60.028c-21.529-16.744-40.396-36.15-57.582-57.37
		c-13.095-16.167-27.385-31.363-41.063-47.062c-19.234-22.076-34.313-47.02-49.384-71.96c-8-13.24-15.932-26.523-23.875-39.798
		c-0.803-1.343-1.472-2.767-1.801-4.414c27.415,32.022,61.849,57.461,85.564,92.788c2.32,3.456,4.963,6.725,7.01,10.333
		c13.013,22.937,32.397,39.151,55.113,51.55c24.965,13.628,50.302,26.572,75.428,39.905c18.471,9.801,35.974,20.975,50.211,36.596
		c17.815,19.547,26.972,43.003,30.135,68.864c2.127,17.394,8.42,32.491,19.684,46.056c7.716,9.292,13.734,19.986,20.661,29.949
		c1.866,2.684,3.953,5.425,6.531,7.344c2.731,2.033,5.671,1.251,6.392-2.506c0.812-4.227,1.136-8.552,1.567-12.846
		c3.382-33.623,6.95-67.23,10.002-100.885c1.262-13.918,1.575-27.934,2.003-41.914c0.464-15.156,0.427-30.328,0.857-45.485
		c0.362-12.772-2.196-25.005-7.913-36.225c-9.654-18.946-20.041-37.523-30.274-56.171c-4.106-7.482-10.313-12.055-18.859-14.268
		c-31.146-8.066-54.337-27.32-72.459-53.2c-5.05-7.212-9.505-14.852-14.043-22.408c-7.04-11.724-16.825-20.124-29.672-24.799
		c-21.605-7.862-42.694-16.722-62.128-29.259c-32.071-20.69-58.515-47.243-81.112-77.711
		c-16.089-21.691-32.647-42.938-50.983-62.807c-5.386-5.836-9.996-12.5-14.288-19.216c-16.483-25.788-40.499-41.259-68.775-51.077
		c-1.655-0.574-3.296-1.19-4.803-2.458c9.184,0,18.381-0.321,27.55,0.055c40.632,1.67,77.996,14.346,112.96,34.505
		c45.179,26.05,86.563,56.93,120.116,97.296c20.889,25.129,37.173,52.797,43.577,85.385c1.379,7.018,2.56,14.091,3.439,21.187
		c1.69,13.618,7.003,25.455,15.844,35.985c18.896,22.507,41.325,40.552,67.417,53.957c4.305,2.211,9.35,3.655,14.163,4.025
		c5.775,0.444,8.385-2.612,7.722-8.353c-1.666-14.439-4.084-29.044-12.152-41.277c-9.251-14.027-13.221-29.28-14.714-45.508
		c-4.06-44.11-9.998-87.937-18.343-131.462c-1.193-6.227-3.701-10.019-8.516-13.479c-32.924-23.664-58.718-53.427-76.711-89.902
		c-3.743-7.588-8.229-14.844-12.796-21.983c-13.985-21.865-31.427-40.458-53.066-54.967c-0.534-0.358-0.988-0.836-1.226-1.689
		c54.308,20.771,105.03,48.143,152.408,83.067c-1.298-9.656-3.72-18.104-10.229-24.855c-2.31-2.396-4.735-4.694-7.24-6.885
		c-10.488-9.168-16.702-20.683-18.358-34.446c-1.767-14.687-9.801-23.852-23.489-28.716c-5.462-1.94-11.105-3.822-15.998-6.819
		c-14.195-8.695-19.748-22.893-22.53-38.366c-5.198-28.904-0.596-57.066,7.569-84.763c3.655-12.399,8.438-24.466,12.922-37.288
		c-53.41,27.538-109.516,46.523-169.127,55.302c1.798-1.318,3.575-2.666,5.396-3.951c14.54-10.263,23.546-24.388,27.797-41.404
		c12.022-48.132,45.354-71.999,91.712-81.121c15.795-3.108,31.734-3.517,48.091-1.753c-3.393-2.129-6.729-4.353-10.187-6.371
		c-19.544-11.411-39.426-22.325-56.706-37.161c-13.525-11.611-26.622-23.731-40.353-35.088
		c-14.646-12.113-30.668-22.127-50.136-24.024c-12.869-1.255-25.885-1.785-38.801-1.424c-5.327,0.149-11.337,2.413-15.711,5.559
		c-19.34,13.906-41.339,19.269-64.406,19.886c-29.462,0.789-58.964,0.109-88.448,0.044c-0.782-0.001-1.563-0.215-3.614-0.517
		c5.881-4.607,10.847-8.606,15.927-12.457c14.488-10.983,29.885-20.674,48.419-22.034c13.536-0.993,27.358-0.661,40.853,0.859
		c32.898,3.706,65.753,4.954,98.771,2.257c7.19-0.587,14.469-0.086,22.556-0.086c-5.783-5.89-10.736-10.935-15.689-15.979
		c0.121-0.184,0.243-0.367,0.365-0.552c5.497,3.169,10.994,6.337,16.49,9.505c0.428-0.428,0.855-0.855,1.283-1.283
		c-0.64-1.762-1.168-3.573-1.936-5.277c-12.184-27.034-10.149-52.965,7.249-76.95c7.283-10.04,8.533-19.111,3.064-30.372
		c-3.706-7.633-5.777-16.317-7.146-24.765c-2.063-12.728,1.913-24.611,9.139-34.943c8-11.44,16.426-22.689,25.677-33.126
		c16.906-19.073,34.555-37.487,51.903-56.167c0.552-0.594,1.217-1.082,2.188-1.935c0.74,1.287,1.368,2.351,1.97,3.429
		c7.545,13.512,15.233,26.945,22.569,40.568c4.094,7.603,8.018,15.351,11.282,23.333c6.052,14.798,4.213,29.461-2.617,43.508
		c-5.215,10.724-11.05,21.146-16.418,31.34c14.777,0.588,30.129,1.198,45.911,1.826c-1.561-45.623,18.223-84.275,42.933-121.317
		c38.105,30.852,63.967,78.455,32.489,139.028c10.636,3.603,21.252,7.198,33.248,11.262c-1.119-2.748-1.621-4.335-2.381-5.787
		c-5.104-9.76-1.172-18.173,9.731-19.957c4.401-0.72,9.857-3.731,13.141,1.379c4.099,6.378,2.97,16.856-1.616,21.565
		c-2.264,2.325-5.068,4.125-7.922,6.396c4.855,1.869,9.37,3.859,14.064,5.236c1.19,0.35,3.445-0.865,4.372-2.029
		c4.454-5.6,8.723-11.357,12.799-17.238c0.747-1.079,0.621-3.044,0.355-4.501c-1.881-10.319,4.145-17.865,14.553-18.055
		c6.182-0.113,11.099,2.869,13.201,8.005c2.343,5.725,1.179,11.942-3.937,15.732c-2.927,2.168-6.819,4.058-10.327,4.149
		c-4.146,0.108-6.207,1.605-8.215,4.816c-2.987,4.774-6.44,9.257-9.805,14.018c15.537,6.153,31.306,11.82,46.582,18.595
		c19.283,8.551,38.784,16.917,57.079,27.321c28.176,16.022,48.457,39.261,57.471,71.206c0.967,3.427,2.626,6.658,4.55,11.435
		c5.142-8.299,9.932-15.091,13.747-22.392c7.544-14.438,14.545-29.161,21.791-43.755c0.336-0.676,0.881-1.247,1.328-1.867
		l-0.101-0.083c-2.461,7.339-4.923,14.677-7.743,23.084c1.934-1.673,3.372-2.628,4.446-3.893
		c9.042-10.644,19.156-20.598,26.756-32.195c12.73-19.428,28.541-35.483,46.905-49.34c31.779-23.98,63.924-47.495,92.496-75.435
		c20.737-20.277,46.679-24.894,74.36-23.697c3.158,0.136,6.308,0.461,9.46,0.716c0.106,0.009,0.198,0.201,0.298,0.308
		c-0.063,0.301-0.034,0.794-0.201,0.873c-25.549,12.107-47.295,29.709-68.562,47.895c-42.798,36.597-85.375,73.452-128.056,110.186
		c-14.86,12.789-31.522,22.803-48.934,31.664c-11.742,5.978-18.586,13.637-22.351,25.688c21.9-19.457,50.119-27.612,70.284-49.061
		c0.826,7.709,1.538,14.875,2.374,22.026c1.432,12.232,3.698,24.42,4.281,36.689c2.036,42.85-13.301,79.857-39.645,112.784
		c-19.389,24.234-43.744,42.579-71.68,55.488c-21.05,9.728-35.713,24.626-46.319,44.789c-14.174,26.944-29.204,53.471-39.42,82.261
		c-2.291,6.456-3.475,13.636-3.528,20.495c-0.204,26.157,0.257,52.32,0.493,78.48c0.011,1.247,0.247,2.492,0.479,4.705
		c3.83-4.875,7.027-9.045,10.33-13.13c11.958-14.793,24.327-29.209,39.466-40.918c3.676-2.844,7.514-5.603,11.621-7.74
		c17.429-9.072,31.953-21.821,41.974-38.348c15.521-25.599,38.39-40.763,65.141-51.904c23.489-9.784,46.887-19.868,69.853-30.813
		c31.659-15.088,64.949-19.698,99.307-16.168c37.243,3.827,74.341,9.065,111.5,13.708c0.442,0.056,0.852,0.379,2.323,1.064
		c-50.615,20.732-100.886,39.839-151.965,56.876c-51.207,17.08-104.131,26.569-157.042,36.516
		c32.757-29.612,73.711-44.465,112.923-63.184c-0.749-0.119-1.225-0.356-1.553-0.225c-29.221,11.646-58.389,23.455-85.323,39.931
		c-10.907,6.672-21.707,13.654-29.732,24.022c-0.786,1.016-2.514,1.399-3.878,1.854c-16.057,5.347-32.21,10.42-48.145,16.107
		c-4.757,1.698-9.58,4.378-13.226,7.823c-16.095,15.208-32.339,30.329-47.451,46.49c-17.5,18.716-26.924,41.729-28.887,67.128
		c-1.652,21.386-1.41,42.919-1.968,64.389c-0.038,1.479,0.246,2.965,0.491,5.675c21.28-18.071,43.958-32.684,68.046-44.957
		c23.922-12.189,48.213-23.655,69.875-34.233c-11.141,11.927-23.292,25.898-36.459,38.837
		c-28.904,28.403-58.986,55.574-93.543,77.035c-9.127,5.669-14.041,11.543-14.645,22.593c-0.713,13.067-4.319,25.96-5.385,39.033
		c-0.762,9.339-0.602,19.095,1.263,28.232c3.582,17.555,2.767,34.851-0.607,52.09c-7.349,37.545-15.129,75.005-22.794,112.487
		c-4.412,21.573-4.546,43.349-3.272,65.194c0.446,7.649,1.064,15.289,1.661,22.928c0.215,2.754,0.596,5.494,0.99,9.039
		c5.691-5.35,10.294-10.723,15.877-14.728c15.815-11.346,32.032-22.133,48.092-33.139c1.785-1.224,3.562-2.46,5.365-3.656
		c4.705-3.122,6.551-7.034,6.037-13.069c-1.397-16.424-2.098-32.913-2.819-49.387c-1.036-23.619,3.035-46.369,11.751-68.371
		c10.103-25.508,19.897-51.139,29.851-76.706c0.518-1.33,1.254-2.574,2.266-4.62c2.451,7.955,4.633,15.035,6.319,20.509
		c7.791-7.114,16.233-14.386,24.182-22.161c28.017-27.408,56.761-53.945,88.635-76.917c1.799-1.297,2.921-4.34,3.266-6.728
		c6.98-48.321,22.17-93.506,51.323-133.208c19.479-26.526,43.091-48.507,72.869-63.274c1.005-0.498,2.046-0.924,3.285-1.109
		c-28.393,21.573-51.507,47.649-69.176,78.617c-17.959,31.479-25.79,65.358-25.226,102.217
		c28.171-13.912,57.609-22.606,88.172-27.697c0.126,0.505,0.348,0.921,0.242,1.036c-16.937,18.4-29.253,39.996-42.032,61.228
		c-14.413,23.946-27.853,48.49-42.694,72.16c-9.705,15.479-14.446,31.184-11.705,49.575c3.942,26.447-1.724,51.203-15.538,74.203
		c-4.871,8.11-8.854,16.766-13.03,25.275c-1.628,3.315-2.677,6.916-4.405,11.488c2.643-0.907,3.915-1.176,5.03-1.751
		c23.421-12.084,48.538-19.229,74.135-24.559c34.083-7.095,63.807-22.457,90.213-44.84c4.236-3.591,9.226-6.293,13.867-9.406
		c-3.908,4.018-8.135,7.787-11.581,12.169c-1.515,1.927-1.443,5.102-2.092,7.709c2.497,0.438,5.243,1.771,7.447,1.156
		c8.291-2.31,16.729-4.545,24.517-8.108c15.327-7.013,30.258-14.894,45.353-22.415c-0.221-0.507-0.441-1.013-0.661-1.519
		c-21.233-3.465-41.617-1.479-60.561,9.755c1.427-1.3,2.69-2.864,4.305-3.86c27.761-17.133,55.865-33.729,83.293-51.377
		c47.644-30.655,89.816-67.785,127.45-110.116c3.634-4.088,7.563-8.055,11.914-11.334c10.597-7.987,22.229-9.081,34.409-3.79
		c1.456,0.633,2.78,1.57,4.784,2.722c-16.914,7.61-27.227,20.984-36.024,35.546c-11.18,18.505-21.444,37.561-32.556,56.107
		c-20.539,34.285-49.327,58.569-87.764,70.694c-12.572,3.966-25.409,6.49-40.19,5.464c16.426-11.049,34.649-17.861,45.219-34.511
		c-52.212,43.11-110.68,74.607-175.714,93.995c0.046,0.797,0.092,1.593,0.137,2.389c5.68,1.807,11.342,3.672,17.046,5.397
		c3.644,1.103,7.488,1.656,10.992,3.076c3.888,1.575,6.229,4.521,4.693,9.122c-1.57,4.711-6.137,7.836-10.453,6.185
		c-3.573-1.366-7.688-3.436-9.686-6.44c-8.96-13.478-21.771-15.973-36.336-13.819c-19.473,2.88-38.329,8.149-56.586,15.527
		c-0.285,0.115-0.485,0.439-1.129,1.05c1.582,0.777,2.95,1.563,4.4,2.146c15.727,6.319,31.503,12.519,47.175,18.97
		c3.479,1.432,6.604,3.724,10.17,5.779c-0.859-2.436-1.88-5.332-3.334-9.455c6.308-0.999,12.877-2.751,19.497-2.968
		c28.341-0.925,52.921,9.807,75.785,25.436c2.337,1.598,4.633,3.256,6.965,4.861c0.249,0.172,0.614,0.177,1.96,0.533
		c8.374-25.003,16.767-50.063,25.163-75.134c0.572,0.687,1.543,1.767,2.421,2.917c40.288,52.793,64.783,112.104,73.082,178.003
		c2.82,22.394,4.376,45.001-1.927,66.983c-3.073,10.718-7.315,21.784-13.762,30.72c-17.163,23.788-20.156,50.122-17.712,78.017
		c0.378,4.313,0.301,8.687,0.967,12.948c0.351,2.248,1.853,4.316,2.834,6.466c1.924-1.143,4.222-1.936,5.69-3.504
		c2.72-2.902,5.345-6.031,7.332-9.459c34.711-59.848,71.38-118.719,93.049-185.121c1.752-5.371,2.964-10.968,5.22-16.111
		c2.607-5.945,0.644-10.634-3.433-14.318c-4.763-4.304-10.001-8.279-15.573-11.443c-8.374-4.756-17.312-8.505-25.843-12.997
		c-18.288-9.628-29.356-24.215-30.146-45.459c-0.444-11.974,1.947-23.487,6.243-34.642c8.074-20.963,21.031-38.878,35.179-55.996
		c8.914-10.786,18.391-21.106,27.319-31.88c8.286-9.999,16.692-19.965,24.102-30.603c7.285-10.46,13.384-21.746,20.049-32.746
		c0.289,1.492,0.689,3.462,1.049,5.438c3.312,18.189,10.782,34.894,18.362,51.563c8.886,19.54,18.043,39.012,22.721,60.107
		c7.805,35.192,2.956,68.152-18.401,97.885c-6.44,8.967-15.058,15.455-24.92,20.318c-2.234,1.102-4.458,2.241-6.752,3.207
		c-11.133,4.688-17.477,12.695-19.873,24.836c-5.862,29.703-18.159,57.315-28.978,85.393c-1.127,2.925-2.103,6.01-2.471,9.101
		c-0.698,5.863,1.139,7.293,6.894,6.008c6.81-1.521,13.56-3.85,20.445-4.376c12.935-0.986,25.948-0.932,38.929-1.303
		c0.992-0.028,1.986-0.004,3.179-0.004c-1.547-5.932-3.748-11.535-4.389-17.313c-2.896-26.087,7.54-46.056,29.168-60.313
		c16.25-10.711,34.722-15.864,53.421-20.151c32.693-7.495,65.979-10.844,99.291-14.161c32.291-3.217,64.514-7.131,96.768-10.727
		c1.28-0.143,2.576-0.154,5.161-0.301c-3.305,10.998-5.818,21.472-9.573,31.479c-12.878,34.319-37.443,58.584-68.396,76.751
		c-45.541,26.729-94.88,37.703-147.486,33.679c-13.646-1.044-27.002-3.859-39.546-9.682c-1.637-0.76-3.223-1.63-6.095-3.091
		c2.553-0.593,3.853-0.915,5.161-1.194c13.529-2.895,25.78-8.813,37.351-16.163c11.239-7.141,22.248-14.644,33.404-21.916
		c16.821-10.965,34.761-19.581,53.971-25.502c1.561-0.48,3.1-1.032,4.648-1.552c-0.126-0.469-0.251-0.938-0.377-1.407
		c-8.138,2.11-16.4,3.834-24.39,6.406c-20.355,6.551-38.009,18.3-55.652,29.939c-18.705,12.341-38.086,23.338-59.984,28.778
		c-9.626,2.392-19.667,3.105-29.514,4.622c-10.508,1.618-21.084,2.914-31.494,5.024c-13.773,2.792-24.32,10.688-31.418,22.736
		c-13.345,22.654-25.49,46.068-39.779,68.1c-22.028,33.961-35.138,71.966-51.609,108.448c-8.35,18.493-15.961,37.319-24.262,56.832
		c9.769-2.478,18.807-4.791,27.855-7.06c18.875-4.73,37.763-9.412,56.632-14.161c19.877-5.003,36.771-15.548,49.637-31.035
		c17.584-21.165,39.977-32.845,66.048-39.397c29.354-7.378,58.579-15.285,87.759-23.328c29.266-8.067,58.476-7.656,87.966-1.303
		c42.009,9.051,82.938,21.813,123.753,35.025c0.305,0.099,0.567,0.323,1.576,0.915c-9.873,2.71-19.122,5.509-28.498,7.777
		c-41.502,10.042-82.937,20.392-124.596,29.735c-34.998,7.849-70.628,11.458-106.475,12.716
		c-21.316,0.748-42.634,1.443-63.951,2.148c-1.735,0.058-3.474,0.008-5.319-0.548c40.692-26.259,87.107-37.967,132.081-53.502
		c-4.941,1.247-9.892,2.456-14.818,3.754c-4.984,1.313-9.96,2.661-14.913,4.086c-28.95,8.327-57.81,16.989-84.58,31.13
		c-7.857,4.15-14.892,9.838-22.474,14.543c-1.676,1.04-4.066,1.171-6.149,1.273c-27.176,1.339-53.98,4.846-80.104,12.845
		c-3.546,1.086-5.554,2.797-7.024,6.096c-11.131,24.966-25.114,48.088-44.563,67.57c-17.032,17.063-36.516,29.894-60.586,34.68
		c-1.137,0.227-2.307,0.291-4.42,0.546c-10.184,24.22-22.292,48.838-30.134,75.117c0.458,0.26,0.915,0.521,1.373,0.781
		c3.446-1.57,6.928-3.07,10.312-4.766c0.763-0.382,1.45-1.361,1.722-2.21c5.217-16.305,16.621-27.536,30.635-36.204
		c12.586-7.784,26.313-13.821,38.472-22.179c28.533-19.614,56.224-40.452,84.646-60.233c24.031-16.726,48.036-33.618,73.101-48.694
		c28.071-16.886,58.842-19.337,90.157-10.142c19.959,5.861,34.96,19.441,48.412,34.988c-1.155-0.864-2.337-1.694-3.46-2.598
		c-12.32-9.914-25.557-18.016-41.429-20.859c-11.672-2.091-22.872,0.357-33.88,3.88c-23.851,7.633-44.981,20.636-65.833,34.05
		c-36.102,23.226-71.729,47.202-108.144,69.92c-25.811,16.104-52.146,31.497-79.056,45.671
		c-29.466,15.521-52.043,37.492-70.031,65.191c-24.218,37.291-49.209,74.082-77.533,108.462c-1.69,2.052-3.362,4.119-5.042,6.179
		c-3.333,0-6.667,0-10,0c0.823-1.385,1.555-2.835,2.484-4.145c10.592-14.924,21.751-29.479,31.705-44.814
		c16.632-25.624,26.926-53.428,25.649-84.6c-0.89-21.706-3.68-42.825-17.971-60.609c-1.777-2.213-3.079-2.656-5.715-1.787
		c-16.245,5.356-32.523,10.62-48.87,15.657c-3.09,0.952-4.572,2.388-5.521,5.475c-5.13,16.682-10.197,33.395-15.89,49.888
		c-12.519,36.272-27.555,71.39-49.872,102.916c-5.354,7.562-11.317,14.691-17,22.02c-10.667,0-21.333,0-32,0
		c2.904-6.681,5.53-13.498,8.758-20.019c18.959-38.299,38.062-76.526,57.1-114.786c0.689-1.385,1.209-2.854,1.809-4.284
		c-0.836,0.174-1.188,0.542-1.418,0.974c-17.343,32.58-34.911,65.042-51.894,97.809c-6.785,13.09-12.275,26.852-18.354,40.307
		c-6.667,0-13.333,0-20,0c-0.313-2.802-0.829-5.598-0.904-8.405c-0.62-23.076,5.659-44.672,16.579-64.528
		c14.573-26.501,30.601-52.203,46.001-78.249c0.829-1.402,1.637-2.817,2.454-4.227c-14.854,9.35-28.819,19.277-42.565,29.502
		c-25.573,19.021-50.43,39.034-70.694,63.766c-16.431,20.052-31.306,41.38-46.87,62.142c-4.667,0-9.333,0-14,0
		c3.726-4.247,7.41-8.531,11.185-12.734c26.337-29.33,50.885-60.163,69.543-94.911c26.898-50.091,46.465-103.359,64.159-157.306
		c0.433-1.319,0.892-2.878,1.861-3.73c3.508-3.087,8.061-5.315,10.738-8.957c9.758-13.267,18.915-26.975,28.305-40.513
		c0.774-1.116,1.598-2.2,2.883-3.966c0.828,6.433,3.015,10.846,9.145,12.654c-21.752,29.739-44.118,58.599-58.717,92.382
		c-14.426,33.383-29.247,66.607-39.311,101.726c3.08-1.012,5.67-2.165,8-3.71c18.312-12.146,36.748-24.116,54.74-36.72
		c5.195-3.639,9.761-8.686,13.395-13.932c5.859-8.459,11.115-17.405,15.896-26.527c9.709-18.525,21.825-35.031,38.193-48.207
		c5.668-4.563,11.488-8.938,17.662-13.728c-18.462-16.92-36.15-34.233-45.234-58.184c-4.454,1.898-6.942,0.811-8.135-4.372
		c-0.546-2.376-0.089-4.965-0.316-7.437c-0.215-2.331-0.21-4.891-1.2-6.907c-6.596-13.424-13.431-26.729-20.191-40.07
		c-0.753-1.485-1.534-2.957-3.006-5.79c-1.771,18.85-7.547,34.907-14.551,50.567c-6.063,13.559-12.286,27.037-11.935,42.504
		c-0.915-6.979-0.798-13.91-0.953-20.835c-0.122-5.473,0.651-11.389-1.155-16.308c-3.286-8.95-7.615-17.652-12.523-25.852
		c-21.109-35.266-41.624-70.793-57.137-109.011c-5.426-13.369-11.496-26.558-18.365-39.235
		c-6.369-11.757-15.553-21.495-26.348-29.979c-0.962,1.752-1.707,3.029-2.379,4.345c-12.646,24.736-25.178,49.532-37.96,74.198
		c-8.83,17.04-17.054,34.254-19.91,53.499c-0.877,5.908-1.831,11.806-2.935,18.896c26.82-16.945,54.128-29.011,84.093-37.05
		c-0.864,1.508-1.258,2.221-1.675,2.919c-23.079,38.669-53.483,70.844-87.925,99.487c-1.899,1.579-3.475,4.494-3.741,6.945
		c-2.445,22.514-4.694,45.052-6.736,67.606c-1.15,12.713-1.805,25.47-2.743,39.094c37.342-24.184,77.251-38.998,120.459-46.361
		c-0.235,1.19-0.191,1.601-0.376,1.799c-1.809,1.954-3.697,3.836-5.485,5.808c-31.024,34.192-65.692,63.724-107.382,84.366
		c-1.351,0.668-2.306,3.029-2.619,4.752c-2.087,11.456-4.063,22.936-5.857,34.441c-2.433,15.608-4.974,31.212-6.846,46.892
		c-0.761,6.38,0.112,12.956,0.242,19.443c0.516,0.077,1.03,0.153,1.546,0.23c1.746-2.448,3.491-4.897,5.237-7.346
		c0.494,0.164,0.989,0.329,1.484,0.494c-1.779,18.395-6.464,36.362-9.119,54.628c-5.333,0-10.667,0-16,0
		c-0.079-0.489-0.217-0.978-0.228-1.468c-0.83-38.917,3.281-77.455,8.676-115.914c1.18-8.414,1.316-16.974,1.992-26.272
		c-8.004,3.236-14.911,5.14-19.07,12.468c-4.336,7.638-9.515,14.93-15.202,21.628c-5.534,6.519-6.703,13.213-4.649,21.185
		c7.585,29.435,15.002,58.912,22.481,88.374C790.333,2049,786.667,2049,783,2049z M1177.315,1761.569
		c13.783-5.428,26.624-10.859,39.725-15.569c32.174-11.566,65.55-18.643,98.853-25.98c2.113-0.465,4.928-2.073,5.65-3.862
		c10.642-26.337,22.194-52.396,31.08-79.328c10.462-31.71,8.768-65.13,9.423-98.059c0.265-13.304-5.85-23.315-16.771-31.111
		c-8.083-5.771-15.891-12.251-22.631-19.519c-25.764-27.784-36.371-61.787-38.583-98.825c-1.805-30.205,2.519-59.784,10.398-88.896
		c1.852-6.839,3.899-13.626,5.999-20.931c-28.035-6.468-55.537-8.174-83.184-1.961c-24.406,5.484-46.497,16.802-68.539,28.106
		c-51.761,26.546-103.352,53.429-155.285,79.63c-10.655,5.376-19.13,12.172-25.634,22.07c-19.697,29.982-35.403,62.143-51.782,93.94
		c-2.156,4.187-4.279,8.392-6.533,12.815c33.372,4.774,62.143,19.236,90.438,36.654c-14.183-34.941-26.624-69.838-29.579-107.467
		c0.575,0.122,0.821,0.102,0.881,0.197c3.429,5.495,6.636,11.141,10.29,16.479c24.306,35.516,45.893,72.567,64.057,111.618
		c12.561,27.004,25.274,53.943,38.423,80.664c5.6,11.378,12.482,22.123,19.197,33.882c4.066-5.274,7.452-9.667,10.839-14.06
		c-0.199-0.181-0.399-0.362-0.599-0.543c-1.008,0.745-2.016,1.491-3.023,2.236c6.045-4.816,4.846-11.3,4.518-17.574
		c-1.092-20.88,2.128-41.137,8.906-60.867c0.375-1.091,0.927-2.121,1.205-2.75c1.705,16.976,3.42,34.057,5.135,51.138
		c0.59,0.042,1.181,0.083,1.771,0.125c7.966-13.401,16.182-26.665,23.719-40.303c1.836-3.322,2.301-7.967,1.894-11.845
		c-0.813-7.75-2.682-15.388-4.086-23.076c-3.43-18.777-5.418-37.681-2.003-56.623c7.386-40.961,24.196-77.667,51.111-109.521
		c14.265-16.883,30.218-31.952,49.569-43.023c2.484-1.422,5.174-2.484,8.512-4.066c-6.061,14.249-7.926,20.159-5.71,34.948
		c3.048,20.354,7.429,40.524,11.692,60.679c4.961,23.458,10.446,46.774,9.603,71.043c-0.604,17.356-7.299,31.491-21.61,41.24
		c-16.078,10.95-30.162,23.888-43.468,38.034c-14.045,14.933-33.339,19.478-53.443,24.142c1.437-2.355,2.281-3.769,3.154-5.165
		c9.875-15.808,19.933-31.505,29.6-47.439c27.338-45.065,40.493-93.67,36.067-146.534c-0.326,2.033-0.367,4.115-0.32,6.195
		c0.889,39.096-7.969,76.105-26.144,110.467c-15.411,29.139-32.594,57.342-49.091,85.902c-5.411,9.367-11.267,18.478-16.592,27.891
		c-1.094,1.934-1.4,4.836-0.931,7.051c4.968,23.434,13.271,45.657,25.167,66.464
		C1164.741,1740.938,1171.217,1751.375,1177.315,1761.569z M938.975,602.007c1.695,0,2.853,0.03,4.008-0.005
		c9.463-0.289,15.359-5.191,16.91-14.436c0.685-4.086,1.069-8.267,1.104-12.409c0.096-11.162,0.127-22.333-0.169-33.49
		c-0.855-32.233,9.375-60.515,30.047-85.094c6.524-7.758,13.313-15.294,19.88-22.818c-1.751-3.393-3.261-6.737-5.187-9.822
		c-0.684-1.095-2.487-2.342-3.6-2.191c-20.517,2.78-38.857-3.051-56.006-13.795c-27.206-17.046-54.399-34.111-81.604-51.158
		c-1.72-1.077-3.491-2.071-5.549-3.288c0.148,2.982,0.415,5.126,0.334,7.256c-0.348,9.225-8.307,16.155-17.218,14.035
		c-4.491-1.068-6.006,0.588-8.176,3.693c-9.355,13.389-21.924,22.181-38.188,24.978c-3.097,0.532-6.445-0.398-9.678-0.653
		c0.011-0.521,0.022-1.044,0.033-1.565c0.863-0.404,1.688-1.007,2.595-1.185c17.702-3.468,31.047-13.926,42.82-26.809
		c0.929-1.017,1.467-3.221,1.047-4.499c-2.22-6.772-1.317-10.583,4.383-14.811c3.102-2.3,6.428-4.297,10.091-6.72
		c-7.849-3.954-15.209-7.663-22.161-11.165c-14.379,11.071-24.651,24.259-30.041,41.021c-1.115,3.47-2.299,7.062-4.231,10.1
		c-6.098,9.585-6.961,19.74-4.39,30.502c0.502,2.097,0.692,4.27,0.983,6.413c3.729,27.393,10.17,53.917,24.52,77.988
		c2.634,4.419,4.759,9.146,7.033,13.773c6.438,13.095,9.745,26.828,8.631,41.522c-1.432,18.869,3.532,36.416,11.269,54.111
		c23.175-36.502,50.376-68.425,85.478-94.013c0.453,1.956,0.827,3.049,0.947,4.17c1.601,14.893,3.819,29.755,4.599,44.692
		c1.462,28.03-1.573,55.56-12.544,81.74c-7.282,17.378-18.621,31.8-32.828,44.074c-1.255,1.084-3.061,3.121-2.752,4.164
		c2.021,6.822,4.133,13.685,7.07,20.146c1.944,4.276,5.708,4.364,8.798,0.638c2.423-2.922,4.584-6.177,6.266-9.577
		c12.089-24.448,24.043-48.963,36.002-73.475c3.744-7.675,4.206-15.645,1.826-23.813
		C940.588,607.696,939.873,605.152,938.975,602.007z M722.075,384.394c-2.918-8.924-8.123-16.548-17.7-22.015
		c-17.439-9.955-35.202-19.408-53.244-28.225c-20.516-10.026-40.102-21.033-54.597-39.322c-0.683-0.861-2.516-1.259-3.756-1.159
		c-8.127,0.651-16.308,1.094-24.323,2.466c-3.635,0.621-8.006,2.342-10.207,5.054c-13.1,16.142-18.166,34.604-13.517,55.154
		c4.036,17.846,13.975,32.345,27.303,44.417c12.835,11.626,26.504,22.328,39.383,33.907c30.322,27.265,62.422,51.887,98.886,70.612
		c13.391,6.876,24.775,16.79,34.648,28.31c5.31,6.195,10.689,12.358,16.42,18.159c13.177,13.338,27.873,24.804,44.412,33.681
		c2.703,1.451,7.05,2.108,9.654,0.94c3.902-1.749,2.769-6.21,2.019-9.853c-1.509-7.325-3.729-14.59-4.37-21.991
		c-2.188-25.227-6.946-49.693-18.279-72.606c-6.338-12.813-12.3-25.813-18.391-38.748c-7.165-15.215-14.07-30.611-29.805-39.494
		c3.933,1.215,7.484,2.952,11.204,4.174c1.901,0.625,4.105,0.325,6.173,0.443c-0.108-1.898,0.089-3.878-0.386-5.68
		c-1.058-4.012-2.484-7.924-3.7-11.896c-7.616-24.891-14.501-49.899-12.236-76.382c0.079-0.928-0.418-1.904-0.947-4.111
		c-4.093,11.007-3.094,20.98-1.913,31.364c-12.08-14.282-23.768-28.1-35.455-41.917c-0.017,1.39,0.314,2.634,1.003,3.631
		c12.361,17.89,16.389,37.904,15.562,59.292c-0.415,10.732-2.393,21.874,6.862,31.564c-12.845-3.738-16.678-3.655-22.47-0.61
		c-2.505,1.316-3.5,2.706-3.243,5.752c0.69,8.174-3.544,13.783-10.639,14.9c-7.245,1.141-12.757-2.824-14.556-11.019
		c-0.337-1.538,0.693-4.431,1.934-5.072c4.68-2.424,9.617-4.449,14.63-6.104c4.765-1.572,9.744-2.494,14.629-3.703
		c0.029-0.666,0.059-1.332,0.088-1.999c-11.518-2.465-23.035-4.931-34.552-7.396c0.077-0.4,0.154-0.802,0.231-1.203
		C693.045,379.906,707.259,382.104,722.075,384.394z M1065.001,1084.717c-0.199-0.209-0.397-0.418-0.596-0.627
		c-0.985,1.101-2.019,2.162-2.948,3.307c-28.009,34.511-51.654,71.76-70.498,112.047c-10.985,23.485-21.521,47.218-36.676,68.483
		c-4.054,5.688-8.757,11.162-11.509,17.457c-2.499,5.718-6.38,9.564-10.866,13.24c-2.314,1.896-4.804,3.578-7.219,5.352
		c-12.202,8.963-24.772,17.473-36.513,27.005c-13.703,11.126-22.994,25.171-25.219,43.316c-4.009,32.702-8.296,65.37-12.504,98.047
		c-4.174,32.401-7.862,64.845-5.405,97.589c0.693,9.241,2.442,18.402,3.707,27.601c2.311-1.563,3.28-3.087,4.188-4.646
		c37.362-64.132,72.658-129.361,105.442-195.972c5.927-12.041,7.563-23.212,4.037-35.887c-6.189-22.244-11.761-44.659-17.858-66.93
		c-1.091-3.982-0.44-6.754,2.103-9.895c17.269-21.33,30.998-44.827,42.467-69.722c15.892-34.493,33.879-67.849,55.005-99.448
		C1050.957,1104.838,1058.039,1094.817,1065.001,1084.717z M873.369,700.584c-4.807,2.485-8.594,4.982-12.742,6.486
		c-11.532,4.182-23.16,8.119-34.856,11.818c-6.803,2.15-11.757,5.999-14.381,12.689c-4.674,11.913-9.507,23.766-13.986,35.751
		c-9.079,24.29-18.47,48.49-23.029,74.198c-0.523,2.951-0.109,4.828,2.354,6.837c6.705,5.468,13.251,11.152,19.601,17.031
		c31.662,29.319,55.661,63.455,66.137,106.009c0.892,3.619,1.778,7.24,2.46,10.015c7.374-6.911,14.858-13.74,22.057-20.858
		c1.162-1.148,1.58-3.618,1.453-5.414c-1.247-17.598-2.753-35.178-4.044-52.772c-1.171-15.944-2.752-31.989,0.732-47.776
		c2.588-11.725,5.248-23.278,4.806-35.441c-1.063-29.163-4.215-58.087-9.413-86.775
		C878.601,721.809,875.825,711.393,873.369,700.584z M690.867,569.057c0.134,0.943,0.088,1.323,0.241,1.588
		c0.83,1.438,1.699,2.855,2.574,4.269c14.231,22.976,26.691,46.816,34.953,72.65c8.128,25.419,11.923,51.171,5.29,77.62
		c-2.018,8.05-5.142,16.041-5.687,24.197c-1.261,18.855,9.638,32.577,21.711,45.364c2.623,2.778,5.824,5.11,10.2,3.571
		c4.662-1.641,5.336-5.702,5.574-9.7c0.302-5.067,0.072-10.166,0.072-15.251c1.723,4.479,2.284,9.06,3.37,13.513
		c0.374,1.532,1.912,3.649,3.179,3.85c1.232,0.193,3.384-1.413,4.109-2.774c2.414-4.53,4.467-9.264,6.483-13.994
		c8.595-20.16,17.159-40.335,25.636-60.546c0.876-2.089,1.452-4.438,1.558-6.693c1.272-27.381,6.736-53.715,18.873-78.496
		c0.771-1.574,0.7-4.516-0.291-5.835c-5.069-6.747-9.626-14.369-16.104-19.474c-16.516-13.014-32.585-26.369-46.696-42.021
		c-5.225-5.795-12.132-8.46-19.932-9.095C725.127,550.103,708.542,561.388,690.867,569.057z M1120.491,1110.351
		c-3.957,8.948-7.006,17.538-11.356,25.409c-29.453,53.292-69.196,97.168-120.481,130.314c-5.156,3.333-12.072,5.377-15.197,10.021
		c-3.251,4.83-3.178,12.049-4.056,18.294c-1.987,14.143-4.473,28.287-5.197,42.51c-0.518,10.144,2.688,20.055,8.398,28.821
		c2.262,3.472,4.676,4.442,7.944,1.022c3.104-3.248,6.616-6.109,9.699-9.376c6.155-6.521,12.14-13.204,18.195-19.82
		c0.118,0.096,0.236,0.192,0.354,0.288c-4.469,6.953-8.938,13.904-13.407,20.856c1.233-0.152,1.809-0.738,2.281-1.397
		c16.724-23.317,38.881-40.021,64.413-52.464c28.266-13.774,56.595-27.425,85.048-40.808c10.518-4.946,21.466-8.979,32.235-13.435
		c-5.958-1.959-12.374-4.108-18.815-6.179c-23.023-7.4-45.744-7.703-68.083,2.734c-14.696,6.866-25.969,17.857-36.479,29.797
		c-5.2,5.907-10.267,11.933-15.395,17.905c-0.062-1.344,0.44-2.319,1.104-3.169c8.203-10.494,16.493-20.92,24.639-31.458
		c27.202-35.193,49.423-72.756,54.004-118.196C1121.373,1131.768,1120.491,1121.32,1120.491,1110.351z M863.512,1011.483
		c-11.037,5.477-21.667,10.233-31.766,15.93c-7.927,4.472-15.401,9.832-22.714,15.283c-12.709,9.476-16.859,22.471-13.267,37.595
		c2.911,12.257,6.681,24.319,10.329,36.39c11.178,36.979,24.47,73.123,42.919,107.194c1.342,2.479,2.863,4.86,4.891,8.282
		c0.994-3.25,1.607-5.118,2.137-7.009c7.774-27.771,12.396-56.142,15.565-84.74c3.373-30.453,6.283-60.964,2.407-91.622
		C872.404,1036.058,869.629,1023.643,863.512,1011.483z M817.108,1751.388c-7.149,4.912-13.393,9.277-19.718,13.521
		c-5.143,3.451-8.769,7.85-10.742,13.88c-3.947,12.059-8.548,24.059-17.349,33.404c-11.712,12.435-15.188,27.297-15.175,43.563
		c0.024,28.757,7.467,56.199,14.963,83.624c0.136,0.494,0.703,0.871,0.665,0.826c10.09-15,20.244-29.776,29.952-44.84
		c1.632-2.531,1.934-6.325,1.816-9.498c-0.322-8.686,1.572-16.369,7.369-23.138c1.733-2.024,2.895-5.143,3.039-7.829
		c1.104-20.441,1.823-40.903,2.801-61.353C815.39,1779.771,816.275,1766.002,817.108,1751.388z M854.546,993.424
		c-2.271-2.555-4.047-5.282-6.482-7.151c-6.971-5.35-14.017-10.649-21.383-15.429c-18.112-11.754-36.421-23.206-54.652-34.775
		c-1.044-0.662-2.108-1.291-3.546-2.17c-0.144,39.875,8.305,77.643,19.814,115.617
		C812.349,1033.054,835.227,1016.071,854.546,993.424z M777.642,400.84c6.771-4.796,10.712-12.313,12.19-20.728
		c3.068-17.472,5.411-35.072,7.908-52.641c0.128-0.899-0.869-2.585-1.718-2.903c-11.422-4.282-22.91-8.386-34.707-12.651
		c-1.985,4.743-3.933,8.952-5.526,13.291c-3.735,10.171-4.62,20.451,0.147,30.542C762.998,370.698,770.268,385.549,777.642,400.84z
		 M1221.687,1839.819c8.608,21.266,14.371,42.779,15.646,65.739c7.615-5.563,41.586-73.769,44.43-88.537
		C1261.773,1824.607,1241.981,1832.117,1221.687,1839.819z M1205.441,1973.965c13.157-16.007,54.74-92.287,56.891-104.186
		c-10.701,19.485-20.95,38.147-31.633,57.601c1.085-23.577-12.347-40.238-23.379-57.944c-0.288,1.817,0.005,3.432,0.287,5.047
		c2.826,16.214,5.867,32.394,8.418,48.649C1218.873,1941.287,1214.673,1958.131,1205.441,1973.965z M598.586,577.099
		c1.513-0.882,3.045-1.733,4.535-2.651c18.067-11.121,36.986-20.328,57.688-25.455c25.105-6.219,50.459-5.393,75.882-2.533
		c3.705,0.416,7.449,0.473,11.176,0.696c0.025-0.635,0.052-1.27,0.078-1.904c-23.03-5.57-46.408-7.55-69.987-4.137
		C648.174,545.426,622.021,558.399,598.586,577.099z M1466.142,1231.446c-0.72,2.348-1.625,4.657-2.132,7.051
		c-3.775,17.823-2.773,35.665,2.779,52.753c5.785,17.802,13.375,35.02,20.286,52.448c0.499,1.259,1.904,2.158,2.889,3.224
		c0.419-0.211,0.837-0.422,1.256-0.633c-0.305-2.911-0.158-5.962-1.01-8.702c-1.669-5.371-3.593-10.706-5.938-15.814
		C1471.135,1293.163,1461.653,1263.882,1466.142,1231.446z M959.344,607.944c12.28-8.249,80.464-121.03,86.385-143.131
		c-30.046,46.312-53.299,96.101-86.244,139.899c-0.366,0.486-0.454,1.241-0.507,1.884
		C958.943,607.021,959.205,607.47,959.344,607.944z M814.183,716.139c0.386,0.213,0.771,0.427,1.156,0.641
		c20.66-17.785,69.058-98.602,71.508-120.404c-3.508,7.076-6.576,13.083-9.485,19.166c-15.078,31.53-35.073,59.954-55.46,88.145
		C819.047,707.633,816.742,711.978,814.183,716.139z M643.776,1015.257c-23.941-35.814-54.051-65.092-91.126-87.044
		C586.215,953.918,618.158,981.313,643.776,1015.257z M564.529,287.541c0.558,0.354,1.116,0.709,1.674,1.063
		c23.599-29.063,47.357-58.026,58.647-94.751c-4.069,7.556-7.678,15.386-11.673,23.014c-12.021,22.952-28.394,42.922-43.82,63.538
		C567.639,282.702,566.133,285.158,564.529,287.541z M1364.321,1465.19c-4.498-37.223-8.886-74.626-21.975-110.273
		C1349.672,1391.675,1356.996,1428.433,1364.321,1465.19z M722.499,369.565c0.137-19.933-33.423-48.608-57.349-50.21
		c10.326,6.225,21.834,12.433,32.535,19.811C708.72,346.772,718.002,356.299,722.499,369.565z M843.001,1704.81
		c-22.34,15.688-43.96,32.102-52.433,59.992C802.104,1739.593,822.607,1722.296,843.001,1704.81z M1321.903,1724.271
		c-1.946,4.327-3.981,8.617-5.813,12.993c-1.856,4.438-3.512,8.962-5.255,13.449c1.229-0.393,1.663-1.093,2.026-1.827
		c9.877-19.977,9.875-19.978,31.553-23.743c0.491-0.085,1.003-0.079,1.482-0.202c9.754-2.512,19.505-5.035,29.257-7.557
		c-10.261,1.303-20.143,4.145-30.211,5.932C1337.29,1724.675,1329.487,1727.811,1321.903,1724.271z M711.89,694.441
		c3.809,18.276,7.981,38.296,12.153,58.314C724.931,731.617,720.925,711.583,711.89,694.441z M739.013,1740.023
		c8.995-24.929,7.827-50.563,5.335-76.29C743.978,1689.262,744.389,1714.844,739.013,1740.023z M798.859,1907.598
		c14.11-15.194,28.222-30.389,42.813-46.102C823.426,1873.648,810.482,1889.945,798.859,1907.598z M1123.468,1705.559
		c-1.798-5.921-4.156-13.684-6.573-21.643c-2.286,3.119-4.511,6.155-7.173,9.789
		C1114.778,1698.065,1119.75,1702.352,1123.468,1705.559z M996.55,1586.346c-0.607,0.23-1.216,0.461-1.823,0.691
		c7.42,19.439,14.84,38.88,22.259,58.32c0.514-0.195,1.027-0.391,1.541-0.585C1011.201,1625.297,1003.875,1605.821,996.55,1586.346z
		 M802.966,326.942c-2.992,5.364-2.601,7.587,1.586,10.138c3.541,2.158,7.581,0.526,11.481-4.685
		C811.651,330.566,807.29,328.747,802.966,326.942z M849.302,348.522c-1.596,2.472-3.017,4.672-4.438,6.873
		c0.338,0.282,0.675,0.564,1.013,0.847c3.509-1.021,7.017-2.043,11.618-3.382C854.136,351.082,851.968,349.934,849.302,348.522z"/>
	<path fill-rule="evenodd" clip-rule="evenodd" d="M1209,2049c1.591-13.012,9.185-22.666,18.117-31.331
		c13.028-12.64,28.996-20.487,45.801-26.763c30.04-11.217,61.295-17.736,92.648-23.872c50.327-9.849,101.229-13.783,152.409-15.133
		c38.276-1.01,75.288-8.612,111.051-22.301c1.782-0.682,3.636-1.18,5.456-1.763c0.211,0.39,0.422,0.779,0.633,1.17
		c-6.428,4.625-12.858,9.247-19.282,13.877c-36.984,26.661-78.35,44.445-121.507,57.825
		c-50.268,15.584-101.043,29.531-151.59,44.219c-4.278,1.243-8.492,2.709-12.736,4.071c-19.333,0-38.667,0-58,0
		c2.517-1.59,4.954-3.324,7.562-4.747c25.908-14.138,53.652-23.177,82.42-29.197c14.931-3.125,29.97-5.727,44.96-8.564
		c-1.921-0.477-3.842-0.505-5.761-0.473c-29.07,0.489-57.104,6.59-84.49,15.92c-19.397,6.608-38.183,14.563-54.69,27.062
		C1244.333,2049,1226.667,2049,1209,2049z"/>
	<path fill-rule="evenodd" clip-rule="evenodd" d="M642,2049c-3.318-10.76-7.436-21.348-9.799-32.313
		c-5.805-26.942-10.863-54.046-16.103-81.108c-3.716-19.193-8.146-38.173-16.406-57.162c3.096,1.083,5.248,1.761,7.346,2.582
		c28.418,11.13,55.681,24.422,80.435,42.519c21.054,15.391,36.074,35.141,44.478,59.909c7.099,20.924,14.386,41.784,21.561,62.682
		c0.313,0.912,0.333,1.926,0.489,2.892c-17,0-34,0-51,0c-7.823-16.707-15.647-33.414-23.471-50.122
		c-0.536,0.238-1.073,0.477-1.609,0.715c0.691,1.593,1.418,3.171,2.068,4.78c6.012,14.872,12.01,29.75,18.012,44.627
		C679.333,2049,660.667,2049,642,2049z"/>
	<path fill-rule="evenodd" clip-rule="evenodd" d="M1735.673,825.652c-14.307-4.724-28.565-9.601-42.936-14.127
		c-13.281-4.184-26.446-9.857-40.078-11.572c-27.158-3.416-54.181-0.881-78.256,13.674c-35.019,21.17-69.537,43.17-104.169,64.975
		c-4.618,2.908-8.826,6.554-12.855,10.259c-1.324,1.217-2.49,4.145-1.899,5.483c0.62,1.405,3.509,2.708,5.274,2.553
		c6.937-0.608,13.87-1.553,20.715-2.851c10.944-2.074,21.791-4.662,32.729-6.781c8.573-1.661,15.296-6.01,20.984-12.534
		c4.585-5.26,9.192-10.688,14.626-14.986c22.676-17.936,47.706-21.077,73.306-7.846c11.478,5.933,21.205,15.326,31.509,23.427
		c5.882,4.624,11.164,10.006,17.004,14.688c7.939,6.366,16.906,10.551,28.012,11.081c-7.304,9.225-15.422,16.676-24.668,22.892
		c-27.153,18.253-56.14,18.405-86.032,8.377c-17.95-6.022-33.584-15.978-47.468-28.764c-0.98-0.903-1.993-1.776-2.927-2.726
		c-7.733-7.875-16.279-10.323-27.589-7.596c-15.478,3.733-31.429,5.582-47.228,7.89c-24.081,3.519-45.056,13.729-63.507,29.242
		c-21.036,17.687-41.813,35.681-62.73,53.509c-0.99,0.844-2.25,1.374-3.016,2.653c34.735,4.083,66.101,17.817,99.961,27.474
		c-5.386,2.583-9.539,4.527-13.651,6.557c-18.551,9.156-34.578,21.834-49.595,35.861c-22.954,21.442-50.381,28.319-81.065,26.088
		c-19.913-1.448-39.905-1.852-59.868-2.527c-13.03-0.44-23.583,4.028-32.348,14.39c-20.863,24.662-42.452,48.711-63.747,73.007
		c-0.734,0.837-1.465,1.675-3.084,3.525c1.613-17.727,0.646-34.427,5.929-50.603c0.394,8.434,0.787,16.865,1.228,26.287
		c1.791-1.386,2.771-1.917,3.452-2.704c11.772-13.602,23.659-27.108,35.196-40.905c7.546-9.023,12.938-19.375,16.338-30.655
		c10.235-33.946,29.584-62.436,53.367-88.069c37.037-39.919,79.053-73.856,125.365-102.483c0.418-0.258,0.884-0.438,2.527-1.242
		c-17.535,39.517-40.597,74.265-66.817,106.441c6.298,0,12.557,0.112,18.806-0.09c1.33-0.043,2.84-0.986,3.901-1.927
		c19.077-16.891,38.462-33.458,57.006-50.918c12.954-12.196,20.172-28.377,26.779-44.639c0.661-1.627,0.631-4.118-0.16-5.65
		c-3.345-6.474-6.789-12.937-10.77-19.029c-6.911-10.581-14.977-20.464-21.272-31.381c-22.521-39.049-17.985-77.531,12.943-110.354
		c8.037-8.529,17.359-15.848,27.261-24.776c1.712,17.875,12.683,28.485,22.223,39.901c9.901,11.847,18.867,24.225,22.55,39.549
		c5.123,21.321,1.116,41.661-7.338,61.362c-5.37,12.515-12.938,23.622-22.558,33.308c-2.817,2.837-5.335,5.998-8.315,8.643
		c-8.419,7.47-8.148,17.982-9.747,28.268c1.886-1.238,3.866-2.354,5.641-3.733c12.361-9.608,24.744-19.19,36.989-28.944
		c8.324-6.631,14.761-14.854,19.429-24.443c10.831-22.247,19.543-45.175,22.39-69.973c1.613-14.062,0.521-27.829-3.632-41.463
		c-3.432-11.268-5.969-22.806-9.128-34.162c-0.442-1.59-1.895-3.544-3.352-4.104c-9.769-3.756-12.605-9.97-8.525-19.572
		c0.519-1.22,1.112-2.424,1.809-3.551c4.638-7.502,16.012-9.006,22.029-2.449c1.597,1.74,1.522,5.221,1.779,7.943
		c0.772,8.174-1.371,14.911-10.65,18.319c4.245,13.313,8.441,26.473,13.006,40.787c1.772-3.501,3.075-6.072,4.115-8.126
		c-2.601-3.322-5.543-5.941-7.03-9.22c-3.141-6.927,0.067-13.211,7.425-15.008c2.994-0.731,6.336-0.814,9.392-0.35
		c5.932,0.9,9.017,7.415,5.715,13.849c-1.958,3.814-6.242,6.424-9.433,9.622c-1.49,1.493-3.763,2.914-4.128,4.688
		c-1.065,5.178-1.707,10.506-1.862,15.794c-0.278,9.444-0.078,18.904-0.078,28.894c8.105-2.519,14.695-6.542,17.472-13.82
		c4.478-11.739,8.631-23.761,11.132-36.027c1.244-6.101-1.274-13.054-2.576-19.523c-0.313-1.556-2.369-3.02-3.944-4.021
		c-9.241-5.867-10.607-17.021-2.914-24.769c4.615-4.648,10.24-4.225,14.031,1.056c7.035,9.802,6.901,14.819-1.171,23.858
		c-2.063,2.312-2.623,4.205-1.407,7.083c1.52,3.594,2.545,7.396,3.859,11.334c2.805-6.607,5.149-13.028,8.194-19.098
		c4.688-9.347,5.132-18.103-0.481-27.433c-4.405-7.32-1.11-14.15,7.518-17.365c0.109,2.348,0.214,4.59,0.348,7.444
		c1.894-1.481,3.451-2.7,5.746-4.496c0.365,0.776,0.557,1.45,0.951,1.972c1.221,1.615,2.519,3.173,3.786,4.753
		c1.484-1.656,3.7-3.074,4.331-5.009c3.357-10.293,11.478-13.165,20.948-13.824c1.391-0.097,3.656,1.409,4.249,2.739
		c2.636,5.915,1.656,11.759-1.705,17.138c-3.874,6.198-9.911,7.422-15.715,2.918c-2.634-2.043-4.56-2.109-6.854,0.051
		c-5.818,5.477-12.063,10.637-14.338,18.793c-0.611,2.193-0.949,4.463-1.539,7.312c8.208-4.572,16.146-2.442,23.934-1.568
		c1.125,0.127,2.778,2.684,2.818,4.154c0.208,7.583-4.019,14.22-9.685,15.995c-5.833,1.828-11.454-0.825-16.286-7.692
		c-0.286-0.406-0.547-0.831-0.681-1.035c-6.843,15.108-13.587,29.997-20.331,44.887c0.278,0.231,0.556,0.462,0.834,0.693
		c1.18-0.656,2.397-1.253,3.534-1.979c6.031-3.852,11.971-7.853,18.085-11.566c3.994-2.427,7.604-4.767,9.839-9.354
		c2.485-5.102,7.514-8.057,13.203-7.174c4.988,0.774,6.71,5.196,8.57,9.865c2.146,5.386,1.451,8.832-2.922,12.024
		c-4.454,3.251-10.757,3.908-15.262-0.414c-5.112-4.905-8.861-2.272-13.007,0.267c-29,17.763-50.487,42.063-63.401,73.65
		c-2.89,7.066-5.232,14.363-7.609,21.626c-0.466,1.423-0.481,4.12,0.273,4.563c1.268,0.745,3.442,0.535,5.017,0.035
		c2.513-0.799,5.005-1.914,7.229-3.329c15.16-9.647,30.479-19.07,45.284-29.24c11.635-7.991,20.994-18.447,28.479-30.484
		c8.086-13.007,16.19-26.003,24.222-39.044c6.041-9.809,8.714-20.366,7.292-31.956c-3.35-27.287,7.853-49.401,25.372-68.949
		c22.264-24.841,50.452-41.037,80.692-54.05c6.225-2.679,12.607-4.99,19.813-7.822c-0.781,8.36-0.993,15.837-2.274,23.126
		c-2.039,11.608-4.062,23.308-7.396,34.582c-6.462,21.853-21.746,37.2-40.139,49.367c-16.766,11.092-34.111,21.331-51.446,31.528
		c-13.799,8.117-24.306,18.984-30.956,33.566c-5.563,12.198-11.178,24.374-16.789,36.604c6.401,0,12.661,0.319,18.879-0.057
		c23.824-1.441,47.374-4.367,69.871-13.089c20.348-7.888,34.717-21.156,40.336-42.89c0.767-2.962,0.464-4.718-1.767-6.894
		c-4.373-4.267-4.52-10.733-0.865-14.871c3.56-4.03,10.505-4.795,15.091-1.661c4.703,3.214,6.62,10.344,4.01,15.124
		c-2.706,4.958-7.289,5.86-11.129,5.476c-4.918,11.582-9.599,22.607-14.514,34.186c6.323-0.628,13.035-1.919,19.72-1.792
		c7.401,0.142,11.048-3.146,13.199-9.798c1.757-5.429,4.39-10.574,7.092-15.731c-0.513,2.57-1.815,5.293-1.355,7.676
		c0.712,3.68,1.966,7.723,4.357,10.382c0.977,1.086,6.075-0.251,8.354-1.841c10.567-7.37,16.482-18.249,20.614-30.463
		c-0.405,0.684-0.72,1.445-1.229,2.038c-2.35,2.734-5.209,5.738-8.827,3.492c-2.277-1.413-4.132-4.668-4.698-7.402
		c-0.831-4.014,1.02-7.841,5.183-9.179c4.875-1.567,9.952-2.851,15.03-3.337c4.168-0.399,5.989-1.653,6.803-5.975
		c1.426-7.581,8.139-12.157,14.86-11.023c7.355,1.239,11.661,7.858,9.901,15.22c-1.505,6.291-8.819,10.183-15.437,8.149
		c-1.39-0.427-2.696-1.124-4.403-1.852c-3.666,6.201-7.256,12.271-11.153,18.862c5.845,0.312,10.524,1.361,15.27-3.612
		c6.285-6.588,16.459-5.752,21.892,0.283c4.834,5.37,5.527,10.937,1.896,15.219c-4.276,5.042-12.196,6.351-17.681,2.876
		c-0.979-0.619-1.979-1.311-2.722-2.18c-5.258-6.147-11.466-5.999-18.01-2.625c-4.129,2.129-7.935,4.908-12.127,6.886
		c-7.159,3.378-14.508,6.356-21.777,9.501c-0.993,0.43-1.989,0.853-2.939,1.613c17.434-3.794,34.048,2.665,51.062,3.691
		c6.481,0.391,12.949,1.006,19.423,1.518c4.527,0.358,8.354-0.038,12.188-3.652c5.19-4.895,12.138-6.023,19.2-4.146
		c4.663,1.239,7.979,4.225,9.213,8.959c1.286,4.928-0.188,9.169-3.945,12.655c-10.283,9.541-25.767,5.968-30.44-7.48
		c-1.745-0.079-3.675-0.167-5.556-0.252c-2.63,12.329-5.242,15.412-12.404,14.87c-7.914-0.599-12.306-5.342-13.077-14.587
		c-42.755-5.335-85.144-7.993-124.786,16.396c1.35,0.953,2.135,1.803,3.1,2.145c16.433,5.818,32.82,11.774,49.365,17.254
		c7.921,2.623,15.192,1.509,21.376-5.203c5.339-5.794,12.837-7.527,20.477-7.916c31.718-1.615,57.663,11.085,79.583,32.95
		c17.063,17.021,27.895,37.99,36.369,60.274c2.594,6.817,4.895,13.746,7.748,21.808c-3.568-1.183-6.089-2.074-8.643-2.856
		c-43.696-13.369-82.233-35.503-115.655-66.815c-8.409-7.878-18.532-13.927-27.856-20.806c4.262,0.668,8.532,1.221,12.762,2
		c19.703,3.631,38.479,10.243,56.888,17.966c8.23,3.452,16.346,7.178,24.513,10.779c-1.942-1.928-4.016-3.679-6.395-4.744
		c-16.193-7.253-32.236-14.921-48.774-21.293c-9.045-3.485-18.91-4.987-28.518-6.78
		C1742.656,822.835,1738.349,821.379,1735.673,825.652z M1342.928,1026.841c-7.212-3.014-15.827-3.19-24.436-2.558
		c-35.379,2.598-68.178,13.381-97.961,32.562c-7.988,5.146-14.731,12.306-21.691,18.915c-1.821,1.729-2.313,4.859-3.416,7.346
		C1237.307,1042.811,1287.402,1026.914,1342.928,1026.841z M1657.144,908.373c-18.751-5.074-37.465-10.295-56.264-15.186
		c-20.188-5.252-40.609-9.166-61.624-8.135c-3.552,0.175-7.051,1.41-11.338,2.318c1.283,1.506,1.587,2.172,1.885,2.169
		C1573.302,889.104,1614.793,902.067,1657.144,908.373z M1428.56,842.819c1.688-23.759,3.802-47.638,1.308-71.556
		c-0.436-0.006-0.872-0.012-1.308-0.018C1428.56,795.104,1428.56,818.962,1428.56,842.819z M1290.544,970.73
		c-0.337-0.255-0.673-0.509-1.01-0.764c-5.637,7.938-11.272,15.874-16.909,23.811c0.457,0.323,0.914,0.647,1.37,0.971
		C1279.512,986.742,1285.027,978.736,1290.544,970.73z"/>
	<path fill-rule="evenodd" clip-rule="evenodd" d="M453.045,315.843c-5,9.204-10.101,16.293-17.755,21.248
		c-0.872,0.564-1.159,2.538-1.156,3.857c0.014,6.159-2.69,10.578-8.269,13.04c-5.067,2.237-11.278,0.943-14.686-3.031
		c-4.058-4.731-4.231-10.199-1.347-15.364c2.219-3.973,5.441-7.385,8.436-11.335c1.621,1.355,2.539,2.229,3.561,2.96
		c6.735,4.816,8.199,4.949,14.852-0.141c3.679-2.814,7.095-6.05,10.244-9.451c2.076-2.242,3.534-2.844,6.714-1.671
		c8.866,3.269,17.979,5.88,27.04,8.603c1.839,0.552,3.875,0.452,6.054,0.677c-3.02-6.573-6.184-12.589-8.597-18.892
		c-5.568-14.546-6.867-29.771-6.075-45.195c0.178-3.474-0.857-4.926-4.125-6.58c-18.135-9.176-29.705-23.728-33.428-43.9
		c-1.137-6.16,0.98-12.011,5.133-16.671c3.073-3.449,6.425-6.988,10.355-9.282c34.162-19.94,64.381-44.942,93.484-71.501
		c11.008-10.046,23.832-17.567,37.826-22.914c1.679-0.641,3.419-1.118,5.547-1.806c1.883,10.722,1.177,20.986-0.342,31.188
		c-4.326,29.064-18.724,53.439-36.146,76.301c-17.38,22.804-37.975,41.953-63.963,54.698c-5.971,2.929-8.236,7.498-8.476,13.975
		c-0.786,21.244,6.021,40.375,16.404,58.319c8.294,14.336,17.527,28.129,24.839,39.767c-8.633-6.797-19.245-15.813-30.546-23.863
		C477.296,330.808,465.278,323.703,453.045,315.843z M500.706,188.469c-14.026,17.392-24.674,36.221-23.691,59.549
		C480.73,226.559,488.755,206.803,500.706,188.469z"/>
	<path fill-rule="evenodd" clip-rule="evenodd" d="M1049.078,365.082c2.288-8.467,4.837-16.873,6.811-25.413
		c4.812-20.809,5.063-41.979,3.521-63.104c-4.443-60.849,16.149-112.646,56.03-157.658c10.965-12.376,24.396-21.672,38.61-29.739
		c20.388-11.571,41.093-22.585,61.689-33.785c2.294-1.247,4.771-2.157,7.521-2.643c-8.112,6.093-16.232,12.175-24.334,18.282
		c-43.309,32.646-76.038,73.483-94.293,124.844c-7.44,20.934-11.848,42.929-18.794,64.06
		c-11.412,34.715-23.768,69.12-35.753,103.646c-0.188,0.539-0.732,0.954-1.109,1.427
		C1048.978,364.999,1049.078,365.082,1049.078,365.082z"/>
	<path fill-rule="evenodd" clip-rule="evenodd" d="M441.089,307.779c-6.426,2.735-12.073,5.085-17.659,7.569
		c-1.006,0.447-2.313,1.31-2.55,2.222c-2.321,8.965-10.767,11.632-16.795,16.809c-1.786,1.533-3.513,3.877-3.948,6.106
		c-1.521,7.787-8.052,12.36-15.812,10.493c-6.303-1.517-10.346-8.766-8.52-15.275c1.919-6.843,9.427-10.608,16.355-7.548
		c3.251,1.436,5.105,0.742,7.378-1.369c2.643-2.454,5.556-4.617,9.271-7.66c-8.831,0-16.525-0.086-24.214,0.097
		c-1.083,0.026-2.102,1.42-3.207,2.084c-2.967,1.785-5.774,4.104-8.99,5.153c-7.337,2.394-14.635-2.633-16.216-10.629
		c-1.418-7.174,2.592-13.085,9.614-13.459c5.575-0.298,10.308,2.104,14.281,6.036c6.406,6.341,10.188,6.882,18.142,2.587
		c2.338-1.264,4.485-2.891,6.859-4.073c1.588-0.792,3.455-1.631,5.137-1.522c7.651,0.494,8.688,0.366,15.402-3.784
		c-9.808-8.778-20.598-13.735-34.019-10.033c-3.199,0.882-6.53,1.329-9.68,2.35c-11.034,3.577-21.976,2.712-32.892-0.408
		c-3.744-1.07-6.643-0.88-9.695,2.403c-5.329,5.731-14.608,5.49-19.742,0.217c-5.424-5.571-6.103-17.333-1.25-22.114
		c0.446-0.439,1.084-0.996,1.622-0.984c9.665,0.201,20.086-1.8,26.207,8.956c0.558,0.979,2.068,2.067,3.092,2.025
		c7.75-0.316,15.518-0.659,23.21-1.582c1.862-0.223,4.931-2.709,4.867-4.03c-0.121-2.501-1.749-5.211-3.446-7.257
		c-1.144-1.378-3.451-1.839-5.289-2.584c-8.212-3.329-11.575-9.488-8.808-16.225c2.71-6.597,10.646-10.05,17.445-7.593
		c7.419,2.681,11.044,10.406,8.251,17.823c-0.816,2.17-2.385,4.126-2.853,6.34c-0.416,1.965-0.571,4.867,0.545,6.096
		c2.606,2.869,5.715,6.187,9.218,7.149c7.203,1.982,14.797,2.541,22.172,3.677c-1.735-9.573-3.16-17.862-4.826-26.102
		c-0.211-1.047-1.573-1.993-2.59-2.725c-5.782-4.16-7.753-9.652-5.479-15.573c2.012-5.236,7.263-8.232,13.245-7.557
		c5.761,0.65,10.398,5.326,11.073,11.165c0.695,6.021-2.57,11.001-8.812,13.438c-0.615,0.24-1.231,0.481-2.12,0.829
		C417.186,278.944,422.633,296.797,441.089,307.779z"/>
	<path fill-rule="evenodd" clip-rule="evenodd" d="M1773.587,699.402c-7.553-0.012-12.664-4.556-12.479-11.094
		c0.185-6.5,7.834-12.027,16.528-11.942c6.079,0.06,10.13,4.355,9.999,10.604C1787.488,694.042,1781.416,699.415,1773.587,699.402z"
		/>
	<path fill-rule="evenodd" clip-rule="evenodd" d="M675.221,380.839c-6.864-3.23-13.39-5.88-19.474-9.313
		c-4.037-2.278-5.193-8.011-3.364-12.45c1.814-4.402,5.548-5.326,9.817-5.07c7.308,0.438,11.494,4.456,12.13,11.839
		C674.725,370.436,674.886,375.046,675.221,380.839z"/>
</g>
</svg>
