<?xml version="1.0" encoding="utf-8"?>
<!-- Generator: Adobe Illustrator 16.0.0, SVG Export Plug-In . SVG Version: 6.00 Build 0)  -->
<!DOCTYPE svg PUBLIC "-//W3C//DTD SVG 1.1//EN" "http://www.w3.org/Graphics/SVG/1.1/DTD/svg11.dtd">
<svg version="1.1" id="Layer_1" xmlns="http://www.w3.org/2000/svg" xmlns:xlink="http://www.w3.org/1999/xlink" x="0px" y="0px"
	 width="2049px" height="2049px" viewBox="0 0 2049 2049" enable-background="new 0 0 2049 2049" xml:space="preserve">
<g>
	<path fill-rule="evenodd" clip-rule="evenodd" d="M1354.971,1409.135c4.028-5.434,8.163-10.791,12.066-16.313
		c18.259-25.826,31.278-54.516,45.046-82.79c11.52-23.658,22.437-47.587,28.378-73.372c1.972-8.559,2.879-17.371,4.081-26.094
		c0.355-2.574,0.055-5.239,0.055-8.849c-5.72,1.825-10.51,3.442-15.354,4.883c-17.513,5.208-34.881,11.02-52.609,15.35
		c-19.679,4.807-37.958,0.315-54.345-11.671c-19.006-13.902-35.012-30.351-43.624-52.76c-6.021-15.666-6.666-31.496,0.473-47.109
		c5.187-11.343,10.513-13.635,22.323-9.678c3.91,1.311,7.746,2.845,12.387,4.563c-0.478-1.457-0.659-2.312-1.023-3.08
		c-9.17-19.348-5.826-35.982,10.367-50.333c26.188-23.208,55.979-26.335,87.654-14.217c28.672,10.971,50.944,30.421,68.494,55.442
		c13.108,18.69,14.482,38.531,5.648,59.227c-7.752,18.162-18.322,34.335-34.173,46.629c-0.981,0.762-1.901,2.435-1.819,3.612
		c1.294,18.63-2.999,36.379-8.225,53.998c-0.125,0.422-0.148,0.875,0.493,1.687c4.906-7.859,9.944-15.642,14.696-23.594
		c29.038-48.586,53.313-99.335,69.951-153.589c1.917-6.25,1.796-12.046-0.315-18.017c-3.876-10.966-7.899-21.883-11.556-32.922
		c-1.414-4.267-4.629-5.708-8.27-7.128c-16.252-6.335-32.768-12.103-48.621-19.322c-16.138-7.35-30.592-17.547-42.652-30.818
		c-0.814-0.896-2.1-1.521-3.285-1.9c-8.194-2.619-16.447-5.058-24.631-7.709c-11.95-3.872-23.857-7.876-36.092-11.925
		c0.389-7.285,9.664-15.68,21.061-18.36c10.862-2.556,20.274,0.733,29.195,6.879c-1.094-9.09-2.824-17.804-2.99-26.547
		c-0.146-7.704,0.293-15.807,2.568-23.077c3.111-9.938,9.344-17.761,21.558-17.359c1.012,0.033,2.487-0.95,3.027-1.879
		c2.581-4.44,6.729-6.315,11.361-5.853c8.733,0.872,17.676,1.541,26.02,4.017c13.977,4.148,28.097,8.515,41.184,14.81
		c28.263,13.595,41.119,37.457,40.584,68.335c-0.404,23.313-8.189,43.64-27.112,58.722c-1.483,1.182-2.427,4.677-1.85,6.551
		c4.683,15.2,9.789,30.27,14.766,45.379c0.693-0.046,1.388-0.091,2.082-0.137c2.094-5.246,4.37-10.428,6.251-15.749
		c13.311-37.66,27.214-75.09,45.785-110.546c5.702-10.888,12.821-21.024,18.864-31.746c2.034-3.608,3.288-7.876,3.941-11.993
		c1.17-7.387,1.851-14.873,2.313-22.344c0.79-12.769,1.119-25.566,1.93-38.334c0.261-4.112-1.276-5.918-5.102-7.008
		c-13.019-3.711-24.671-10.251-34.439-19.478c-4.83-4.563-9.399-10.294-11.755-16.396c-4.648-12.042-8.879-24.502-11.077-37.172
		c-3.087-17.794,2.345-34.429,12.401-49.159c6.604-9.673,19.895-8.84,27.101,1.181c2.283,3.175,3.65,7.009,5.284,10.237
		c1.76-4.163,3.169-8.94,5.649-13.075c5.663-9.44,13.198-10.893,22.297-4.814c1.795,1.198,3.613,2.469,5.088,4.021
		c17.544,18.468,31.233,39.069,33.891,65.17c1.427,14.021-3.088,26.678-13.285,36.297c-8.543,8.06-18.232,14.945-27.706,21.956
		c-3.282,2.428-5.022,4.689-4.605,8.94c1.841,18.733-0.779,37.226-3.41,55.705c-0.186,1.305-0.231,2.63-0.382,4.41
		c0.896-0.473,1.57-0.629,1.938-1.052c12.892-14.843,29.282-25.059,46.09-34.671c2.713-1.551,3.792-3.112,3.408-6.255
		c-3.049-24.989,5.794-45.94,21.656-64.736c13.709-16.244,29.965-29.291,48.008-40.286c0.825-0.503,1.745-0.849,3.781-1.823
		c-0.736,8.285-0.998,15.834-2.138,23.247c-5.134,33.397-19.686,62.013-44.724,84.861c-5.83,5.32-12.792,9.488-19.561,13.654
		c-3.531,2.173-7.664,3.399-11.323-0.801c-0.579-0.666-3.299-0.01-4.716,0.68c-14.484,7.047-26.22,17.561-36.694,29.59
		c-17.601,20.215-29.84,43.692-40.107,68.145c-9.948,23.691-18.792,47.848-27.591,72.08c21.676-12.427,40.438-27.492,53.192-49.3
		c4.541-7.764,5.627-14.123,2.432-23.214c-9.819-27.935,1.466-54.382,28.44-68.524c24.123-12.646,50.13-14.923,76.774-11.325
		c3.515,0.475,7.037,2.09,10.18,3.85c5.729,3.209,6.235,5.549,3.869,10.325c4.192,2.104,9.151,3.364,12.306,6.462
		c4.732,4.649,5.166,11.41,4.614,17.842c-1.817,21.167-9.254,40.1-23.197,56.264c-10.005,11.599-23.554,15.169-38.081,15.82
		c-20.464,0.917-40.592-1.268-59.985-8.205c-4.043-1.446-7.108-0.808-9.885,2.192c-3.276,3.538-6.762,6.917-9.727,10.702
		c-12.265,15.658-26.705,28.877-43.98,38.732c-6.91,3.942-10.493,9.613-12.865,16.882c-8.46,25.916-16.529,51.991-25.999,77.542
		c-18.753,50.599-43.617,98.173-73.445,143.146c-0.976,1.472-1.856,3.006-2.188,5.228c1.317-0.789,2.685-1.506,3.942-2.379
		c23.521-16.325,46.703-33.178,72.399-46.104c1.109-0.559,2.22-2.91,1.959-4.135c-6.371-29.96,3.022-56.3,19.043-80.804
		c9.99-15.28,25.883-21.836,43.143-24.256c47.235-6.622,86.343,9.398,118.118,44.286c3.075,3.377,5.125,7.747,7.352,11.82
		c2.19,4.007,1.705,7.653-2.32,10.479c-1.299,0.913-2.343,2.191-3.972,3.75c9.452,3.842,8.562,11.052,7.039,18.329
		c-9.501,45.415-55.189,85.453-101.261,88.638c-9.625,0.665-18.882-1.463-27.721-5.229c-16.017-6.822-29.886-16.717-41.539-29.649
		c-7.689-8.535-13.295-18.263-16.168-30.206c-1.717,0.88-3.215,1.438-4.48,2.327c-27.915,19.609-55.871,39.162-83.598,59.035
		c-2.896,2.076-4.792,5.895-6.493,9.239c-9.731,19.131-19.053,38.471-28.911,57.534c-15.369,29.724-35.517,56.299-55.897,82.626
		c-32.631,42.148-65.727,83.937-98.624,125.879c-0.818,1.043-1.614,2.105-1.967,3.988c2.01-1.117,4.127-2.078,6.012-3.377
		c13.704-9.439,27.232-19.141,41.064-28.389c20.063-13.414,40.333-26.518,60.518-39.749c1.378-0.903,2.782-1.766,4.207-2.668
		c-2.766-5.682-5.673-11.052-8.049-16.647c-6.614-15.582-5.845-30.517,4.697-44.31c6.873-8.994,13.701-18.03,20.832-26.818
		c14.18-17.474,31.98-28.046,54.978-29.659c26.086-1.831,51.3,0.39,74.53,13.458c17.686,9.949,31.485,24.021,35.373,44.274
		c2.737,14.259,2.591,29.263-2.057,43.663c-8.12,25.165-22.37,46.104-43.547,61.906c-26.322,19.643-55.323,19.89-85.056,9.661
		c-23.519-8.091-38.879-24.892-47.907-47.779c-0.48-1.219-0.971-2.433-1.699-4.259c-13.433,9.469-26.6,18.757-39.772,28.036
		c-18.371,12.94-36.606,26.081-55.197,38.699c-6.285,4.266-13.606,6.975-20.196,10.834c-3.595,2.105-7.404,4.568-9.833,7.827
		c-28.159,37.78-56.278,75.596-83.942,113.738c-9.961,13.734-19.312,28.183-23.864,44.736c-3.115,11.328-4.538,23.147-6.356,34.803
		c-8.254,52.897-21.544,104.562-37.69,155.542c-1.252,3.953-3.521,7.752-0.767,12.271c0.661,1.084-1.009,5.076-2.405,5.599
		c-2.442,0.914-5.82,0.92-8.205-0.101c-1.989-0.851-3.327-3.59-4.597-5.708c-26.443-44.11-52.788-88.279-79.344-132.321
		c-1.766-2.93-4.689-5.595-7.695-7.271c-14.971-8.354-27.859-19.396-40.562-30.687c-27.517-24.462-54.947-49.02-82.428-73.521
		c-1.228-1.095-2.599-2.028-3.908-3.042c-0.575,0.477-1.097,0.711-1.304,1.108c-18.426,35.473-47.971,51.923-87.572,52.132
		c-29.221,0.154-53.195-10.268-71.7-32.965c-20.509-25.153-32.994-53.447-32.798-86.385c0.041-6.908,1.938-13.791,2.772-20.711
		c2.926-24.265,17.961-39.463,38.379-50.036c8.025-4.155,16.896-7.168,25.729-9.181c23.78-5.416,47.563-4.726,71.1,2.093
		c13.654,3.954,25.283,10.966,34.388,21.971c14.708,17.777,27.497,36.768,37.281,57.755c6.649,14.262,6.161,28.053-1.694,41.551
		c-3.583,6.156-7.597,12.062-11.741,18.596c5.74,4.497,11.609,9.343,17.729,13.848c28.397,20.905,53.498,45.57,79.47,69.254
		c7.846,7.153,16.349,13.584,24.551,20.347c0.369-0.284,0.737-0.567,1.106-0.851c-1.284-2.312-2.461-4.689-3.867-6.924
		c-32.548-51.701-65.295-103.277-97.636-155.107c-29.692-47.586-59.096-95.354-88.293-143.244
		c-6.828-11.199-12.224-23.265-18.476-34.825c-1.469-2.715-3.337-5.497-5.704-7.399c-28.3-22.749-56.729-45.339-85.131-67.961
		c-0.772-0.615-1.63-1.125-2.689-1.849c-1.761,4.061-2.951,8.253-5.202,11.765c-17.176,26.802-40.764,44.6-72.726,49.419
		c-13.825,2.085-27.145-1.82-39.822-7.249c-33.098-14.172-56.322-37.755-67.953-72.185c-0.584-1.729-1.089-3.505-1.406-5.299
		c-1.132-6.382-1.341-12.492,5.684-15.75c-0.143-0.648-0.103-1.079-0.297-1.267c-7.335-7.062-7.801-9.96-1.976-18.794
		c9.671-14.666,23.256-25.081,38.092-33.974c22.173-13.291,45.94-21.354,72.094-19.597c9.031,0.606,18.087,2.69,26.838,5.146
		c9.47,2.657,17.539,8.211,23.554,16.118c16.307,21.435,25.295,45.518,25.468,72.635c0.016,2.484,0.147,5.194-0.739,7.414
		c-2.271,5.685,0.931,7.965,4.997,10.943c22.973,16.823,45.704,33.976,68.52,51.014c1.389,1.037,2.788,2.062,5.014,2.369
		c-0.924-1.867-1.734-3.802-2.789-5.592c-28.049-47.61-55.854-95.367-84.31-142.733c-13.601-22.64-29.501-43.619-50.901-59.776
		c-17.856-13.482-37.458-23.44-58.996-29.562c-3.646-1.036-6.73-0.897-10.281,1.363c-19.088,12.15-38.485,23.668-59.677,32.076
		c-17.445,6.922-33.119,5.127-47.977-6.008c-4.13-3.096-8.419-5.986-12.456-9.197c-20.439-16.257-35.765-35.921-39.526-62.57
		c-1.409-9.984-2.073-20.222-1.638-30.28c0.555-12.777,8.352-18.229,20.75-14.977c6.474,1.698,12.513,5.053,19.192,7.845
		c-0.536-1.955-1.137-4.19-1.765-6.417c-2.1-7.453-0.545-10.956,6.81-13.544c15.37-5.409,30.438-4.643,44.923,3.118
		c3.072,1.646,6.115,3.451,8.856,5.587c5.682,4.426,11.26,6.563,19.119,5.819c5.975-0.565,13.15,2.518,18.493,5.98
		c17.048,11.05,26.137,27.807,29.204,47.448c1.411,9.036,0.24,18.476,0.24,28.241c25.966,5.333,50.02,16.771,71.684,33.883
		c0.126-0.637,0.398-1.129,0.256-1.413c-15.304-30.467-29.659-61.378-48.438-90.054c-23.519-35.916-53.104-65.22-89.737-87.484
		c-3.725-2.264-6.786-4.286-12.151-2.117c-4.193,1.695-10.206,0.132-15.057-1.238c-34.431-9.729-66.329-24.819-94.786-46.647
		c-19.148-14.688-40.417-25.669-61.691-36.709c-1.62-0.842-3.223-1.72-4.809-2.623c-0.26-0.148-0.393-0.519-0.902-1.229
		c38.667-13.046,76.704-18.839,112.971,6.213c18.451,12.746,31.005,30.592,40.472,50.539c4.453,9.383,10.637,15.847,20.176,20.161
		c19.979,9.036,37.806,21.644,54.874,35.323c1.782,1.428,3.595,2.816,5.394,4.224c0.474-0.164,0.946-0.328,1.42-0.493
		c-0.703-4.422-1.031-8.944-2.174-13.25c-5.526-20.831-18.688-36.461-34.642-50.138c-5.06-4.337-9.953-8.873-15.08-13.128
		c-19.253-15.973-31.67-35.881-34.417-61.021c-1.04-9.513-5.453-15.261-14.275-18.826c-8.454-3.418-16.608-7.692-24.594-12.133
		c-25.493-14.176-36.197-35.978-31.107-64.768c3.804-21.517,13.063-40.851,27.007-57.69c3.297-3.982,7.976-6.964,12.388-9.839
		c4.688-3.054,10.046-2.6,13.834,1.234c4.697,4.754,8.523,10.393,12.521,15.801c1.116,1.511,1.506,3.559,2.296,5.526
		c1.511-4.242,2.509-8.336,4.357-12.001c6.242-12.373,21.029-15.238,30.27-4.984c16.638,18.462,25.638,39.923,21.595,65.439
		c-0.964,6.082-2.188,12.134-2.882,18.246c-2.32,20.405-13.636,34.993-29.856,46.333c-5.436,3.8-11.249,7.085-17.029,10.357
		c-2.823,1.599-4.055,3.016-2.922,6.624c2.035,6.481,3.555,13.158,4.811,19.843c2.904,15.473,10.411,28.365,21.672,39.086
		c9.65,9.188,19.634,18.027,29.466,27.025c14.26,13.05,25.735,27.969,30.398,47.126c1.244,5.11,1.06,10.556,1.744,15.82
		c0.24,1.846,0.58,4.166,1.783,5.327c25.313,24.439,43.991,53.833,62.377,83.42c8.169,13.147,15.812,26.622,23.71,39.938
		c0.74,1.249,1.597,2.429,3.502,3.547c0.465-4.328,1.3-8.654,1.325-12.984c0.076-12.825-0.212-25.65-0.254-38.477
		c-0.011-3.188-1.139-5.125-4.217-6.46c-29.663-12.865-49.39-47.991-45.631-85.438c2.547-25.372,15.041-43.916,36.215-57.217
		c14.99-9.417,30.596-17.564,47.714-22.433c7.419-2.11,14.774-3.299,20.69,3.71c0.542,0.642,2.172,0.751,3.186,0.55
		c10.989-2.18,18.147,3.501,23.996,11.691c5.47,7.659,7.765,16.521,8.941,25.677c2.498,19.439,2.478,38.873-0.719,58.247
		c-1.986,12.037-8.963,21.258-16.88,30.023c-15.942,17.65-34.948,31.444-55.671,42.64c-10.176,5.497-14.634,11.771-13.029,23.642
		c1.302,9.636,0.371,19.643-0.221,29.446c-0.594,9.842,2.24,18.444,7.9,26.195c8.642,11.834,18.296,23.004,26.13,35.339
		c26.689,42.018,52.775,84.418,79.076,126.682c4.637,7.451,9.198,14.949,14.415,22.127c-1.922-9.475-4.639-18.872-5.553-28.443
		c-1.02-10.679-0.32-21.517-0.567-32.28c-0.044-1.937-0.648-4.096-1.663-5.738c-19.978-32.32-24.858-66.919-15.646-103.594
		c3.159-12.577,10.402-22.709,20.65-30.448c25.478-19.242,53.815-31.717,85.846-34.789c11.83-1.136,23.18,1.256,34.779,6.803
		c-0.977-4.735-1.912-8.799-2.643-12.897c-5.14-28.833-5.906-57.651,1.588-86.189c1.658-6.313,4.583-12.577,8.18-18.037
		c7.079-10.745,18.107-14.071,30.222-9.563c5.979,2.226,11.559,5.527,17.552,8.455c0-1.864,0.012-3.812-0.003-5.759
		c-0.093-12.469,5.32-21.955,16.945-26.269c8.773-3.255,18.213-5.623,27.518-6.373c29.303-2.359,57.424,2.324,83.348,17.059
		c12.775,7.262,23.371,17.046,32.623,28.37c4.931,6.034,7.579,7.59,17.319,9.794c-1.336-5.438-1.875-10.631-3.854-15.2
		c-11.766-27.169-23.9-54.177-35.816-81.281c-1.991-4.529-4.986-7.827-8.758-11.115c-6.095-5.314-11.691-11.43-16.505-17.941
		c-12.945-17.51-31.255-21.016-51.6-21.269c0.497,6.05-2.846,9.301-7.47,11.459c-20.237,9.444-41.483,12.894-63.682,10.476
		c-0.825-0.09-1.656-0.22-2.456-0.437c-8.733-2.366-9.911-4.931-5.994-12.992c10.285-21.166,37.626-35.991,59.868-32.816
		c9.662,1.38,14.496,7.677,17.229,15.963c1.396,4.235,3.473,5.206,7.735,5.574c8.244,0.712,16.506,2.099,24.546,4.076
		c10.393,2.556,18.312,9.116,24.943,17.401c4.138,5.168,8.618,10.062,12.944,15.078c0.432-0.278,0.863-0.556,1.295-0.833
		c-18.639-38.589-37.277-77.177-55.784-115.492c-10.865,6.285-21.343,13.14-32.512,18.575c-10.418,5.071-21.426,9.064-32.432,12.767
		c-18.813,6.327-37.774,5.61-56.358-1.086c-34.37-12.385-62.958-32.409-81.983-64.306c-7.622-12.779-10.86-26.77-8.33-41.729
		c3.895-23.029,22.271-38.91,45.868-39.661c1.811-0.058,3.624-0.008,6.199-0.008c-6.099-9.795-9.691-19.721-7.364-30.72
		c2.429-11.48,11.372-17.037,21.657-21.754c-7.574-4.082-13.803-6.277-22.682-3.078c-34.409,12.397-69.831,20.982-106.693,21.205
		c-16.684,0.102-32.988-3.038-46.919-12.918c-4.824-3.422-9.161-8.396-11.967-13.605c-4.788-8.893-0.84-17.254,8.584-20.871
		c1.376-0.528,2.799-0.936,4.638-1.544c-7.696-13.52-3.047-24.792,6.238-34.996c17.174-18.874,37.611-32.184,63.297-36.212
		c17.295-2.712,32.906,2.487,47.898,10.429c1.744,0.924,3.446,1.926,5.611,3.14c-5.662-19.839-10.633-39.504-30.145-50.333
		c-2.17-1.205-5.492-1.707-7.834-1.018c-22.653,6.667-45.181,13.76-67.814,20.497c-6.68,1.988-13.538,3.451-20.388,4.779
		c-16.077,3.116-30.35-1.028-42.895-11.358c-11.949-9.84-22.027-21.385-29.563-34.876c-3.025-5.413-5.481-11.551-6.439-17.636
		c-2.701-17.151,4.477-26.257,21.776-28.607c-4.677-14.49,3.053-23.574,14.235-30.445c8.44-5.187,17.51-9.348,26.376-14.006
		c-10.596-7.439-22.554-12.779-35.622-15.786c-14.198-3.267-28.484-5.442-43.056-3.514c-2.367,0.313-4.94,1.752-6.719,3.417
		c-13.483,12.62-26.543,25.702-40.229,38.094c-12.035,10.896-26.149,13.121-41.436,7.571c-7.337-2.664-14.761-5.114-21.983-8.059
		c-25.205-10.273-40.295-29.669-48.87-54.818c-0.321-0.941-0.554-1.915-0.801-2.881c-3.639-14.195,0.528-21.619,18.805-20.771
		c3.732,0.173,7.406,1.587,11.885,2.605c-1.271-2.287-2.303-4.039-3.236-5.841c-2.963-5.719-2.221-8.956,3.401-12.653
		c13.095-8.61,27.355-10.797,42.545-7.206c2.588,0.612,5.201,1.227,7.68,2.167c4.414,1.675,8.409,1.477,12.946-0.341
		c7.644-3.063,15.571-1.601,22.833,1.607c20.508,9.058,31.81,25.46,36.271,47.012c0.438,2.117,0.688,4.272,1.039,6.408
		c0.023,0.143,0.152,0.268,0.543,0.919c21.654-2.901,43.021,0.11,65.19,7.328c-22.995-27.024-47.806-50.093-75.456-70.193
		c-27.826-20.229-59.18-32.545-91.921-42.463c-0.043,7.498-1.685,9.089-8.387,6.342c-8.141-3.338-14.688-2.15-22.267,2.292
		c-17.112,10.031-36.151,15.095-55.642,18.288c-33.099,5.423-55.312-16.142-65.697-34.093c-1.15-1.988-1.896-4.262-2.526-6.489
		c-2.125-7.518,0.245-11.732,7.563-13.751c-5.139-7.062-4.831-10.753,2.523-16.146c14.381-10.546,30.812-16.332,48.271-19.141
		c17.22-2.771,34.191-1.811,50.573,4.812c0.565,0.229,1.189,0.313,2.652,0.686c-4.251-7.456-7.819-14.333-12.056-20.77
		c-1.271-1.933-4.273-3.053-6.71-3.836c-9.966-3.201-20.17-5.711-30.009-9.247c-18.113-6.512-31.21-18.24-33.965-38.16
		c-1.142-8.26-1.157-17.226,0.841-25.24c2.908-11.658,7.961-22.802,12.417-34.039c1.136-2.865,3.281-5.411,5.285-7.838
		c11.287-13.672,25.049-11.433,31.928,5.121c0.442,1.064,0.911,2.118,1.897,4.407c0.905-2.915,1.461-4.829,2.091-6.718
		c4.571-13.698,17.686-16.796,27.543-6.324c12.902,13.706,20.942,29.52,20.275,48.914c-0.138,3.995-0.264,8.015,0.001,11.996
		c1.394,20.897-8.556,36.353-23.5,49.446c-2.237,1.96-4.599,3.777-7.038,5.771c9.608,17.252,17.58,35.398,38.662,42.13
		c9.616,3.071,18.749,7.711,27.996,11.873c15.933,7.171,29.858,16.846,38.943,32.304c0.926,1.574,2.248,3.167,2.461,4.867
		c1.002,8.006,6.713,11.181,13.073,14.614c23.878,12.889,44.849,29.898,65.34,47.498c10.973,9.425,21.777,19.046,33.727,28.163
		c-0.631-2.544-1.068-5.155-1.928-7.619c-3.611-10.351-7.479-20.614-10.972-31.004c-1.272-3.784-4.26-4.179-7.297-5.007
		c-24.818-6.771-42.318-21.967-51.462-46.041c-7.18-18.905-5.33-37.359,5.486-54.55c9.687-15.396,22.264-28.234,36.76-39.132
		c5.433-4.084,11.363-7.335,18.267-2.496c0.638,0.446,2.01,0.316,2.828-0.038c10.825-4.688,18.767,0.41,25.611,7.924
		c7.568,8.309,11.431,18.748,14.633,29.259c2.608,8.563,4.517,17.388,6.065,26.214c1.582,9.016,0.174,17.82-3.242,26.422
		c-7.352,18.516-18.021,35.039-31.429,49.491c-8.427,9.084-11.566,17.267-4.981,28.717c3.322,5.777,4.618,12.777,6.475,19.326
		c2.206,7.781,7.059,13.148,13.443,17.954c7.841,5.902,15.319,7.271,25.238,5.067c24.701-5.486,48.322-1.111,69.953,12.335
		c4.04,2.512,7.541,5.893,11.294,8.876c1.879-5.81,3.629-11.782,5.736-17.627c5.979-16.585,17.043-27.591,35.188-28.906
		c12.035-0.873,24.445-1.615,36.237,0.325c19.813,3.261,25.568,18.442,14.977,35.671c-0.575,0.936-1.075,1.919-2.166,3.88
		c2.48-0.854,3.984-1.325,5.453-1.886c14.097-5.379,28.695-8.785,43.726-9.545c36.35-1.838,60.459,13.928,73.359,47.949
		c8.252,21.761,11.586,44.396,10.021,67.647c-0.267,3.955,0.966,6.734,3.184,9.946c9.731,14.09,19.041,28.472,28.446,42.786
		c1.34,2.039,2.363,4.285,4.343,6.192c-0.607-5.476-1.194-10.953-1.825-16.425c-2.514-21.814-3.883-43.841-7.843-65.39
		c-5.525-30.073-12.769-59.842-19.77-89.626c-1.914-8.143-5.326-15.979-8.508-23.769c-9.868-24.171-19.93-48.263-29.97-72.362
		c-4.252-10.205-9.604-19.727-17.333-27.805c-2.453-2.563-4.84-3.39-8.397-2.448c-9.641,2.55-19.309,5.124-29.105,6.938
		c-19.2,3.555-36.985-0.828-53.611-10.711c-15.854-9.423-29.463-21.195-38.882-37.278c-6.3-10.758-8.546-22.359-5.785-34.609
		c3.292-14.606,11.407-19.875,26.208-17.466c0.456,0.074,0.94-0.03,1.354-0.049c0.198-0.386,0.48-0.672,0.467-0.942
		c-0.729-14.378,3.419-19.115,17.857-20.687c18.205-1.982,35.864,0.479,53.147,6.241c1.212,0.404,2.429,0.795,3.594,1.176
		c0.005-14.421-3.794-29.075,6.344-42.044c-0.489-0.136-0.979-0.271-1.468-0.407c-1.724,2.143-3.448,4.285-5.421,6.737
		c-2.702-9.814-5.531-19.229-7.753-28.784c-0.529-2.273,0.947-5.026,1.552-7.546c0.453-1.887,0.988-3.755,0.635-5.912
		c-1.165,2.497-2.33,4.995-3.495,7.493c-0.507,0.053-1.014,0.105-1.521,0.158c-1.086-5.934-2.173-11.866-3.199-17.472
		c-0.303,0.645-0.953,2.023-1.35,2.866c-6.671-10.23-13.442-20.613-20.214-30.996c-0.526,0.302-1.054,0.604-1.581,0.907
		c11.437,17.421,21.402,35.519,26.852,55.729c-6.797-7.034-13.51-13.982-20.224-20.93c-0.624,0.47-1.247,0.939-1.871,1.41
		c20.637,17.477,30.236,39.898,30.383,65.748c-11.28-14.699-23.442-29.663-34.601-45.341c-11.12-15.623-15.975-33.944-19.317-52.543
		c-2.486-13.838-4.114-27.831-6.124-41.755c0.532-0.223,1.064-0.445,1.597-0.667c10.371,9.003,20.811,17.928,31.096,27.027
		c12.791,11.315,24.208,23.813,32.825,38.704c10.307,17.811,12.371,36.403,7.021,56.325c-2.605,9.701-3.386,19.906-4.725,29.918
		c-0.195,1.458,0.648,3.783,1.793,4.568c5.557,3.813,11.38,7.236,17.36,10.955c-8.182-24.955-0.253-47.261,11.833-68.581
		c5.643-9.954,12.198-19.454,19.049-28.63c3.09-4.139,7.575-7.528,12.031-10.28c5.978-3.691,10.297-2.854,14.317,2.851
		c2.899,4.114,4.564,9.113,6.65,13.776c0.593,1.326,0.729,2.857,1.225,4.923c1.764-3.96,3.066-7.438,4.81-10.677
		c3.012-5.598,7.508-9.658,14.144-9.606c6.724,0.052,10.295,4.928,12.801,10.434c9.456,20.776,11.794,42.121,4.818,64.164
		c-1.705,5.389-3.374,10.798-4.792,16.268c-5.984,23.079-21.616,37.635-42.161,47.809c-7.126,3.528-7.095,3.354-6.015,11.227
		c3.077,22.427,6.128,44.858,9.052,67.306c2.967,22.776,5.954,45.554,8.545,68.375c0.877,7.732,0.541,15.601,0.828,23.404
		c0.06,1.637,0.202,3.329,0.677,4.883c11.041,36.146,19.795,72.841,26.563,110.017c0.407,2.232,0.683,4.488,2.25,7.058
		c2.127-5.94,4.812-11.746,6.284-17.845c6.512-26.981,12.1-54.201,19.24-81.011c2.956-11.098,1.631-17.262-8.405-24.678
		c-28.36-20.956-38.528-50.909-35.387-85.337c0.616-6.755,3.716-14.223,7.948-19.554c24.467-30.813,57.111-47.624,95.755-52.969
		c9.295-1.285,17.508,1.635,22.156,10.783c14.595-5.633,25.088-2.366,33.562,11.301c11.596,18.705,12.325,38.932,5.379,59.155
		c-11.763,34.245-34.417,59.76-66.023,77.031c-13.978,7.638-25.941,9.79-44.51,0.114c-1.268,4.521-2.69,8.849-3.686,13.271
		c-6.055,26.934-11.482,54.022-18.24,80.776c-3.063,12.129-8.813,23.566-13.072,35.415c-0.845,2.351-0.761,5.173-0.572,7.738
		c2.985,40.824,10.552,80.737,22.641,119.9c10.232,33.152,19.364,66.644,28.86,99.558c0-6.519-0.272-13.542,0.062-20.536
		c0.547-11.419,1.331-22.834,2.38-34.217c0.248-2.699,1.339-5.797,3.093-7.784c4.133-4.682,2.395-9.063,0.498-13.731
		c-6.959-17.127-13.219-34.422-16.148-52.835c-5.791-36.405,5.177-65.633,35.938-86.82c22.555-15.534,46.999-26.349,74.416-29.454
		c12.9-1.461,24.464,1.572,32.553,11.47c3.889-1.747,7.487-4.634,11.108-4.663c4.375-0.034,9.199,1.608,13.065,3.847
		c8.243,4.771,12.845,12.82,16.583,21.324c17.268,39.291,5.59,94.204-26.066,121.837c-14.914,13.018-33.115,18.62-52.063,22.552
		c-25.206,5.231-50.623,5.183-76.136,3.698c-8.673-0.505-11.08,0.9-12.693,9.505c-1.341,7.149-1.98,14.543-1.911,21.818
		c0.115,12.153,1.287,24.294,1.522,36.449c0.105,5.426-1.598,10.901-1.366,16.307c0.254,5.907,1.918,11.742,2.756,17.639
		c4.287,30.149,8.95,60.255,12.624,90.48c3.757,30.906,6.697,61.917,9.665,92.914c2.412,25.199,4.283,50.45,6.502,75.669
		c0.934,10.612,2.122,21.203,3.262,31.796c0.133,1.24,0.689,2.434,1.394,4.81c1.498-2.48,2.692-3.985,3.393-5.694
		c4.83-11.794,7.578-24.02,8.175-36.811c0.62-13.293,1.411-26.604,2.906-39.82c0.66-5.836,2.823-11.631,5.106-17.109
		c1.409-3.382,1.424-6.094,0.195-9.392c-8.886-23.862-12.565-48.516-11.604-73.986c1.176-31.191,14.279-56.389,37.608-76.528
		c26.455-22.838,57.917-35.044,91.733-41.434c10.837-2.048,22.181-2.616,33.218-2.138c19.158,0.831,28.921,10.239,32.476,29.133
		c0.21,1.114,0.373,2.237,0.575,3.465c6.215-2.238,9.076-5.89,9.055-12.826c-0.052-16.59-3.208-32.372-9.645-47.6
		c-1.819-4.304-4.893-6.627-9.209-8.354c-12.177-4.872-24.245-10.042-36.19-15.461c-12.009-5.447-18.93-14.618-19.952-28.163
		c-1.326-17.578-2.501-35.257,6.88-51.099c5.035-8.503,11.629-16.174,18.15-23.671c3.906-4.491,9.103-8.634,15.703-6.48
		c7.223,2.357,9.139,9.103,10.689,15.717c0.369,1.578,0.538,3.203,0.806,4.845c0.608-0.126,1.033-0.087,1.146-0.256
		c6.145-9.252,9.235-9.688,17.478-2.22c10.516,9.525,13.743,22.116,14.34,35.59c0.207,4.675,1.748,7.995,4.583,11.88
		c7.743,10.615,7.608,22.813,3.274,34.787c-4.011,11.08-12.294,18.377-22.88,23.182c-1.646,0.747-3.329,1.412-5.428,2.298
		c9.198,15.969,12.623,33.343,13.937,51.284c0.541,0.172,1.082,0.344,1.624,0.516c9.098-19.67,19.026-39.006,27.099-59.088
		c11.94-29.703,13.054-60.934,9.799-92.765c-4.866-0.652-6.729-4.097-6.714-8.698c0.018-5.526-2.51-9.596-6.039-13.681
		c-13.904-16.096-25.672-33.623-33.136-53.681c-6.847-18.397-2.438-34.68,10.403-48.97c1.733-1.931,4.008-3.577,6.342-4.721
		c3.865-1.893,7.74-2.293,9.975,2.644c5.533-5.156,9.239-5.18,15.482,0.753c16.64,15.813,27.551,34.931,31.915,57.559
		c1.099,5.697,1.501,11.528,2.218,17.252c6.333-6.926,12.917-13.809,19.026-21.089c1.165-1.388,0.878-4.414,0.538-6.57
		c-1.268-8.049-3.091-16.014-4.242-24.076c-3.011-21.09,6.539-35.384,27.162-40.517c15.51-3.861,31.091-3.632,46.324,1.311
		c14.461,4.692,16.945,12.669,8.457,25.231c-0.443,0.656-0.816,1.36-1.446,2.421c4.077,0,7.787-0.485,11.323,0.095
		c9.31,1.527,13.848,8.856,10.589,17.607c-4.98,13.372-12.633,24.589-26.986,29.536c-6.287,2.167-12.565,4.357-18.851,6.526
		c-11.688,4.033-22.64,0.998-33.438-3.498c-0.921-0.383-1.838-0.775-2.761-1.153c-4.242-1.734-8.83-5.348-12.63-4.654
		c-3.623,0.662-6.338,5.909-9.604,8.979c-11.057,10.396-16.45,22.771-15.82,38.295c0.462,11.41-0.248,23.015-1.883,34.323
		c-1.742,12.053-8.051,22.036-17.994,29.538c-1.667,1.258-3.497,3.48-3.648,5.385c-1.938,24.373-9.574,47.174-18.802,69.541
		c-3.742,9.072-7.821,18.004-11.723,27.011c-0.369,0.854-0.556,1.785-1.019,3.31c11.546-4.74,20.599-11.938,29.189-19.718
		c1.019-0.922,0.932-3.664,0.581-5.407c-4.604-22.947,2.956-41.759,19.966-56.897c12.872-11.458,28.37-14.03,44.941-10.612
		c14.143,2.917,27.402,8.268,39.649,15.892c5.1,3.174,10.173,6.815,8.482,14.289c-0.146,0.646,0.292,1.685,0.808,2.178
		c6.226,5.966,5.154,13,2.527,19.902c-1.454,3.822-3.658,7.534-6.233,10.723c-8.444,10.457-18.542,19.085-30.206,25.841
		c-8.496,4.922-17.701,5.101-27.142,4.473c-17.806-1.185-34.489-7.032-51.351-12.118c-3.528-1.064-6.029-0.657-9.029,1.706
		c-5.074,3.999-10.464,7.781-16.202,10.711c-7.935,4.053-13.272,9.792-15.267,18.633c17.73,14.543,19.224,34.589,15.091,54.623
		c-10.313,49.997-36.263,89.977-80.343,117.097c-4.643,2.856-9.792,4.96-14.862,7.032c-5.038,2.06-10.273,3.64-15.293,5.385
		c1.789,7.736,3.976,15.237,5.188,22.892c1.798,11.341,1.314,22.593-4.017,33.165c-0.372,0.738-0.777,1.536-0.856,2.337
		c-1.338,13.575-9.326,23.76-16.534,34.659c-7.479,11.308-14.146,23.398-19.377,35.896c-12.903,30.824-24.884,62.037-37.032,93.174
		c-7.553,19.357-14.738,38.857-22.068,58.302c-0.278,0.739-0.348,1.558,0.229,2.926c1.122-1.208,2.348-2.336,3.346-3.639
		c2.938-3.834,6.095-7.546,8.612-11.646c9.973-16.239,25.507-22.014,43.388-23.574c0.331-0.028,0.674-0.094,0.997-0.044
		c5.957,0.925,8.412-1.549,10.021-7.548c4.428-16.522,13.751-24.497,27.903-24.709c13.636-0.205,25.917,3.862,36.282,13.047
		c10.694,9.475,18.01,21.268,23.785,34.175c0.841,1.88,2.092,3.86,3.697,5.071c32.872,24.788,46.449,58.489,45.604,98.763
		c-0.139,6.599-1.403,13.174-2.147,19.76C1354.342,1408.784,1354.656,1408.959,1354.971,1409.135z M376.75,977.752
		c19.987,5.472,34.818,18.611,49.027,32.782c-3.05-0.251-5.876-1.147-8.767-1.472c-2.869-0.323-5.804-0.071-8.709-0.071
		c-0.01,0.431-0.02,0.86-0.03,1.29c1.291,0.158,2.577,0.376,3.872,0.464c10.169,0.693,19.069,3.932,25.968,11.939
		c3.357,3.897,7.075,7.591,11.111,10.766c3.985,3.136,8.578,5.503,13.317,8.466c-11.851-11.832-23.179-23.027-34.38-34.348
		c-17.178-17.362-36.786-30.504-60.894-36.308c-16.342-3.934-32.755-7.208-49.706-7.425c9.974,2.001,19.946,4.002,30.735,6.166
		c-3.879,2.401-6.894,4.268-9.909,6.134c0.237,0.377,0.474,0.754,0.711,1.131c1.866-0.967,3.673-2.078,5.612-2.864
		c2.88-1.168,6.104-3.406,8.74-2.897c7.923,1.53,15.633,4.17,23.436,6.386c-4.584,1.493-9.168,2.986-13.752,4.48
		c0.187,0.558,0.372,1.115,0.558,1.673c4.254-1.511,8.519-2.994,12.738-4.596C376.711,979.342,376.651,978.338,376.75,977.752z
		 M1066.356,1932.138c1.512-4.818,2.669-8.281,3.688-11.785c15.712-54.043,27.76-108.875,36.277-164.526
		c6.381-41.695,10.521-83.59,12.609-125.682c1.568-31.612,2.534-63.259,3.424-94.899c0.574-20.427,2.737-40.921-1.842-61.23
		c-10.24-45.412-20.035-90.928-30.673-136.246c-5.469-23.295-11.812-46.433-21.818-68.334c-0.918-2.01-2.07-3.914-2.454-4.632
		c-13.115,6.571-25.119,13.956-38.075,18.779c-23.938,8.91-47.553,4.446-70.455-5.119c-15.412-6.438-29.714-14.796-42.509-25.643
		c-2.77,6.158-5.419,12.05-8.148,18.119c5.131-1.104,9.947-2.313,14.826-3.152c10.65-1.836,16.069,0.995,20.938,10.811
		c7.953,16.035,7.118,32.214,0.26,48.278c-10.088,23.628-28.23,39.836-49.244,53.591c-24.227,15.857-49.483,18.467-75.951,6.923
		c-15.689-6.844-31.061-14.415-46.596-21.613c-4.591-2.127-9.253-4.099-14.452-6.394c-0.437,3.537-1.23,6.195-0.999,8.761
		c0.939,10.419,1.453,20.957,3.47,31.185c6.565,33.29,19.068,64.457,36.641,93.381c20.569,33.855,41.987,67.196,63.061,100.745
		c0.197,0.314,0.724,0.423,1.211,0.689c-6.044-34.259,0.737-65.903,19.698-94.512c18.846-28.434,45.248-45.976,79.512-50.839
		c4.055-0.576,7.101,0.031,8.692,4.363c4.26-3.818,8.79-4.6,13.836-3.314c8.526,2.172,17.296,3.604,25.585,6.45
		c53.91,18.509,89.123,67.245,81.081,122.621c-4.454,30.67-18.593,55.265-45.98,71.115c-14.628,8.466-30.726,12.753-47.326,14.818
		c-11.313,1.408-22.773,1.651-34.643,2.446c0.76,5.901,1.278,12.345,2.458,18.664c5.156,27.623,10.719,55.171,15.694,82.825
		c2.58,14.336,6.181,27.903,14.056,40.612c22.444,36.224,44.033,72.977,65.975,109.513
		C1060.632,1922.987,1063.183,1927.008,1066.356,1932.138z M1092.429,920.817c-1.803-16.194-3.507-32.401-5.431-48.581
		c-3.458-29.08-7.075-58.165-14.653-86.521c-11.072-41.427-22.684-82.71-33.803-124.125c-4.12-15.343-6.893-30.937-16.071-44.623
		c-8.785-13.101-16.14-27.154-24.391-40.625c-2.766-4.516-6.164-8.693-9.631-12.717c-2.796-3.246-4.492-2.663-5.625,1.486
		c-0.7,2.566-1.185,5.194-1.954,7.737c-7.545,24.943-21.476,44.407-47.398,52.477c-19.268,5.997-36.842,2.995-51.142-12.578
		c-1.6-1.742-4.006-2.917-6.245-3.864c-5.221-2.206-9.436,0.515-9.867,6.216c-0.112,1.478,0.021,3.007,0.269,4.475
		c1.465,8.686,2.617,17.448,4.597,26.018c2.949,12.764,6.498,25.388,9.792,38.071c0.939,3.617,3.089,4.512,6.916,4.512
		c15.606,0,31.327-0.54,46.797,1.094c36.365,3.842,64.723,20.936,82.906,53.469c12.457,22.287,19.324,45.825,14.222,71.363
		c-2.087,10.449-6.604,20.412-10.188,31.109C1052.283,862.772,1074.13,889.989,1092.429,920.817z M1127.686,1708.449
		c0.282,0.088,0.564,0.175,0.847,0.263c6.035-8.929,11.737-18.104,18.165-26.74c26.044-34.991,52.409-69.744,78.391-104.782
		c3.89-5.244,7.102-11.271,9.334-17.406c4.258-11.701,7.817-23.676,11.244-35.658c5.242-18.338,10.126-36.778,15.244-55.471
		c-9.351-0.987-17.477-1.471-25.472-2.765c-19.263-3.117-37.845-8.544-52.938-21.555c-26.429-22.78-32.721-52.742-26.61-85.31
		c6.277-33.454,27.631-56.018,57.507-71.042c1.584-0.797,3.15-1.627,4.506-2.328c-0.472-4.406-0.891-8.323-1.36-12.714
		c-17.442-0.067-33.201,2.842-44.438,17.877c-6.86,9.18-13.986,18.204-21.593,26.766c-3.187,3.587-5.277,7.185-5.639,11.771
		c-0.603,7.635-0.86,15.296-1.473,22.93c-1.398,17.422-3.805,34.812-4.234,52.253c-1.455,59.117-1.897,118.26-3.408,177.376
		c-0.71,27.788-2.854,55.545-4.583,83.301C1130.276,1679.644,1128.865,1694.039,1127.686,1708.449z M1123.621,1445.162
		c0.427-0.065,0.854-0.13,1.281-0.194c2.531-98.457,2.213-196.802-11.411-294.61c-0.009,46.595-6.955,91.537-28.619,133.553
		c-27.112-77.063-73.139-138.641-143.512-181.01c41.166,38.701,83.382,76.484,110.784,127.484
		c-7.965-8.734-18.175-13.087-28.995-16.006c-13.667-3.688-25.516-10.329-35.656-20.151c-2.055-1.989-4.313-3.768-6.478-5.644
		c-0.4,1.227-0.23,1.844,0.085,2.376c0.764,1.287,1.583,2.541,2.399,3.796c8.253,12.674,20.758,19.009,34.434,24.229
		c12.218,4.664,23.941,10.639,35.797,16.218c1.864,0.877,3.686,2.452,4.824,4.17c10.791,16.287,20.154,33.396,26.242,51.984
		c14.196,43.353,23.991,87.871,34.15,132.281C1120.585,1430.795,1122.067,1437.986,1123.621,1445.162z M783.807,487.672
		c4.761,21.715,3.575,42.438-5.647,62.024c0.489,0.684,0.64,0.999,0.881,1.212c0.748,0.661,1.494,1.333,2.305,1.912
		c12.665,9.055,21.276,20.859,24.912,36.168c0.803,3.377,2.274,6.593,3.376,9.903c2.394,7.193,6.887,12.688,12.832,17.375
		c4.81,3.792,9.3,8.099,13.404,12.652c9.247,10.259,18.155,20.821,27.229,31.236c2.025,2.324,4.163,4.55,6.25,6.821
		c0.682-2.192,0.605-3.962,0.27-5.681c-1.656-8.475-3.721-16.886-4.996-25.415c-1.611-10.77-6.214-21.995,3.103-31.766
		c0.203-0.213,0.293-0.614,0.294-0.928c0.015-8.9,0.012-17.801,0.012-27.039c-1.245-0.29-3.352-0.706-5.419-1.27
		c-25.067-6.83-42.834-21.873-50.506-47.018c-2.042-6.696-1.953-14.521-0.944-21.555c1.446-10.093,8.453-15.783,18.354-16.892
		c0-6.035,0-11.582,0-17.263C813.899,475.977,801.625,488.689,783.807,487.672z M1010.975,856.841
		c31.107,67.321,62.081,134.354,93.409,202.153c0.212-1.402,0.372-1.867,0.338-2.317c-1.915-25.392-3.235-50.848-5.947-76.155
		c-2.805-26.165-9.495-51.276-24.656-73.502c-13.625-19.974-29.088-38.118-49.389-51.62
		C1018,850.924,1016.151,851.408,1010.975,856.841z M1178.048,1218.056c0.377,0.039,0.754,0.079,1.13,0.118
		c4.599-11.033,9.078-22.117,13.82-33.088c7.904-18.282,15.334-36.814,24.26-54.59c4.207-8.379,7.593-15.918,5.093-25.396
		c-0.733-2.782-1.656-4.166-4.225-5.275c-6.094-2.632-12.45-5.007-17.935-8.641c-26.706-17.696-48.663-38.791-50.504-73.674
		c-0.731,1.55-2.197,3.477-2.534,5.584c-1.253,7.853-2.479,15.739-3.079,23.661c-0.968,12.76-0.693,25.655-2.362,38.307
		c-1.151,8.728-4.698,17.14-7.267,26.014c4.997,0,10.157-0.349,15.255,0.072c11.194,0.924,22.033,3.137,28.187,14.043
		c8.532,15.125,12.517,31.562,11.709,48.839c-0.395,8.45-2.052,17.087-11.585,20.992c-0.717,0.294-1.349,1.852-1.302,2.785
		C1177.052,1204.562,1177.579,1211.308,1178.048,1218.056z M993.03,414.131c0.352-0.064,0.703-0.13,1.055-0.194
		c0-1.646,0.134-3.303-0.021-4.933c-2.401-25.34-4.578-50.704-7.349-76.003c-2.462-22.483-5.535-44.9-8.519-67.322
		c-0.281-2.111-1.315-4.906-2.924-5.927c-9.133-5.793-18.546-11.143-28.546-17.046c7.002,25.149,8.16,49.186-1.793,73.929
		c12.945,12.032,19.159,29.36,26.222,46.245C978.322,380.016,985.729,397.051,993.03,414.131z M1131.163,1172.294
		c2.758,51.633,5.54,103.729,8.346,156.259c0.814-1.995,1.661-3.851,2.341-5.766c10.399-29.28,20.792-58.562,31.132-87.862
		c0.877-2.487,1.957-5.117,1.927-7.669c-0.103-8.656-0.521-17.318-1.191-25.949c-0.105-1.358-1.98-3.463-3.311-3.702
		c-9.161-1.646-16.852-6.186-23.916-11.829C1140.946,1181.348,1135.81,1176.41,1131.163,1172.294z M972.43,1774.226
		c0.303-0.075,0.604-0.151,0.907-0.227c-0.938-4.687-1.975-9.355-2.8-14.062c-5.08-28.967-10.441-57.892-14.891-86.956
		c-0.931-6.079-2.678-8.194-8.501-9.4c-22.271-4.61-42.846-13.19-60.425-28.063c-0.623-0.527-1.439-0.826-3.391-1.916
		C913.559,1681.312,942.994,1727.769,972.43,1774.226z M1329.16,1443.865c-1.912,0.258-2.289,0.199-2.524,0.355
		c-18.136,11.996-37.782,20.09-59.366,23.396c-1.296,0.199-2.944,2.287-3.3,3.767c-2.718,11.301-4.746,22.779-7.776,33.99
		c-4.322,15.981-9.314,31.781-14.021,47.658c0.206,0.139,0.412,0.276,0.619,0.415
		C1271.332,1517.236,1299.872,1481.025,1329.16,1443.865z M793.369,1333.771c0.13-0.348,0.261-0.694,0.391-1.042
		c4.447-0.397,8.947-0.484,13.332-1.243c24.249-4.194,45.813-14.636,65.339-29.267c6.604-4.949,12.335-11.093,18.251-16.908
		c1.049-1.03,1.047-3.131,1.53-4.738c-1.939-0.38-3.869-0.97-5.82-1.055c-1.06-0.047-2.182,0.716-3.234,1.201
		c-35.276,16.25-71.783,30.056-104.146,52.096c-6.316,4.302-12.2,9.24-18.283,13.884c0.364,0.462,0.728,0.923,1.092,1.384
		c1.221-0.993,2.355-2.124,3.678-2.956c6.022-3.786,12.057-7.557,18.174-11.187c2.466-1.463,4.643-1.161,7.235,0.751
		c4.791,3.535,9.935,6.708,15.275,9.332c2.546,1.25,5.882,0.894,8.859,1.265c-0.002-0.386-0.005-0.771-0.007-1.156
		C807.813,1340.678,800.591,1337.224,793.369,1333.771z M1440.781,1190.343c0.195-0.188,0.39-0.375,0.584-0.563
		c-2.734-3.268-5.012-7.117-8.287-9.701c-12.389-9.774-24.52-20.061-37.828-28.439c-19.805-12.471-40.492-23.546-60.897-35.05
		c-2.743-1.547-5.999-5.632-8.936-1.85c-0.981,1.265,1.516,6.327,3.554,8.667c20.077,23.05,44.825,38.816,74.439,46.75
		c3.612,0.967,7.251,1.835,12.246,3.094c-8.285,2.762-15.178,5.06-22.071,7.356c2.546,0.969,5.334,1.592,7.674,0.833
		c4.229-1.372,8.439-3.174,12.203-5.523c4.553-2.843,8.383-2.369,12.171,0.951
		C1430.714,1181.323,1435.734,1185.848,1440.781,1190.343z M456.881,274.17c2.325,7.335,6.338,14.526,6.485,21.795
		c0.199,9.871,5.655,12.767,13.209,14.93c1.278,0.365,2.569,0.697,3.824,1.133c14.895,5.167,29.784,10.347,44.671,15.537
		c1.899,0.662,3.771,1.406,6.047,2.26c-1.767-9.115-9.016-19.419-18.58-27.414C495.973,288.564,475.056,283.48,456.881,274.17z
		 M1015.876,846.555c-3.843-2.842-7.743-5.161-10.956-8.205c-10.751-10.188-21.52-20.381-31.801-31.035
		c-20.354-21.091-43.815-37.178-71.916-46.048c-10.706-3.38-21.513-6.442-32.5-9.716c22.705,12.092,46.176,22.339,67.109,36.371
		c21.052,14.112,39.579,31.991,59.658,48.588c-16.857-0.508-29.145-9.359-41.36-18.504c6.931,12.253,17.096,19.993,30.581,22.875
		C994.871,843.057,1005.18,844.633,1015.876,846.555z M1383.193,715.479c11.158-8.49,17.042-18.664,18.645-30.621
		c1.583-11.81,1.419-23.855,1.985-35.799c0.097-2.023,0.014-4.057,0.014-4.884c-5.866,3.91-11.653,8.224-17.899,11.717
		c-2.692,1.506-3.98,2.708-3.864,5.832c0.483,12.95,0.795,25.906,1.104,38.861C1383.282,705.032,1383.193,709.483,1383.193,715.479z
		 M438.592,913.362c1.879-10.601,3.609-22.393,6.109-34.02c4.208-19.567,7.816-39.166,6.315-59.296
		c-0.332-4.449-1.598-8.828-2.563-13.923C436.377,818.027,430.368,897.34,438.592,913.362z M1165.732,988.624
		c3.318-2.297,5.553-3.964,7.902-5.451c17.422-11.028,35.102-21.669,52.25-33.105c27.028-18.022,53.143-37.28,76.07-60.496
		c1.369-1.386,2.55-2.958,3.818-4.443c-2.459,0.704-4.225,1.946-5.906,3.293c-32.48,26.022-66.263,50.218-100.878,73.336
		c-14.46,9.658-27.604,21.29-41.278,32.112c-1.534,1.215-2.618,3-4.503,5.218c4.586-3.115,8.048-7.339,11.869-7.693
		c9.5-0.884,19.167-0.099,28.762,0.209c4.617,0.148,9.221,0.73,13.83,1.116c0.027-0.394,0.055-0.787,0.082-1.182
		c-4.843-0.985-9.686-1.971-15.431-3.14c16.682-7.973,16.682-7.973,18.974-13.107
		C1197.761,986.209,1182.464,987.419,1165.732,988.624z M426.53,1126.684c5.366,9.726,101.461,69.784,115.984,72.941
		c-1.317-1.155-2.231-2.104-3.284-2.861c-18.496-13.309-36.866-26.797-55.561-39.821c-15.817-11.021-31.911-21.688-50.144-28.503
		C431.52,1127.689,429.35,1127.377,426.53,1126.684z M1708.864,910.31c-0.358-0.66-0.718-1.32-1.076-1.979
		c-3.986,1.444-8.301,2.327-11.901,4.432c-16.07,9.396-32.209,18.725-47.794,28.889c-13.041,8.505-24.089,19.478-33.426,31.994
		c-2.738,3.671-4.734,7.896-7.07,11.866c0.429,0.282,0.856,0.563,1.285,0.846c2.017-1.917,4.15-3.727,6.031-5.77
		c12.722-13.821,27.252-25.408,43.104-35.438c12.519-7.922,24.961-15.973,37.271-24.215
		C1700.049,917.744,1704.353,913.871,1708.864,910.31z M1003.987,148.088c-10.738,8.344-30.21,87.591-26.436,103.108
		c3.263-9.847,6.839-20.672,10.438-31.49c3.565-10.716,7.501-21.323,10.641-32.162
		C1002.281,174.934,1005.113,162.107,1003.987,148.088z M1143.235,619.343c-0.141,1.45-0.213,1.628-0.162,1.757
		c0.306,0.77,0.598,1.548,0.971,2.285c8.402,16.557,7.607,32.519-5.192,46.237c-13.027,13.964-27.17,26.887-40.834,40.256
		c-1.488,1.456-3.035,2.851-4.556,4.273c0.236,0.402,0.472,0.805,0.708,1.207c1.876-0.732,4.112-1.039,5.569-2.269
		c9.627-8.126,20.554-15.269,28.328-24.929c24.409-30.327,47.615-61.622,71.259-92.565c0.729-0.953,1.133-2.154,1.689-3.239
		c-0.354-0.242-0.709-0.484-1.063-0.727c-18.309,17.165-31.609,38.417-46.873,59.508
		C1154.98,638.393,1151.643,628.48,1143.235,619.343z M1095.253,325.148c5.21,13.444-0.056,25.065-5.839,36.688
		c-5.476,11.005-11.139,21.953-15.859,33.285c-4.306,10.333-7.457,21.147-11.117,31.749c0.406,0.146,0.812,0.293,1.218,0.439
		c1.046-2.387,2.026-4.806,3.148-7.157c10.605-22.224,24.272-41.042,50.706-45.781c2.591-0.464,5.115-1.461,7.571-2.456
		c1.528-0.619,2.872-1.698,5.313-3.191c-24.303,2.981-44.975,9.673-55.893,32.952c15.278-38.612,40.599-71.66,57.369-109.165
		c-0.543-0.31-1.085-0.619-1.628-0.929c-9.675,17.131-19.349,34.262-29.023,51.392
		C1102.162,335.854,1100.784,329.938,1095.253,325.148z M969.98,1515.571c-0.489,0.111-0.979,0.224-1.467,0.335
		c0.466,4.714,0.981,9.424,1.391,14.143c2.682,30.886-0.185,61.082-10.528,90.506c-4.331,12.32-5.573,25.194-3.949,38.25
		c0.353-0.598,0.563-1.228,0.556-1.854c-0.182-14.654,4.076-28.11,10.486-41.136c3.063-6.224,5.832-12.758,7.531-19.456
		c4.854-19.132,4.938-38.576,1.649-57.96C974.341,1530.69,971.903,1523.175,969.98,1515.571z M1613.001,821.536
		c0-1.651,0.196-3.331-0.03-4.951c-2.455-17.576-4.376-35.258-7.701-52.67c-2.067-10.829-6.146-21.295-9.652-31.813
		c-0.787-2.362-2.956-4.266-4.489-6.381c-1.307,1.984-1.628,3.277-1.567,4.553c0.229,4.815,0.441,9.639,0.913,14.434
		C1593.117,771.607,1607.318,795.246,1613.001,821.536z M628.23,1150.161c3.318-9.68,5.886-18.233,9.157-26.51
		c9.993-25.282,22.767-49.178,36.79-72.429c1.293-2.144,2.24-4.494,3.577-7.215C661.324,1045.274,627.402,1118.546,628.23,1150.161z
		 M346.388,289.66c-0.11,0.685-0.22,1.369-0.329,2.054c4.576,1.115,9.097,2.697,13.741,3.259c14.349,1.734,28.762,2.938,43.118,4.61
		c18.409,2.145,35.98,7.668,53.424,13.675c5.611,1.932,11.348,3.503,17.026,5.239C434.061,294.979,391.053,288.465,346.388,289.66z
		 M1232.962,1419.772c-0.745,0.715-1.489,1.43-2.233,2.144c6.408,5.799,13.597,10.961,19.004,17.578
		c5.311,6.496,8.811,14.472,13.666,22.754c2.498-11.647,2.695-22.122,0.128-32.368c-6.167-24.616-7.19-49.314-2.507-74.25
		c1.047-5.57,2.124-11.135,3.188-16.702c-7.622,12.77-11.036,26.698-12.202,41.182c-1.284,15.949,0.369,31.466,6.49,46.528
		c4.701,11.569,5.632,24.405,3.354,32.722C1260.271,1439.341,1246.187,1429.892,1232.962,1419.772z M576.037,425.633
		c-2-0.825-3.313-1.439-4.673-1.916c-15.352-5.388-30.666-10.89-46.081-16.092c-18.583-6.271-37.318-12.042-56.936-14.175
		c-2.576-0.28-5.208-0.038-9.17-0.038C469.723,400.38,564.409,426.27,576.037,425.633z M410.129,136.769
		c-8.354,12.78-2.262,75.633,8.767,91.642c0-0.979,0.052-1.595-0.008-2.199c-0.865-8.705-2.214-17.394-2.515-26.117
		c-0.475-13.769,0.022-27.571-0.429-41.341C415.697,151.202,413.923,143.811,410.129,136.769z M1438.889,921.928
		c0,1.057-0.274,1.949,0.039,2.273c26.139,26.998,51.126,54.916,70.084,87.691C1506.045,987.868,1456.816,924.698,1438.889,921.928z
		 M905.676,545.901c5.782-2.747,11.453-5.765,17.367-8.19c15.72-6.445,30.823-5.977,44.75,4.808
		c3.682,2.852,7.392,5.669,10.997,8.615c2.972,2.429,5.808,5.024,8.703,7.547c-7.257-10.721-16.923-18.679-28.264-24.402
		c-34.479-17.399-70.611-30.745-107.14-43.074c-2.046-0.691-4.262-0.88-6.399-1.303c-0.102,0.358-0.203,0.716-0.305,1.073
		c32.352,12.604,64.702,25.208,97.054,37.812c-0.072,0.44-0.146,0.881-0.218,1.322C928.414,531.653,915.979,536.337,905.676,545.901
		z M842.31,1692.345c-0.511-1.279-0.591-1.778-0.865-2.124c-21.153-26.623-46.518-47.923-78.087-61.212
		c-4.931-2.075-10.302-3.103-15.469-4.615c-0.158,0.412-0.316,0.825-0.475,1.237C782.1,1643.067,812.769,1666.168,842.31,1692.345z
		 M876.917,689.272c-6.67-14.566-19.181-24.378-29.052-38.093c0,12.111,0,22.622,0,33.965
		C856.635,686.326,865.411,693.925,876.917,689.272z M843.754,232.106c8.151,4.316,15.682,7.825,22.705,12.157
		c7.059,4.353,13.846,9.232,20.324,14.417c6.612,5.292,12.854,11.078,18.979,16.938c5.865,5.609,11.374,11.591,17.039,17.409
		c-17.37-9.468-27.52-11.576-34.541-6.586c21.603-1.244,37.672,8.991,51.053,26.558
		C934.657,288.788,867.493,232.222,843.754,232.106z M1226.578,1114.785c6.957-7.984,12.894-15.068,14.419-24.854
		c-3.632,1.63-6.82,3.063-10.193,4.576c-0.645-6.103-0.916-11.27-1.777-16.336c-2.458-14.454-5.57-28.749-12.824-41.729
		c-0.839-1.501-2.362-2.619-3.567-3.915c-0.334,0.341-0.668,0.682-1.002,1.021c4.019,12.203,8.037,24.407,12.34,37.474
		c-7.548-4.327-13.989-8.021-20.43-11.714c-0.432,0.552-0.863,1.103-1.295,1.654c13.982,7.104,25.234,16.302,25.86,32.957
		c-1.065,1.296-3.338,2.798-3.302,4.242C1224.938,1103.381,1225.846,1108.579,1226.578,1114.785z M644.301,269.935
		c-13.334,8.021-22.563,82.524-12.666,94.637C631.074,332.643,637.169,301.632,644.301,269.935z M1360.293,559.32
		c-0.287,18.757,7.306,36.167,9.594,54.48c2.309,18.476,3.876,37.043,5.914,56.998
		C1380.983,631.266,1373.361,594.923,1360.293,559.32z M1311.81,677.894c0.284,31.882,1.895,63.626,9.735,94.721
		C1318.808,740.988,1323.256,708.613,1311.81,677.894z M1364.336,1493.803c26.854-18.848,55.123-34.9,86.497-46.319
		C1432.521,1444.047,1378.985,1472.846,1364.336,1493.803z M1435.703,594.035c11.91-3.791,23.573-7.208,35.014-11.254
		c7.008-2.479,13.773-5.728,20.443-9.043c2.384-1.185,4.166-3.582,6.224-5.426c-0.417-0.594-0.833-1.188-1.249-1.781
		C1474.182,571.487,1453.436,579.115,1435.703,594.035z M784.412,679.004c-4.113,3.337-8.535,6.924-12.956,10.51
		c6.629-2.466,12.316-6.457,18.625-8.212c6.591-1.833,13.776-1.963,20.708-2.007c6.563-0.043,13.133,0.99,19.7,1.55
		c0.034-0.419,0.069-0.837,0.104-1.256c-7.91-0.762-15.808-1.688-23.732-2.24c-7.956-0.554-15.983-0.324-23.896-1.19
		c-8.072-0.885-16.041-2.702-24.061-4.079c-7.861-1.351-15.703-2.854-23.603-3.932c-7.691-1.048-15.445-1.64-23.172-2.432
		c-0.088,0.708-0.176,1.415-0.264,2.122C736.154,671.576,760.443,675.314,784.412,679.004z M1389.205,798.742
		c11.313-3.726,23.504-8.399,36.058-11.689c12.664-3.318,25.688-5.263,39.195-7.936
		C1452.461,771.524,1401.086,785.878,1389.205,798.742z M560.95,1353.979c17.041,3.16,34.113,5.669,50.849,9.611
		c16.842,3.967,33.348,9.359,50.001,14.127C629.729,1363.284,596.689,1353.029,560.95,1353.979z M919.399,565.85
		c-6.155,10.068-6.287,9.822-16.679,15.42c-8.796,4.737-17.238,10.129-25.837,15.23c0.191,0.293,0.383,0.585,0.573,0.878
		c21.177-9.013,42.354-18.026,63.53-27.039c-0.182-0.541-0.364-1.082-0.546-1.623c-7.719,2.183-15.438,4.365-23.233,6.569
		C918.005,571.854,918.702,568.852,919.399,565.85z M723.741,544.614c0.317,0.365,0.635,0.731,0.952,1.098
		c1.956-1.254,4.075-2.313,5.837-3.799c5.231-4.409,11.146-6.017,17.565-3.74c7.146,2.533,14.088,5.652,21.09,8.585
		c1.46,0.611,2.796,1.521,4.189,2.292c-1.048-2.41-2.577-3.931-4.299-5.185c-8.87-6.462-18.896-9.763-29.798-9.815
		c-11.046-0.054-21.806-1.23-32.431-4.496c-5.377-1.651-11.175-1.934-16.782-2.836c-0.137,0.704-0.273,1.407-0.41,2.111
		c14.232,3.136,28.466,6.272,42.171,9.292C729.652,539.867,726.696,542.24,723.741,544.614z M1176.295,1184.814
		c-7.507-22.621-21.695-40.196-38.096-56.206c-0.388,0.269-0.775,0.536-1.163,0.805c10.328,14.192,20.657,28.385,31.464,43.234
		c-5.88,0.361-10.309,0.633-14.738,0.905c-0.057,0.531-0.113,1.063-0.17,1.594
		C1162.636,1174.771,1172.278,1173.06,1176.295,1184.814z M1531.976,1228.131c31.05-8.758,62.1-17.516,91.787-25.889
		C1592.366,1204.534,1561.767,1214.893,1531.976,1228.131z M998.858,1612.905c-24.358,11.626-42.491,33.019-40.079,48.036
		C965.41,1638.311,984.099,1627.308,998.858,1612.905z M790.271,465.668c-0.214-0.353-0.429-0.705-0.643-1.058
		c7.268-4.522,14.456-9.178,21.825-13.529c7.424-4.384,15.025-8.464,22.55-12.677c-14.475,2.097-49.882,24.098-52.604,30.707
		c7.041-0.567,14.717-1.186,22.392-1.804c0.02-0.262,0.039-0.523,0.059-0.785C799.322,466.237,794.797,465.953,790.271,465.668z
		 M1110.561,1125.326c-0.472-4.616-0.887-8.613-1.289-12.612c-0.414-4.12-0.898-8.234-1.206-12.362
		c-0.526-7.079-2.415-8.83-9.353-8.918C1102.54,1102.379,1106.428,1113.503,1110.561,1125.326z M774.64,1325.773
		c0.397,0.506,0.795,1.012,1.192,1.517c14.961-12.203,34.046-18.599,46.861-33.803
		C806.676,1304.249,790.658,1315.011,774.64,1325.773z M1225.425,1267.269c15.33-2.743,29.354-0.591,43.698,5.644
		C1261.467,1263.196,1233.289,1260.733,1225.425,1267.269z M928.599,949.375c8.162-3.104,15.719-5.979,23.672-9.004
		c0.309,2.715,0.44,3.874,0.572,5.033c0.664-5.092,4.424-4.99,7.951-5.131c3.325-0.132,6.656-0.174,9.984-0.21
		c3.124-0.033,6.247-0.007,9.371-0.007c-0.051-0.435-0.102-0.87-0.153-1.305C962.059,937.407,944.316,937.046,928.599,949.375z
		 M1390.518,1133.517c10.465,14.662,26.476,23.066,38.862,35.564c0.44-0.507,0.882-1.013,1.322-1.52
		C1417.307,1156.213,1403.912,1144.865,1390.518,1133.517z M1679.014,853.276c-0.083-0.453-0.167-0.905-0.251-1.357
		c-3.335,0.373-6.669,0.747-9.712,1.088c2.329-14.864,15.284-17.883,25.468-24.124c-6.828,2.322-14.313,4.059-19.417,8.519
		c-4.589,4.01-6.566,11.009-9.696,16.689c0.411,0.451,0.823,0.901,1.234,1.352C1670.764,854.721,1674.889,853.998,1679.014,853.276z
		 M1704.509,786.223c8.319-10.83,16.185-21.068,24.05-31.308c-0.428-0.329-0.856-0.659-1.284-0.989
		c-6.184,7.699-12.367,15.399-19.059,23.731c0.358-3.81,0.638-6.762,0.916-9.715c-0.217-0.021-0.435-0.042-0.651-0.063
		C1707.238,773.617,1705.996,779.355,1704.509,786.223z M905.684,604.892c-11.019-7.044-25.963-6.511-33.212,1.089
		C883.417,600.963,894.533,603.081,905.684,604.892z M1365.797,944.572c14.499,0.162,24.895,9.811,36.89,15.767
		C1391.664,952.205,1381.296,942.598,1365.797,944.572z M867.411,88.591c0.591-0.322,1.181-0.645,1.771-0.967
		c-2.67-4.843-5.34-9.687-8.01-14.529c-0.478,0.262-0.955,0.523-1.433,0.784C862.297,78.783,864.854,83.688,867.411,88.591z
		 M899.913,167.197c0.063-0.055,0.128-0.109,0.191-0.165c-4.542-4.616-9.084-9.232-13.627-13.849
		c-0.271,0.271-0.542,0.54-0.813,0.811C890.414,158.395,895.163,162.796,899.913,167.197z M1681.729,824.051
		c4.91-4.257,9.001-7.805,13.093-11.352c-0.287-0.317-0.575-0.635-0.862-0.952C1690.3,815.798,1684.023,816.904,1681.729,824.051z"
		/>
</g>
</svg>
