<?xml version="1.0" encoding="utf-8"?>
<!-- Generator: Adobe Illustrator 16.0.0, SVG Export Plug-In . SVG Version: 6.00 Build 0)  -->
<!DOCTYPE svg PUBLIC "-//W3C//DTD SVG 1.1//EN" "http://www.w3.org/Graphics/SVG/1.1/DTD/svg11.dtd">
<svg version="1.1" id="Layer_1" xmlns="http://www.w3.org/2000/svg" xmlns:xlink="http://www.w3.org/1999/xlink" x="0px" y="0px"
	 width="2048px" height="2048px" viewBox="0 0 2048 2048" enable-background="new 0 0 2048 2048" xml:space="preserve">
<g>
	<path fill-rule="evenodd" clip-rule="evenodd" d="M532.958,1256.042c4.216,5.5,8.323,11.089,12.69,16.466
		c2.401,2.957,5.116,5.696,7.954,8.239c0.906,0.813,2.805,1.153,3.968,0.795c0.636-0.195,1.128-2.382,0.918-3.53
		c-0.715-3.919-1.325-7.952-2.779-11.623c-4.276-10.802-7.979-21.991-13.642-32.051c-13.288-23.606-18.672-48.896-18.874-75.618
		c-0.06-7.832-0.231-15.667-0.104-23.497c0.194-11.814-4.363-20.832-14.588-27.109c-6.198-3.805-7.58-9.262-4.642-15.839
		c0.399-0.896,1.663-2.204,2.209-2.066c1.066,0.271,2.748,1.461,2.718,2.212c-0.407,10.322,6.553,16.257,13.022,22.539
		c1.663,1.614,3.122,3.439,5.28,5.842c4.69-8.092,9.237-15.87,10.472-24.734c0.604-4.331-3.835-6.883-7.839-7.841
		c-4.505-1.076-9.185-1.741-13.813-1.923c-18.722-0.736-27.148-14.365-29.847-27.885c-3.983-19.95,1.859-37.86,12.421-54.567
		c8.485-13.424,20.475-23.471,32.066-34.06c6.343-5.793,11.24-5.261,18.163-2.264c12.787,5.535,22.616,14.009,28.921,26.333
		c9.897,19.348,14.009,39.818,10.346,61.438c-2.094,12.352-8.923,21.31-20.706,26.162c-4.454,1.834-9.195,3.168-13.309,5.578
		c-3.906,2.288-8.337,4.998-10.51,8.709c-11.155,19.048-19.943,39.246-17.167,61.896c1.769,14.43,5.135,28.846,9.473,42.74
		c9.113,29.188,19.282,58.05,29.166,86.994c1.633,4.78,4.018,9.303,6.056,13.944c0.766-0.09,1.531-0.18,2.297-0.27
		c0.226-4.243,1.279-8.637,0.542-12.706c-4.258-23.487,3.068-44.229,15.315-63.461c9.285-14.581,19.99-28.249,29.831-42.485
		c18.264-26.42,36.345-52.967,54.578-79.408c0.649-0.941,2.116-1.318,3.202-1.959c-0.349,1.238-0.331,2.809-1.104,3.662
		c-7.764,8.562-12.842,18.549-16.209,29.516c-4.081,13.291-13.007,23.383-21.89,33.617c-13.081,15.072-26.608,29.876-38.362,45.952
		c-15.314,20.944-21.837,44.977-22.561,71.17c-0.818,29.632,3.938,57.936,14.216,85.562c6.895,18.531,13.07,37.337,20.302,55.731
		c2.882,7.33,7.632,13.949,11.771,20.745c1.123,1.844,3.119,3.156,5.756,5.728c0.687-3.309,1.492-5.295,1.439-7.258
		c-0.236-8.818-0.99-17.628-1.053-26.444c-0.152-21.492-0.177-42.988,0.094-64.479c0.07-5.562-1.069-10.32-4.031-15.031
		c-7.046-11.205-12.059-23.216-14.325-36.418c-3.536-20.599,2.007-38.31,16.264-53.252c17.951-18.813,40.133-29.439,65.935-32.007
		c20.098-2,31.853,9.373,31.931,29.639c0.042,10.623,0.672,21.242,0.944,31.865c0.645,25.18-6.113,47.984-21.929,67.853
		c-10.95,13.758-24.532,19.375-41.916,13.835c-4.1-1.306-8.384-2.202-12.651-2.776c-7.4-0.996-12,2.055-13.364,9.384
		c-4.193,22.524-4.935,45.279-4.566,68.158c0.394,24.394,10.656,45.389,21.373,66.336c1.873,3.66,3.857,7.263,6.039,11.358
		c11.567-10.711,24.697-17.597,39.251-21.778c27.763-7.976,54.73-5.859,80.474,7.349c15.141,7.768,23.757,20.171,26.793,37.372
		c1.94,10.99,4.42,21.785,0.431,32.351c-2.894,7.665-7.617,14.684-11.89,21.771c-3.166,5.254-5.633,10.473-5.083,16.849
		c0.382,4.417,1.957,7.113,6.46,8.796c16.186,6.048,32.411,12.076,48.204,19.058c10.448,4.618,20.483,10.372,30.175,16.459
		c23.548,14.793,33.988,37.203,35.127,64.256c0.354,8.423-0.79,16.938-1.664,25.367c-0.327,3.154,0.126,4.948,3.295,6.033
		c4.395,1.504,8.616,3.506,12.991,5.072c11.849,4.241,23.739,8.365,35.776,12.593c2.217-8.439,4.271-17.811,7.148-26.923
		c8.106-25.676,15.743-51.545,25.13-76.756c6.877-18.472,7.381-36.615,3.379-55.378c-4.944-23.188-12.416-45.537-22.929-66.797
		c-9.516-19.244-18.772-23.046-39.664-17.392c-13.601,3.682-27.14,8.311-41.019,10.109c-42.19,5.468-76.251-15.802-91.396-55.621
		c-5.803-15.257-7.916-31.279-9.465-47.324c-1.679-17.395-2.683-34.867-3.517-52.328c-0.754-15.756,2.22-30.773,10.359-44.599
		c1.201-2.04,0.926-4.949,1.254-6.971c1.903,0.149,4.465,1.114,6.381,0.385c30.995-11.8,62.042-10.02,93.049-0.42
		c23.707,7.339,45.073,19.044,62.911,36.464c32.247,31.493,40.7,68.353,23.655,110.417c-4.174,10.303-8.85,20.463-14.141,30.23
		c-3.249,5.999-3.905,11.344-1.128,17.47c4.671,10.303,9.195,20.674,13.619,31.084c8.022,18.878,14.066,38.373,18.285,58.461
		c0.766,3.645,2.766,7.03,4.659,11.672c1.572-2.33,2.268-3.056,2.617-3.922c13.707-33.896,29.246-67.262,36.503-103.297
		c5.508-27.354,9.449-55.084,12.732-82.807c2.653-22.414-5.285-42.974-15.373-62.591c-7.695-14.965-18.774-27.437-30.236-39.566
		c-6.728-7.119-15.194-9.123-24.636-8.233c-8.293,0.782-16.584,1.607-24.892,2.189c-13.085,0.917-25.958-0.421-38.437-4.564
		c-25.431-8.446-41.179-29.752-42.134-56.597c-0.959-26.973,8.686-50.514,23.474-72.313c4.196-6.186,9.103-11.9,13.834-17.709
		c4.402-5.405,9.005-10.647,13.792-16.283c23.801,19.3,48.264,38.323,71.688,58.551c8.783,7.584,16.222,17.303,22.376,27.225
		c10.149,16.361,8.36,30.062-3.643,45.134c-1.038,1.303-2.05,2.632-3.157,3.873c-9.645,10.809-10.198,20.251-1.906,33.778
		c5.782,9.434,13.543,17.683,20.656,26.266c8.465,10.215,17.183,20.221,26.083,30.66c0.874-7.624,1.49-15.196,2.651-22.684
		c2.932-18.892,6.692-37.676,8.901-56.646c0.892-7.66-0.578-15.881-2.363-23.521c-12.058-51.627-24.487-103.167-36.804-154.733
		c-0.695-2.91-1.858-5.768-2.119-8.711c-1.348-15.228-9.29-26.608-19.689-37.258c-18.397-18.84-36.192-38.27-57.272-54.242
		c-7.983-6.049-14.008-5.244-20.049,2.706c-2.489,3.274-4.797,6.945-6.129,10.802c-10.286,29.799-33.039,43.812-62.303,49.589
		c-12.775,2.522-25.638,3.844-38.732,2.42c-16.01-1.74-29.643-8.248-41.297-19.196c-18.863-17.721-33.678-38.654-47.196-60.494
		c-11.027-17.814-21.093-36.221-31.942-54.147c-4.238-7.002-4.195-13.137,0.43-19.829c10.959-15.859,23.793-29.606,41.501-38.014
		c36.384-17.273,74.379-28.085,114.992-27.521c18.326,0.254,36.037,4.038,52.586,12.19c31.645,15.588,47.486,44.248,44.213,80.166
		c-1.374,15.084-3.135,30.137-4.958,45.176c-0.64,5.28,1.182,8.523,5.575,11.595c23.805,16.64,44.559,36.46,61.244,60.367
		c0.263,0.376,0.744,0.6,1.743,1.375c-2.796-15.432-5.438-30.231-8.162-45.017c-9.235-50.141-23.274-98.964-39.893-147.118
		c-11.024-31.943-30.388-56.774-59.272-74.607c-17.067-10.537-34.634-14.351-54.268-9.846c-16.394,3.762-32.968,6.65-49.941,5.942
		c-32.634-1.359-62.556-11.921-90.884-27.353c-8.998-4.902-17.211-11.268-25.654-17.147c-2.01-1.399-3.622-3.439-5.214-5.354
		c-8.947-10.764-9.584-16.452-2.068-28.313c25.924-40.908,62.494-65.675,110.899-71.775c15.03-1.894,29.907-0.255,44.284,4.95
		c24.937,9.028,36.061,26.713,33.769,53.906c-0.727,8.63-1.396,17.269-2.35,25.875c-2.506,22.597,5.987,39.953,24.634,52.624
		c8.673,5.894,17.313,11.839,25.923,17.824c14.012,9.738,26.509,21.1,37.402,34.526c-0.611-1.643-1.102-3.342-1.85-4.919
		c-22.641-47.746-39.469-97.627-54.446-148.186c-8.354-28.198-15.985-56.631-25.182-84.55c-7.308-22.186-18.87-42.521-31.882-61.945
		c-0.093-0.139-0.187-0.276-0.282-0.412c-10.587-15.113-19.37-17.838-36.26-10.005c-11.591,5.375-22.75,11.695-34.009,17.767
		c-16.616,8.96-33.852,13.599-52.81,8.956c-21.572-5.281-40.6-14.864-54.989-32.219c-13.815-16.66-23.287-36.023-32.916-55.175
		c-6.396-12.722-12.587-25.763-16.818-39.302c-5.14-16.445-3.359-33.169,2.865-49.445c1.609-4.211,1.172-9.204,1.683-13.91
		c5.366,4.866,11.825,1.288,18.371-0.765c23.149-7.256,46.823-11.731,71.086-12.479c27.996-0.862,54.974,3.002,78.045,20.57
		c13.866,10.559,26.301,22.752,34.104,38.651c10.31,21.005,9.771,43.14,5.591,65.481c-0.52,2.78-0.971,5.612-1.887,8.271
		c-3.421,9.938-0.782,18.185,5.349,26.506c11.044,14.988,21.233,30.606,31.771,45.968c1.487,2.168,2.919,4.373,5.411,6.225
		c-1.549-7.277-3.109-14.553-4.645-21.834c-6.033-28.604-12.581-57.114-17.892-85.854c-3.229-17.476-4.167-35.361-6.793-52.965
		c-6.419-43.025-20.132-83.611-41.955-121.331c-2.488-4.301-5.591-8.272-8.638-12.22c-9.615-12.455-21.872-19.693-37.96-21.214
		c-15.205-1.438-30.324-4.122-45.358-6.916c-10.567-1.963-20.089-6.852-28.859-13.108c-16.953-12.093-25.74-28.769-25.79-49.353
		c-0.059-24.457,0.452-48.948,1.833-73.362c0.751-13.283,6.147-25.506,14.521-36.098c4.809-6.083,8.864-12.455,9.39-22.401
		c5.537,9.753,13.501,9.559,21.694,9.548c21.668-0.029,40.9,8.252,59.297,18.626c7.651,4.314,14.827,9.543,21.919,14.764
		c12.063,8.882,23.619,18.469,35.883,27.053c13.841,9.688,20.025,22.583,20.832,39.314c1.14,23.643-5.392,42.712-27.665,54.072
		c-0.885,0.451-1.693,1.054-2.535,1.59c-13.98,8.905-18.712,19.022-14.932,35.188c2.563,10.957,6.057,21.778,10.106,32.285
		c4.299,11.154,9.682,21.896,14.737,32.75c1.362,2.925,3.258,5.601,5.429,9.271c5.332-7.786,7.268-15.559,5.891-23.398
		c-1.342-7.646-4.586-14.96-7.095-22.728c8.229,2.474,15.336,14.079,12.787,21.454c-5.66,16.37-4.396,32.114,1.36,48.295
		c7.964,22.385,10.703,45.94,13.191,69.459c0.872,8.241,1.637,16.494,2.536,25.602c0.875-1.481,1.522-2.304,1.889-3.236
		c6.97-17.775,13.899-35.565,20.852-53.348c3.571-9.134,3.473-18.1-0.717-27.084c-4.424-9.49-8.302-19.24-12.888-28.648
		c-22.323-45.795-5.477-84.735,31.619-110.42c17.67-12.235,37.766-17.773,58.718-20.853c2.133-0.313,4.288-0.694,6.327-1.365
		c1.851-0.609,3.557-1.658,4.974-2.343c20.394,17.998,28.392,41.451,29.374,67.372c0.615,16.229,0.62,32.78-1.841,48.765
		c-4.984,32.365-26.593,46.923-59.095,41.977c-4.603-0.7-9.256-1.066-13.89-1.549c-8.012-0.835-14.457,2.296-19.2,8.485
		c-22.094,28.836-38.378,60.473-42.945,96.89c-1.159,9.244,1.173,19.21,3.281,28.532c9.753,43.13,19.985,86.152,30.075,129.206
		c0.787,3.359,1.806,6.664,2.593,9.543c6.458-8.828,12.665-17.723,19.35-26.242c2.477-3.156,5.897-5.674,9.189-8.07
		c21.781-15.858,39.389-35.714,55.697-56.958c8.403-10.947,17.745-21.175,26.358-32.009c-22.221,18.217-37.149,43.059-57.426,64.274
		c2.279-9.819,4.368-18.818,6.457-27.817c-0.47-0.121-0.938-0.242-1.408-0.364c-1.674,6.688-3.186,13.421-5.065,20.049
		c-1.976,6.963-5.01,13.214-11.096,17.864c-5.661,4.326-10.726,9.434-16.606,14.692c1.114-6.132,1.768-11.655,3.161-16.986
		c2.99-11.44,2.427-22.621-0.617-33.992c-3.259-12.171-3.862-24.625-1.887-37.146c2.229-14.123,8.778-26.073,19.968-34.678
		c25.916-19.928,54.737-34.166,86.98-40.506c13.239-2.604,25.781,0.623,37.104,8.134c3.297,2.187,6.637,4.309,10.296,6.679
		c-5.028,8.789-4.994,18.753-5.335,28.717c-0.522,15.31-0.481,30.712-2.259,45.89c-3.264,27.863-19.563,46.731-44.23,58.677
		c-27.533,13.332-56.644,21.038-87.199,23.172c-3.651,0.255-7.313,0.607-10.918,1.213c-10.65,1.79-17.893,10.869-19.23,24.162
		c-1.847,18.344,1.342,36.163,5.945,53.799c9.117,34.929,19.548,69.438,33.16,102.919c0.727,1.789,1.598,3.521,2.968,6.516
		c0-5.719,0.244-10.09-0.042-14.425c-1.245-18.85-4.586-37.276-11.935-54.792c-1.534-3.657-3.606-7.091-5.468-10.608
		c-0.621-1.173-1.975-2.313-1.924-3.418c0.127-2.708,0.877-5.387,1.376-8.078c1.874,1.543,4.852,2.751,5.437,4.683
		c3.171,10.482,6.339,21.03,8.419,31.767c5.03,25.952,8.852,52.148,14.287,78.01c6.245,29.709,17.4,57.913,28.931,85.92
		c0.56,1.358,1.357,2.62,2.628,5.039c1.076-5.438,1.867-9.835,2.822-14.197c5.648-25.78,17.306-48.784,32.701-69.995
		c1.994-2.747,2.199-4.764,0.993-7.999c-4.688-12.579-10.168-25.066-12.98-38.101c-6.491-30.092,4.76-54.86,25.947-75.829
		c13.943-13.8,30.105-23.726,50.286-23.113c9.59,0.292,19.296,3.201,28.557,6.156c10.109,3.226,19.724,8.057,31.676,6.247
		c-4.205,5.306-2.653,9.825-0.047,14.095c11.533,18.896,15.208,39.539,14.021,61.338c-0.589,10.812-0.561,21.673-1.557,32.442
		c-2.109,22.802-13.47,34.274-36.401,36.143c-13.755,1.12-27.648,0.461-41.429,1.372c-15.572,1.03-31.151,2.484-46.591,4.704
		c-4.725,0.68-9.794,3.651-13.34,7.013c-14.485,13.728-24.329,30.262-27.749,50.229c-1.964,11.465,0.219,22.683,3.011,33.594
		c6.263,24.465,14.212,48.524,19.785,73.132c9.254,40.857,17.179,82.016,25.667,123.047c1.333,6.44,2.686,12.876,4.342,19.264
		c-0.021-29.719,7.969-57.544,19.641-84.38c3.612-8.305,8.868-15.964,13.912-23.56c6.866-10.341,6.837-13.833-4.208-18.888
		c-18.775-8.593-25.552-23.77-25.81-42.992c-0.115-8.635,0.229-17.311,0.979-25.913c1.083-12.424,5.742-23.737,13.674-33.239
		c25.188-30.172,56.067-52.354,93.575-64.792c3.911-1.297,8.104-1.992,12.221-2.378c15.352-1.437,26.866,4.973,34.635,18.028
		c10.025,16.85,15.882,35.457,22.285,53.839c5.502,15.795,8.145,31.966,6.606,48.614c-2.817,30.485-14.984,55.874-42.07,72.059
		c-18.57,11.097-37.834,11.532-56.957,0.807c-5.511-3.092-10.864-6.464-16.367-9.569c-9.237-5.211-16.782-3.952-25.323,2.264
		c-15.313,11.145-22.049,26.864-26.128,44.538c-5.549,24.038-10.317,48.155-11.7,72.859c-0.849,15.174,1.817,29.871,5.533,44.417
		c5.182,20.285,10.456,40.552,16.141,60.698c1.685,5.97,4.884,11.512,7.885,18.387c21.938-33.895,53.936-53.027,87.056-69.937
		c-4.064-25.046-12.77-49.301-10.775-74.831c2.621-33.531,20.424-56.582,51.548-69.211c21.29-8.639,43.626-10.72,66.25-8.825
		c32.93,2.758,64.757,10.385,94.294,25.541c12.961,6.65,25.057,14.986,37.512,22.536c-0.013,0.104,0.308-0.932,0.219-1.933
		c-1.016-11.426-1.649-22.91-3.286-34.249c-1.503-10.417-9.189-16.438-19.782-16.815c-1.998-0.071-4.002-0.059-6,0.01
		c-29.466,1.007-49.689-14.437-65.248-37.39c-7.635-11.263-7.205-23.97-3.312-36.552c4.744-15.33,12.806-28.828,23.304-40.923
		c4.325-4.983,9.393-9.638,8.034-18.382c9.279,7.101,18.806,6.231,28.219,4.717c24.822-3.992,44.058,5.321,58.882,24.667
		c12.46,16.261,20.488,34.311,19.137,55.395c-0.943,14.732-6.027,27.868-16.121,38.862c-0.451,0.491-0.867,1.041-1.399,1.426
		c-17.705,12.803-18.753,30.896-16.062,50.234c0.733,5.272,1.488,10.584,1.612,15.892c0.165,7.056,3.251,12.579,8.102,18.395
		c2.876-8.435,5.763-16.171,8.164-24.056c15.83-51.97,31.069-104.107,42.993-157.144c2.479-11.024,4.373-22.184,6.378-33.31
		c0.931-5.166,0.472-10.016-2.433-14.849c-2.251-3.745-3.216-8.302-4.526-12.567c-8.257-26.871-22.44-49.059-47.991-62.851
		c-25.36-13.689-48.627-30.378-68.01-51.851c-7.407-8.206-14.169-17.248-19.756-26.771c-5.468-9.319-3.111-14.73,6.352-20.037
		c9.816-5.504,20.438-7.842,31.288-4.593c20.036,6,40.062,12.167,59.696,19.347c22.191,8.115,32.841,25.499,33.565,48.485
		c0.343,10.846-1.183,21.911-3.193,32.627c-2.094,11.164-5.758,13.408-17.189,13.45c13.63,18.074,24.439,37.303,30.829,58.895
		c0.755-0.077,1.509-0.154,2.264-0.231c2.463-9.722,5.717-19.322,7.222-29.189c3.084-20.229,6.027-40.544,7.477-60.934
		c0.948-13.342-0.077-26.959-1.538-40.308c-3.169-28.952-8.419-57.571-16.701-85.556c-1.554-5.249-3.117-10.535-5.229-15.571
		c-3.703-8.828-8.676-10.836-17.524-7.279c-5.236,2.104-10.338,4.561-15.424,7.014c-16.221,7.824-31.061,4.992-43.752-6.965
		c-27.857-26.245-44.399-58.244-46.834-96.862c-0.301-4.772,0.11-9.696,0.952-14.414c2.282-12.794,11.316-20.698,24.812-22.165
		c18.32-1.99,36.174,0.477,53.723,5.751c2.539,0.764,5.08,1.524,7.63,2.255c0.293,0.084,0.645-0.035,1.584-0.963
		c-6.755-4.418-13.869-8.384-20.166-13.38c-6.339-5.028-12.394-10.636-17.602-16.81c-5.298-6.282-9.411-13.563-13.554-20.982
		c4.295,3.704,8.703,7.286,12.865,11.135c15.408,14.25,30.726,28.599,46.11,42.875c1.582,1.468,3.256,2.919,5.106,4.003
		c19.12,11.209,31.913,28.411,44.08,46.241c8.119,11.898,11.205,25.407,13.189,39.366c0.468,3.293,2.063,6.427,3.141,9.634
		c0.545-0.032,1.091-0.063,1.637-0.095c0.657-3.438,1.726-6.853,1.907-10.314c1.833-34.931,3.958-69.855,5.053-104.812
		c0.507-16.152-1.187-32.562-9.027-47.091c-5.886-10.905-13.366-20.989-20.569-31.132c-4.688-6.601-11.735-9.934-19.733-10.283
		c-24.61-1.076-35.683-16.498-40.788-38.155c-3.84-16.285-4.218-32.655,0.457-48.896c3.473-12.068,11.857-20.185,22.056-26.729
		c0.669-0.43,1.967-0.508,2.675-0.154c15.905,7.949,32.362,14.97,45.994,26.817c13.138,11.419,23.277,24.855,26.55,42.317
		c1.084,5.78,1.099,11.992,0.329,17.839c-1.35,10.253-7.412,17.118-17.32,20.603c-4.829,1.698-9.744,3.451-14.14,6.007
		c-5.051,2.936-5.394,5.419-2.065,10.211c3.963,5.704,8.293,11.152,13.006,17.433c6.647-10.447,13.971-19.382,9.032-32.514
		c6.929,2.061,10.035,9.342,7.509,14.031c-0.782,1.453-1.773,2.853-2.915,4.042c-8.003,8.343-8.908,17.957-6.091,28.75
		c3.481,13.333,6.662,26.769,9.291,40.293c3.621,18.625,1.008,37.063-2.16,55.568c-2.297,13.418-3.052,27.105-4.305,40.689
		c-0.193,2.097,0.633,4.287,0.986,6.435c0.612,0.148,1.225,0.298,1.838,0.446c1.9-2.765,4.297-5.312,5.625-8.328
		c10.487-23.827,16.172-48.41,12.458-74.729c-1.946-13.795-4.525-27.729-1.549-41.727c4.36-20.505,14.953-36.802,33.062-47.856
		c1.42-0.866,2.791-1.86,4.303-2.523c19.652-8.618,26.791-25.175,28.695-45.075c0.075-0.779,0.153-1.558,0.348-3.52
		c2.535,3.639,4.53,6.396,6.416,9.228c8.73,13.108,15.352,27.154,19.713,42.349c4.599,16.026,2.58,30.813-6.27,44.938
		c-14.382,22.954-33.047,41.662-55.402,56.781c-11.552,7.813-22.644,16.152-28.33,29.422c-2.451,5.721-3.59,12.002-5.365,18.018
		c-1.682,5.698-2.261,12.131-5.365,16.917c-6.764,10.426-8.854,21.777-9.452,33.673c-1.263,25.124-2.603,50.251-3.344,75.393
		c-0.201,6.857,1.153,13.877,2.661,20.628c1.127,5.045,2.495,5.326,9.11,4.073c-13.352,9.001-14.921,22.356-17.903,35.257
		c-4.378,18.935-9.865,37.621-13.916,56.62c-2.488,11.67-4.48,23.728-4.446,35.604c0.125,44.338-9.824,86.844-21.828,129.042
		c-4.266,14.994-9.017,29.85-12.772,45.241c2.106-2.79,4.307-5.515,6.304-8.381c10.943-15.702,21.61-31.604,32.856-47.085
		c4.672-6.432,10.147-12.417,15.961-17.853c9.623-8.995,11.75-19.555,8.738-31.865c-3.474-14.205-7.197-28.375-9.959-42.725
		c-6.688-34.742,15.957-63.469,51.152-66.033c19.284-1.404,36.382,4.632,52.749,13.839c7.106,3.998,14.425,6.869,23.451,4.676
		c-2.269,7.552,1.287,13.184,4.568,18.955c7.114,12.512,12.901,25.479,14.587,40.033c2.024,17.481-3.592,31.97-18.082,41.66
		c-23.421,15.665-49.496,24.894-77.576,27.868c-10.78,1.142-21.136-1.407-31.175-5.455c-10.45-4.213-15.776-3.195-22.748,5.689
		c-5.62,7.161-11.055,14.769-14.889,22.965c-7.502,16.034-17.658,30.071-28.848,43.583c-2.894,3.495-5.275,7.742-6.747,12.036
		c-15.098,44.023-30.006,88.112-44.823,132.23c-1.799,5.356-2.751,10.998-3.445,16.893c15.213-10.026,31.859-9.532,48.549-10.089
		c12.76-0.426,25.421-3.443,38.187-4.09c16.756-0.849,33.654-1.595,50.339-0.347c15.206,1.139,26.567,10.842,35.688,22.615
		c4.119,5.316,2.46,9.687-4.513,10.683c-10.821,1.545-21.828,2.632-32.742,2.524c-25.029-0.246-48.934-7.08-72.825-13.797
		c-12.637-3.553-25.318-7.404-38.748-5.452c-15.244,2.216-27.666,8.598-35.48,22.744c-17.461,31.607-35.52,62.886-52.801,94.589
		c-16.235,29.786-31.458,60.125-47.783,89.86c-7.397,13.475-16.385,26.078-24.311,38.54c5.127-2.186,11.359-4.755,17.518-7.49
		c7.145-3.174,14.148-6.67,21.346-9.713c15.406-6.512,22.978-18.438,24.668-34.668c1.811-17.388,11.78-29.531,25.496-39.516
		c-5.578,17.018-10.539,33.988-16.775,50.477c-3.606,9.535-10.887,16.512-20.729,20.52c-5.516,2.245-10.72,5.26-15.754,8.721
		c4.287-1.671,8.589-3.306,12.858-5.019c13.741-5.512,22.594-3.715,32.774,6.377c-3.424-8.423-10.924-10.759-19.439-12.057
		c30.376-14.993,67.471-27.799,124.952,12.783c-4.317-9.348-32.998-24.266-55.505-28.788c-21.704-4.36-42.217,0.221-62.42,8.666
		c11.758-15.036,13.353-33.594,18.165-50.753c4.297-15.319,14.566-20.282,28.209-22.229c12.356-1.765,23.803,1.661,34.742,6.885
		c35.892,17.14,55.943,45.5,59.68,85.191c1.09,11.571-3.608,20.771-12.343,28.038c-10.355,8.614-22.751,13.124-35.522,16.314
		c-14.014,3.501-28.169,6.642-42.425,8.927c-21.205,3.399-36.798-5.836-44.737-25.78c-2.761-6.937-4.75-14.178-7.155-21.258
		c-3.479-10.243-7.215-12.36-17.193-8.732c-15.605,5.672-31.028,11.845-46.581,17.666c-10.919,4.087-16.967,13.504-24.485,21.452
		c7.825,4.846,15.635,9.168,22.896,14.273c23.252,16.348,40.204,37.492,46.439,65.708c1.943,8.794,1.287,18.164,1.799,27.271
		c0.275,4.917,0.503,9.837,0.768,15.062c-9.488,0.868-18.523,6.708-27.99,11.488c-10.522,5.313-20.952,10.83-31.639,15.791
		c-8.648,4.015-17.775,4.093-26.798,1.03c-10.224-3.47-20.416-7.042-30.549-10.768c-11.356-4.175-18.273-13.081-23.557-23.346
		c-3.566-6.927-6.468-14.195-9.646-21.265c-22.509,15.434-45.264,31.036-66.934,45.895c25.885,12.33,52.421,25.202,79.188,37.575
		c7.65,3.536,15.836,6.155,24.021,8.228c8.164,2.067,16.635,2.921,24.99,4.31c0.148-0.335,0.085,0.229-0.188,0.36
		c-7.971,3.832-12.709,10.605-16.266,18.279c-4.892,10.552-9.354,21.304-14.271,31.845c-6.819,14.623-15.667,27.799-28.047,38.426
		c-23.182,19.898-63.552,24.911-91.661,3.276c-7.256-5.585-14.315-11.428-21.604-16.969c-14.515-11.034-22.073-9.529-30.244,6.579
		c-12.228,24.108-25.268,47.71-42.806,68.425c-9.245,10.921-19.132,21.322-29.105,31.592c-3.236,3.333-5.042,6.795-5.474,11.246
		c-2.331,24.031-4.764,48.053-7.021,72.09c-2.647,28.19-5.159,56.395-7.711,84.594c-0.748,8.263-1.43,16.532-2.172,25.14
		c-4.229-0.813-7.901-1.518-12.289-2.36c0.197-3.519,0.352-7.109,0.606-10.693c2.089-29.406,4.165-58.814,6.32-88.217
		c0.455-6.204-1.675-11.364-4.398-16.936c-19.565-40.007-52.246-69.551-80.761-102.424c-2.708-3.122-5.977-3.547-9.489-2.805
		c-11.044,2.331-22.135,4.53-33.039,7.416c-21.065,5.576-42.138,8.19-63.562,2.222c-35.407-9.865-58.795-39.987-59.581-76.723
		c-0.81-37.834,12.443-70.979,33.79-101.43c1.431-2.041,2.895-4.058,4.332-6.093c0.085-0.12,0.067-0.312,0.16-0.797
		c-2.774-3.845-5.558-7.979-8.676-11.844c-0.879-1.09-2.737-1.951-4.15-1.957c-11.413-0.05-21.058-4.604-28.134-13.034
		c-7.83-9.328-17.582-13.854-29.058-16.587c-15.672-3.732-31.046-9.52-47.479-7.422c-12.018,1.534-23.917,4.06-35.826,6.364
		c-34.464,6.672-69.044,8.551-103.773,2.429c-5.173-0.912-10.33-2.629-15.124-4.793c-5.906-2.667-7.688-6.805-6.317-13.088
		c2.815-12.905,11.187-21.872,21.985-28.412c8.078-4.893,16.827-8.719,25.422-12.71c14.629-6.794,29.275-13.565,44.085-19.95
		c28.931-12.473,51.982-4.205,71.025,17.976c6.306,7.345,11.202,16.124,15.596,24.827c4.663,9.236,2.789,14.92-5.229,21.768
		c16.723,4.933,33.267,9.812,50.895,15.011c-2.741-3.743-5.053-6.804-7.264-9.935c-9.325-13.21-18.478-26.507-21.578-42.861
		c-1.989-10.49-0.521-20.133,6.19-28.816c1.022-1.324,1.362-4.127,0.678-5.64c-1.905-4.213-4.054-8.478-6.927-12.063
		c-13.526-16.885-23.925-35.588-32.95-55.137c-0.696-1.508-1.565-2.935-2.343-4.405c-5.398-10.205-12.001-19.254-23.11-23.675
		c2.324-0.795,5.125-0.947,6.424-2.423c1.32-1.499,1.488-4.287,1.594-6.537c0.604-12.786-3.7-24.55-7.946-36.286
		c-7.742-21.403-15.442-42.824-23.451-64.129c-4.142-11.018-10.189-20.84-19.333-28.673c-7.311-6.262-10.616-15.063-13.451-23.987
		L532.958,1256.042z M885.35,982.087c-15.138-1.678-30.246-1.789-45.298,0.889c-14.931,2.656-29.752,5.735-43.161,13.257
		c-3.262,1.829-6.138,4.347-9.19,6.548c53.766-28.371,106.253-22.414,158.41,3.898c-8.344-6.771-8.277-6.792-11.749-17.49
		c-1.794-5.526-3.888-10.954-5.811-16.439c-0.435-1.236-0.921-2.505-1.048-3.792c-1.22-12.385-1.91-24.842-3.699-37.141
		c-1.161-7.981-3.896-15.732-5.926-23.587c-0.46,0.115-0.92,0.23-1.38,0.346c5.202,18.325,8.392,36.912,7.814,56.046
		c-2.42-3.315-4.241-6.841-6.402-10.145c-2.114-3.233-4.574-6.24-6.883-9.347c-0.445,0.282-0.89,0.565-1.334,0.848
		c10.764,16.281,19.291,33.582,24.773,52.747c-7.329-2.607-14.183-5.529-21.302-7.477c-14.558-3.98-25.179-13.263-33.844-24.878
		c-4.636-6.213-7.905-13.444-11.822-20.197c-0.787-1.358-1.717-2.635-2.581-3.949c4.525,14.371,11.146,27.438,22.191,37.814
		c-9.208-3.652-18.229-7.927-27.677-10.789c-10.262-3.108-17.463-9.103-22.411-18.369c-1.789-3.351-4.071-6.437-6.129-9.644
		c-0.424,0.255-0.848,0.51-1.271,0.765c3.741,6.833,7.481,13.667,11.689,21.354c-26.758-9.423-52.697-18.557-78.636-27.691
		c2.023,1.455,4.104,2.87,6.384,3.785c12.327,4.942,24.602,10.046,37.086,14.563C832.483,963.545,858.941,972.749,885.35,982.087z
		 M1198.781,1194.213c2.096-5.556,4.79-10.969,6.157-16.699c2.473-10.354,4.649-20.71,10.414-29.904
		c2.605-4.157,4.926-8.492,7.376-12.746c-0.482-0.324-0.966-0.649-1.448-0.974c-4.32,6.35-8.64,12.699-13.185,19.38
		c-1.229-19.602,0.555-38.579,5.588-57.3c-0.727,0.613-1.375,1.246-1.525,1.981c-2.096,10.227-5.022,20.384-5.977,30.722
		c-1.932,20.925-0.062,42.287-7.982,62.461c-0.304,0.774,0.455,1.965,0.719,2.962c-2.882,2.058-5.763,4.116-8.645,6.174
		c0.07,0.471,0.142,0.941,0.213,1.412c54.977-29.75,110.291-30.788,166.099-3.575c-31.017-19.902-65.529-24.158-101.794-22.657
		c1.025-0.571,1.794-1.14,2.654-1.457c11.839-4.367,23.611-8.935,35.556-12.99c24.843-8.436,49.805-16.517,74.65-24.941
		c4.427-1.502,8.529-3.963,12.782-5.98c-0.07-0.103-0.14-0.204-0.209-0.307c-27.258,8.979-54.515,17.956-82.933,27.316
		c4.554-8.384,8.237-15.166,11.921-21.947c-0.438-0.244-0.876-0.488-1.313-0.731c-3.199,5.029-6.193,10.205-9.667,15.036
		c-2.395,3.33-4.873,7.507-8.316,9.015c-13.383,5.86-27.165,10.806-41.028,16.18c12.581-10.68,19.925-24.412,23.775-40.156
		c-3.28,5.327-5.999,10.964-8.903,16.505c-6.651,12.69-16.058,23.326-28.646,29.722
		C1223.666,1186.527,1210.936,1189.819,1198.781,1194.213z M1189.587,1467.544c1.877-0.57,3.123-0.959,4.375-1.327
		c1.435-0.421,2.867-0.848,4.313-1.229c17.046-4.504,33.346-0.694,49.402,4.743c3.45,1.169,5.513,0.932,8.18-1.741
		c14.757-14.787,28.254-30.604,39.686-48.089c17.42-26.644,32.88-54.271,42.968-84.698c5.836-17.604,3.674-33.404-8.284-47.655
		c-0.992-1.182-2.991-2.47-4.317-2.279c-23.217,3.336-45.788,0.078-68.077-6.307c-30.251-8.667-52.711-26.215-64.167-56.323
		c-0.75-1.972-1.945-3.773-3.109-5.991c-16.758,8.717-32.981,17.34-44.748,32.371c-10.401,13.287-21.719,25.877-35.595,35.556
		c-13.024,9.084-20.561,21.369-23.163,36.464c-3.842,22.287-7.173,44.688-9.894,67.141c-5.687,46.938-12.618,93.662-21.844,140.041
		c-1.549,7.784-2.823,15.624-4.163,23.104c5.342-5.146,9.991-11.032,15.903-15.072c26.02-17.78,54.927-28.084,86.303-31.154
		c3.702-0.362,5.169-1.642,6.713-4.988c3.031-6.568,6.732-12.899,10.813-18.881c2.247-3.294,5.827-5.678,8.97-8.625
		c-9.467-6.381-19.027-12.175-27.872-18.909c-25.56-19.462-40.438-44.835-42.392-77.461c-1.725-28.789,8.499-53.382,25.507-76.06
		c32.464,11.889,56.554,35.035,77.598,61.703c11.778,14.926,13.105,31.277,2.526,47.787c-7.091,11.066-13.977,22.281-21.521,33.033
		C1188.329,1450.347,1188.151,1458.377,1189.587,1467.544z M1153.912,1513.648c-0.898,0.168-2.203,0.362-3.482,0.661
		c-33.553,7.844-63.57,23.114-91.248,43.345c-13.166,9.623-22.613,22.08-28.109,37.348c-5.684,15.788-10.881,31.752-16.271,47.646
		c-1.784,5.261-3.507,10.543-5.245,15.777c9.888-3.587,19.441-6.942,28.892-10.567c2.022-0.775,4.38-2.124,5.383-3.89
		c11.508-20.276,29.635-28.704,52.075-29.879c2.525-0.132,5.302-0.912,7.432-2.241c11.719-7.312,23.107-15.157,34.924-22.3
		c13.329-8.057,20.278-20.131,23.89-34.765c2.147-8.701,2.141-17.02-1.884-25.283
		C1157.818,1524.471,1156.069,1519.101,1153.912,1513.648z M934.062,1890.652c0.599-12.495,6.656-21.041,15.211-28.374
		c2.056-1.762,3.659-4.738,4.23-7.42c2.042-9.581,3.639-19.262,5.239-28.932c2.541-15.355,1.326-29.943-7.204-43.693
		c-10.884-17.546-28.865-23.426-46.563-30.389c-2.275,5.559-4.041,10.935-6.595,15.906c-6.75,13.144-13.893,26.086-20.729,39.188
		c-0.812,1.555-1.486,3.938-0.879,5.362c7.771,18.221,16.061,36.225,28.405,51.908
		C913.106,1874.281,922.059,1883.396,934.062,1890.652z M968.917,1841.583c4.923-5.233,9.596-10.137,14.198-15.104
		c22.925-24.747,41.581-52.33,55.499-83.111c4.052-8.962,5.228-18.19,3.788-27.782c-1.307-8.713-3.511-17.334-4.209-26.084
		c-0.738-9.26-0.165-18.624-0.165-29.377c-12.442,7.632-23.855,14.427-35.045,21.573c-6.896,4.403-11.643,10.797-15.162,18.182
		c-6.243,13.101-9.513,27.031-10.781,41.33C974.098,1774.366,971.639,1807.567,968.917,1841.583z M1494.859,569.078
		c1.043,6.913,2.624,13.728,2.988,20.607c0.665,12.546-3.01,24.396-7.782,35.8c-3.225,7.704-3.636,15.052-1.643,23.229
		c4.798,19.682,9.433,39.446,12.94,59.387c3.052,17.346,4.333,34.997,6.694,52.473c0.658,4.865,2.377,9.587,3.608,14.375
		c0.728,0.007,1.455,0.014,2.183,0.021c1.716-4.759,4.385-9.401,4.982-14.296c2.698-22.107,5.12-44.26,7.058-66.446
		c2.518-28.816-3.223-56.586-11.436-84.039C1510.03,595.406,1504.055,581.523,1494.859,569.078z M914.231,1438.912
		c-14.406-15.498-28.725-31.469-43.674-46.825c-15.033-15.444-30.975-29.945-49.248-41.704
		c39.046,33.404,75.012,69.628,105.582,112.863c-21.054-14.234-48.865-15.966-59.598-3.946c1.914-0.703,3.28-1.194,4.641-1.705
		c9.536-3.577,19.284-4.902,29.39-2.95c26.789,5.174,39.799,25.729,52.954,46.834c-14.036,4.107-27.434,8.413-41.037,11.924
		c-22.956,5.925-42.469-0.151-57.821-18.345c-5.68-6.73-10.759-13.968-16.08-20.999c-0.901-1.191-1.604-2.531-2.465-3.757
		c-0.745-1.062-1.584-2.056-2.381-3.08c6.669,13.518,14.536,26.188,25.536,36.527c12.597,11.841,27.521,17.897,44.757,14.141
		c14.21-3.098,28.131-7.617,42.034-11.972c5.195-1.626,9.707-3.267,12.967,2.776c0.026,0.049,0.522-0.157,1.813-0.563
		c-5.094-8.196-9.875-16.301-15.102-24.106c-2.214-3.307-3.057-6.256-1.861-10.148c4.768-15.534,9.302-31.14,13.947-46.712
		c0.712-2.388,1.583-4.728,2.328-7.105c0.727-2.323,1.385-4.667,2.073-7.001c-0.602-0.181-1.203-0.36-1.805-0.54
		c-7.119,20.774-14.239,41.549-21.372,62.361c-6.982-9.48-14.267-19.319-21.46-29.224c-0.623-0.857-0.987-2.18-0.894-3.233
		c0.652-7.289,1.409-14.569,2.229-21.842c0.816-7.23,1.746-14.448,2.627-21.672c-0.513-0.078-1.024-0.157-1.537-0.235
		C918.561,1412.295,916.345,1425.918,914.231,1438.912z M715.005,518.19c14.168,14.799,32.111,24.438,53.896,25.673
		c15.705,0.891,29.48-5.745,42.865-12.976c6.251-3.376,12.225-7.268,18.253-10.883c2.897,2.175,5.56,4.174,8.222,6.172
		c-8.281-11.616-19.278-19.918-30.903-27.433c-3.022-1.954-5.233-4.24-5.226-7.868c0.019-7.98-0.38-16.044,0.604-23.922
		c1.562-12.489,4.116-24.854,6.25-37.272c-5.622,20.829-12.753,41.438-9.262,64.604c-8.773-5.763-16.671-10.65-24.181-16.074
		c-2.13-1.538-3.747-4.452-4.54-7.058c-3.862-12.676-7.337-25.468-11.036-38.193c-0.392-1.347-1.354-2.526-2.105-3.88
		c3.763,14.652,7.454,29.029,11.146,43.407c-0.509,0.224-1.017,0.448-1.524,0.672c-1.412-0.784-2.893-1.468-4.228-2.366
		c-15.314-10.31-30.748-20.451-45.87-31.037c-17.155-12.009-33.39-25.41-52.711-34.046c-3.005-1.343-6.108-2.463-9.447-3.798
		c12.062,7.538,23.965,14.525,35.399,22.21c30.926,20.786,61.654,41.866,92.453,62.842c1.08,0.735,2.07,1.602,3.862,2.999
		c-16.192-2.306-30.077-0.112-41.644,10.604c1.88-0.342,3.471-1.524,5.257-2.103c7.06-2.284,14.048-5.453,21.303-6.349
		c23.859-2.946,39.408,12.591,56.615,26.366c-10.368,5.335-19.813,10.554-29.558,15.134c-18.634,8.757-37.715,9.514-56.404,0.6
		C732.684,529.535,723.626,523.277,715.005,518.19z M746.463,1719.623c0.373,0.323,0.705,0.721,1.128,0.955
		c1.017,0.564,2.075,1.053,3.116,1.572c19.73,9.839,40.891,14.817,62.555,17.594c6.137,0.786,9.504,2.895,12.147,8.553
		c6.824,14.604,14.238,28.942,21.804,43.182c2.541,4.782,6.247,8.945,9.421,13.392c0.425-0.221,0.85-0.442,1.275-0.663
		c-0.582-15.515,5.667-29.105,11.333-42.968c5.833-14.27,11.307-28.725,16.051-43.387c2.881-8.902,4.079-18.349,6.034-27.552
		c-0.497-0.105-0.994-0.211-1.491-0.316c-1.473,6.266-2.395,12.725-4.511,18.765c-10.267,29.295-20.854,58.478-31.704,88.747
		c-4.294-9.231-9.368-17.888-12.436-27.205c-6.489-19.703,2.888-36.828,10.438-54.259c-4.588,6.831-9.005,13.751-11.599,21.298
		c-2.618,7.615-3.428,15.852-5.027,23.803c-2.381-4.605-4.757-9.512-7.427-14.251c-1.719-3.051-2.79-5.563,0.165-8.715
		c1.426-1.521,2.314-4.363,2.101-6.471c-1.239-12.202-2.88-24.364-4.385-36.54c-0.61,0.073-1.22,0.146-1.83,0.22
		c0.316,3.108,0.642,6.216,0.947,9.325c0.798,8.107,1.826,16.202,2.247,24.328c0.146,2.802-1.231,5.683-1.912,8.527
		c-0.588-0.008-1.175-0.015-1.763-0.022c-10.183-19.029-17.553-39.683-31.414-56.559c9.244,18.511,18.488,37.021,28.193,56.456
		C793.724,1735.251,770.006,1728.272,746.463,1719.623z M1124.282,997.368c18.963-35.23,35.883-71.192,51.869-107.6
		c-0.529-0.263-1.059-0.525-1.589-0.788c-11.36,23.048-22.721,46.096-34.081,69.145c-2.54-10.814-6.583-19.766-17.826-25.52
		c19.378,20.316,16.832,30.838,6.209,47.331c-2.588-11.344-5.841-21.831-14.484-29.483c5.949,8.959,10.262,18.6,12.094,29.228
		c0.343,1.983,0.29,4.502-0.653,6.163c-6.726,11.846-13.721,23.538-20.664,35.259c-0.607,1.025-1.465,1.902-2.42,3.121
		c-5.589-13.449-14.51-22.595-28.124-26.673c1.575,1.62,3.378,2.975,5.268,4.195c8.696,5.619,15.841,12.613,20.278,22.157
		c1.139,2.447,1.059,4.101-1.064,6.095c-3.016,2.833-5.56,6.168-8.994,10.07c1.698-0.255,2.081-0.199,2.292-0.363
		c0.786-0.614,1.688-1.181,2.238-1.979c5.386-7.789,13.142-8.883,21.681-7.746c2.635,0.352,5.23,1.014,7.869,1.306
		c8.088,0.896,16.174,1.982,24.29,2.376c3.97,0.193,8.005-0.983,10.202-1.288c-17.131-1.555-35.753-3.244-55.212-5.011
		c9.153-6.203,18.899-6.911,28.693-7.446c-0.1-0.61-0.198-1.221-0.298-1.831c-7.86,0.995-15.722,1.99-23.53,2.979
		c4.188-5.9,7.503-13.511,13.238-18.087c15.974-12.745,32.399-25.084,51.174-33.692c3.389-1.555,6.821-3.014,10.233-4.516
		C1160.463,970.345,1142.275,983.579,1124.282,997.368z M1052.256,1725.054c1.479-26.395-6.639-52.72,3.646-78.316
		c-5.865,10.192-7.685,21.265-7.795,32.632c-0.173,17.771-0.046,35.545-0.046,53.984c2.115-1.676,3.688-2.861,5.195-4.124
		c10.422-8.729,10.458-8.806,22.274-2.087c17.276,9.822,35.317,17.775,54.693,22.409c13.053,3.122,26.239,5.439,39.926,4.563
		c-36.477-3.438-70.109-15.144-101.951-33.857c14.446-4.124,28.002,1.852,41.734,1.612c-13.177-2.84-26.073-7.502-39.917-5.416
		c11.452-5.748,22.048-14.062,35.245-14.086c12.939-0.024,25.396,3.777,37.193,9.404c-9.92-8.161-21.813-10.64-34.354-13.129
		c12.021-4.331,24.042-8.663,36.063-12.994c-0.163-0.466-0.326-0.931-0.49-1.396c-13.107,4.275-26.216,8.551-39.929,13.023
		c2.332-8.785,4.525-17.046,6.719-25.306c-1.513,1.7-2.679,3.601-3.328,5.664c-1.794,5.697-3.099,11.564-5.173,17.149
		c-0.792,2.134-2.813,4.351-4.854,5.391c-10.344,5.272-21.013,9.916-31.288,15.313
		C1061.063,1717.985,1056.941,1721.695,1052.256,1725.054z M778.708,205.805c-5.781-10.67-10.892-20.498-16.376-30.113
		c-5.6-9.817-11.436-19.507-17.412-29.101c-5.765-9.254-11.841-18.313-17.781-27.459c-0.49,0.302-0.981,0.604-1.473,0.905
		c22.404,39.635,47.639,77.84,62.288,122.047c-17.939-13.14-38.319-17.709-59.376-20.194c5.131,2.2,10.479,3.722,15.871,5.063
		c13.613,3.385,27.029,7.4,38.322,16.071c4.831,3.71,8.774,8.577,13.341,13.138c-0.571-2.336-0.977-4.743-1.752-7.025
		c-2.296-6.758-4.729-13.469-7.125-20.192c-4.16-11.674-5.61-23.617-3.167-35.839c0.925-4.623,2.417-9.133,3.65-13.693
		c-0.472-0.146-0.942-0.293-1.414-0.439C781.307,186.678,779.699,195.523,778.708,205.805z M883.871,793.013
		c-2.066-0.149-2.882-0.099-3.643-0.28c-15.989-3.822-30.626-10.667-44.584-19.296c-15.956-9.863-32.155-19.34-48.366-28.783
		c-4.611-2.687-9.631-4.671-14.464-6.978c0.232,1.368,0.876,1.877,1.565,2.315c20.064,12.758,39.884,25.929,60.307,38.085
		c10.327,6.146,21.452,11.276,32.764,15.345c9.907,3.563,20.577,5.009,30.919,7.354c0.725,0.164,1.52,0.021,3.755,0.021
		c-2.602-1.697-4.004-2.723-5.505-3.574c-16.835-9.549-23.29-22.325-20.957-41.377c0.627-5.123,1.054-10.271,1.573-15.406
		C871.973,758.588,866.412,776.907,883.871,793.013z M982.704,1270.92c-1.763-2.801-3.163-5.455-4.976-7.791
		c-2.049-2.642-2.422-4.838-0.649-7.997c2.216-3.95,3.531-8.404,5.235-12.642c-0.303-0.112-0.605-0.225-0.907-0.337
		c-2.502,4.376-5.004,8.752-8.045,14.069c-1.739-2.843-2.761-4.673-3.936-6.399c-2.994-4.399-3.43-8.658-1.078-13.755
		c1.821-3.947,2.149-8.583,3.142-12.913c-0.335-0.074-0.67-0.149-1.005-0.224c-1.97,5.466-3.939,10.933-6.319,17.537
		c-6.217-12.008-11.712-22.623-17.207-33.238c-0.584,0.309-1.167,0.617-1.75,0.925c10.778,20.417,21.556,40.834,32.424,61.421
		c-26.285-0.888-48.752-10.984-68.997-26.99c-0.04,0.795,0.062,1.262,0.343,1.555c1.037,1.078,2.079,2.163,3.217,3.13
		c14.791,12.567,31.71,20.591,50.912,23.633c5.869,0.93,12.923-0.097,17.353,2.875c4.663,3.129,6.799,9.994,10.103,15.187
		c4.56,7.164,9.18,14.29,13.773,21.432c-7.818-20.987,2.503-34.494,18.157-45.991c-14.025,6.05-21.713,16.846-24.472,32.009
		c-4.518-7.472-9.035-14.943-13.511-22.346c11.45-5.184,13.959-15.476,17.102-25.374
		C996.164,1256.684,993.646,1267.099,982.704,1270.92z M1333.242,1283.271c6.953,10.66,14.271,20.987,16.042,34.083
		c0.499,0.051,0.998,0.102,1.497,0.152c15.252-29.909,30.503-59.818,45.755-89.728c-0.435-0.238-0.87-0.477-1.305-0.715
		c-4.992,7.405-10.118,14.726-14.95,22.234c-11.639,18.084-26.83,34.295-30.092,56.615
		C1344.365,1298.513,1344.624,1286.652,1333.242,1283.271z M886.945,387.095c0.398,0.094,0.798,0.188,1.197,0.282
		c1.55-3.981,3.655-7.84,4.56-11.963c5.563-25.358,14.536-49.309,28.508-71.283c11.266-17.719,25.95-32.438,41.039-46.808
		c2.067-1.97,4.027-4.053,6.037-6.084c-0.338-0.307-0.676-0.613-1.014-0.92c-17.48,13.611-33.09,29.039-45.679,47.454
		c-12.517,18.309-20.648,38.608-26.679,58.942c-6.602-18.439-13.316-37.194-20.031-55.949c-0.716,1.417-0.56,2.558-0.197,3.628
		c4.474,13.208,9.038,26.386,13.454,39.612c3.464,10.377,5.7,20.847,1.96,31.724C888.824,379.441,887.984,383.302,886.945,387.095z
		 M1416.738,589.442c7.397-0.794,15.576-2.552,23.695-2.311c9.042,0.27,18.063,4.169,22.966,11.455
		c5.39,8.011,7.903,17.957,12.116,28.139c-4.837-2.879-8.433-5.257-12.241-7.221c-3.98-2.052-8.07-3.986-12.293-5.449
		c-3.747-1.299-7.742-1.879-11.628-2.776c7.153,3.305,14.272,5.974,21.211,9.051c11.396,5.056,19.29,13.082,22.018,25.797
		c1.328,6.192,3.789,12.142,5.736,18.201c0.643-0.958,0.75-1.802,0.533-2.553c-3.127-10.833-6.438-21.615-9.369-32.501
		c-0.825-3.067-1.012-6.472-0.709-9.646c0.718-7.537,1.903-15.03,2.9-22.54c-0.41-0.08-0.819-0.16-1.229-0.24
		c-1.401,7.492-2.804,14.983-4.356,23.281c-10.059-24.616-19.96-48.548-23.72-74.574c-0.83,0.233-1.661,0.468-2.491,0.702
		c3.723,15.471,7.446,30.94,11.203,46.55C1446.569,582.813,1431.436,581.619,1416.738,589.442z M679.367,1528.791
		c22.274,5.165,43.82,11.979,62.883,25.069c19.831,13.618,29.022,34.865,39.636,55.35c0.534-1.979,0.677-3.853,0.51-5.698
		c-0.806-8.914-0.268-17.727,3.495-25.913c3.807-8.284,8.265-16.27,12.4-24.404c2.109-4.149,4.139-8.34,6.204-12.512
		c-0.479-0.213-0.958-0.425-1.437-0.638c-9.488,18.254-23.058,34.729-23.79,58.359c-9.677-20.994-20.797-38.977-39.983-50.249
		C720.765,1537.274,700.891,1530.374,679.367,1528.791z M1022.815,845.485c25.529-31.684,43.49-67.816,62.896-103.09
		c-0.573-0.34-1.146-0.681-1.72-1.021c-12.658,21.789-25.317,43.578-38.291,65.909c-2.528-18.286-11.517-32.829-19.415-47.815
		c0.395,2.438,1.454,4.607,2.377,6.833c4.891,11.797,10.188,23.455,14.338,35.508c1.211,3.516,0.088,8.657-1.675,12.204
		c-3.679,7.403-8.54,14.213-12.827,21.321C1026.497,838.653,1024.703,842.098,1022.815,845.485z M1170.537,1512.028
		c0.469,0.364,0.776,0.783,1.163,0.875c3.067,0.73,6.122,1.596,9.233,2.053c18.092,2.66,33.99,9.101,44.396,25.252
		c0.288,0.446,0.845,0.719,1.275,1.072c0.338-0.287,0.675-0.575,1.013-0.862c-4.117-5.351-8.234-10.701-12.782-16.611
		c26.204,9.416,50.23,21.323,71.163,38.956C1273.777,1541.927,1193.823,1506.907,1170.537,1512.028z M1537.578,901.83
		c-0.396,0.1-0.791,0.199-1.186,0.3c0.164,0.757,0.313,1.519,0.494,2.271c2.563,10.651,5.212,21.282,7.662,31.959
		c1.376,5.996,0.787,11.417-4.701,15.595c-2.668,2.029-4.686,4.912-6.996,7.409c0.435,0.393,0.87,0.785,1.306,1.178
		c27.046-22.662,45.398-54.008,74.008-75.127c-25.12,13.88-41.198,37.358-60.124,57.973c-1.555-7.705-2.671-14.572-4.373-21.291
		C1541.938,915.265,1539.632,908.579,1537.578,901.83z M630.501,1373.726c0.431,0.054,0.861,0.107,1.293,0.162
		c0.741-4.362,1.391-8.742,2.244-13.082c1.851-9.412,2.745-19.183,5.946-28.121c6.107-17.058,17.296-30.995,30.52-43.234
		c5.543-5.131,11.404-9.918,17.121-14.861c-22.561,12.975-39.249,31.343-50.092,55.095c-0.317-11.439-0.666-22.528-6.811-32.316
		c0.328,2.934,1.534,5.674,2.136,8.541c2.737,13.03,2.149,26.136,0.644,39.26C632.411,1354.677,631.495,1364.205,630.501,1373.726z
		 M537.576,1596.449c9.678-2.814,19.203-6.481,29.069-8.247c15.362-2.748,30.965-4.143,46.447-6.25
		c4.205-0.572,8.343-1.643,12.511-2.484c-0.125-0.54-0.251-1.08-0.376-1.62C595.037,1579.768,564.531,1580.17,537.576,1596.449z
		 M1416.919,987.461c0,15.295-0.002,30.589,0.001,45.884c0.001,8.651-0.354,17.322,0.143,25.945
		c0.34,5.867,1.879,11.665,2.882,17.494c-0.045-11.091-0.444-22.039-0.875-32.985c-0.296-7.537,2.127-14.103,7.237-19.585
		c6.012-6.451,12.188-12.75,18.274-19.132c0.772-0.81,1.436-1.724,2.148-2.589c-0.415-0.363-0.831-0.728-1.246-1.091
		c-8.4,8.129-16.802,16.257-25.323,24.503C1420.435,1013.122,1421.167,1000.103,1416.919,987.461z M1396.646,790.05
		c4.798,2.062,9.645,4.019,14.385,6.204c16.729,7.712,31.283,18.811,46.025,29.627c2.398,1.76,5.188,2.986,7.797,4.46
		C1452.793,813.711,1411.697,789.561,1396.646,790.05z M532.768,1026.313c-0.398,0.193-0.797,0.388-1.195,0.581
		c2.665,12.034,5.329,24.067,7.994,36.102c-0.497,0.137-0.994,0.274-1.491,0.411c-5.24-6.868-10.818-13.342-18.38-16.976
		c5.239,5.881,11.035,11.624,15.911,18.064c5.355,7.072,0.894,15.678,2.663,23.574c3.103-17.434,3.736-35.499,15.327-50.439
		c-0.671-0.273-1.342-0.548-2.013-0.821c-3.787,6.931-7.574,13.86-10.99,20.114C538.07,1047.053,535.419,1036.684,532.768,1026.313z
		 M1505.89,385.556c-0.723-0.299-1.446-0.598-2.169-0.896c-3.434,5.488-6.866,10.977-10.3,16.465
		c-0.368-0.006-0.737-0.013-1.105-0.019c0-10.997,0-21.993,0-32.99c-0.583,0.011-1.166,0.022-1.749,0.033c0,9.772,0,19.544,0,28.986
		c-4.742-5.862-9.688-11.977-14.635-18.092c4.033,7.773,9.469,14.513,13.645,21.959c4.199,7.488,7.145,15.68,10.641,23.563
		c0.647-0.04,1.296-0.08,1.944-0.119C1494.191,410.523,1494.519,397.465,1505.89,385.556z M1184.414,1468.99
		c0.421-0.136,0.842-0.271,1.264-0.407c-0.505-1.993-1.018-3.985-1.514-5.981c-2.039-8.21-4.592-16.334-5.997-24.65
		c-2.738-16.202-4.363-32.6-7.365-48.746c-1.854-9.979-5.398-19.643-8.185-29.447c-0.512,0.145-1.023,0.29-1.535,0.436
		c0.189,0.74,0.335,1.494,0.574,2.218c5.822,17.57,9.126,35.644,11.727,53.95c2.188,15.412,5.653,30.646,8.673,45.935
		C1182.509,1464.593,1183.611,1466.762,1184.414,1468.99z M1181.156,1557.466c-3.069-4.146-5.957-8.045-8.561-11.562
		c-3.807,9.818-7.461,19.245-11.29,29.123C1167.908,1569.186,1174.219,1563.603,1181.156,1557.466z M1224.483,1242.232
		c12.449,14.117,51.306,9.168,67.028-1.203C1269.637,1246.909,1247.77,1253.006,1224.483,1242.232z M912.693,1046.062
		c-22.447,13.077-44.25,4.813-66.097-1.855C866.245,1056.071,897.457,1061.591,912.693,1046.062z M946.693,1900.51
		c1.411-10.656,2.751-20.774,4.111-31.052C939.201,1878.49,937.666,1889.223,946.693,1900.51z M1189.326,1209.407
		c7.472,4.155,16.318,6.678,25.654,7.602c10.989,1.087,21.852,2.519,30.979,9.613c0.344,0.268,1.027,0.095,1.871,0.147
		c-4.426-5.246-10.839-9.099-18.659-10.544C1215.702,1213.735,1202.17,1211.587,1189.326,1209.407z M950.894,1009.682
		c-2.209,0.932-4.355,2.076-6.64,2.758c-8.83,2.634-17.686,5.187-26.569,7.636c-6.042,1.666-12.283,2.724-18.169,4.805
		c-3.215,1.137-5.875,3.84-8.785,5.837c0.285,0.513,0.569,1.026,0.854,1.539c8.967-7.902,20.208-8.479,31.082-10.284
		C933.031,1020.251,942.413,1016.074,950.894,1009.682z M894.922,375.014c5.386-8.082,9.15-15.69,14.74-21.563
		c5.458-5.733,12.778-9.694,18.413-13.801C914.583,341.189,899.716,356.054,894.922,375.014z M726.722,1628.068
		c4.481,2.544,6.544,8.335,11.673,5.778c5.276-2.631,5.371-5.4,2.29-11.491C736.462,1624.083,732.229,1625.814,726.722,1628.068z
		 M1196.354,1558.814c-2.886-15.061-11.288-26.205-24.071-34.241C1182.294,1534.577,1191.024,1545.488,1196.354,1558.814z
		 M749.781,1624.734c5.463-5.009,10.315-9.458,15.168-13.907c-0.189-0.231-0.378-0.463-0.567-0.694
		c-5.565,2.994-11.13,5.988-16.869,9.076C748.217,1620.925,748.824,1622.403,749.781,1624.734z M1203.177,1409.918
		c-0.35-0.295-0.698-0.59-1.048-0.885c-7.338,9.146-16.951,16.383-22.126,27.331
		C1187.728,1427.549,1195.452,1418.733,1203.177,1409.918z M862.965,999.312c0.194,0.485,0.39,0.972,0.584,1.458
		c5.861-2.402,11.722-4.805,17.583-7.207c-0.17-0.422-0.34-0.845-0.51-1.268C874.736,994.634,868.851,996.973,862.965,999.312z
		 M1277.498,1194.878c0.22-0.512,0.439-1.023,0.659-1.535c-6.075-2.36-12.151-4.722-18.227-7.083
		c-0.134,0.357-0.269,0.714-0.403,1.071C1265.518,1189.847,1271.508,1192.362,1277.498,1194.878z"/>
	<path fill-rule="evenodd" clip-rule="evenodd" d="M378.662,1360.07c10.517-0.736,17.245-6.406,23.104-13.595
		c3.574-4.387,7.242-8.71,11.083-12.862c13.524-14.627,30.583-19.696,49.863-17.184c41.879,5.457,71.024,27.854,87.319,66.873
		c0.448,1.073,0.933,2.134,1.337,3.225c4.173,11.264,10.025,21.085,22.24,25.916c-20.458-5.396-37.402,2.459-53.67,13.076
		c-2.924,1.907-6.077,3.489-8.868,5.566c-19.161,14.262-40.12,17.266-62.889,10.76c-7.488-2.141-15.29-3.158-22.889-4.945
		c-29.14-6.853-43.787-26.786-41.593-56.707C384.212,1373.212,384.088,1366.53,378.662,1360.07z M536.928,1400.469
		c-43.605-2.919-85.612-11.973-126.354-27.261c3.224,2.399,6.611,4.313,10.202,5.7c36.21,13.981,73.815,21.74,112.433,24.776
		c4.151,0.326,8.387-0.415,12.583-0.661c0.246-0.64,0.493-1.278,0.739-1.917c-22.562-9.885-41.983-23.655-56.068-44.054
		C500.907,1376.939,517.423,1390.215,536.928,1400.469z"/>
	<path fill-rule="evenodd" clip-rule="evenodd" d="M1697.493,636.24c-3.073,7.063-1.486,13.443,0.57,19.834
		c3.058,9.504,3.957,19.203,2.245,29.082c-1.98,11.432-7.679,20.776-17.485,26.776c-12.171,7.445-24.724,14.331-37.458,20.773
		c-11.852,5.996-24.304,4.077-36.578,0.834c-8.836-2.334-17.618-4.89-26.496-7.051c-9.482-2.31-18.814-1.715-27.797,2.432
		c-1.61,0.743-3.314,1.283-5.318,1.647c12.104-9.378,10.815-23.33,12.771-36.081c5.553-36.204,24.032-62.516,58.434-76.637
		c15.871-6.516,30.926-4.471,45.07,5.045c4.143,2.787,8.28,5.582,12.408,8.392C1683.615,635.205,1689.717,637.874,1697.493,636.24z
		 M1602.209,665.045c-6.804,19.691-18.692,35.996-34.378,50.797c18.929,0.985,93.909-42.815,103.259-59.793
		c-28.896,23.736-60.646,42.61-95.412,56.588C1589.062,699.229,1597.952,683.425,1602.209,665.045z"/>
	<path fill-rule="evenodd" clip-rule="evenodd" d="M533.051,1255.961c-8.669-11.537-18.731-21.557-32.086-27.51
		c-10.916-4.866-22.234-8.833-33.131-13.74c-22.749-10.245-43.516-23.511-61.606-40.903c-12.212-11.742-17.598-25.89-16.984-42.604
		c0.777-21.182,5.528-41.431,14.229-61.573c1.281,2.96,2.307,5.304,3.312,7.657c7.623,17.849,19.783,30.129,39.403,34.864
		c28.244,6.816,48.583,23.963,59.056,51.076c4.244,10.987,5.627,23.205,7.375,35.002c2.915,19.682,8.734,38.195,19.355,55.104
		c0.499,0.795,0.664,1.8,0.985,2.708L533.051,1255.961z"/>
	<path fill-rule="evenodd" clip-rule="evenodd" d="M1393.38,472.943c-2.856-2.341-5.776-4.61-8.516-7.081
		c-0.584-0.527-0.508-1.786-0.735-2.709c0.94,0.281,2.177,0.276,2.77,0.892c2.49,2.587,4.788,5.359,7.156,8.063
		C1393.83,472.387,1393.604,472.665,1393.38,472.943z"/>
</g>
</svg>
