<?xml version="1.0" encoding="utf-8"?>
<!-- Generator: Adobe Illustrator 16.0.0, SVG Export Plug-In . SVG Version: 6.00 Build 0)  -->
<!DOCTYPE svg PUBLIC "-//W3C//DTD SVG 1.1//EN" "http://www.w3.org/Graphics/SVG/1.1/DTD/svg11.dtd">
<svg version="1.1" id="Layer_1" xmlns="http://www.w3.org/2000/svg" xmlns:xlink="http://www.w3.org/1999/xlink" x="0px" y="0px"
	 width="2048px" height="2048px" viewBox="0 0 2048 2048" enable-background="new 0 0 2048 2048" xml:space="preserve">
<g>
	<path fill-rule="evenodd" clip-rule="evenodd" d="M732,2049c0.206-17.825,0.943-35.663,0.503-53.472
		c-0.783-31.646-2.262-63.274-3.494-94.908c-0.236-6.072-1.409-11.875-5.562-16.258c-15.185,7.098-29.975,14.612-45.235,21.001
		c-22.557,9.444-45.598,17.629-70.171,20.146c-15.613,1.6-30.69,0.111-43.71-9.824c-16.909-12.904-23.096-36.205-15.873-58.831
		c4.897-15.343,14.479-27.386,27.161-36.784c22.074-16.356,44.354-32.449,66.874-48.184c21.019-14.685,44.595-21.207,70.265-19.932
		c0.827,0.041,1.66-0.021,2.489-0.068c0.104-0.006,0.196-0.221,0.296-0.339c-0.027-0.294,0.063-0.712-0.1-0.865
		c-19.017-17.996-38.6-35.313-61.254-48.703c-12.591-7.442-19.943-6.683-30.315,3.81c-11.353,11.483-21.466,24.237-33.207,35.28
		c-34.46,32.405-75.206,42.688-120.868,30.86c-23.814-6.168-41.142-22.1-54.256-42.434c-16.607-25.747-26.538-53.606-24.536-84.797
		c1.07-16.67,1.591-17.224,17.78-14.472c41.942,7.129,84.016,13.643,125.713,22.016c37.78,7.587,75.434,16.625,110.027,34.401
		c13.377,6.875,25.731,15.87,38.088,24.56c11.177,7.859,21.775,16.533,35.37,20.02c2.541,0.651,5.136,1.091,8.388,1.77
		c0.177-2.167,0.459-3.896,0.438-5.62c-0.94-75.324-1.816-150.65-3.077-225.969c-0.083-4.991-2.051-10.701-4.97-14.765
		c-12.626-17.581-25.37-35.192-43.797-47.486c-0.866-0.578-1.452-1.576-3.191-3.522c12.051,2.077,20.845,7.558,28.77,14.238
		c7.98,6.728,15.288,14.253,23.255,21.773c5.44-4.646,7.233-11.76,8.084-18.952c1.621-13.718,2.55-27.516,3.948-41.263
		c3.252-31.953,6.611-63.896,9.961-96.176c0.139,0.021-0.652-0.3-1.37-0.179c-13.875,2.339-25.675-2.845-35.098-12.011
		c-11.77-11.448-23.155-23.544-33.05-36.615c-22.001-29.062-39.702-60.724-51.673-95.271c-10.779-31.109-10.518-62.134,3.397-92.394
		c6.171-13.418,15.135-24.48,30.031-28.823c17.25-5.028,33.073-1.152,47.077,9.542c18.731,14.305,29.683,34.322,38.942,55.37
		c7.194,16.352,8.991,34.011,11.932,51.384c3.774,22.299,7.598,44.591,11.426,66.881c0.213,1.235,0.664,2.43,1.367,3.58
		c-0.104-37.335-5.018-74.226-10.162-112.12c6.827,0.769,12.982,1.462,19.486,2.194c-0.75-9.406-2.075-18.646-2.114-27.889
		c-0.118-27.988,0.171-55.979,0.486-83.967c0.148-13.155-0.413-26.463,1.384-39.419c2.252-16.246,6.669-32.186,10.016-48.285
		c4.999-24.054,9.879-48.133,14.994-73.102c0.737,0.058,3.228-0.368,5.108,0.511c6.413,2.999,13.543,5.392,18.727,9.929
		c21.084,18.453,35.324,41.257,38.581,69.534c1.005,8.723,0.261,18.113-1.895,26.638c-4.814,19.035-22.996,29.998-44.638,27.708
		c-8.892-0.94-17.651-3.132-26.47-4.76c-1.124-0.208-2.241-0.451-4.1-0.828c-0.424,6.348-0.244,12.514-1.357,18.436
		c-2.082,11.072,2.237,18.503,9.749,26.675c10.495,11.419,18.526,25.099,27.645,37.789c4.16,5.79,7.914,11.976,12.738,17.158
		c4.651,4.997,6.307,4.285,10.771-0.811c36.776-41.97,73.478-84.01,110.562-125.708c6.526-7.338,8.708-14.562,5.345-23.628
		c-5.026-13.55-10.05-27.101-14.974-40.688c-1.701-4.694-4.041-6.427-9.587-5.279c-43.853,9.076-77.021-9.546-104.713-41.434
		c-4.862-5.598-8.781-12.015-13.514-18.577c-2.038,5.24-3.92,10.12-5.839,14.986c-0.67,1.699-1.186,3.544-2.236,4.982
		c-0.763,1.044-2.439,2.257-3.434,2.053c-0.959-0.196-2.249-2.136-2.21-3.268c0.164-4.799,0.521-9.621,1.287-14.358
		c0.688-4.25,1.583-8.562,3.136-12.556c2.48-6.386,1.869-12.442,0.181-18.883c-4.224-16.102-8.11-32.328-7.73-49.144
		c0.096-4.262,0.684-8.711,2.089-12.707c3.73-10.607,14.936-13.639,23.255-6.012c5.354,4.91,9.86,10.823,14.327,16.61
		c24.112,31.238,47.955,62.687,72.188,93.831c9.707,12.475,20.173,24.358,31.216,36.097c-0.86-1.727-1.502-3.612-2.617-5.155
		c-11.788-16.3-23.122-32.966-35.626-48.701c-16.573-20.858-34.521-40.629-50.979-61.574c-7.316-9.311-13.449-19.911-18.143-30.78
		c-2.565-5.94-0.997-13.662-1.306-20.579c-0.459-10.263-0.915-20.525-1.429-30.785c-0.037-0.744-0.54-1.465-1.281-2.198
		c-2.099,12.844-9.058,24.86-5.364,38.991c-8.175,0.356-15.893-0.577-22.478-4.383c-8.722-5.04-17.519-10.462-24.869-17.251
		c-14.185-13.101-27.209-27.448-41.025-40.96c-17.819-17.428-22.031-38.378-17.02-61.964c6.387-30.059,22.821-52.922,49.618-67.932
		c20.011-11.208,41.237-10.028,62.632-4.627c11.767,2.971,23.535,5.938,35.308,8.884c1.08,0.271,2.202,0.374,3.98,0.666
		c-2.317-9.038-4.835-17.489-10.386-24.388c-1.662-2.066-5.721-3.036-8.697-3.068c-12.964-0.143-26.004,1.209-38.891,0.274
		c-54.678-3.967-96.174-55.77-88.864-110.001c1.872-13.888,5.362-27.126,13.63-38.643c10.815-15.066,26.182-22.387,44.163-24.182
		c35.259-3.521,65.113,9.19,90.669,32.458c18.544,16.885,33.138,36.872,41.734,60.782c0.199,0.554,0.534,1.059,1.997,1.697
		c1.298-5.539,2.341-11.153,3.941-16.604c4.854-16.537,0.938-30.589-10.636-43.25c-13.039-14.266-20.126-31.993-27.105-49.679
		c-10.316-26.145-20.333-52.43-34.478-76.848c-3.658-6.314-7.742-12.383-11.869-18.944c6.835-3.618,13.751-3.174,20.659-1.118
		c13.322,3.964,23.241,12.717,31.645,23.343c13.314,16.835,18.966,36.421,19.95,57.539c0.791,16.97,1.105,33.965,2.122,50.919
		c0.534,8.908,3.692,17.021,10.232,23.231c-1.555-7.908-3.874-15.753-4.519-23.733c-1.903-23.542,7.119-42.563,25.484-57.221
		c8.028-6.408,9.171-11.981,4.139-21.218c-8.753-16.065-17.925-31.92-26.147-48.253c-18.396-36.537-36.306-73.32-54.451-109.984
		c-1.446-2.923-3.185-5.701-4.2-9.14c1.875,1.444,3.743,2.896,5.624,4.332c15.54,11.869,32.229,21.847,49.981,30.009
		c13.529,6.221,27.931,10.874,38.879,22.294c-11.846-24.565-9.045-51.245-12.738-76.972c-0.458,4.335-1.075,8.66-1.325,13.007
		c-0.224,3.892-2.145,6.158-5.749,7.182c-3.438,0.976-7.682,0.976-8.191,5.828c-0.561,5.334,0.184,10.355,4.826,13.954
		c1.525,1.182,3.06,2.353,5.248,4.035c-21.92-2.226-38.324-23.629-35.802-45.586c2.138-18.608,8.665-35.807,17.064-52.37
		c3.562-7.023,9.147-11.631,16.817-13.881c4.772-1.4,9.36-3.427,14.032-5.17c8.285-3.091,13.66-1.423,16.954,6.8
		c3.131,7.815,5.852,16.033,7.076,24.322c2.012,13.604,2.998,27.391,3.768,41.137c0.432,7.699-3.269,14.191-8.992,19.308
		c-3.342,2.988-6.968,5.658-10.466,8.472c0.672,0.786,1.343,1.572,2.014,2.358c4.532-2.704,9.063-5.409,13.596-8.113
		c0.312,0.234,0.623,0.469,0.936,0.703c-2.329,2.986-4.131,6.704-7.081,8.827c-10.844,7.802-13.442,18.529-11.975,30.867
		c1.283,10.787,3.762,21.202,11.425,30.916c4.216-7.202,7.463-14.146,12.004-20.106c4.468-5.865,3.396-10.917,1.376-17.211
		c-2.463-7.675-3.879-15.816-4.681-23.862c-1.098-11.022,3.988-19.618,14.304-23.244c10.252-3.604,21.053-6.078,31.816-7.675
		c10.575-1.567,21.307-1.741,29.568-9.849c1.935-1.898,3.75-3.918,6.438-6.741c-5.747-0.574-6.574-3.471-6.636-7.368
		c-0.062-3.933-0.878-7.853-0.209-12.148c0.791,2.268,1.583,4.534,2.748,7.872c1.496-3.069,2.332-5.497,3.737-7.532
		c4.411-6.392,8.769-12.857,13.718-18.821c1.873-2.257,5.146-3.68,8.056-4.684c7.111-2.453,12.621,0.74,14.343,8.006
		c2.159,9.109,0.268,17.847-2.743,26.437c-0.604,1.723-1.375,3.388-2.365,5.802c9.781-2.717,18.764-7.817,29.963-5.212
		c-12.037,4.046-22.959,8.199-34.178,11.267c-4.978,1.361-10.715,1.397-15.818,0.461c-5.775-1.06-10.029,0.601-14.188,3.979
		c-2.284,1.855-4.605,3.665-8.143,6.474c5.352,0.73,9.349,1.047,13.243,1.856c8.446,1.755,17.088,3.038,25.209,5.804
		c24.694,8.409,36.305,28.657,29.267,53.854c-9.74,34.871-33.147,57.391-67.801,67.497c-14.901,4.345-26.458-0.798-34.629-14.069
		c-5.047-8.195-9.219-16.945-13.508-25.584c-1.568-3.158-3.137-3.585-6.607-2.848c-9.436,2.007-14.89,9.003-20.877,15.404
		c-0.55,0.587-0.401,2.152-0.123,3.136c1.901,6.718,4.374,13.31,5.78,20.123c1.367,6.629,1.683,13.474,2.513,20.674
		c11.537-5.042,23.583-6.047,36.009-4.336c14.813,2.039,28.85,6.632,42.294,12.91c13.551,6.328,26.937,13.046,40.121,20.104
		c4.744,2.54,9.296,6.033,12.859,10.047c5.511,6.206,4.609,13.628-2.368,18.049c-7.069,4.479-14.926,7.716-22.392,11.475
		c1.859,7.457,4.613,15.518,5.812,23.803c7.342,50.743-23.243,96.01-69.989,106.385c-21.7,4.815-42.349,1.415-61.508-10.075
		c-4.277-2.564-8.43-5.338-13.104-8.311c-0.985,0.933-2.21,1.968-3.289,3.137c-2.938,3.184-5.632,6.613-8.748,9.606
		c-9.723,9.338-16.771,18.943-13.138,34.116c2.56,10.688-2.367,20.173-11.949,26.635c-1.419,0.957-2.523,3.044-2.892,4.793
		c-3.359,15.935-6.856,31.855-9.446,47.921c-0.482,2.992,2.906,6.609,4.509,9.938c0.502-0.186,1.005-0.371,1.507-0.557
		c1.687-3.86,3.139-7.843,5.098-11.56c10.401-19.739,26.543-32.831,47.787-39.037c29.957-8.751,59.498-7.805,88.005,6.083
		c2.648,1.291,5.17,2.845,9.077,5.011c-4.154-6.451-7.777-11.495-10.777-16.887c-3.549-6.375-6.969-12.89-9.608-19.67
		c-1.106-2.844-1.353-7.563,0.286-9.592c2.78-3.442,7.25-1.363,10.44,0.718c5.562,3.63,11.172,7.343,16.099,11.761
		c34.195,30.664,65.492,64.09,93.546,100.452c5.628,7.295,9.798,15.816,13.917,24.131c2.127,4.292,4.414,9.798-0.023,13.963
		c-4.679,4.393-10.595,2.343-14.85-0.56c-10.958-7.474-22.4-14.731-31.708-24.021c-15.883-15.85-30.283-33.186-45.297-49.905
		c-1.08-1.203-2.077-2.48-3.257-3.897c-11.903,22.492-23.593,44.582-34.774,65.711c7.661,4.63,16.025,8.502,22.956,14.138
		c11.935,9.703,17.328,23.426,19.305,38.354c2.314,17.483,1.438,34.887-2.606,52.117c-1.208,5.146-3.762,8.369-9.037,10.06
		c-8.673,2.78-10.096,9.62-3.847,16.188c11.159,11.729,16.136,26.604,20.918,41.531c2.569,8.02,4.715,16.175,7.283,25.067
		c3.868-5.269,7.471-9.803,10.679-14.601c27.299-40.82,54.454-81.738,81.845-122.498c4.718-7.021,5.135-13.893,1.381-21.106
		c-4.22-8.11-8.793-16.035-13.112-24.095c-1.011-1.886-1.62-3.987-1.535-6.47c11.069,9.493,16.008,23.267,24.85,35.036
		c3.163-6.63,6.177-12.62,8.805-18.775c0.445-1.042-0.432-3.049-1.284-4.159c-1.713-2.229-4.063-3.976-5.731-6.23
		c-3.292-4.446-2.357-7.195,3.004-7.985c3.709-0.547,7.613-0.282,11.369,0.153c3.157,0.366,4.759-0.7,6.209-3.443
		c10.189-19.269,20.016-38.759,31.024-57.553c6.962-11.885,8.662-23.76,5.544-36.819c-1.889-7.914-3.475-15.901-5.161-23.862
		c-0.656-3.096-1.956-4.191-5.545-3.649c-11.746,1.775-23.525,1.873-35.275-0.586c-14.313-2.996-25.357-10.691-33.179-22.871
		c-12.876-20.048-19.173-42.369-21.056-65.873c-0.779-9.715-0.923-19.774,0.691-29.332c4.73-27.987,25.509-42.373,52.939-35.649
		c30.259,7.417,56.023,23.031,74.292,48.923c19.049,26.999,17.038,54.928-5.438,79.188c-6.409,6.917-13.997,12.773-21.286,18.826
		c-2.302,1.912-3.238,3.285-2.562,6.521c2.683,12.842,4.868,25.787,7.256,38.69c0.239,1.291,0.599,2.56,0.994,4.226
		c9.839-14.452,19.271-28.67,29.081-42.624c13.406-19.071,27.158-37.899,40.65-56.911c9.269-13.06,13.256-27.453,10.244-43.449
		c-0.273-1.452-0.629-2.89-1.276-5.836c-1.319,2.926-2.03,4.634-2.847,6.291c-3.668,7.447-7.197,14.971-11.162,22.258
		c-1.087,1.995-3.514,3.262-5.324,4.863c-1.619-2.01-4.035-3.78-4.721-6.069c-3.094-10.325-6.432-20.667-8.322-31.245
		c-3.796-21.227-5.435-42.751-2.149-64.162c1.673-10.9,4.85-21.718,8.627-32.107c3.794-10.435,11.361-18.366,21.268-23.661
		c3.469-1.854,4.779-4.2,5.135-8.2c1.278-14.391,2.541-28.827,4.931-43.059c1.52-9.048,6.864-16.719,13.036-24.036
		c1.118,8.134,1.114,16.11,3.437,23.339c4.873,15.168,10.928,29.959,16.638,44.851c0.464,1.208,1.838,2.409,3.076,2.926
		c18.276,7.633,27.577,22.194,31.77,40.771c0.388,1.714,0.844,3.412,1.448,5.839c9.294-9.251,14.879-19.886,14.979-32.148
		c0.081-9.832-2.103-19.752-3.957-29.504c-1.151-6.054-5.719-9.383-11.711-10.972c-11.805-3.128-22.436-8.495-30.616-17.815
		c-16.062-18.299-18.261-45.598-5.581-69.161c6.272-11.659,14.694-21.446,26.434-27.919c17.149-9.455,32.327-4.258,37.83,14.481
		c4.093,13.937,5.646,28.644,7.952,43.068c0.89,5.563,0.854,11.288,1.035,16.946c0.532,16.588-6.224,29.384-20.458,37.956
		c-2.991,1.801-3.352,3.358-2.623,6.725c2.666,12.327,4.758,24.777,7.06,37.183c0.282,1.519,0.524,3.044,1.008,5.87
		c2.895-4.054,4.896-7.025,7.066-9.867c12.634-16.545,25.399-32.991,37.938-49.607c9.229-12.229,16.615-25.536,18.328-40.974
		c0.851-7.67-0.264-15.585-0.772-23.37c-0.839-12.858-1.056-25.683,2.53-38.193c5.449-19.011,17.604-32.25,35.852-39.601
		c11.984-4.827,19.273-1.022,21.44,11.727c3.077,18.111,2.289,36.203-3.747,53.761c-3.86,11.226-12.088,18.558-22.485,23.561
		c-7.709,3.708-11.188,1.36-11.391-7.263c-0.043-1.805-0.006-3.611-0.006-5.418c-0.422-0.202-0.843-0.404-1.265-0.607
		c-7.096,13.594-14.191,27.187-21.287,40.779c0.394,0.529,0.786,1.059,1.18,1.589c2.224-0.512,4.672-0.59,6.635-1.606
		c10.479-5.425,20.772-10.87,28.66-20.347c3.72-4.47,9.678-7.941,15.305-9.812c23.965-7.965,46.311-19.325,68.53-31.046
		c2.15-1.135,4.423-2.037,6.568-3.016c-8.346,11.125-16.3,22.319-24.879,33.012c-10.432,13-24.895,18.437-41.025,19.969
		c-7.125,0.678-14.289,1.008-21.443,1.297c-10.596,0.43-19.12,5.836-26.86,12.079c-8.53,6.881-16.194,14.841-24.145,22.427
		c-1.247,1.189-2.007,2.889-3.526,5.146c9.203-2.302,17.251-4.926,25.508-6.271c28.959-4.716,57.988-5.625,86.912,0.392
		c3.848,0.8,7.656,2.34,11.149,4.174c7.022,3.687,8.956,10.549,3.881,16.658c-4.164,5.011-9.364,9.542-14.928,12.939
		c-17.892,10.925-37.915,16.68-57.889,22.391c-24.808,7.091-49.808,13.307-75.64,15.295c-8.467,0.651-16.98,0.699-25.44,1.409
		c-1.996,0.168-3.875,1.868-5.771,2.928c-0.41,0.229-0.664,0.734-0.993,1.11c-4.702,5.376-11.359,10.066-13.548,16.321
		c-2.128,6.077,0.619,13.755,0.711,20.736c0.195,14.969,0.06,29.942,0.06,45.215c51.65,16.046,99.574,40.605,148.587,62.635
		c-0.162,0.434-0.324,0.866-0.486,1.299c-4.631-1.532-9.258-3.076-13.893-4.596c-43.897-14.392-88.944-22.429-135.074-24.646
		c-4.255-0.204-6.21,1.28-8.389,4.892c-4.002,6.635-8.346,13.354-13.817,18.749c-9.885,9.743-21.965,11.124-34.633,5.678
		c-5.461-2.348-10.651-5.322-16.326-8.195c-28.391,31.826-53.97,65.796-77.372,102.729c22.013-5.535,43.665-5.768,65.373-4.165
		c5.861-23.696,25.537-32.65,44.842-41.048c19.846-8.634,40.347-7.916,60.033,1.507c22.209,10.629,40.709,25.98,54.77,46.206
		c20.069,28.871,14.387,58.688-14.878,78.169c-15.247,10.15-32.166,16.635-50.331,19.387c-21.357,3.234-40.103-3.483-57.095-15.967
		c-19.002-13.961-34.793-31.012-47.436-50.877c-2.712-4.262-4.971-9.179-5.952-14.091c-1.688-8.45,5.365-14.593,13.772-12.307
		c3.935,1.07,7.717,3.071,11.247,5.187c13.697,8.207,27.264,16.633,40.886,24.964c0.792,0.484,1.654,0.854,3.159,0.324
		c-6.017-4.769-11.892-9.73-18.084-14.257c-7.518-5.494-15.127-10.903-23.012-15.846c-14.479-9.075-30.792-9.843-47.223-9.432
		c-3.969,0.1-7.966,0.733-11.867,1.528c-12.435,2.532-22.532,8.144-28.61,20.146c-9.094,17.96-18.843,35.587-28.199,53.415
		c-1.761,3.356-2.993,6.99-4.471,10.497c32.994,16.633,65.246,33.835,101.686,40.981c22.821,4.476,45.657,9.189,67.384,17.901
		c2.77,1.11,5.723,2.121,8.045,3.894c2.474,1.89,5.636,4.472,5.939,7.052c0.203,1.733-3.723,4.829-6.366,5.846
		c-6.945,2.671-14.09,5.038-21.351,6.635c-23.431,5.149-47.044,7.232-70.876,2.671c-19.301-3.694-35.408-13.97-51.232-24.827
		c-2.058-1.412-4.409-2.623-5.988-4.472c-9.096-10.645-21.071-9.591-33.101-8.479c-2.319,0.214-4.619,0.63-6.938,0.854
		c-9.924,0.959-16.551,5.669-22.16,14.46c-26.241,41.123-53.304,81.723-80.035,122.534c-1.89,2.886-3.475,5.971-5.689,9.807
		c11.857,0.941,22.768,0.771,33.012-3.388c5.903-2.396,11.2-6.363,16.604-9.879c2.06-1.339,3.832-3.242,5.434-5.143
		c16.187-19.215,37.35-27.371,61.922-28.876c34.451-2.11,68.283,0.88,100.848,12.564c11.627,4.172,22.433,10.737,33.374,16.653
		c3.573,1.933,6.703,4.979,9.488,8.018c6.935,7.566,5.677,13.881-3.874,17.836c-5.628,2.33-11.668,4.117-17.689,4.969
		c-34.67,4.902-69.505,7.826-104.561,7.605c-21.016-0.133-41.395-4.058-61.165-10.892c-22.753-7.866-45.604-8.427-68.781-2.436
		c-8.562,2.213-16.194,5.754-21.917,12.9c-29.676,37.059-59.476,74.018-89.131,111.092c-3.271,4.091-5.895,8.701-8.485,12.574
		c12.037,0,23.807,0.136,35.567-0.142c1.854-0.044,3.908-1.687,5.455-3.058c13.184-11.686,27.669-20.705,45.487-23.445
		c35.516-5.46,69.684,10.528,87.883,41.537c10.95,18.658,16.854,39.067,19.317,60.43c1.778,15.431-3.604,28.191-17.323,35.992
		c-15.727,8.942-31.616,17.77-48.099,25.171c-27.438,12.319-48.855,6.901-69.072-15.554c-16.344-18.154-25.734-39.791-32.206-62.947
		c-3.108-11.123-4.997-22.399-4.168-34.028c1.042-14.627,4.754-17.564,18.474-13.245c20.463,6.442,39.002,16.952,56.838,28.614
		c16.29,10.651,32.171,21.93,48.233,32.929c1.618,1.107,3.25,2.196,5.469,2.807c-0.623-0.746-1.16-1.59-1.882-2.225
		c-26.361-23.157-55.006-43.038-85.913-59.644c-10.933-5.874-22.23-9.144-34.996-6.896c-9.798,1.724-19.892,1.686-29.785,2.96
		c-11.488,1.479-21.153,6.923-28.877,15.49c-18.52,20.541-37.002,41.119-55.298,61.86c-17.302,19.615-34.367,39.44-51.478,59.224
		c-2.023,2.339-3.676,4.999-6.136,8.385c9.463,1.754,17.846,3.639,26.332,4.639c2.047,0.241,5.077-1.96,6.562-3.882
		c5.989-7.754,10.917-16.402,17.396-23.689c15.849-17.826,36.587-25.619,60.013-26.324c27.733-0.835,53.012,6.657,74.843,24.188
		c14.713,11.814,22.961,27.408,23.219,46.24c0.32,23.476-0.089,46.985-1.039,70.445c-0.68,16.795-8.337,30.646-21.459,41.271
		c-6.726,5.445-13.594,10.717-20.433,16.021c-23.292,18.063-48.339,19.359-74.716,7.759c-20.924-9.202-38.235-23.46-54.352-39.271
		c-6.525-6.402-12.61-13.286-18.564-20.233c-10.476-12.224-12.699-26.343-8.814-41.686c1.714-6.77,3.63-13.499,5.007-20.337
		c1.162-5.773,1.196-11.564-2.25-16.875c-7.509-11.57-17.05-12.811-32.789-5.05c-1.172,0.578-2.252,1.466-3.17,2.41
		c-4.18,4.301-8.162,8.801-12.455,12.982c-4.153,4.046-8.599,7.791-13.006,11.748c6.258,4.871,12.687,9.273,18.427,14.442
		c28.86,25.985,44.504,58.913,49.685,97.001c2.781,20.449,2.959,40.882-4.063,60.737c-8.549,24.17-27.879,38.576-51.354,37.542
		c-17.046-0.751-31.487-7.696-42.868-20.603c-3.42-3.879-4.058-8.144-3.284-13.396c2.051-13.928,3.328-27.969,4.913-41.964
		c-0.702-0.088-1.404-0.176-2.106-0.264c-1.049,7.214-2.205,14.414-3.129,21.645c-4.284,33.523-8.708,67.032-12.676,100.594
		c-2.757,23.317-4.981,46.7-7.183,70.078c-0.898,9.531,0.577,11.084,9.468,7.789c17.443-6.464,34.822-13.27,51.671-21.128
		c23.505-10.963,45.968-24.28,69.83-34.325c40.433-17.021,81.529-32.481,122.504-48.188c26.066-9.992,52.419-19.237,78.638-28.832
		c6.933-2.537,8.028-2.087,10.331,5.197c6,18.981,3.548,37.649-3.135,55.813c-14.625,39.746-44.35,62.385-84.386,72.667
		c-26.273,6.747-51.183,2.139-74.838-10.423c-14.1-7.487-28.2-14.985-42.083-22.863c-12.158-6.899-24.404-7.631-36.618-1.043
		c-16.795,9.06-33.2,18.842-49.982,27.928c-10.922,5.913-22.202,11.165-33.35,16.659c-3.421,1.687-7.025,3.018-10.381,4.817
		c-6.193,3.321-9.6,8.611-9.985,15.657c-0.929,16.97-2.252,33.935-2.566,50.917c-1.008,54.313-1.632,108.632-2.392,162.948
		c-0.021,1.498-0.036,3.017,0.175,4.492c0.522,3.641,2.702,5.645,6.256,4.293c4.463-1.698,9.207-3.4,12.875-6.305
		c10.694-8.472,20.739-17.759,31.367-26.32c11.135-8.97,22.187-18.173,34.108-26.004c16.565-10.882,31.123-23.904,45.15-37.729
		c16.14-15.905,32.554-31.532,48.839-47.291c0.914-0.885,1.731-1.868,2.31-3.119c-24.614,17.729-48.433,36.403-70.033,57.818
		c-0.539-0.349-1.077-0.696-1.616-1.045c6.38-13.95,12.76-27.901,19.14-41.852c-0.3-0.203-0.599-0.404-0.898-0.607
		c-6.049,8.594-12.125,17.167-18.141,25.783c-10.668,15.279-20.854,30.924-32.155,45.717c-4.806,6.289-11.914,10.819-17.609,15.827
		c-1.512-0.856-1.924-0.947-2.071-1.194c-6.019-10.091-11.96-20.228-18.021-30.293c-13.594-22.575-10.764-48.075,7.884-68.533
		c16.749-18.377,38.164-29.227,61.271-37.104c35.774-12.195,71.458-9.721,106.958,1.313c10.9,3.388,18.888,10.204,23.191,21.07
		c1.558,3.934,3.635,7.661,5.991,12.554c1.361-4.705,2.062-8.232,3.386-11.509c5.077-12.566,15.033-14.354,23.635-3.936
		c3.653,4.427,6.848,9.556,8.962,14.877c13.927,35.055,22.977,71.181,23.246,109.198c0.113,15.876-3.271,31.129-7.771,46.112
		c-6.419,21.377-6.621,42.205,2.79,62.798c2.058,4.5,3.441,9.308,5.523,15.045c1.641-2.231,2.856-3.672,3.841-5.256
		c7.732-12.44,15.496-24.863,23.032-37.422c0.995-1.658,1.29-4.131,1.007-6.097c-2.059-14.306,3.606-20.253,17.737-18.613
		c1.402,0.163,3.501-0.715,4.39-1.821c13.454-16.754,26.96-33.473,40.039-50.519c11.207-14.606,16.275-31.063,13.289-49.647
		c-1.09-6.781-3.744-12.355-9.715-16.058c-11.303-7.009-22.598-14.03-33.909-21.023c-6.646-4.11-13.627-7.756-19.923-12.343
		c-18.296-13.329-23.086-27.989-16.873-49.772c9.349-32.78,44.241-61.573,78.099-64.264c15.653-1.244,29.517,3.924,42.123,12.776
		c30.78,21.614,46.362,51.044,45.379,88.903c-0.042,1.617-0.005,3.236-0.005,6.412c6.122-6.589,12.008-11.778,16.305-18.055
		c1.999-2.921,1.99-8.216,1.063-11.985c-8.226-33.436-6.505-67.001-2.927-100.809c2.644-24.988,3.725-50.142,5.51-75.221
		c0.034-0.481,0.163-0.956,0.443-2.545c4.023,2.19,7.959,3.864,11.375,6.274c16.83,11.876,23.734,28.897,25.045,48.843
		c1.52,23.115-4.976,44.313-14.303,65.102c-6.311,14.064-11.522,28.625-17.039,43.035c-0.993,2.596-1.538,5.558-1.429,8.317
		c0.083,2.077,1.542,4.101,2.39,6.147c1.709-0.752,3.831-1.091,5.066-2.32c19.02-18.922,37.917-37.964,56.856-56.966
		c6.096-6.115,8.244-13.836,9.313-22.091c1.259-9.733,2.684-19.446,4.122-29.155c0.413-2.792,1.004-5.57,1.719-8.302
		c1.85-7.078,0.688-13.693-2.004-20.428c-4.68-11.714-8.711-23.686-13.228-35.467c-4.223-11.012-8.695-21.927-13.11-32.863
		c-3.391-8.4-5.953-16.933-5.38-26.162c0.681-10.979,6.304-15.256,16.95-12.721c21.02,5.006,36.136,21.999,36.882,43.67
		c0.595,17.27-0.554,34.608-1.154,51.909c-0.676,19.479-1.557,38.953-6.534,57.962c-0.361,1.378-0.188,2.896-0.298,5.036
		c1.672-0.979,2.877-1.479,3.835-2.276c15.354-12.774,28.694-27.298,38.894-44.59c1.642-2.782,1.581-5.179,0.983-8.359
		c-2.818-15.018-5.813-30.063-7.383-45.239c-2.875-27.821-4.424-55.779-7.254-83.605c-1.574-15.481-6.272-30.258-14.04-44.336
		c1.769,1.49,3.951,2.689,5.236,4.52c6.578,9.36,13.964,18.351,19.147,28.456c12.611,24.587,23.586,49.956,30.87,76.731
		c4.15,15.259,6.023,30.661,1.532,46.55c0.663-0.193,1.189-0.183,1.426-0.438c11.119-12.07,21.688-24.771,26.697-40.571
		c5.139-16.211,6.509-32.633-4.66-47.684c-5.424-7.31-7.129-16.001-7.42-24.992c-0.675-20.884,3.05-40.853,13.498-59.088
		c8.815-15.386,21.838-25.92,39.31-30.127c15.015-3.616,27.707,1.801,36.063,14.901c5.646,8.853,9.244,18.665,10.218,28.959
		c1.185,12.52,1.836,25.229,1.07,37.756c-0.904,14.774-9.579,25.368-22.578,31.933c-7.677,3.876-15.761,7.145-23.959,9.748
		c-14.235,4.521-19.406,16.551-26.068,29.104c4.662-0.943,8.179-1.732,11.725-2.356c10.569-1.861,21.059-0.857,31.042,2.61
		c6.145,2.136,11.652,1.388,17.469-0.23c13.688-3.807,24.061-12.511,33.545-22.553c8.775-9.291,17.55-18.584,26.656-27.553
		c-15.437,22.828-34.228,42.354-57.488,58.156c5.807,2.537,11.485,4.955,17.112,7.488c12.963,5.838,24.607,13.248,31.776,26.187
		c15.424,27.833,4.563,65.227-24.056,82.679c-12.903,7.868-27.251,11.264-41.932,13.519c-16.811,2.582-33.667,4.526-50.738,2.782
		c-16.365-1.672-27.31-10.17-30.118-26.424c-2.016-11.665-1.354-23.797-1.797-35.724c-0.078-2.102,0.287-4.219,0.488-6.867
		c-9.11,0.501-17.336,2.132-23.893,8.114c-16.365,14.934-32.551,30.064-48.794,45.132c-3.541,3.284-7.058,6.597-10.511,9.972
		c-1.367,1.335-2.533,2.876-3.79,4.323c0.229,0.359,0.457,0.719,0.687,1.078c6.212-2.454,12.556-4.622,18.612-7.414
		c19.504-8.988,37.815-6.79,55.225,5.321c2.733,1.9,5.434,3.849,8.149,5.774c13.302,9.427,26.729,18.686,39.855,28.35
		c7.077,5.21,14.298,10.51,20.205,16.92c3.96,4.297,6.598,10.363,8.246,16.093c1.858,6.454-1.714,11.452-8.294,13.156
		c-12.798,3.313-23.161-1.646-32.093-10.408c-5.457-5.354-10.629-10.997-16.004-16.435c-1.131-1.144-2.593-1.957-4.2-3.143
		c0.51,7.494,1.831,13.782,6.186,19.881c6.364,8.915,4.98,19.335,2.013,29.353c-3.754,12.674-11.438,22.746-22.514,29.565
		c-30.369,18.695-62.268,22.039-95.195,7.217c-12.669-5.702-22.959-14.709-30.863-26.214c-1.819-2.647-3.644-3.503-6.963-3.081
		c-16.843,2.142-33.603,4.442-49.435,11.123c-3.546,1.497-5.673,3.67-6.553,7.415c-4.479,19.054-15.821,32.666-33.229,41.32
		c-10.349,5.146-18.414,12.912-26.025,21.431c-5.293,5.924-11.353,11.163-16.704,17.161c7.318-0.791,13.971-1.579,19.331-7.818
		c9.647-11.229,22.872-16.435,37.338-18.101c20.596-2.372,40.924-0.208,60.821,5.327c23.376,6.502,38.901,21.67,46.988,44.433
		c5.043,14.197,8.03,28.853,8.48,43.94c0.188,6.295-2.197,8.515-8.458,8.141c-2.62-0.156-5.34-0.628-7.776-1.572
		c-26.954-10.444-54.234-20.17-80.642-31.861c-15.558-6.889-30.078-16.388-44.377-25.763c-11.024-7.229-21.713-9.281-33.761-3.673
		c-2.689,1.252-5.617,2.047-8.497,2.821c-6.663,1.792-12.021,5.392-16.364,10.768c-8.454,10.465-17.066,20.803-25.946,31.599
		c4.453,2.465,8.707,4.139,12.15,6.843c14.251,11.193,28.711,22.189,42.22,34.238c12.222,10.9,24.439,21.526,38.796,29.624
		c6.913,3.899,13.467,8.632,19.563,13.729c6.605,5.523,10.514,12.79,10.327,21.823c-0.229,11.117-6.905,15.544-16.377,9.92
		c-7.977-4.736-15.428-10.448-22.732-16.208c-26.241-20.691-56.553-31.286-89.158-35.902c-15.697-2.223-29.141,3.053-40.039,14.741
		c-9.555,10.248-16.2,22.346-22.295,34.764c-21.169,43.125-38.171,87.826-50.243,134.356c-0.556,2.144-0.472,4.453-0.823,8.114
		c2.806-1.64,4.507-2.437,5.987-3.531c9.609-7.1,16.197-16.512,21.398-27.178c4.146-8.501,8.308-17.152,13.722-24.85
		c21.989-31.261,65.398-40.74,99.457-23.492c11.099,5.62,23.884,7.935,35.935,11.644c14.288,4.397,28.682,8.468,42.875,13.148
		c3.167,1.045,5.691,4.041,8.512,6.139c-3.13,1.54-6.106,3.778-9.415,4.51c-25.136,5.556-50.605,9.815-75.434,16.479
		c-20.948,5.622-41.258,13.704-61.694,21.126c-13.471,4.894-26.174,5.098-38.703-2.749c-7.372-4.617-15.313-4.05-22.9-0.237
		c-9.458,4.753-17.041,11.442-21.488,21.393c-4.886,10.93-7.668,22.348-8.839,34.209c-2.667,0-5.333,0-8,0
		c-0.512-7.469-0.518-15.014-1.624-22.394c-4.125-27.515-15.454-52.473-27.897-77.024c-2.229-4.4-5.297-5.657-9.701-4.205
		c-12.136,4.002-24.187,8.274-36.381,12.088c-27.578,8.624-51.474,2.99-70.012-19.777c-17.344-21.301-26.75-45.957-27.087-73.512
		c-0.188-15.423,4.343-29.248,18.241-38.416c1.729-1.141,3.018-3.568,3.64-5.658c2.58-8.67,8.172-14.614,16.487-17.451
		c6.711-2.291,13.734-4.138,20.762-4.95c32.106-3.71,64.188,11.852,78.443,43.882c8.739,19.641,8.02,40.091,5.731,60.851
		c-1.784,16.182-1.026,32.224,6.588,47.265c8.632,17.051,17.034,34.218,25.533,51.336c0.754,1.519,1.483,3.049,2.381,4.896
		c4.613-14.676,8.733-28.709,13.428-42.546c14.97-44.126,33.065-87.009,52.118-129.496c3.688-8.226,4.325-16.636,2.742-25.371
		c-3.316-18.302-9.202-35.87-17.89-52.174c-19.143-35.926-27.91-74.521-31.63-114.604c-0.496-5.347-1.007-10.692-1.645-17.455
		c-1.276,2.504-1.847,3.667-2.454,4.811c-7.606,14.305-18.019,25.774-32.559,33.43c-12.181,6.413-24.242,13.084-36.075,20.115
		c-15.947,9.477-33.123,13.091-51.273,10.571c-11.637-1.615-23.198-4.35-34.51-7.578c-10.956-3.128-19.551-0.53-26.929,7.719
		c-12.212,13.655-24.638,27.123-36.638,40.961c-5.422,6.251-10.175,13.104-14.965,19.872c-2.691,3.803-1.845,6.389,2.729,8.879
		c23.215,12.64,32.14,37.056,22.967,61.793c-4.586,12.369-12.253,22.892-20.877,32.618c-4.774,5.386-6.479,10.999-6.388,18.086
		C748,1933.372,748.456,1991.187,749,2049C743.333,2049,737.667,2049,732,2049z M1075.161,742.612
		c-6.665,0-12.269,0.665-17.664-0.116c-21.854-3.162-40.559-13.4-57.604-26.934c-21.073-16.731-38.411-36.344-47.157-62.423
		c-0.114-0.342-0.678-0.534-0.613-0.486c-2.756,8.138-5.071,16.447-8.352,24.356c-7.056,17.014-18.905,29.573-36.211,36.537
		c-11.766,4.735-24.067,6.449-36.671,5.785c-7.545-0.398-15.066-1.258-22.381-1.891c-1.071,5.461-2.115,10.786-3.273,16.688
		c6.07-5.717,12.541-9.345,20.712-9.428c15.255-0.154,28.865,5.052,41.042,13.526c34.706,24.156,53.082,58.918,61.727,99.208
		c3.888,18.117-0.476,34.171-18.038,44.185c-0.241,0.138-0.321,0.559-0.015-0.011c9.164,18.247,18.074,35.989,27.056,53.872
		c0.621-0.59,1.871-1.627,2.947-2.821c12.044-13.356,24.445-26.414,35.999-40.184c20.227-24.108,40.149-48.481,59.667-73.165
		c4.055-5.128,7.797-11.953,8.225-18.232C1085.95,780.624,1081.648,760.781,1075.161,742.612z M1285.584,1539.277
		c0.318,0.511,0.637,1.021,0.955,1.532c37.48-17.382,77.515-21.942,118.869-23.542c-15.796-11.029-30.612-21.452-45.57-31.666
		c-1.144-0.78-3.496-0.591-4.943-0.005c-17.452,7.073-33.425,16.385-46.127,30.675c-4.535,5.103-9.423,9.896-14.256,14.726
		C1291.643,1533.864,1288.566,1536.524,1285.584,1539.277z M796.119,1121.233c6.332-4.604,12.499-8.715,18.238-13.354
		c7.751-6.265,9.643-14.405,6.336-23.763c-0.719-2.035-1.518-4.044-2.342-6.039c-7.926-19.188-19.628-36.199-30.855-53.482
		c-0.191-0.295-0.787-0.327-1.463-0.583c0.719,21.56,1.141,42.868,2.26,64.141C788.868,1099.067,790.672,1109.92,796.119,1121.233z
		 M1007.948,1165.861c-26.406-19.419-120.434-58.91-143.372-60.024c6.727,4.711,13.385,9.794,20.844,13.031
		c18.402,7.985,37.069,15.394,55.82,22.534C963.372,1149.83,985.703,1157.731,1007.948,1165.861z M872.585,503.48
		c2.989,6.222,6.22,13.104,9.6,19.91c1.476,2.972,3.011,5.977,4.999,8.604c1.07,1.414,3.11,2.662,4.805,2.793
		c0.813,0.062,2.274-2.533,2.691-4.122c2.023-7.709,3.861-15.469,5.631-23.241c1.527-6.705,2.876-13.451,4.304-20.179
		c-5.673,3.135-9.84,7.601-14.927,10.383S878.593,501.511,872.585,503.48z M1207.438,645.909c19.656,0,38.57,0,58.399,0
		c-16.004-7.12-31.055-13.816-46.634-20.748C1215.4,631.866,1211.443,638.846,1207.438,645.909z M632.031,1793.049
		c8.771,13.208,87.971,85.435,96.357,87.792C696.88,1849.545,666.139,1819.505,632.031,1793.049z M926.928,559.948
		c8.545-1.107,87.062-44.919,92.334-51.067C986.405,522.177,954.661,537.483,926.928,559.948z M1053.625,1815.912
		c0.256,0.25,0.512,0.5,0.768,0.75c12.536-6.868,25.072-13.737,37.576-20.588c-4.534-6.441-8.681-12.332-13.038-18.521
		C1070.325,1790.598,1061.976,1803.255,1053.625,1815.912z M1454.096,1350.403c0.51,0.182,1.021,0.362,1.531,0.544
		c6.167-10.127,12.334-20.255,18.554-30.471c-7.02-1.805-13.513-3.475-20.085-5.165
		C1454.096,1327.067,1454.096,1338.735,1454.096,1350.403z M928,421.874c0.705,0.111,1.411,0.223,2.116,0.334
		c6.156-7.229,12.313-14.459,18.298-21.489c-9.713-1.581-8.599-12.663-14.938-16.529c-1.837,9.016-3.851,17.915-5.378,26.896
		C927.502,414.587,928,418.272,928,421.874z M1148.309,1671.135c0.704,0.453,1.409,0.905,2.113,1.357
		c9.007-6.392,14.543-16.226,23.104-24.117c-4.565-0.865-8.222-1.674-11.919-2.176c-0.89-0.121-2.465,0.521-2.795,1.24
		C1155.204,1655.289,1151.781,1663.224,1148.309,1671.135z M928.105,1936.161c-13.277-19.373-30.988-34.169-48.718-48.946
		c-0.345,0.343-0.689,0.687-1.034,1.03C894.938,1904.217,911.521,1920.188,928.105,1936.161z M960.015,283.048
		c10.991-5.482,11.544-5.952,11.767-10.186c-1.98,0.364-3.876,0.829-5.799,1.047C958.147,274.795,958.145,274.767,960.015,283.048z
		 M999.736,163.12c-1.872-2.037-3.275-3.563-5.038-5.48c-3.153,3.437-5.984,6.521-8.815,9.605c0.211,0.274,0.423,0.548,0.635,0.822
		C990.625,166.529,994.733,164.992,999.736,163.12z M1255.523,1588.379c-0.067-0.315-0.136-0.631-0.204-0.946
		c-3.097-1.005-6.194-2.011-8.826-2.865c-2.201,2.269-4.214,4.343-6.971,7.186
		C1245.31,1590.533,1250.417,1589.456,1255.523,1588.379z M957.202,398.947c5.856-5.076,11.713-10.152,18.449-15.992
		C968.145,384.931,959.18,392.59,957.202,398.947z M1430.05,1401.073c-3.204,3.372-6.407,6.744-10.093,10.624
		C1427.133,1412.317,1429.723,1409.702,1430.05,1401.073z"/>
	<path fill-rule="evenodd" clip-rule="evenodd" d="M512.854,1325.775c1.024-22.372,3.599-44.307,10.297-65.596
		c4.662-14.816,13.271-26.064,29.381-29.663c7.908-1.767,15.803-3.666,23.788-4.995c12.157-2.023,23.486,1.393,32.979,8.511
		c9.236,6.926,18.236,14.699,25.522,23.591c18.092,22.077,32.769,46.511,45.924,71.84c11.409,21.968,11.369,44.132,0.824,66.271
		c-4.715,9.9-11.065,19.094-15.066,29.242c-4.593,11.652-15.769,14.291-24.557,19.51c-25.863,15.359-51.593,11.354-75.564-4.868
		c-27.692-18.739-42.654-46.105-49.182-78.241C514.826,1349.697,514.249,1337.653,512.854,1325.775z M564.995,1264.073
		c-0.479,0.344-0.959,0.688-1.438,1.031c12.118,22.888,23.718,46.069,36.501,68.58c12.765,22.477,26.715,44.28,40.445,66.874
		c-1.759-0.899-3.565-1.518-5.012-2.611c-9.952-7.528-19.805-15.188-29.739-22.739c-5.964-4.533-12.019-8.947-18.033-13.415
		c-0.435,0.558-0.87,1.115-1.305,1.672c24.874,20.959,49.747,41.918,74.621,62.877c0.485-0.328,0.97-0.657,1.455-0.986
		C631.288,1370.82,597.118,1318.059,564.995,1264.073z"/>
	<path fill-rule="evenodd" clip-rule="evenodd" d="M878.959,1408.352c-20.705-34.066-21.435-78.043,9.773-108.133
		c26.127-25.19,58.044-36.391,94.119-35.484c23.548,0.592,46.184,5.875,67.42,16.189c6.217,3.02,12.349,6.776,17.483,11.356
		c17.269,15.399,14.795,37.573-6,47.968c-11.934,5.966-25.05,9.713-37.853,13.764c-41.537,13.142-82.861,26.842-122.896,44.141
		C893.559,1401.37,886.271,1404.958,878.959,1408.352z"/>
	<path fill-rule="evenodd" clip-rule="evenodd" d="M766.733,983.528c-11.529-0.976-22.938-1.877-34.334-2.935
		c-4.638-0.43-9.275-1.02-13.857-1.847c-12.452-2.247-22.108-8.916-29.159-19.298c-14.173-20.865-22.515-44.01-26.37-68.831
		c-2.242-14.431-2.334-28.837,0.855-43.192c7.34-33.028,30.956-48.31,63.789-39.907c16.531,4.23,32.738,10.026,48.68,16.182
		c16.719,6.456,22.502,18.481,18.089,38.75c-5.267,24.181-12.184,47.996-17.851,72.096c-3.532,15.021-6.074,30.275-9.064,45.424
		C767.323,980.92,767.099,981.863,766.733,983.528z"/>
	<path fill-rule="evenodd" clip-rule="evenodd" d="M626.525,1672.68c-4.929-1.904-8.951-3.376-12.91-5.003
		c-32.65-13.415-66.818-21.144-101.522-26.622c-25.62-4.043-51.415-7.008-76.992-11.285c-6.966-1.165-14.122-4.329-19.976-8.347
		c-12.069-8.282-12.75-22.192-2.481-32.615c8.368-8.493,18.969-13.418,29.801-17.78c33.828-13.625,68.976-20.018,105.432-17.871
		c20.189,1.188,39.582,5.889,56.176,18.227c26.25,19.52,33.921,46.181,28.459,77.392
		C631.144,1656.587,628.68,1664.207,626.525,1672.68z"/>
	<path fill-rule="evenodd" clip-rule="evenodd" d="M1621.372,1364.261c-21.693-3.077-43.396-6.094-65.069-9.302
		c-3.066-0.454-6.117-1.573-8.96-2.858c-5.003-2.263-5.813-6.115-2.364-10.433c4.438-5.56,10.553-7.953,17.41-8.482
		c14.674-1.132,28.14,2.416,39.658,11.695c6.946,5.597,13.306,11.923,19.93,17.921
		C1621.774,1363.288,1621.573,1363.774,1621.372,1364.261z M1599.839,1352.286c0.185-0.547,0.369-1.094,0.554-1.641
		c-8.016-2.737-16.032-5.476-24.048-8.213c-0.196,0.58-0.394,1.159-0.59,1.739
		C1583.783,1346.877,1591.811,1349.581,1599.839,1352.286z"/>
</g>
</svg>
