<?xml version="1.0" encoding="utf-8"?>
<!-- Generator: Adobe Illustrator 16.0.0, SVG Export Plug-In . SVG Version: 6.00 Build 0)  -->
<!DOCTYPE svg PUBLIC "-//W3C//DTD SVG 1.1//EN" "http://www.w3.org/Graphics/SVG/1.1/DTD/svg11.dtd">
<svg version="1.1" id="Layer_1" xmlns="http://www.w3.org/2000/svg" xmlns:xlink="http://www.w3.org/1999/xlink" x="0px" y="0px"
	 width="2048px" height="2048px" viewBox="0 0 2048 2048" enable-background="new 0 0 2048 2048" xml:space="preserve">
<g>
	<path fill-rule="evenodd" clip-rule="evenodd" d="M1011,2049c18.185-31.375,36.385-62.74,54.527-94.14
		c1.553-2.688,2.723-5.595,4.373-9.029c-8.035-2.471-15.544-5.019-23.185-7.078c-15.39-4.148-30.821-8.151-46.291-11.988
		c-13.451-3.337-24.616-0.003-34.05,10.753c-14.588,16.632-31.831,29.76-53.46,36.153c-19.521,5.771-39.528,7.344-59.78,6.807
		c-37.469-0.992-72.217-12.49-105.963-27.63c-33.261-14.922-65.576-31.588-95.936-51.952
		c-33.449-22.438-56.553-52.508-69.257-90.721c-3.247-9.769-7.13-19.334-10.964-28.896c-2.332-5.816-5.522-11.07-11.378-12.341
		c5.947-3.622,12.754-6.906,18.565-11.461c21.624-16.946,46.646-24.488,73.396-27.269c41.787-4.343,83.664-7.422,125.72-6.14
		c39.73,1.211,78.558,7.038,114.741,24.742c47.082,23.036,76.954,59.935,88.236,111.268c2.237,10.181,3.065,20.771,3.519,31.217
		c0.468,10.78,4.922,18.348,15.026,21.806c15.396,5.27,30.957,10.071,46.506,14.885c9.512,2.944,19.131,5.541,29.421,8.5
		c5.13-11.577,10.29-22.878,15.161-34.302c6.847-16.058,13.625-32.149,20.039-48.382c0.941-2.383,0.335-5.85-0.606-8.433
		c-12.807-35.138-26.358-70.013-38.591-105.347c-12.717-36.73-30.199-71.301-46.253-106.527
		c-5.906-12.959-14.955-23.856-26.277-32.227c-6.226-4.602-14.029-7.531-21.543-9.848c-37.595-11.593-76.083-18.782-115.102-23.871
		c-11.257-1.468-19.036,0.815-27.54,7.658c-20.056,16.14-44.11,22.599-69.183,25.801c-52.023,6.646-101.695-3.38-150.208-21.38
		c-42.678-15.835-84.926-32.936-128.996-44.713c-43.021-11.497-86.158-22.561-129.199-33.984
		c-36.491-9.686-72.81-19.982-106.333-37.932c-12.159-6.51-23.973-13.68-35.815-20.765c-18.055-10.801-25.714-13.48-46.795-15.618
		c0.9-0.629,1.409-1.268,1.999-1.354c12.689-1.877,24.383-6.657,35.524-12.707c29.061-15.783,60.543-23.906,92.796-29.396
		c33.757-5.746,67.839-8.928,102.008-5.887c23.31,2.075,46.584,5.645,69.55,10.189c29.612,5.859,59.161,7.764,88.824,2.234
		c44.839-8.358,88.313-4.089,131.222,10.986c30.755,10.805,61.689,21.023,90.652,36.223c20.571,10.795,40.178,23.007,56.443,39.91
		c16.866,17.527,26.825,37.801,25.769,62.791c-0.491,11.619,1.766,15.088,12.988,18c14.301,3.712,28.887,6.357,43.396,9.226
		c25.958,5.131,51.652,11.22,76.658,19.992c3.594,1.261,7.305,2.191,11.91,3.556c-0.479-1.961-0.659-3.308-1.13-4.545
		c-20.978-55.144-41.521-110.46-63.312-165.281c-5.258-13.229-14.129-25.18-22.382-36.989c-3.563-5.099-9.407-8.939-14.851-12.334
		c-30.977-19.318-63.748-35.024-97.824-48.116c-7.395-2.841-13.419-1.918-19.402,2.921c-19.675,15.906-42.227,22.896-67.412,20.861
		c-21.188-1.713-40.122-9.856-58.225-20.645c-15.973-9.519-32.146-18.771-48.698-27.226c-19.716-10.07-34.974-24.174-44.082-44.461
		c-6.876-15.313-16.485-28.744-26.58-42.072c-26.037-34.378-35.429-73.201-28.24-115.758c1.119-6.624,4.143-12.944,6.448-19.347
		c2.566-7.128,4.821-14.212,1.034-21.015c7.497,0.338,15.055,0.667,22.612,1.023c45.977,2.163,87.722,17.53,127.019,40.615
		c27.027,15.877,50.404,36.46,74.018,56.792c11.099,9.557,23.294,17.868,34.124,27.701c24.255,22.021,37.801,49.271,36.416,82.586
		c-0.36,8.687-2.625,17.424-4.984,25.866c-4.095,14.65-3.517,18.071,9.603,25.963c11.814,7.106,24.254,13.166,36.351,19.812
		c20.549,11.29,41.045,22.677,61.564,34.021c2.021,1.116,4.05,2.217,6.736,2.962c-13.441-40.252-28.953-79.621-46.673-119.031
		c5.321,1.731,9.801,2.861,13.958,4.714c1.53,0.682,2.568,2.944,3.377,4.695c7.115,15.402,14.128,30.854,21.173,46.288
		c0.607,1.331,1.233,2.653,1.829,3.933c0.525-0.132,0.982-0.143,1.02-0.272c4.243-14.829,9.082-29.526,12.457-44.553
		c2.415-10.751-2.517-15.407-13.44-15.618c-9.631-0.187-19.535,0.498-28.828-1.492c-31.759-6.804-47.292-33.434-39.468-65.903
		c5.231-21.711,17.026-40.01,30.217-57.47c9.434-12.486,19.559-24.451,29.377-36.647c1.03-1.279,2.079-2.545,2.921-3.573
		c-37.944-20.546-75.724-41.002-113.503-61.458c-0.492,0.271-0.984,0.542-1.477,0.813c3.576,10.466,6.535,21.192,10.843,31.347
		c13.187,31.085,26.78,62,40.489,92.859c2.686,6.047,4.604,11.531,0.432,17.599c-1.084,1.576-1.355,3.712-2.232,6.269
		c-0.88-1.575-1.565-2.606-2.063-3.723c-14.441-32.331-28.938-64.638-43.25-97.025c-5.503-12.454-12.481-24.04-21.74-33.875
		c-4.868-5.17-11.251-9.456-17.727-12.475c-25.74-11.999-53.211-18.778-80.771-25.005c-11.652-2.633-23.509-4.474-35.349-6.124
		c-10.645-1.483-20.395,1.647-29.409,7.353c-13.131,8.311-26.756,15.435-42.324,18.167c-14.273,2.504-28.575,2.361-42.797,0.288
		c-16.11-2.349-32.331-4.523-48.121-8.35c-20.972-5.081-38.612-17.077-54.582-31.133c-30.297-26.668-63.963-48.404-98.84-68.31
		c-30.894-17.632-62.297-34.369-93.488-51.479c-9.602-5.268-19.644-9.854-28.766-15.847c-11.843-7.778-19.141-19.158-22.387-33.104
		c-1.215-5.223-1.644-11.051-7.552-15.048c18.742-4.429,37.283-11.038,56.271-12.786c30.12-2.772,60.536-2.871,90.832-3.019
		c26.428-0.129,52.298,4.81,77.709,12.037c17.245,4.904,34.633,3.373,52.052,1.064c22.777-3.019,44.554,0.566,64.863,11.267
		c20.297,10.694,41.609,20.199,58.432,36.133c30.789,29.16,49.148,64.98,53.646,107.485c0.367,3.479,0.54,6.978,0.887,10.458
		c1.344,13.494,7.82,23.599,20.957,27.68c12.509,3.887,25.445,6.4,38.196,9.508c27.797,6.775,55.238,14.672,81.724,25.638
		c3.962,1.641,8.079,2.906,12.202,4.373c1.049-7.978,0.23-9.547-6.487-12.486c-35.772-15.651-71.631-31.109-107.282-47.031
		c-11.06-4.939-21.639-10.985-32.254-16.856c-2.06-1.14-4.377-3.656-4.688-5.81c-1.982-13.763-5.881-26.921-11.226-39.703
		c-0.305-0.731-0.421-1.541-0.79-2.938c47.704-9.783,94.478-6.914,141.631,6.374c-3.803-11.463-7.664-22.006-10.805-32.76
		c-12.479-42.738-25.044-85.456-36.964-128.352c-7.938-28.568-20.947-53.458-45.7-71.098
		c-22.231-15.843-44.241-31.997-66.464-47.852c-7.771-5.543-16.328-9.506-25.835-11.324c-29.874-5.713-55.198-20.884-78.979-38.879
		c-33.73-25.522-66.961-51.708-100.78-77.109c-38.076-28.599-76.679-56.495-114.839-84.983
		c-21.782-16.262-42.732-33.527-60.244-54.567c-10.605-12.742-19.119-26.4-20.854-43.402c-0.261-2.563-1.292-5.046-1.659-6.418
		c6.156,2.599,12.585,6.053,19.438,8.075c29.359,8.666,55.721,23.473,81.526,39.357c33.872,20.849,67.062,42.843,101.367,62.94
		c30.985,18.152,63.183,34.224,94.643,51.58c19.447,10.73,37.727,23.22,53.305,39.279c18.743,19.322,30.224,42.398,32.583,69.118
		c1.711,19.373,10.922,32.6,26.492,43.251c23.073,15.784,45.65,32.309,68.156,48.901c8.562,6.313,16.341,13.685,24.474,20.577
		c1.221,1.034,2.424,2.088,4.716,4.063c0-2.889,0.007-4.444-0.001-5.999c-0.208-41.291-6.396-81.935-13.325-122.49
		c-6.021-35.246-12.077-70.486-18.35-105.688c-3.198-17.945-11.235-33.715-25.37-45.262c-22.418-18.315-45.505-35.817-68.456-53.472
		c-8.595-6.611-19.098-8.281-29.46-9.994c-53.914-8.911-104.37-27.797-151.778-54.479c-49.593-27.91-100.916-52.356-151.619-78.054
		c-21.799-11.049-43.4-22.489-65.085-33.763c-1.46-0.759-2.875-1.605-4.059-3.046c9.167,3.051,18.333,6.103,27.5,9.152
		c54.474,18.12,110.079,32.096,166.03,44.665c52.243,11.735,101.842,30.154,148.475,56.444
		c15.192,8.565,27.858,19.974,36.583,35.332c9.002,15.849,23.432,26.106,37.488,36.84c21.834,16.674,43.44,33.646,65.216,50.396
		c3.186,2.451,6.77,4.386,11.291,7.276c0.794-12.482,1.734-23.364,2.104-34.266c0.31-9.144,0.801-18.413-0.305-27.44
		c-1.682-13.733-9.263-24.868-18.894-34.406c-26.704-26.446-58.263-44.914-94.7-53.928c-30.8-7.619-61.999-13.653-93.081-20.101
		c-34.639-7.185-69.345-14.043-104.02-21.055c-0.444-0.09-0.858-0.328-1.451-0.563c8.847,0,17.48,0.23,26.098-0.049
		c16.987-0.55,33.96-1.563,50.947-2.061c39.775-1.163,77.233,8.515,112.827,25.54c32.771,15.675,63.936,34.246,93.655,55.156
		c12.245,8.615,22.475,19.287,30.32,32.135c0.761,1.246,1.605,2.44,3.039,4.608c0.316-2.207,0.578-3.383,0.641-4.569
		c1.384-26.116,2.285-52.271,4.317-78.335c0.938-12.038,4.111-23.898,6.202-35.852c0.63-3.604,1.047-7.244,1.526-10.873
		c1.809-13.687,9.408-22.299,23.073-26.21c3.132,7.51,1.701,14.447-2.322,20.84c-2.278,3.619-5.181,7.008-8.383,9.847
		c-5.655,5.015-8.896,11.188-10.079,18.448c-5.558,34.112-7.877,68.479-7.843,103.021c0.001,0.593,0.228,1.186,0.514,2.59
		c11.209-12.004,21.938-23.493,32.667-34.982c0.308,0.199,0.615,0.398,0.923,0.598c-0.547,1.192-0.943,2.485-1.664,3.561
		c-5.373,8.016-10.048,16.66-16.378,23.841c-14.921,16.927-20.51,36.679-21.455,58.71c-1.476,34.399,2.663,68.128,10.126,101.575
		c0.432,1.937,1.198,3.802,1.86,5.682c0.21,0.596,0.587,1.133,1.181,2.246c0.922-1.35,1.654-2.302,2.261-3.329
		c17.592-29.808,35.21-59.601,52.726-89.453c4.544-7.744,9.249-15.459,12.919-23.62c1.863-4.142,2.429-9.308,2.089-13.9
		c-0.555-7.487-0.551-14.763,3.09-21.408c8.231-15.024,16.436-30.082,25.289-44.74c6.277-10.394,15.311-18.505,25.45-25.098
		c39.789-25.873,81.922-46.949,127.136-61.697c27.471-8.96,54.494-8.349,81.619,1.884c13.608,5.133,27.8,8.72,41.757,13.015
		c-15.402,9.952-30.999,21.863-48.187,30.663c-20.636,10.565-42.323,19.312-64.116,27.318c-23.354,8.581-44.605,20.61-64.907,34.631
		c-14.245,9.838-28.408,19.796-42.518,29.829c-17.32,12.315-36.286,20.861-57.163,24.869c-10.338,1.984-18.002,7.396-24.841,15.308
		c-18.339,21.219-31.854,45.521-45.62,69.66c-6.581,11.54-12.355,23.544-18.356,35.408c-1.068,2.111-1.455,4.567-1.838,5.821
		c6.87-8.382,13.475-18.054,21.665-26.113c20.254-19.933,45.565-31.113,72.72-37.676c18.547-4.481,37.634-6.693,56.404-10.309
		c5.539-1.067,10.823-3.459,16.219-5.242c0.513,6.29,6.53,8.464,12.293,11.223c10.761,5.15,21.99,9.699,31.852,16.262
		c15.657,10.42,25.809,25.72,32.896,43.045c1.219,2.981,2.56,5.913,4.195,9.678c2.907-7.002-3.005-21.399-13.117-33.881
		c13.036-15.746,26.155-31.593,40.327-48.711c-3.093-2.592-6.617-4.911-9.341-7.947c-7.98-8.899-16.548-17.469-23.227-27.294
		c-11.098-16.326-13.238-34.139-4.668-52.617c1.298-2.798,1.781-5.974,2.683-9.113c9.06,3.736,18.464,0.415,27.858-0.715
		c12.386-1.49,24.687-3.689,37.072-5.177c10.626-1.275,20.93,0.264,31.15,5.73c18.365-23.625,41.252-41.981,67.762-56.256
		c-9.931,26.108-19.767,51.966-29.716,78.124c8.575,6.161,17.118,12.177,25.533,18.366c30.367,22.335,59.885,45.694,85.788,73.238
		c18.523,19.697,34.414,41.104,42.05,67.632c3.494,12.14,5.007,24.551,3.998,37.056c-1.024,12.704,1.7,24.141,8.805,34.581
		c15.451,22.707,30.957,45.377,46.464,68.046c2.488,3.638,5.099,7.193,7.652,10.787c0.433-0.115,0.865-0.229,1.298-0.345
		c-0.955-9.146-1.631-18.331-2.918-27.43c-4.334-30.633-9.211-61.192-13.202-91.868c-1.715-13.184-1.955-26.576-2.508-39.89
		c-0.496-11.948-2.237-23.617-7.861-34.246c-6.758-12.773-13.521-25.616-21.426-37.68c-3.559-5.433-9.265-10.261-15.083-13.249
		c-13.479-6.923-19.305-17.675-19.488-32.217c-0.064-5.109-0.011-10.22-0.011-15.438c16.926,2.066,31.296,14.589,32.466,31.415
		c1.468,21.105,13.142,36.949,23.206,53.842c1.032,1.732,4.158,3.602,5.82,3.228c2.096-0.473,4.746-2.905,5.301-4.986
		c1.963-7.362,3.063-14.95,4.617-22.427c4.967-23.91,9.994-47.808,14.984-71.713c0.476-2.279,0.955-4.565,1.255-6.872
		c1.095-8.407-3.421-15.921-11.846-16.798c-8.83-0.918-17.866,0.313-26.812,0.299c-6.281-0.011-12.791,0.413-18.793-1.037
		c-11.294-2.728-16.735-11.744-20.53-21.91c17.405-12.189,37.358-12.207,54.436,0.148c5.52,3.994,10.448,8.795,15.863,12.944
		c3.21,2.461,6.841,4.372,11.316,7.178c0.85-3.652,1.688-5.944,1.869-8.286c0.522-6.779,1.401-13.617,0.985-20.36
		c-0.5-8.113-5.25-13.81-12.825-16.987c-1.531-0.643-3.024-1.391-4.589-1.935c-8.057-2.804-11.647-8.926-12.676-16.955
		c-0.314-2.456-0.521-4.925-0.813-7.726c7.732,3.29,14.326,7.513,19.271,14.388c2.748,3.822,6.389,7.113,10.049,10.132
		c2.812,2.318,6.172,1.813,8.31-1.281c4.8-6.944,9.918-13.767,13.795-21.218c2.859-5.497,6.219-9.87,11.93-12.025
		c7.438-2.808,15.018-5.239,22.676-7.882c0.664,17.229-5.301,25.467-21.701,28.381c-9.273,1.648-15.229,6.133-19.273,14.465
		c-4.421,9.106-8.211,18.212-7.432,28.593c0.1,1.325,0.102,2.683,0.408,3.963c1.103,4.606,2.487,5.011,6.564,2.484
		c6.777-4.199,13.37-8.841,20.544-12.228c19.386-9.153,40.126-10.192,61.105-8.809c19.556,1.29,38.424,5.744,56.871,12.318
		c4.136,1.474,8.88,2.604,13.142,2.118c14.852-1.692,26.077,4.95,36.344,14.354c4.775,4.375,9.442,8.87,14.378,13.518
		c-15.643,8.118-33.199,5.894-45.158-5.145c-0.123-0.112-0.255-0.218-0.366-0.341c-18.701-20.791-17.021-18.713-49.828-25.483
		c-18.439-3.807-37.026-6.835-55.994-4.813c-32.487,3.463-55.898,18.838-66.758,50.795c-9.035,26.591-13.979,54.082-18.116,81.745
		c-3.554,23.757-5.771,47.629-5.063,71.688c0.897,30.53,5.271,60.676,10.445,90.71c3.383,19.638,7.153,39.207,10.998,60.153
		c3.92-3.078,7.521-5.192,10.216-8.138c17.202-18.807,34.563-37.488,51.2-56.79c35.064-40.68,65.473-84.934,97.234-128.14
		c45.688-62.152,99.072-116.39,163.591-159.135c34.836-23.08,71.362-42.858,112.235-53.107c12.188-3.056,24.818-4.349,37.246-6.45
		c0.176,0.464,0.351,0.928,0.526,1.391c-0.523,0.664-0.935,1.475-1.585,1.972c-62.33,47.592-124.547,95.333-187.095,142.637
		c-21.497,16.257-43.673,31.633-65.806,47.027c-33.51,23.308-62.234,51.662-88.425,82.736
		c-34.464,40.892-68.833,81.862-103.235,122.807c-1.285,1.529-2.408,3.199-3.739,4.686c-14.784,16.511-20.103,35.6-17.788,57.697
		c6.053,57.786,12.111,115.558,21.732,172.89c0.879,5.243,1.875,10.467,2.847,15.694c0.117,0.632,0.426,1.229,0.741,2.111
		c5.166,0.233,9.853-1.406,12.742-5.44c11.809-16.483,23.554-33.029,34.702-49.961c5.29-8.034,2.7-15.848-3.553-22.736
		c-8.003-8.817-14.895-18.397-18.228-30.047c-6.427-22.462-3.443-44.172,5.689-65.265c10.421-24.068,26.788-44.03,44.491-62.923
		c37.213-39.715,78.073-75.524,119.716-110.443c38.94-32.653,78.46-64.633,121.127-92.354
		c17.402-11.307,35.944-20.862,54.011-31.141c5.147-2.929,10.444-5.598,16.435-8.793c-2.239,5.263-4.238,9.907-6.196,14.57
		c-12.246,29.171-29.288,55.613-46.912,81.672c-28.534,42.188-57.707,83.946-85.998,126.296
		c-18.481,27.665-35.477,56.321-53.881,84.041c-17.931,27.008-37.997,52.479-63.994,72.27c-11.69,8.899-24.348,17.173-37.751,23.011
		c-16.33,7.113-29.575,17.11-39.916,31.205c-12.209,16.642-24.257,33.408-36.034,50.357c-8.485,12.21-12.5,25.893-12.424,40.903
		c0.268,53.159,0.291,106.319,0.484,159.479c0.021,5.478,0.554,10.954,0.857,16.582c-4.501,1.166-8.934,2.313-12.498,3.236
		c-7.262-10.719-13.522-21.79-21.513-31.426c-28.002-33.768-58.109-65.64-90.593-95.13c-8.032-7.292-18.045-12.408-27.177-18.481
		c-23.69-15.757-44.442-35.048-65.212-54.304c-10.875-10.082-21.48-20.454-32.337-30.556c-2.723-2.533-3.709-4.882-2.656-8.719
		c2.397-8.739,4.195-17.644,6.237-26.48c-0.431-0.184-0.862-0.367-1.293-0.551c-0.61,1.419-1.411,2.787-1.804,4.264
		c-7.642,28.747-15.384,57.47-22.709,86.298c-1.356,5.339-3.831,8.322-8.997,9.94c-11.234,3.519-22.349,7.419-32.897,10.957
		c15.626-35.103,31.439-70.627,47.253-106.15c-0.445-0.229-0.891-0.457-1.336-0.686c-1.537,2.875-3.075,5.75-5.282,9.879
		c-49.406-51.471-98.479-102.596-147.922-154.104c-0.884,1.553-1.908,3.335-2.917,5.127c-12.266,21.79-26.349,42.17-47.006,56.925
		c-7.397,5.284-15.569,9.548-23.629,13.822c-6.177,3.276-11.687,7.176-15.298,13.188c-13.611,22.67-27.34,45.277-40.486,68.217
		c-4.792,8.362-7.709,17.665-7.97,27.582c-0.068,2.631,0.841,3.818,3.223,4.674c65.411,23.474,123.771,59.199,177.779,102.466
		c1.16,0.93,2.345,1.831,3.723,2.905c5.534-4.399,10.913-8.822,16.444-13.045c21.837-16.67,45.896-28.741,72.729-35.104
		c5.518-1.308,11.078-2.825,14.144-9.17c4.007,10.327,12.692,15.315,20.679,20.88c14.946,10.414,29.847,20.909,40.271,36.218
		c14.951,21.955,24.681,45.993,26.965,72.658c1.61,18.802-5.252,34.483-20.707,44.968c-19.096,12.955-38.803,25.107-58.864,36.518
		c-35.259,20.054-70.645,39.94-106.636,58.63c-25.304,13.139-35.303,35.488-41.324,60.934c-5.627,23.775-4.102,47.098,4.697,70.121
		c31.52,82.477,62.526,165.148,94.236,247.552c6.976,18.127,16.039,35.451,24.167,53.134c0.168,0.366,0.652,0.587,1.188,1.047
		c6.909-40.199,24.749-76.132,40.981-112.66c2.901-6.527,5.718-13.128,7.983-19.893c2.781-8.303,0.287-14.23-7.179-18.624
		c-2.575-1.515-5.253-2.884-7.977-4.116c-22.174-10.029-33.912-27.763-37.15-51.313c-4.236-30.808,4.929-58.724,20.439-84.701
		c6.185-10.359,13.775-20.093,21.913-29.032c28.931-31.782,58.032-63.424,87.709-94.509c33.75-35.352,69.071-69.058,109.975-96.273
		c16.004-10.648,32.706-19.89,52.186-22.735c11.599-1.693,22.861,0.183,34.185,2.369c4.284,0.827,8.773,0.597,12.456,0.807
		c2.309,4.824,4.2,10.381,7.357,15.088c12.04,17.951,12.233,37.467,7.066,57.163c-3.782,14.414-9.409,28.361-14.577,42.382
		c-1.103,2.989-0.774,4.696,1.171,7.006c5.147,6.11,10.196,12.327,14.907,18.777c7.323,10.023,12.671,20.999,14.615,34.452
		c2.268-2.907,4.109-5.148,5.822-7.483c15.559-21.213,31.066-42.464,46.655-63.653c4.885-6.641,5.631-13.208,0.716-20.207
		c-24.487-34.864-24.258-72.672-11.963-111.268c14.892-46.744,42.93-84.811,81.235-114.963
		c19.046-14.992,34.124-32.83,44.976-54.082c17.547-34.365,34.172-69.2,51.213-103.824c13.014-26.441,26.247-52.754,43.516-76.794
		c14.58-20.3,32.316-37.102,53.907-49.835c5.916-3.489,11.4-7.71,16.78-11.388c5.992,27.502,5.658,55.795,3.003,84.232
		c-6.69,71.649-24.719,140.431-52.302,206.746c-7.674,18.449-13.628,37.303-19.381,56.44
		c-24.008,79.877-73.537,138.389-150.254,172.574c-11.118,4.954-23.294,7.813-35.229,10.567
		c-9.676,2.233-17.016,6.898-22.692,14.877c-21.523,30.256-42.155,61.226-65.139,90.334c-13.137,16.638-19.288,34.465-21.02,54.751
		c-3.086,36.169-7.281,72.285-8.94,108.52c-1.001,21.848,1.834,43.879,3.09,65.819c0.724,12.638,1.633,25.268,2.684,37.882
		c0.288,3.456-0.394,5.958-3.219,8.203c-2.547,2.024-4.571,4.707-7.467,7.778c-0.512-9.412-0.799-17.963-1.476-26.482
		c-1.45-18.257-2.837-36.524-4.744-54.736c-1.865-17.811-9.519-33.429-21.648-46.237c-14.072-14.86-29.241-28.687-44.027-42.864
		c-9.133-8.756-18.439-17.329-28.111-26.4c-3.435,3.147-7.289,6.25-10.646,9.82c-31.328,33.333-68.896,57.919-109.367,78.521
		c-9.473,4.823-19.089,9.57-27.854,15.512c-6.049,4.1-12.25,9.334-15.799,15.539c-20.388,35.65-36.891,73.01-46.063,113.264
		c-2.04,8.954-1.118,17.793,1.566,26.612c1.052,3.455,0.552,7.376,0.821,11.08c0.154,2.124,0.039,4.376,0.717,6.339
		c11,31.907,21.791,63.892,33.268,95.628c15.725,43.479,31.94,86.779,48.068,130.111c2.595,6.972,5.828,13.707,9.142,21.423
		c1.777-3.499,3.062-6.129,4.433-8.712c21.005-39.567,45.971-76.446,75.042-110.539c1.837-2.154,3.558-4.407,5.373-6.58
		c5.073-6.074,7.098-12.924,6.173-20.88c-1.273-10.951-1.52-21.889,1.356-32.743c3.524-13.301,11.039-24.027,20.452-33.754
		c34.178-35.317,68.296-70.694,102.376-106.106c43.256-44.947,87.67-88.617,138-125.799c40.791-30.135,84.825-54.351,132.225-72.429
		c12.729-4.855,25.554-7.402,38.997-2.077c-3.792,19.051-14.857,33.847-27.672,47.838c0.681,1.479,1.165,2.865,1.908,4.095
		c11.299,18.69,11.675,38.629,7.604,59.405c-5.561,28.385-17.683,53.063-38.108,73.799c-32.414,32.903-65.316,65.219-102.789,92.478
		c-27.889,20.288-58.352,35.419-90.604,47.69c-30.644,11.658-54.271,31.693-63.26,64.904c-5.251,19.399-10.44,38.903-13.905,58.667
		c-2.37,13.517-1.814,27.559-2.402,41.373c-1.865,43.792-3.653,87.588-5.472,131.382c-4.333,0-8.667,0-13,0
		c1.193-26.594,2.597-53.181,3.517-79.783c0.786-22.757,1.369-45.534,1.315-68.3c-0.02-8.528-2.492-16.903-8.668-24.37
		c-1.887,3.028-3.861,5.373-4.938,8.074c-3.933,9.862-8.06,19.689-11.226,29.808c-12.048,38.517-23.37,77.273-40.084,114.15
		c-3.065,6.765-5.948,13.612-8.916,20.421c-31.333,0-62.667,0-94,0c-3.316-10.576-6.876-21.083-9.896-31.743
		c-5.359-18.925-17.043-33.179-32.196-45.057c-12.136-9.514-26.922-12.109-42.451-17.223c-6.607,31.931-13.032,62.977-19.457,94.022
		C1052.333,2049,1031.667,2049,1011,2049z M1269.705,1811.521c2.598-2.531,5.276-4.985,7.779-7.606
		c17.798-18.646,35.561-37.323,53.313-56.012c0.11-0.115-0.086-0.521-0.143-0.807c-0.295,0.064-0.689,0.028-0.863,0.206
		c-20.09,20.612-40.174,41.23-60.193,61.911c-0.584,0.604-0.481,1.871-0.698,2.828c-1.349,1.212-2.835,2.301-4.025,3.651
		c-32.287,36.646-58.818,77.289-82.944,119.597c-3.353,5.879-5.257,12.093-5.212,19.002c0.024,3.753-0.103,8.088-1.893,11.146
		c-3.411,5.827-2.724,11.368-1.249,17.26c1.252,4.997,2.246,10.064,3.646,15.019c3.421,12.102,7.011,24.155,10.829,37.244
		c3.229-4.631,5.459-8.566,8.38-11.895c20.201-23.017,40.327-46.106,60.902-68.787c24.418-26.916,48.706-53.874,66.172-86.11
		c0.71-1.311,1.601-2.538,2.522-3.714c4.983-6.361,11.126-6.505,16.233-0.18c2.133,2.641,3.764,5.686,5.623,8.547
		c0.485,0.006,0.971,0.011,1.456,0.017c8.079-39.804,14.356-79.895,18.668-121.046c-14.106,8.9-27.325,17.523-40.821,25.688
		C1308.134,1789.005,1288.876,1800.19,1269.705,1811.521z M1128.323,750.399c0.741,0.31,1.482,0.619,2.224,0.929
		c-0.333,2.913-0.321,5.915-1.055,8.723c-4.502,17.212-9.256,34.359-13.66,51.596c-0.453,1.77,0.213,4.567,1.436,5.902
		c7.874,8.599,16.266,16.726,24.084,25.372c30.639,33.887,53.597,72.127,63.988,117.001c3.133,13.532,7.508,26.193,15.854,37.293
		c3.998,5.318,8.122,10.597,12.676,15.435c31.523,33.487,63.175,66.854,94.799,100.248c0.503,0.532,1.171,0.908,1.989,1.529
		c0.19-0.963,0.358-1.429,0.363-1.896c0.607-52.812,1.548-105.623,1.586-158.435c0.011-15.752-1.368-31.704-4.071-47.223
		c-10.834-62.202-18.604-124.759-23.611-187.676c-1.16-14.57-3.19-28.998-11.552-41.356c-17.618-26.038-35.494-51.908-53.674-77.557
		c-6.656-9.392-15.03-16.703-26.2-21.48c-18.901-8.083-37.855-16.576-55.391-27.201c-33.004-19.996-64.947-41.736-97.475-62.527
		c-10.152-6.489-20.766-12.26-31.324-18.451c-0.839,1.429-1.437,2.23-1.816,3.124c-7.216,16.983-14.955,33.77-21.496,51.011
		c-17.394,45.849-34.212,91.916-51.464,137.82c-1.315,3.501-1.22,5.345,1.666,7.964c47.25,42.894,94.371,85.93,141.528,128.927
		c1.048,0.955,2.184,1.815,2.958,2.455C1110.009,784.542,1119.166,767.471,1128.323,750.399z M774.112,904.675
		c2.537-4.679,4.348-8.424,6.515-11.95c14.543-23.669,28.703-47.592,43.927-70.816c9.327-14.229,11.747-28.283,5.89-44.366
		c-5.551-15.237-7.896-31.247-8.281-47.48c-0.676-28.397,7.296-54.52,21.245-78.967c1.71-2.998,1.336-4.729-0.674-7.376
		c-12.97-17.082-25.699-34.347-38.514-51.547c-0.772-1.036-1.602-2.031-2.357-2.985c-2.383,1.059-4.535,1.919-6.604,2.948
		c-17.531,8.724-35.676,16.438-52.39,26.521c-16.19,9.767-27.422,24.491-26.341,44.669c1.156,21.566,2.449,43.305,6.216,64.518
		c9.782,55.092,26.947,108.263,44.795,161.181C769.258,894.121,771.697,898.977,774.112,904.675z M1374.853,1494.702
		c3.97-44.083,7.485-86.991,9.368-130.732c-32.233,19.284-66.694,32.19-97.137,53.97c25.066,23.348,49.557,46.344,74.334,69.025
		C1364.941,1490.19,1369.861,1491.892,1374.853,1494.702z M1575.008,1583.088c-0.482-0.51-0.966-1.021-1.448-1.531
		c-1.87,2.289-3.565,4.753-5.641,6.839c-12.217,12.281-23.966,25.102-36.897,36.585c-46.697,41.466-94.511,81.575-146.414,116.533
		c-1.776,1.197-3.37,3.729-3.695,5.846c-2.089,13.6-3.799,27.256-5.662,41.1c0.653-0.312,1.167-0.432,1.511-0.74
		c14.237-12.779,28.356-25.693,42.735-38.313c5.81-5.098,10.086-11.042,12.456-18.31c1.594-4.888,2.949-9.869,4.114-14.878
		c1.995-8.576,6.266-15.315,13.308-20.938c25.764-20.569,51.411-41.298,76.671-62.48
		C1543.913,1617.816,1560.039,1600.983,1575.008,1583.088z M1120.968,1882.373c-10.917,19.682-16.778,39.914-23.229,60.475
		c19.576,5.729,37.89,13.565,53.904,26.238c0.314-0.389,0.629-0.778,0.943-1.168
		C1142.162,1939.715,1131.738,1911.512,1120.968,1882.373z M1705.354,816.667c-0.364-0.136-0.728-0.272-1.092-0.408
		c-0.761,1.587-1.636,3.131-2.264,4.769c-6.356,16.566-12.959,33.046-18.948,49.746c-21.814,60.825-48.487,119.271-82.746,174.229
		c-37.646,60.39-74.628,121.194-111.891,181.823c-0.914,1.486-1.737,3.028-2.604,4.544c0.38,0.206,0.76,0.412,1.139,0.617
		c4.254-6.341,8.735-12.542,12.722-19.046c22.521-36.735,44.984-73.506,67.344-110.339c20.196-33.271,41.093-66.154,60.148-100.068
		c31.923-56.814,54.495-117.776,76.414-178.944C1704.377,821.355,1704.771,818.978,1705.354,816.667z M713.173,633.168
		c8.564-3.981,14.22-10.488,19.34-17.387c5.795-7.809,4.858-15.366-2.786-21.402c-11.115-8.777-22.768-16.944-28.386-30.796
		C705.256,586.608,709.171,609.633,713.173,633.168z M666.995,1799.777c1.973,0.765,3.912,1.635,5.924,2.28
		c31.242,10.025,62.487,20.044,93.746,30.019c44.132,14.082,88.009,28.828,130.734,46.877
		c26.451,11.175,53.234,21.563,79.898,32.229c2.43,0.973,5.081,1.393,7.629,2.068
		C950.918,1892.377,682.686,1796.496,666.995,1799.777z M862.396,1557.188c-81.085-37.689-167.693-57.094-254.078-77.24
		C693.072,1505.464,779.785,1524.505,862.396,1557.188z M898.21,552.254c-17.375,6.452-34.032,12.639-51.109,18.98
		c8.692,7.31,16.986,14.282,25.425,21.377C881.142,579.072,889.473,565.982,898.21,552.254z M628.592,986.668
		c0.198-0.409,0.396-0.819,0.595-1.229c-63.271-36.709-129.854-66.544-197.144-94.907
		C497.56,922.577,563.075,954.623,628.592,986.668z M1244.163,602.425c0.363-0.218,0.727-0.436,1.09-0.654
		c-1.1-2.123-2.03-4.356-3.324-6.354c-17.465-26.972-38.504-51.261-61.854-72.906c-30.596-28.36-63.496-54.234-95.451-81.125
		c-1.383-1.164-3.219-1.792-4.844-2.669c-0.589,0.69-1.178,1.382-1.766,2.072c1.822,1.139,3.8,2.09,5.444,3.445
		c17.203,14.186,34.261,28.55,51.538,42.644c32.069,26.163,62.503,53.942,87.567,87.137
		C1229.732,583.508,1236.961,592.956,1244.163,602.425z M945.035,284.722c-0.312-0.533-0.623-1.066-0.935-1.599
		c-2.067,0.925-4.196,1.732-6.19,2.794c-32.586,17.346-65.16,34.713-97.726,52.097c-23.35,12.463-45.467,26.65-62.188,47.646
		c-7.668,9.628-14.381,20.018-21.526,30.062c0.46,0.323,0.919,0.647,1.378,0.971c5.006-6.183,10.34-12.131,14.96-18.589
		c17.593-24.593,39.926-43.584,66.662-57.559c28.298-14.79,56.562-29.646,84.814-44.522
		C931.253,292.354,938.121,288.494,945.035,284.722z M800.466,1309.152c-44.006-36.854-93.906-65.971-135.322-106.056
		c-0.271,0.668-0.281,0.999-0.122,1.163c16.938,17.437,34.063,34.704,54.004,48.771c25.669,18.106,51.563,35.896,77.375,53.799
		C797.678,1307.715,799.107,1308.383,800.466,1309.152z M1634.322,528.011c-0.344-0.301-0.688-0.601-1.033-0.901
		c-6.542,4.182-83.398,97.311-84.853,103.113C1577.233,595.951,1605.778,561.981,1634.322,528.011z M1407.98,834.563
		c33.881-52.01,66.994-102.841,98.618-151.388C1472.171,729.813,1439.378,780.786,1407.98,834.563z M944.426,1052.208
		c0.43-0.746,0.859-1.492,1.29-2.238c-27.58-19.409-55.943-37.483-87.111-50.777c7.241,4.351,14.778,8.187,22.145,12.326
		c7.388,4.151,14.684,8.481,21.876,12.963c7.336,4.57,14.526,9.377,21.728,14.16
		C931.079,1043.109,937.737,1047.682,944.426,1052.208z M961.513,350.367c-0.438,0.566-0.874,1.134-1.312,1.701
		c13.975,10.654,27.95,21.31,41.925,31.964c0.381-0.503,0.763-1.007,1.144-1.511C989.351,371.804,975.432,361.085,961.513,350.367z
		 M1127.627,1514.173c0.395,0.305,0.79,0.609,1.185,0.914c8.496-13.498,16.992-26.995,25.488-40.493
		c-0.382-0.239-0.763-0.479-1.145-0.719C1144.646,1487.308,1136.137,1500.74,1127.627,1514.173z M994.938,1149.428
		c0.342,0.264,0.685,0.527,1.027,0.791c3.632-7.957,7.264-15.914,10.896-23.871c-0.535-0.238-1.069-0.476-1.604-0.714
		C1001.817,1133.565,998.378,1141.497,994.938,1149.428z M1414.405,1666.578c0.358,0.357,0.716,0.715,1.073,1.072
		c5.796-6.706,11.591-13.412,17.387-20.118c0.125,0.125,0.249,0.25,0.373,0.376
		C1426.961,1654.131,1420.684,1660.354,1414.405,1666.578z M1212.892,987.137c-0.452,0.306-0.905,0.612-1.357,0.919
		c2.654,5.678,5.309,11.355,7.963,17.034c0.455-0.219,0.91-0.438,1.365-0.657C1218.205,998.668,1215.549,992.902,1212.892,987.137z"
		/>
	<path fill-rule="evenodd" clip-rule="evenodd" d="M1582,2049c1.488-2.118,2.701-4.515,4.51-6.311
		c12.152-12.074,23.805-24.756,36.813-35.838c20.219-17.226,44.751-25.018,70.686-28.859c24.821-3.676,50.122-5.101,74.052-13.232
		c19.968-6.787,39.447-15.001,59.208-22.408c12.349-4.629,25.029-7.868,38.311-8.55c15.643-0.803,29.487,3.56,41.881,13.16
		c3.802,2.945,8.314,4.974,12.164,7.226c-2.121,5.504-5.027,11.827-7.013,18.427c-6.439,21.396-20.291,37.182-37.6,50.325
		c-10.325,7.842-21.017,15.201-31.509,22.824c-1.277,0.928-2.341,2.15-3.503,3.236C1754,2049,1668,2049,1582,2049z"/>
	<path fill-rule="evenodd" clip-rule="evenodd" d="M1852.803,1220.003c-1.02,2.939-1.503,4.786-2.278,6.501
		c-5.571,12.313-13.985,22.682-23.215,32.292c-45.333,47.201-90.906,94.15-138.93,138.683
		c-20.681,19.178-44.704,31.793-71.817,41.44c7.235-5.796,13.751-11.022,20.274-16.239c40.03-32.018,76.005-68.34,111.646-105.026
		c24.947-25.68,49.842-51.419,75.25-76.637c7.128-7.075,15.975-12.427,24.082-18.501
		C1848.938,1221.675,1850.349,1221.22,1852.803,1220.003z"/>
	<path fill-rule="evenodd" clip-rule="evenodd" d="M1208.049,1225.86c-10.902-6.218-21.804-12.437-33.491-19.104
		c5.614,10.194,10.886,19.534,15.855,29.03c0.775,1.48,0.994,4.413,0.082,5.437c-9.521,10.678-19.326,21.102-29.567,32.152
		c-22.066-32.796-44.082-65.517-66.098-98.237c0.273-0.387,0.547-0.773,0.821-1.16c41.542,8.113,78.819,25.924,113.258,50.188
		C1208.623,1224.73,1208.336,1225.296,1208.049,1225.86z"/>
	<path fill-rule="evenodd" clip-rule="evenodd" d="M748.228,282.066c4.899-7.087,10.051-14.017,14.628-21.307
		c4.591-7.313,9.348-14.666,12.743-22.557c12.173-28.286,29.444-53.271,49.234-76.526c17.563-20.638,31.778-43.485,46.306-66.189
		c10.457-16.345,22.516-31.375,38.03-43.323c0.761-0.585,1.557-1.124,3.492-1.146c-2.088,6.385-3.502,13.097-6.41,19.082
		c-5.293,10.892-11.084,21.588-17.363,31.944c-13.706,22.604-27.524,45.156-41.976,67.288c-5.585,8.555-12.139,16.892-19.758,23.624
		c-21.123,18.667-38.406,40.569-55.65,62.599c-7.265,9.281-14.858,18.304-22.303,27.443
		C748.877,282.688,748.552,282.377,748.228,282.066z"/>
	<path fill-rule="evenodd" clip-rule="evenodd" d="M1103.555,1171.776c11.142-6.684,20.881-12.664,30.824-18.282
		c0.996-0.563,3.729,0.6,4.809,1.755c6.931,7.414,13.363,15.305,20.457,22.552c10.34,10.563,21.1,20.716,31.633,31.425
		C1165.132,1190.814,1135.595,1180.147,1103.555,1171.776z"/>
</g>
</svg>
